<?xml version="1.0" standalone="no"?>
 <!DOCTYPE svg PUBLIC "-//W3C//DTD SVG 1.1//EN" 
 "http://www.w3.org/Graphics/SVG/1.1/DTD/svg11.dtd"> 
<svg
  xmlns:svg="http://www.w3.org/2000/svg"
  xmlns="http://www.w3.org/2000/svg"
  xmlns:xlink="http://www.w3.org/1999/xlink"
  version="1.1"
  width="419.9890mm" height="297.0022mm" viewBox="0.0000 0.0000 419.9890 297.0022">
<title>SVG Image created as פרפר-Edge_Cuts.svg date 2025/07/27 23:18:16 </title>
  <desc>Image generated by PCBNEW </desc>
<g style="fill:#000000; fill-opacity:1.0000;stroke:#000000; stroke-opacity:1.0000;
stroke-linecap:round; stroke-linejoin:round;"
 transform="translate(0 0) scale(1 1)">
</g>
<g style="fill:none; 
stroke:#000000; stroke-width:0.0500; stroke-opacity:1; 
stroke-linecap:round; stroke-linejoin:round;">
<path d="M192.7772 123.4250 A1.8000 1.8000 0.0 0 0 194.5772 125.2250" />
<path d="M182.4228 125.2250 A1.8000 1.8000 0.0 0 0 184.2228 123.4250" />
<path d="M198.1144 125.2250
L194.5772 125.2250
" />
<path d="M192.7772 123.4250
L192.7772 119.0750
" />
<path d="M190.9772 117.2750
L186.0228 117.2750
" />
<path d="M184.2228 123.4250
L184.2228 119.0750
" />
<path d="M192.7772 119.0750 A1.8000 1.8000 0.0 0 0 190.9772 117.2750" />
<path d="M186.0228 117.2750 A1.8000 1.8000 0.0 0 0 184.2228 119.0750" />
<path d="M190.3000 61.7250 A1.8000 1.8000 0.0 0 0 192.1000 59.9250" />
<path d="M184.9000 59.9250 A1.8000 1.8000 0.0 0 0 186.7000 61.7250" />
<path d="M184.9000 49.5250 A1.8000 1.8000 0.0 0 0 183.1000 47.7250" />
<path d="M193.9000 47.7250 A1.8000 1.8000 0.0 0 0 192.1000 49.5250" />
<path d="M186.7000 61.7250
L190.3000 61.7250
" />
<path d="M192.1000 49.5250
L192.1000 59.9250
" />
<path d="M184.9000 49.5250
L184.9000 59.9250
" />
<path d="M95.4113 83.8034
L94.6608 85.2165
" />
<path d="M89.7534 84.6458 A1.8002 1.8002 0.0 0 0 87.3191 85.3901" />
<path d="M92.2265 85.9607 A1.8001 1.8001 0.0 0 0 94.6608 85.2165" />
<path d="M104.9093 86.8149
L97.8457 83.0592
" />
<path d="M97.8457 83.0591 A1.8001 1.8001 0.0 0 0 95.4113 83.8034" />
<path d="M84.7840 90.1581
L87.3191 85.3901
" />
<path d="M89.7534 84.6459
L92.2264 85.9607
" />
<path d="M281.5887 83.8034
L282.3392 85.2165
" />
<path d="M272.0907 86.8149
L279.1543 83.0592
" />
<path d="M156.4576 44.8335 A1.8000 1.8000 0.0 0 0 155.7133 42.3992" />
<path d="M156.4576 44.8335
L154.3458 48.7709
" />
<path d="M162.1536 54.9610
L155.0900 51.2053
" />
<path d="M154.3458 48.7709 A1.8001 1.8001 0.0 0 0 155.0900 51.2053" />
<path d="M133.5465 30.6130
L155.7133 42.3992
" />
<path d="M62.8059 42.4565
L61.0400 41.5176
" />
<path d="M50.8745 68.7305 A1.7999 1.7999 0.0 0 0 51.6187 71.1649" />
<path d="M63.5502 44.8909 A1.8000 1.8000 0.0 0 0 62.8059 42.4565" />
<path d="M64.7747 78.1599
L51.6187 71.1649
" />
<path d="M50.8745 68.7305
L63.5502 44.8909
" />
<path d="M60.2957 39.0833
L62.1736 35.5515
" />
<path d="M84.7013 43.4523
L89.1144 35.1526
" />
<path d="M64.6080 34.8072 A1.8000 1.8000 0.0 0 0 62.1736 35.5515" />
<path d="M60.2957 39.0832 A1.8001 1.8001 0.0 0 0 61.0400 41.5176" />
<path d="M82.2670 44.1966
L64.6080 34.8072
" />
<path d="M82.2669 44.1966 A1.8001 1.8001 0.0 0 0 84.7013 43.4523" />
<path d="M314.1941 42.4565
L315.9600 41.5176
" />
<path d="M292.2987 43.4523
L287.8856 35.1526
" />
<path d="M292.2987 43.4523 A1.8001 1.8001 0.0 0 0 294.7330 44.1966" />
<path d="M294.7330 44.1966
L312.3920 34.8072
" />
<path d="M314.8264 35.5515 A1.8000 1.8000 0.0 0 0 312.3920 34.8072" />
<path d="M312.2253 78.1599
L325.3813 71.1649
" />
<path d="M326.1255 68.7305
L313.4498 44.8909
" />
<path d="M325.3813 71.1649 A1.7999 1.7999 0.0 0 0 326.1255 68.7305" />
<path d="M249.3589 102.6391 A1.8000 1.8000 0.0 0 0 251.7932 103.3833" />
<path d="M249.2112 98.5272 A1.8000 1.8000 0.0 0 0 248.4669 100.9615" />
<path d="M249.3589 102.6391
L248.4669 100.9615
" />
<path d="M267.5907 82.1857 A1.8000 1.8000 0.0 0 0 265.1564 81.4414" />
<path d="M287.2466 84.6459
L284.7736 85.9607
" />
<path d="M122.2121 88.9930 A1.8000 1.8000 0.0 0 0 121.4678 86.5587" />
<path d="M121.4678 86.5587
L111.8436 81.4414
" />
<path d="M133.5464 30.6130 A1.8000 1.8000 0.0 0 0 131.1121 31.3573" />
<path d="M249.2897 133.8211
L248.3977 132.1435
" />
<path d="M311.3381 82.0294 A1.3000 1.3000 0.0 0 0 311.8756 80.2713" />
<path d="M270.3025 40.4245 A1.8000 1.8000 0.0 0 0 272.7368 41.1687" />
<path d="M243.4535 30.6130
L221.2915 42.3967
" />
<path d="M107.1589 116.6648 A1.8000 1.8000 0.0 0 0 107.9032 119.0992" />
<path d="M120.3342 92.5248
L122.2120 88.9930
" />
<path d="M197.0000 49.5250
L197.0000 52.4250
" />
<path d="M223.8229 149.4007
L248.5454 136.2555
" />
<path d="M221.3886 148.6564 A1.7999 1.7999 0.0 0 0 223.8229 149.4007" />
<path d="M206.5000 56.0250 A1.8000 1.8000 0.0 0 0 204.7000 54.2250" />
<path d="M206.5000 65.8652 A3.6000 3.6000 0.0 0 0 211.7901 69.0439" />
<path d="M221.9148 51.2028 A1.8001 1.8001 0.0 0 0 222.6591 48.7684" />
<path d="M178.2000 54.2250 A1.8000 1.8000 0.0 0 0 180.0000 52.4250" />
<path d="M162.9074 57.4003
L159.4334 63.9339
" />
<path d="M261.2029 100.4188
L269.8411 116.6649
" />
<path d="M128.5331 100.9614 A1.7999 1.7999 0.0 0 0 127.7888 98.5271" />
<path d="M127.7103 133.8211 A1.8001 1.8001 0.0 0 0 128.4546 136.2554" />
<path d="M216.8223 66.3682 A1.8000 1.8000 0.0 0 0 217.5666 63.9339" />
<path d="M255.9216 94.9591 A1.8001 1.8001 0.0 0 0 256.6658 92.5248" />
<path d="M251.7932 103.3833
L258.7685 99.6746
" />
<path d="M214.8512 54.9585
L221.9148 51.2027
" />
<path d="M255.5322 86.5587
L265.1564 81.4414
" />
<path d="M111.8437 81.4414 A1.8000 1.8000 0.0 0 0 109.4093 82.1857" />
<path d="M112.0495 30.3589
L106.6975 40.4245
" />
<path d="M125.2068 103.3833
L118.2315 99.6746
" />
<path d="M165.2099 69.0438 A3.6000 3.6000 0.0 0 0 170.5000 65.8652" />
<path d="M165.2099 69.0439
L160.1777 66.3682
" />
<path d="M249.1420 129.7094
L269.0968 119.0992
" />
<path d="M249.2112 98.5271
L255.9216 94.9592
" />
<path d="M292.2160 90.1581
L289.6809 85.3901
" />
<path d="M193.9000 47.7250
L195.2000 47.7250
" />
<path d="M172.3000 54.2250 A1.8000 1.8000 0.0 0 0 170.5000 56.0250" />
<path d="M315.9600 41.5176 A1.8000 1.8000 0.0 0 0 316.7043 39.0833" />
<path d="M178.8856 125.2250 A18.0000 18.0000 0.0 0 0 162.9925 134.7746" />
<path d="M197.0000 49.5250 A1.8000 1.8000 0.0 0 0 195.2000 47.7250" />
<path d="M104.2632 41.1687 A1.8000 1.8000 0.0 0 0 106.6975 40.4245" />
<path d="M118.2314 99.6746 A1.8000 1.8000 0.0 0 0 115.7971 100.4188" />
<path d="M65.1244 80.2712 A1.3001 1.3001 0.0 0 0 65.6619 82.0294" />
<path d="M281.5886 83.8034 A1.8001 1.8001 0.0 0 0 279.1543 83.0592" />
<path d="M214.0926 57.4003
L217.5666 63.9339
" />
<path d="M127.8580 129.7094
L107.9032 119.0992
" />
<path d="M269.6564 86.0707
L267.5907 82.1857
" />
<path d="M312.2253 78.1600 A1.3000 1.3000 0.0 0 0 311.6878 79.9181" />
<path d="M287.8856 35.1526 A1.8000 1.8000 0.0 0 0 285.4513 34.4083" />
<path d="M115.7971 100.4188
L107.1589 116.6648
" />
<path d="M181.8000 47.7250 A1.8000 1.8000 0.0 0 0 180.0000 49.5250" />
<path d="M245.8879 31.3573
L247.9854 35.3021
" />
<path d="M220.5473 44.8310
L222.6591 48.7684
" />
<path d="M256.6658 92.5248
L254.7880 88.9930
" />
<path d="M221.2915 42.3967 A1.8000 1.8000 0.0 0 0 220.5473 44.8310" />
<path d="M153.1771 149.4007 A1.7999 1.7999 0.0 0 0 155.6115 148.6564" />
<path d="M65.3122 79.9181 A1.2999 1.2999 0.0 0 0 64.7747 78.1599" />
<path d="M114.4839 29.6146 A1.8000 1.8000 0.0 0 0 112.0495 30.3589" />
<path d="M159.4334 63.9338 A1.8000 1.8000 0.0 0 0 160.1777 66.3682" />
<path d="M264.9505 30.3589 A1.8000 1.8000 0.0 0 0 262.5162 29.6146" />
<path d="M127.7888 98.5271
L121.0784 94.9592
" />
<path d="M180.0000 49.5250
L180.0000 52.4250
" />
<path d="M221.3885 148.6564
L214.0075 134.7746
" />
<path d="M183.1000 47.7250
L181.8000 47.7250
" />
<path d="M125.2068 103.3833 A1.8000 1.8000 0.0 0 0 127.6411 102.6391" />
<path d="M250.4198 36.0464
L262.5162 29.6146
" />
<path d="M131.1121 31.3573
L129.0146 35.3021
" />
<path d="M197.0000 52.4250 A1.8000 1.8000 0.0 0 0 198.8000 54.2250" />
<path d="M206.5000 65.8652
L206.5000 56.0250
" />
<path d="M316.7043 39.0833
L314.8264 35.5515
" />
<path d="M204.7000 54.2250
L198.8000 54.2250
" />
<path d="M170.5000 65.8652
L170.5000 56.0250
" />
<path d="M128.6022 132.1435 A1.7999 1.7999 0.0 0 0 127.8580 129.7091" />
<path d="M249.1420 129.7092 A1.8000 1.8000 0.0 0 0 248.3977 132.1435" />
<path d="M261.2029 100.4188 A1.7999 1.7999 0.0 0 0 258.7685 99.6746" />
<path d="M294.6503 90.9024
L311.3381 82.0294
" />
<path d="M107.3436 86.0707
L109.4093 82.1857
" />
<path d="M127.7103 133.8211
L128.6023 132.1435
" />
<path d="M120.3342 92.5248 A1.7999 1.7999 0.0 0 0 121.0784 94.9592" />
<path d="M311.6878 79.9181
L311.8756 80.2713
" />
<path d="M126.5802 36.0464 A1.8000 1.8000 0.0 0 0 129.0146 35.3021" />
<path d="M172.3000 54.2250
L178.2000 54.2250
" />
<path d="M82.3497 90.9024 A1.8000 1.8000 0.0 0 0 84.7840 90.1581" />
<path d="M248.5455 136.2555 A1.8000 1.8000 0.0 0 0 249.2897 133.8211" />
<path d="M153.1771 149.4006
L128.4546 136.2554
" />
<path d="M245.8879 31.3572 A1.8000 1.8000 0.0 0 0 243.4535 30.6130" />
<path d="M282.3392 85.2165 A1.8001 1.8001 0.0 0 0 284.7736 85.9607" />
<path d="M289.6809 85.3901 A1.8001 1.8001 0.0 0 0 287.2466 84.6459" />
<path d="M272.7368 41.1687
L285.4513 34.4083
" />
<path d="M91.5487 34.4083 A1.8000 1.8000 0.0 0 0 89.1144 35.1526" />
<path d="M162.9074 57.4003 A1.8000 1.8000 0.0 0 0 162.1536 54.9610" />
<path d="M104.9093 86.8149 A1.8000 1.8000 0.0 0 0 107.3436 86.0707" />
<path d="M255.5322 86.5586 A1.8001 1.8001 0.0 0 0 254.7880 88.9930" />
<path d="M214.8464 54.9610 A1.8000 1.8000 0.0 0 0 214.0926 57.4003" />
<path d="M126.5802 36.0464
L114.4838 29.6146
" />
<path d="M214.0075 134.7746 A18.0000 18.0000 0.0 0 0 198.1144 125.2250" />
<path d="M247.9854 35.3021 A1.7999 1.7999 0.0 0 0 250.4198 36.0464" />
<path d="M65.3122 79.9181
L65.1244 80.2713
" />
<path d="M82.3497 90.9024
L65.6619 82.0294
" />
<path d="M314.1941 42.4565 A1.8000 1.8000 0.0 0 0 313.4498 44.8909" />
<path d="M292.2160 90.1581 A1.8000 1.8000 0.0 0 0 294.6503 90.9024" />
<path d="M182.4228 125.2250
L178.8855 125.2250
" />
<path d="M264.9500 30.3580
L270.3025 40.4245
" />
<path d="M104.2632 41.1687
L91.5487 34.4083
" />
<path d="M211.7901 69.0439
L216.8223 66.3682
" />
<path d="M269.0968 119.0992 A1.8000 1.8000 0.0 0 0 269.8411 116.6649" />
<path d="M269.6564 86.0707 A1.8000 1.8000 0.0 0 0 272.0907 86.8149" />
<path d="M127.6411 102.6391
L128.5331 100.9615
" />
<path d="M155.6115 148.6564
L162.9925 134.7746
" />
</g>
<g style="fill:none; 
stroke:#000000; stroke-width:0.0200; stroke-opacity:1; 
stroke-linecap:round; stroke-linejoin:round;">
<circle cx="174.0000" cy="57.9000" r="1.6000" /> 
<circle cx="203.0000" cy="57.9000" r="1.6000" /> 
<circle cx="174.0000" cy="121.9750" r="1.6000" /> 
<circle cx="203.0000" cy="121.9750" r="1.6000" /> 
</g>
<g style="fill:none; 
stroke:#000000; stroke-width:0.0500; stroke-opacity:1; 
stroke-linecap:round; stroke-linejoin:round;">
<path d="M152.2508 48.6545 A0.2400 0.2400 0.0 0 0 152.3635 48.4426" />
<path d="M150.0671 49.8775 A0.2400 0.2400 0.0 0 0 150.3070 49.8691" />
<path d="M152.2835 46.1519 A0.2400 0.2400 0.0 0 0 152.1563 45.9484" />
<path d="M147.9223 48.6011 A0.2400 0.2400 0.0 0 0 148.0495 48.8047" />
<path d="M150.1386 44.8756 A0.2400 0.2400 0.0 0 0 149.8987 44.8839" />
<path d="M147.9550 46.0986 A0.2400 0.2400 0.0 0 0 147.8423 46.3105" />
<path d="M152.2508 48.6545
L150.3070 49.8691
" />
<path d="M152.3635 48.4426
L152.2835 46.1519
" />
<path d="M148.0495 48.8047
L150.0671 49.8775
" />
<path d="M150.1386 44.8756
L152.1563 45.9484
" />
<path d="M147.8423 46.3105
L147.9223 48.6011
" />
<path d="M147.9550 46.0986
L149.8988 44.8839
" />
<path d="M229.1635 46.3074 A0.2400 0.2400 0.0 0 0 229.0508 46.0955" />
<path d="M228.9563 48.8016 A0.2400 0.2400 0.0 0 0 229.0835 48.5981" />
<path d="M227.1070 44.8809 A0.2400 0.2400 0.0 0 0 226.8671 44.8725" />
<path d="M226.6988 49.8661 A0.2400 0.2400 0.0 0 0 226.9386 49.8744" />
<path d="M224.8495 45.9453 A0.2400 0.2400 0.0 0 0 224.7223 46.1489" />
<path d="M224.6423 48.4395 A0.2400 0.2400 0.0 0 0 224.7550 48.6514" />
<path d="M229.1635 46.3074
L229.0835 48.5981
" />
<path d="M229.0508 46.0955
L227.1070 44.8809
" />
<path d="M226.9386 49.8744
L228.9563 48.8016
" />
<path d="M224.8495 45.9453
L226.8671 44.8725
" />
<path d="M224.7550 48.6514
L226.6987 49.8661
" />
<path d="M224.6423 48.4395
L224.7223 46.1489
" />
<path d="M313.8635 38.7074 A0.2400 0.2400 0.0 0 0 313.7508 38.4955" />
<path d="M313.6563 41.2016 A0.2400 0.2400 0.0 0 0 313.7835 40.9981" />
<path d="M311.8070 37.2809 A0.2400 0.2400 0.0 0 0 311.5671 37.2725" />
<path d="M311.3988 42.2661 A0.2400 0.2400 0.0 0 0 311.6386 42.2744" />
<path d="M309.5495 38.3453 A0.2400 0.2400 0.0 0 0 309.4223 38.5489" />
<path d="M309.3423 40.8395 A0.2400 0.2400 0.0 0 0 309.4550 41.0514" />
<path d="M313.8635 38.7074
L313.7835 40.9981
" />
<path d="M313.7508 38.4955
L311.8070 37.2809
" />
<path d="M311.6386 42.2744
L313.6563 41.2016
" />
<path d="M309.5495 38.3453
L311.5671 37.2725
" />
<path d="M309.4550 41.0514
L311.3988 42.2661
" />
<path d="M309.3423 40.8395
L309.4223 38.5489
" />
<path d="M131.6205 106.1258 A0.2400 0.2400 0.0 0 0 131.8324 106.2385" />
<path d="M130.3975 103.9421 A0.2400 0.2400 0.0 0 0 130.4059 104.1820" />
<path d="M134.1231 106.1585 A0.2400 0.2400 0.0 0 0 134.3266 106.0313" />
<path d="M131.6739 101.7973 A0.2400 0.2400 0.0 0 0 131.4703 101.9245" />
<path d="M135.3994 104.0136 A0.2400 0.2400 0.0 0 0 135.3911 103.7738" />
<path d="M134.1764 101.8300 A0.2400 0.2400 0.0 0 0 133.9645 101.7173" />
<path d="M131.6205 106.1258
L130.4059 104.1820
" />
<path d="M131.8324 106.2385
L134.1231 106.1585
" />
<path d="M131.4703 101.9245
L130.3975 103.9421
" />
<path d="M135.3994 104.0136
L134.3266 106.0313
" />
<path d="M133.9645 101.7173
L131.6739 101.7973
" />
<path d="M134.1764 101.8300
L135.3911 103.7737
" />
<path d="M67.5508 41.0545 A0.2400 0.2400 0.0 0 0 67.6635 40.8426" />
<path d="M65.3671 42.2775 A0.2400 0.2400 0.0 0 0 65.6070 42.2691" />
<path d="M67.5835 38.5519 A0.2400 0.2400 0.0 0 0 67.4563 38.3484" />
<path d="M63.2223 41.0011 A0.2400 0.2400 0.0 0 0 63.3495 41.2047" />
<path d="M65.4386 37.2756 A0.2400 0.2400 0.0 0 0 65.1988 37.2839" />
<path d="M63.2550 38.4986 A0.2400 0.2400 0.0 0 0 63.1423 38.7105" />
<path d="M67.5508 41.0545
L65.6070 42.2691
" />
<path d="M67.6635 40.8426
L67.5835 38.5519
" />
<path d="M63.3495 41.2047
L65.3671 42.2775
" />
<path d="M65.4386 37.2756
L67.4563 38.3484
" />
<path d="M63.1423 38.7105
L63.2223 41.0011
" />
<path d="M63.2550 38.4986
L65.1988 37.2839
" />
<path d="M243.0324 101.7115 A0.2400 0.2400 0.0 0 0 242.8205 101.8242" />
<path d="M245.5266 101.9187 A0.2400 0.2400 0.0 0 0 245.3231 101.7915" />
<path d="M241.6059 103.7680 A0.2400 0.2400 0.0 0 0 241.5975 104.0079" />
<path d="M246.5911 104.1762 A0.2400 0.2400 0.0 0 0 246.5994 103.9364" />
<path d="M242.6703 106.0255 A0.2400 0.2400 0.0 0 0 242.8739 106.1527" />
<path d="M245.1645 106.2327 A0.2400 0.2400 0.0 0 0 245.3764 106.1200" />
<path d="M243.0324 101.7115
L245.3231 101.7915
" />
<path d="M242.8205 101.8242
L241.6059 103.7680
" />
<path d="M246.5994 103.9364
L245.5266 101.9187
" />
<path d="M242.6703 106.0255
L241.5975 104.0079
" />
<path d="M245.3764 106.1200
L246.5911 104.1762
" />
<path d="M245.1645 106.2327
L242.8739 106.1527
" />
<path d="M287.1135 79.8574 A0.2400 0.2400 0.0 0 0 287.0008 79.6455" />
<path d="M286.9063 82.3516 A0.2400 0.2400 0.0 0 0 287.0335 82.1481" />
<path d="M285.0570 78.4309 A0.2400 0.2400 0.0 0 0 284.8171 78.4225" />
<path d="M284.6488 83.4161 A0.2400 0.2400 0.0 0 0 284.8886 83.4244" />
<path d="M282.7995 79.4953 A0.2400 0.2400 0.0 0 0 282.6723 79.6989" />
<path d="M282.5923 81.9895 A0.2400 0.2400 0.0 0 0 282.7050 82.2014" />
<path d="M287.1135 79.8574
L287.0335 82.1481
" />
<path d="M287.0008 79.6455
L285.0570 78.4309
" />
<path d="M284.8886 83.4244
L286.9063 82.3516
" />
<path d="M282.7995 79.4953
L284.8171 78.4225
" />
<path d="M282.7050 82.2014
L284.6488 83.4161
" />
<path d="M282.5923 81.9895
L282.6723 79.6989
" />
<path d="M94.3008 82.2045 A0.2400 0.2400 0.0 0 0 94.4135 81.9926" />
<path d="M92.1171 83.4275 A0.2400 0.2400 0.0 0 0 92.3570 83.4191" />
<path d="M94.3335 79.7019 A0.2400 0.2400 0.0 0 0 94.2063 79.4984" />
<path d="M89.9723 82.1511 A0.2400 0.2400 0.0 0 0 90.0995 82.3547" />
<path d="M92.1886 78.4256 A0.2400 0.2400 0.0 0 0 91.9488 78.4339" />
<path d="M90.0050 79.6486 A0.2400 0.2400 0.0 0 0 89.8923 79.8605" />
<path d="M94.3008 82.2045
L92.3570 83.4191
" />
<path d="M94.4135 81.9926
L94.3335 79.7019
" />
<path d="M90.0995 82.3547
L92.1171 83.4275
" />
<path d="M92.1886 78.4256
L94.2063 79.4984
" />
<path d="M89.8923 79.8605
L89.9723 82.1511
" />
<path d="M90.0050 79.6486
L91.9487 78.4339
" />
</g> 
</svg>
