%TF.GenerationSoftware,KiCad,Pcbnew,8.0.8*%
%TF.CreationDate,2025-01-20T03:08:59+01:00*%
%TF.ProjectId,____,e4e8e4e8-2e6b-4696-9361-645f70636258,2.0*%
%TF.SameCoordinates,Original*%
%TF.FileFunction,Paste,Bot*%
%TF.FilePolarity,Positive*%
%FSLAX46Y46*%
G04 Gerber Fmt 4.6, Leading zero omitted, Abs format (unit mm)*
G04 Created by KiCad (PCBNEW 8.0.8) date 2025-01-20 03:08:59*
%MOMM*%
%LPD*%
G01*
G04 APERTURE LIST*
G04 Aperture macros list*
%AMRoundRect*
0 Rectangle with rounded corners*
0 $1 Rounding radius*
0 $2 $3 $4 $5 $6 $7 $8 $9 X,Y pos of 4 corners*
0 Add a 4 corners polygon primitive as box body*
4,1,4,$2,$3,$4,$5,$6,$7,$8,$9,$2,$3,0*
0 Add four circle primitives for the rounded corners*
1,1,$1+$1,$2,$3*
1,1,$1+$1,$4,$5*
1,1,$1+$1,$6,$7*
1,1,$1+$1,$8,$9*
0 Add four rect primitives between the rounded corners*
20,1,$1+$1,$2,$3,$4,$5,0*
20,1,$1+$1,$4,$5,$6,$7,0*
20,1,$1+$1,$6,$7,$8,$9,0*
20,1,$1+$1,$8,$9,$2,$3,0*%
%AMRotRect*
0 Rectangle, with rotation*
0 The origin of the aperture is its center*
0 $1 length*
0 $2 width*
0 $3 Rotation angle, in degrees counterclockwise*
0 Add horizontal line*
21,1,$1,$2,0,0,$3*%
%AMFreePoly0*
4,1,18,-0.410000,0.593000,-0.403758,0.624380,-0.385983,0.650983,-0.359380,0.668758,-0.328000,0.675000,0.328000,0.675000,0.359380,0.668759,0.385983,0.650983,0.403758,0.624380,0.410000,0.593000,0.410000,-0.593000,0.403758,-0.624380,0.385983,-0.650983,0.359380,-0.668758,0.328000,-0.675000,0.000000,-0.675000,-0.409999,-0.265000,-0.410000,0.593000,-0.410000,0.593000,$1*%
G04 Aperture macros list end*
%ADD10RotRect,1.498600X1.143000X19.500000*%
%ADD11RotRect,1.498600X1.143000X15.500000*%
%ADD12RotRect,1.498600X1.143000X340.500000*%
%ADD13RotRect,1.498600X1.143000X344.500000*%
%ADD14RoundRect,0.250000X-1.374493X-0.401739X0.435550X-1.364156X1.374493X0.401739X-0.435550X1.364156X0*%
%ADD15RoundRect,0.250000X-0.435550X-1.364156X1.374493X-0.401739X0.435550X1.364156X-1.374493X0.401739X0*%
%ADD16RoundRect,0.100000X0.225000X0.100000X-0.225000X0.100000X-0.225000X-0.100000X0.225000X-0.100000X0*%
%ADD17RoundRect,0.125000X-0.125000X-0.375000X0.125000X-0.375000X0.125000X0.375000X-0.125000X0.375000X0*%
%ADD18RoundRect,0.250000X-0.350000X-0.600000X0.350000X-0.600000X0.350000X0.600000X-0.350000X0.600000X0*%
%ADD19RoundRect,0.085000X0.273886X-0.049359X-0.194076X0.199461X-0.273886X0.049359X0.194076X-0.199461X0*%
%ADD20RoundRect,0.250000X-0.443736X-0.302032X-0.002262X-0.536768X0.443736X0.302032X0.002262X0.536768X0*%
%ADD21RoundRect,0.250000X0.002262X-0.536768X0.443736X-0.302032X-0.002262X0.536768X-0.443736X0.302032X0*%
%ADD22RoundRect,0.082000X0.369601X-0.568003X0.677575X0.011210X-0.369601X0.568003X-0.677575X-0.011210X0*%
%ADD23FreePoly0,62.000000*%
%ADD24RoundRect,0.082000X-0.677575X0.011210X-0.369601X-0.568003X0.677575X-0.011210X0.369601X0.568003X0*%
%ADD25FreePoly0,298.000000*%
%ADD26RoundRect,0.082000X-0.369601X0.568003X-0.677575X-0.011210X0.369601X-0.568003X0.677575X0.011210X0*%
%ADD27FreePoly0,242.000000*%
%ADD28RoundRect,0.250000X0.443736X0.302032X0.002262X0.536768X-0.443736X-0.302032X-0.002262X-0.536768X0*%
%ADD29RoundRect,0.200000X-0.200000X-0.275000X0.200000X-0.275000X0.200000X0.275000X-0.200000X0.275000X0*%
%ADD30RoundRect,0.082000X0.677575X-0.011210X0.369601X0.568003X-0.677575X0.011210X-0.369601X-0.568003X0*%
%ADD31FreePoly0,118.000000*%
%ADD32RoundRect,0.085000X0.194076X0.199461X-0.273886X-0.049359X-0.194076X-0.199461X0.273886X0.049359X0*%
%ADD33RoundRect,0.218750X-0.218750X-0.381250X0.218750X-0.381250X0.218750X0.381250X-0.218750X0.381250X0*%
%ADD34RoundRect,0.250000X-0.002262X0.536768X-0.443736X0.302032X0.002262X-0.536768X0.443736X-0.302032X0*%
%ADD35RoundRect,0.250000X0.250000X0.475000X-0.250000X0.475000X-0.250000X-0.475000X0.250000X-0.475000X0*%
%ADD36RoundRect,0.250000X0.274090X-0.443036X0.520563X0.020512X-0.274090X0.443036X-0.520563X-0.020512X0*%
%ADD37RoundRect,0.100000X0.100000X-0.350000X0.100000X0.350000X-0.100000X0.350000X-0.100000X-0.350000X0*%
%ADD38RoundRect,0.112500X0.187500X0.112500X-0.187500X0.112500X-0.187500X-0.112500X0.187500X-0.112500X0*%
%ADD39RoundRect,0.225000X0.250000X-0.225000X0.250000X0.225000X-0.250000X0.225000X-0.250000X-0.225000X0*%
%ADD40RoundRect,0.112500X-0.112500X0.187500X-0.112500X-0.187500X0.112500X-0.187500X0.112500X0.187500X0*%
%ADD41RoundRect,0.225000X-0.250000X0.225000X-0.250000X-0.225000X0.250000X-0.225000X0.250000X0.225000X0*%
%ADD42RoundRect,0.200000X0.200000X0.275000X-0.200000X0.275000X-0.200000X-0.275000X0.200000X-0.275000X0*%
%ADD43RoundRect,0.218750X0.218750X0.381250X-0.218750X0.381250X-0.218750X-0.381250X0.218750X-0.381250X0*%
%ADD44RoundRect,0.100000X0.100000X-0.225000X0.100000X0.225000X-0.100000X0.225000X-0.100000X-0.225000X0*%
%ADD45RoundRect,0.250000X-0.443036X-0.274090X0.020512X-0.520563X0.443036X0.274090X-0.020512X0.520563X0*%
%ADD46RoundRect,0.250000X0.262500X0.450000X-0.262500X0.450000X-0.262500X-0.450000X0.262500X-0.450000X0*%
G04 APERTURE END LIST*
D10*
%TO.C,SW45*%
X36939523Y-46622391D03*
X40333031Y-45420687D03*
X36455503Y-45255561D03*
X39849011Y-44053857D03*
%TD*%
D11*
%TO.C,SW46*%
X49251802Y-42608610D03*
X52720870Y-41646552D03*
X48864306Y-41211346D03*
X52333374Y-40249288D03*
%TD*%
D12*
%TO.C,SW48*%
X259666228Y-45421257D03*
X263059736Y-46622961D03*
X260150248Y-44054427D03*
X263543756Y-45256131D03*
%TD*%
D13*
%TO.C,SW47*%
X247278390Y-41647122D03*
X250747458Y-42609180D03*
X247665886Y-40249858D03*
X251134954Y-41211916D03*
%TD*%
D14*
%TO.C,SW18*%
X107627134Y-107147037D03*
X117189667Y-114723180D03*
%TD*%
%TO.C,SW16*%
X115607908Y-92137009D03*
X125170441Y-99713152D03*
%TD*%
D15*
%TO.C,SW33*%
X193096672Y-46736347D03*
X204724881Y-43045173D03*
%TD*%
%TO.C,SW24*%
X173116108Y-124181381D03*
X184744317Y-120490207D03*
%TD*%
D14*
%TO.C,SW12*%
X96898024Y-88984206D03*
X106460557Y-96560349D03*
%TD*%
D15*
%TO.C,SW36*%
X228707531Y-75369657D03*
X240335740Y-71678483D03*
%TD*%
D14*
%TO.C,SW10*%
X100722774Y-43449919D03*
X110285307Y-51026062D03*
%TD*%
%TO.C,SW11*%
X84760741Y-73470136D03*
X94323274Y-81046279D03*
%TD*%
%TO.C,SW19*%
X120703361Y-120895213D03*
X130265894Y-128471356D03*
%TD*%
D15*
%TO.C,SW29*%
X180959386Y-62250414D03*
X192587595Y-58559240D03*
%TD*%
D14*
%TO.C,SW5*%
X42176781Y-76876954D03*
X51739314Y-84453097D03*
%TD*%
%TO.C,SW17*%
X84222530Y-112823709D03*
X93785063Y-120399852D03*
%TD*%
%TO.C,SW2*%
X35673156Y-50767512D03*
X45235689Y-58343655D03*
%TD*%
D15*
%TO.C,SW41*%
X258146289Y-54053945D03*
X269774498Y-50362771D03*
%TD*%
D14*
%TO.C,SW13*%
X104879039Y-73974094D03*
X114441572Y-81550237D03*
%TD*%
D15*
%TO.C,SW42*%
X266127306Y-69064054D03*
X277755515Y-65372880D03*
%TD*%
%TO.C,SW39*%
X212745500Y-45349440D03*
X224373709Y-41658266D03*
%TD*%
D14*
%TO.C,SW9*%
X92741757Y-58460027D03*
X102304290Y-66036170D03*
%TD*%
D15*
%TO.C,SW25*%
X186192334Y-110433208D03*
X197820543Y-106742034D03*
%TD*%
%TO.C,SW38*%
X251642663Y-80163384D03*
X263270872Y-76472210D03*
%TD*%
%TO.C,SW22*%
X181097121Y-139191490D03*
X192725330Y-135500316D03*
%TD*%
D14*
%TO.C,SW15*%
X123588926Y-77126897D03*
X133151459Y-84703040D03*
%TD*%
D15*
%TO.C,SW34*%
X201077688Y-61746456D03*
X212705897Y-58055282D03*
%TD*%
%TO.C,SW28*%
X170230517Y-80413328D03*
X181858726Y-76722154D03*
%TD*%
D14*
%TO.C,SW8*%
X73092926Y-57073120D03*
X82655459Y-64649263D03*
%TD*%
%TO.C,SW21*%
X112722343Y-135905317D03*
X122284876Y-143481460D03*
%TD*%
D15*
%TO.C,SW26*%
X209596935Y-116109881D03*
X221225144Y-112418707D03*
%TD*%
%TO.C,SW31*%
X196921420Y-92270633D03*
X208549629Y-88579459D03*
%TD*%
%TO.C,SW35*%
X220726517Y-60359550D03*
X232354726Y-56668376D03*
%TD*%
D14*
%TO.C,SW6*%
X50157796Y-61866845D03*
X59720329Y-69442988D03*
%TD*%
%TO.C,SW14*%
X112860055Y-58963987D03*
X122422588Y-66540130D03*
%TD*%
D15*
%TO.C,SW37*%
X243661646Y-65153275D03*
X255289855Y-61462101D03*
%TD*%
D14*
%TO.C,SW1*%
X27692139Y-65777622D03*
X37254672Y-73353765D03*
%TD*%
%TO.C,SW4*%
X81073945Y-42063011D03*
X90636478Y-49639154D03*
%TD*%
D15*
%TO.C,SW40*%
X235680630Y-50143165D03*
X247308839Y-46451991D03*
%TD*%
D14*
%TO.C,SW20*%
X99646117Y-122157146D03*
X109208650Y-129733289D03*
%TD*%
D15*
%TO.C,SW32*%
X209058703Y-76756563D03*
X220686912Y-73065389D03*
%TD*%
D14*
%TO.C,SW7*%
X65111912Y-72083229D03*
X74674445Y-79659372D03*
%TD*%
%TO.C,SW3*%
X58138814Y-46856736D03*
X67701347Y-54432879D03*
%TD*%
D15*
%TO.C,SW23*%
X194173351Y-125443314D03*
X205801560Y-121752140D03*
%TD*%
%TO.C,SW27*%
X178211534Y-95423438D03*
X189839743Y-91732264D03*
%TD*%
%TO.C,SW30*%
X188940404Y-77260525D03*
X200568613Y-73569351D03*
%TD*%
D16*
%TO.C,D45*%
X150650000Y-100290000D03*
X150650000Y-100940000D03*
X150650000Y-101590000D03*
X148750000Y-101590000D03*
X148750000Y-100940000D03*
X148750000Y-100290000D03*
%TD*%
D17*
%TO.C,J4*%
X240800000Y-42150000D03*
X241600000Y-42150000D03*
X242400000Y-42150000D03*
X243200000Y-42150000D03*
D18*
X239500000Y-40200000D03*
X244500000Y-40200000D03*
%TD*%
D19*
%TO.C,U7*%
X48256946Y-48810630D03*
X48022211Y-49252104D03*
X47787475Y-49693577D03*
X46463054Y-48989370D03*
X46697789Y-48547896D03*
X46932525Y-48106423D03*
%TD*%
D20*
%TO.C,C3*%
X109811200Y-121354002D03*
X111488800Y-122245998D03*
%TD*%
D21*
%TO.C,C31*%
X183191200Y-86465998D03*
X184868800Y-85574002D03*
%TD*%
D22*
%TO.C,D24*%
X69086072Y-66238478D03*
X68381865Y-67562900D03*
X73898135Y-68797100D03*
D23*
X73193928Y-70121522D03*
%TD*%
D24*
%TO.C,D11*%
X203934207Y-53964422D03*
X203230000Y-52640000D03*
X199122142Y-56523042D03*
D25*
X198417935Y-55198620D03*
%TD*%
D20*
%TO.C,C38*%
X37951200Y-64954002D03*
X39628800Y-65845998D03*
%TD*%
D26*
%TO.C,D7*%
X112913929Y-72011521D03*
X113618136Y-70687099D03*
X108101864Y-69452901D03*
D27*
X108806071Y-68128479D03*
%TD*%
D20*
%TO.C,C8*%
X115071200Y-73154002D03*
X116748800Y-74045998D03*
%TD*%
D26*
%TO.C,D31*%
X107703929Y-120191521D03*
X108408136Y-118867099D03*
X102891864Y-117632901D03*
D27*
X103596071Y-116308479D03*
%TD*%
D28*
%TO.C,C4*%
X93138800Y-128395998D03*
X91461200Y-127504002D03*
%TD*%
D19*
%TO.C,U1*%
X61824421Y-87504207D03*
X61589686Y-87945681D03*
X61354950Y-88387154D03*
X60030529Y-87682947D03*
X60265264Y-87241473D03*
X60500000Y-86800000D03*
%TD*%
D29*
%TO.C,R2*%
X126025000Y-108320000D03*
X127675000Y-108320000D03*
%TD*%
D16*
%TO.C,D47*%
X152180000Y-111610000D03*
X152180000Y-112260000D03*
X152180000Y-112910000D03*
X150280000Y-112910000D03*
X150280000Y-112260000D03*
X150280000Y-111610000D03*
%TD*%
D30*
%TO.C,D19*%
X194300001Y-85660000D03*
X195004208Y-86984422D03*
X199112064Y-83101378D03*
D31*
X199816271Y-84425800D03*
%TD*%
D28*
%TO.C,C42*%
X22337600Y-72441996D03*
X20660000Y-71550000D03*
%TD*%
D26*
%TO.C,D3*%
X35873929Y-63821521D03*
X36578136Y-62497099D03*
X31061864Y-61262901D03*
D27*
X31766071Y-59938479D03*
%TD*%
D30*
%TO.C,D20*%
X183611865Y-103847100D03*
X184316072Y-105171522D03*
X188423928Y-101288478D03*
D31*
X189128135Y-102612900D03*
%TD*%
D24*
%TO.C,D38*%
X262492065Y-87411380D03*
X261787858Y-86086958D03*
X257680000Y-89970000D03*
D25*
X256975793Y-88645578D03*
%TD*%
D32*
%TO.C,U12*%
X239530529Y-86717053D03*
X239765265Y-87158526D03*
X240000000Y-87600000D03*
X238675579Y-88304207D03*
X238440843Y-87862734D03*
X238206108Y-87421260D03*
%TD*%
D33*
%TO.C,FB3*%
X140977500Y-128820000D03*
X143102500Y-128820000D03*
%TD*%
D32*
%TO.C,U2*%
X202730529Y-110517053D03*
X202965265Y-110958526D03*
X203200000Y-111400000D03*
X201875579Y-112104207D03*
X201640843Y-111662734D03*
X201406108Y-111221260D03*
%TD*%
D34*
%TO.C,C33*%
X212168800Y-124344002D03*
X210491200Y-125235998D03*
%TD*%
D21*
%TO.C,C41*%
X264641200Y-86305998D03*
X266318800Y-85414002D03*
%TD*%
D32*
%TO.C,U4*%
X181754950Y-56512846D03*
X181989686Y-56954319D03*
X182224421Y-57395793D03*
X180900000Y-58100000D03*
X180665264Y-57658527D03*
X180430529Y-57217053D03*
%TD*%
D24*
%TO.C,D34*%
X197078136Y-117642901D03*
X196373929Y-116318479D03*
X192266071Y-120201521D03*
D25*
X191561864Y-118877099D03*
%TD*%
D28*
%TO.C,C5*%
X78818800Y-119595998D03*
X77141200Y-118704002D03*
%TD*%
D20*
%TO.C,C43*%
X122891200Y-135114002D03*
X124568800Y-136005998D03*
%TD*%
D28*
%TO.C,C18*%
X44778800Y-68565998D03*
X43101200Y-67674002D03*
%TD*%
D29*
%TO.C,R3*%
X124525000Y-112880000D03*
X126175000Y-112880000D03*
%TD*%
D20*
%TO.C,C6*%
X125570000Y-91480000D03*
X127247600Y-92371996D03*
%TD*%
D24*
%TO.C,D33*%
X183958136Y-131372901D03*
X183253929Y-130048479D03*
X179146071Y-133931521D03*
D25*
X178441864Y-132607099D03*
%TD*%
D35*
%TO.C,C1*%
X161400000Y-73040000D03*
X159500000Y-73040000D03*
%TD*%
D28*
%TO.C,C7*%
X110238800Y-98825998D03*
X108561200Y-97934002D03*
%TD*%
D34*
%TO.C,C23*%
X223308800Y-68574002D03*
X221631200Y-69465998D03*
%TD*%
D16*
%TO.C,D46*%
X152180000Y-106630000D03*
X152180000Y-107280000D03*
X152180000Y-107930000D03*
X150280000Y-107930000D03*
X150280000Y-107280000D03*
X150280000Y-106630000D03*
%TD*%
D21*
%TO.C,C20*%
X248691200Y-56305998D03*
X250368800Y-55414002D03*
%TD*%
D36*
%TO.C,R1*%
X30191607Y-52075690D03*
X31048393Y-50464310D03*
%TD*%
D37*
%TO.C,RN2*%
X155760000Y-104250000D03*
X154960000Y-104250000D03*
X154160000Y-104250000D03*
X153360000Y-104250000D03*
X153360000Y-102550000D03*
X154160000Y-102550000D03*
X154960000Y-102550000D03*
X155760000Y-102550000D03*
%TD*%
D20*
%TO.C,C16*%
X67211200Y-86484002D03*
X68888800Y-87375998D03*
%TD*%
D26*
%TO.C,D27*%
X42283929Y-89911521D03*
X42988136Y-88587099D03*
X37471864Y-87352901D03*
D27*
X38176071Y-86028479D03*
%TD*%
D38*
%TO.C,D48*%
X161452013Y-70912437D03*
X159352013Y-70912437D03*
%TD*%
D39*
%TO.C,C44*%
X126100000Y-111375000D03*
X126100000Y-109825000D03*
%TD*%
D21*
%TO.C,C25*%
X206071200Y-52835998D03*
X207748800Y-51944002D03*
%TD*%
D30*
%TO.C,D40*%
X199481864Y-133887099D03*
X200186071Y-135211521D03*
X204293929Y-131328479D03*
D31*
X204998136Y-132652901D03*
%TD*%
D34*
%TO.C,C26*%
X203638800Y-69994002D03*
X201961200Y-70885998D03*
%TD*%
D28*
%TO.C,C15*%
X67708800Y-63805998D03*
X66031200Y-62914002D03*
%TD*%
D24*
%TO.C,D35*%
X207718136Y-99512901D03*
X207013929Y-98188479D03*
X202906071Y-102071521D03*
D25*
X202201864Y-100747099D03*
%TD*%
D40*
%TO.C,D49*%
X149210000Y-80730000D03*
X149210000Y-82830000D03*
%TD*%
D21*
%TO.C,C30*%
X209931200Y-98415998D03*
X211608800Y-97524002D03*
%TD*%
D20*
%TO.C,C11*%
X102931200Y-57604002D03*
X104608800Y-58495998D03*
%TD*%
D37*
%TO.C,RN1*%
X146670000Y-104250000D03*
X145870000Y-104250000D03*
X145070000Y-104250000D03*
X144270000Y-104250000D03*
X144270000Y-102550000D03*
X145070000Y-102550000D03*
X145870000Y-102550000D03*
X146670000Y-102550000D03*
%TD*%
D34*
%TO.C,C35*%
X196728800Y-133684002D03*
X195051200Y-134575998D03*
%TD*%
D20*
%TO.C,C13*%
X86931200Y-87884002D03*
X88608800Y-88775998D03*
%TD*%
D41*
%TO.C,C45*%
X128260000Y-109825000D03*
X128260000Y-111375000D03*
%TD*%
D42*
%TO.C,R5*%
X173975000Y-108320000D03*
X172325000Y-108320000D03*
%TD*%
D21*
%TO.C,C22*%
X225721200Y-51455998D03*
X227398800Y-50564002D03*
%TD*%
D22*
%TO.C,D42*%
X108726071Y-145058479D03*
X108021864Y-146382901D03*
X113538136Y-147617099D03*
D23*
X112833929Y-148941521D03*
%TD*%
D21*
%TO.C,C24*%
X241701200Y-81495998D03*
X243378800Y-80604002D03*
%TD*%
D34*
%TO.C,C32*%
X180768800Y-103644002D03*
X179091200Y-104535998D03*
%TD*%
D43*
%TO.C,FB1*%
X157532500Y-67210000D03*
X155407500Y-67210000D03*
%TD*%
D22*
%TO.C,D44*%
X80250000Y-121970000D03*
X79545793Y-123294422D03*
X85062065Y-124528620D03*
D23*
X84357858Y-125853042D03*
%TD*%
D22*
%TO.C,D22*%
X100924207Y-83125579D03*
X100220001Y-84450000D03*
X105736271Y-85684200D03*
D23*
X105032065Y-87008621D03*
%TD*%
D44*
%TO.C,U13*%
X144042500Y-72080000D03*
X143392500Y-72080000D03*
X142742500Y-72080000D03*
X142742500Y-70180000D03*
X144042500Y-70180000D03*
%TD*%
D24*
%TO.C,D9*%
X181170000Y-87550000D03*
X180465793Y-86225578D03*
X176357935Y-90108620D03*
D25*
X175653728Y-88784198D03*
%TD*%
D16*
%TO.C,D1*%
X148640000Y-106630000D03*
X148640000Y-107280000D03*
X148640000Y-107930000D03*
X146740000Y-107930000D03*
X146740000Y-107280000D03*
X146740000Y-106630000D03*
%TD*%
D21*
%TO.C,C28*%
X193981200Y-68405998D03*
X195658800Y-67514002D03*
%TD*%
D30*
%TO.C,D17*%
X226123729Y-68754200D03*
X226827936Y-70078622D03*
X230935792Y-66195578D03*
D31*
X231639999Y-67520000D03*
%TD*%
D22*
%TO.C,D43*%
X95646071Y-131308479D03*
X94941864Y-132632901D03*
X100458136Y-133867099D03*
D23*
X99753929Y-135191521D03*
%TD*%
D24*
%TO.C,D36*%
X219902065Y-83961380D03*
X219197858Y-82636958D03*
X215090000Y-86520000D03*
D25*
X214385793Y-85195578D03*
%TD*%
D24*
%TO.C,D14*%
X268980000Y-61280000D03*
X268275793Y-59955578D03*
X264167935Y-63838620D03*
D25*
X263463728Y-62514198D03*
%TD*%
D19*
%TO.C,U5*%
X46669471Y-51917053D03*
X46434736Y-52358527D03*
X46200000Y-52800000D03*
X44875579Y-52095793D03*
X45110314Y-51654319D03*
X45345050Y-51212846D03*
%TD*%
D42*
%TO.C,R4*%
X175515000Y-112910000D03*
X173865000Y-112910000D03*
%TD*%
D26*
%TO.C,D5*%
X81143929Y-55091521D03*
X81848136Y-53767099D03*
X76331864Y-52532901D03*
D27*
X77036071Y-51208479D03*
%TD*%
D45*
%TO.C,R6*%
X115194310Y-151271607D03*
X116805690Y-152128393D03*
%TD*%
D26*
%TO.C,D29*%
X84913929Y-86531521D03*
X85618136Y-85207099D03*
X80101864Y-83972901D03*
D27*
X80806071Y-82648479D03*
%TD*%
D26*
%TO.C,D30*%
X96993929Y-102011521D03*
X97698136Y-100687099D03*
X92181864Y-99452901D03*
D27*
X92886071Y-98128479D03*
%TD*%
D22*
%TO.C,D25*%
X46136072Y-71018478D03*
X45431865Y-72342900D03*
X50948135Y-73577100D03*
D23*
X50243928Y-74901522D03*
%TD*%
D20*
%TO.C,C10*%
X99071200Y-103224002D03*
X100748800Y-104115998D03*
%TD*%
D46*
%TO.C,R7*%
X147842500Y-72080000D03*
X146017500Y-72080000D03*
%TD*%
D32*
%TO.C,U8*%
X254855264Y-51078527D03*
X255090000Y-51520000D03*
X255324735Y-51961474D03*
X254000314Y-52665681D03*
X253765578Y-52224208D03*
X253530843Y-51782734D03*
%TD*%
D33*
%TO.C,FB2*%
X142065000Y-67210000D03*
X144190000Y-67210000D03*
%TD*%
D34*
%TO.C,C29*%
X191518800Y-85514002D03*
X189841200Y-86405998D03*
%TD*%
D22*
%TO.C,D23*%
X88726072Y-67628478D03*
X88021865Y-68952900D03*
X93538135Y-70187100D03*
D23*
X92833928Y-71511522D03*
%TD*%
D30*
%TO.C,D18*%
X206431865Y-70217100D03*
X207136072Y-71541522D03*
X211243928Y-67658478D03*
D31*
X211948135Y-68982900D03*
%TD*%
D19*
%TO.C,U9*%
X119124421Y-56904207D03*
X118889686Y-57345681D03*
X118654950Y-57787154D03*
X117330529Y-57082947D03*
X117565264Y-56641473D03*
X117800000Y-56200000D03*
%TD*%
D21*
%TO.C,C36*%
X186161200Y-130485998D03*
X187838800Y-129594002D03*
%TD*%
D17*
%TO.C,J3*%
X56800000Y-42150000D03*
X57600000Y-42150000D03*
X58400000Y-42150000D03*
X59200000Y-42150000D03*
D18*
X55500000Y-40200000D03*
X60500000Y-40200000D03*
%TD*%
D19*
%TO.C,U3*%
X70924421Y-92404207D03*
X70689686Y-92845681D03*
X70454950Y-93287154D03*
X69130529Y-92582947D03*
X69365264Y-92141473D03*
X69600000Y-91700000D03*
%TD*%
D22*
%TO.C,D21*%
X111646071Y-101338479D03*
X110941865Y-102662900D03*
X116458135Y-103897100D03*
D23*
X115753929Y-105221521D03*
%TD*%
D28*
%TO.C,C9*%
X99508800Y-80675998D03*
X97831200Y-79784002D03*
%TD*%
D26*
%TO.C,D8*%
X123693929Y-90151521D03*
X124398136Y-88827099D03*
X118881864Y-87592901D03*
D27*
X119586071Y-86268479D03*
%TD*%
D22*
%TO.C,D26*%
X23676072Y-74938478D03*
X22971865Y-76262900D03*
X28488135Y-77497100D03*
D23*
X27783928Y-78821522D03*
%TD*%
D24*
%TO.C,D37*%
X239528136Y-82632901D03*
X238823929Y-81308479D03*
X234716071Y-85191521D03*
D25*
X234011864Y-83867099D03*
%TD*%
D39*
%TO.C,C47*%
X173910000Y-111385000D03*
X173910000Y-109835000D03*
%TD*%
D21*
%TO.C,C27*%
X222011200Y-82845998D03*
X223688800Y-81954002D03*
%TD*%
D26*
%TO.C,D6*%
X100883929Y-56511521D03*
X101588136Y-55187099D03*
X96071864Y-53952901D03*
D27*
X96776071Y-52628479D03*
%TD*%
D26*
%TO.C,D4*%
X58243929Y-59861521D03*
X58948136Y-58537099D03*
X53431864Y-57302901D03*
D27*
X54136071Y-55978479D03*
%TD*%
D20*
%TO.C,C39*%
X44371200Y-91094002D03*
X46048800Y-91985998D03*
%TD*%
D24*
%TO.C,D10*%
X191848136Y-69432901D03*
X191143929Y-68108479D03*
X187036071Y-71991521D03*
D25*
X186331864Y-70667099D03*
%TD*%
D30*
%TO.C,D15*%
X271511865Y-77477100D03*
X272216072Y-78801522D03*
X276323928Y-74918478D03*
D31*
X277028135Y-76242900D03*
%TD*%
D30*
%TO.C,D16*%
X248980001Y-73560000D03*
X249684208Y-74884422D03*
X253792064Y-71001378D03*
D31*
X254496271Y-72325800D03*
%TD*%
D32*
%TO.C,U6*%
X253235264Y-47998527D03*
X253470000Y-48440000D03*
X253704735Y-48881474D03*
X252380314Y-49585681D03*
X252145578Y-49144208D03*
X251910843Y-48702734D03*
%TD*%
D34*
%TO.C,C21*%
X246258800Y-73414002D03*
X244581200Y-74305998D03*
%TD*%
D26*
%TO.C,D28*%
X65193929Y-85121521D03*
X65898136Y-83797099D03*
X60381864Y-82562901D03*
D27*
X61086071Y-81238479D03*
%TD*%
D28*
%TO.C,C12*%
X87388800Y-65135998D03*
X85711200Y-64244002D03*
%TD*%
D34*
%TO.C,C40*%
X268668800Y-77254002D03*
X266991200Y-78145998D03*
%TD*%
D16*
%TO.C,D2*%
X155720000Y-106630000D03*
X155720000Y-107280000D03*
X155720000Y-107930000D03*
X153820000Y-107930000D03*
X153820000Y-107280000D03*
X153820000Y-106630000D03*
%TD*%
D24*
%TO.C,D13*%
X246594207Y-57364422D03*
X245890000Y-56040000D03*
X241782142Y-59923042D03*
D25*
X241077935Y-58598620D03*
%TD*%
D41*
%TO.C,C46*%
X171730000Y-109825000D03*
X171730000Y-111375000D03*
%TD*%
D35*
%TO.C,C48*%
X147860000Y-70010000D03*
X145960000Y-70010000D03*
%TD*%
D26*
%TO.C,D32*%
X120793929Y-133941521D03*
X121498136Y-132617099D03*
X115981864Y-131382901D03*
D27*
X116686071Y-130058479D03*
%TD*%
D34*
%TO.C,C37*%
X183668800Y-147444002D03*
X181991200Y-148335998D03*
%TD*%
D30*
%TO.C,D41*%
X186481864Y-147617099D03*
X187186071Y-148941521D03*
X191293929Y-145058479D03*
D31*
X191998136Y-146382901D03*
%TD*%
D32*
%TO.C,U10*%
X230427475Y-91606423D03*
X230662211Y-92047896D03*
X230896946Y-92489370D03*
X229572525Y-93193577D03*
X229337789Y-92752104D03*
X229103054Y-92310630D03*
%TD*%
D28*
%TO.C,C2*%
X107378800Y-142665998D03*
X105701200Y-141774002D03*
%TD*%
D21*
%TO.C,C34*%
X199161200Y-116535998D03*
X200838800Y-115644002D03*
%TD*%
%TO.C,C19*%
X271121200Y-60135998D03*
X272798800Y-59244002D03*
%TD*%
D20*
%TO.C,C14*%
X83252400Y-56248004D03*
X84930000Y-57140000D03*
%TD*%
%TO.C,C17*%
X60341200Y-61004002D03*
X62018800Y-61895998D03*
%TD*%
D30*
%TO.C,D39*%
X214895793Y-124555578D03*
X215600000Y-125880000D03*
X219707858Y-121996958D03*
D31*
X220412065Y-123321380D03*
%TD*%
D24*
%TO.C,D12*%
X223618136Y-52502901D03*
X222913929Y-51178479D03*
X218806071Y-55061521D03*
D25*
X218101864Y-53737099D03*
%TD*%
D19*
%TO.C,U11*%
X98524421Y-111304207D03*
X98289686Y-111745681D03*
X98054950Y-112187154D03*
X96730529Y-111482947D03*
X96965264Y-111041473D03*
X97200000Y-110600000D03*
%TD*%
M02*
