%TF.GenerationSoftware,KiCad,Pcbnew,9.0.2*%
%TF.CreationDate,2025-06-13T18:26:37+01:00*%
%TF.ProjectId,____,e4e8e4e8-2e6b-4696-9361-645f70636258,2.0*%
%TF.SameCoordinates,Original*%
%TF.FileFunction,Drillmap*%
%TF.FilePolarity,Positive*%
%FSLAX45Y45*%
G04 Gerber Fmt 4.5, Leading zero omitted, Abs format (unit mm)*
G04 Created by KiCad (PCBNEW 9.0.2) date 2025-06-13 18:26:37*
%MOMM*%
%LPD*%
G01*
G04 APERTURE LIST*
%ADD10C,0.050000*%
%ADD11C,0.200000*%
%ADD12C,0.110000*%
G04 APERTURE END LIST*
D10*
X22665636Y-8946644D02*
G75*
G02*
X22909069Y-9021071I84504J-158926D01*
G01*
X24684740Y-9186847D02*
X24799573Y-9125852D01*
X8296778Y-9458366D02*
G75*
G02*
X8371207Y-9701803I-84508J-158934D01*
G01*
X8296778Y-9458366D02*
X7334364Y-8946644D01*
X9261210Y-3938225D02*
G75*
G02*
X9504645Y-3863800I158930J-84505D01*
G01*
X25679639Y-5328112D02*
G75*
G02*
X25436206Y-5253685I-84500J158942D01*
G01*
X21078970Y-14184611D02*
X20989772Y-14016852D01*
X27337558Y-8829625D02*
G75*
G02*
X27283807Y-9005442I-114778J-61035D01*
G01*
X23423684Y-4919374D02*
G75*
G02*
X23180248Y-4844949I-84505J158934D01*
G01*
X18782434Y-4774568D02*
X20495355Y-3863799D01*
X6940320Y-12712420D02*
G75*
G02*
X6865894Y-12468984I84500J158930D01*
G01*
X8183416Y-10054980D02*
X8371204Y-9701802D01*
X4563795Y-5253686D02*
X5061436Y-4317761D01*
X15850000Y-5755000D02*
X15850000Y-6045000D01*
X11217566Y-4774568D02*
G75*
G02*
X11291993Y-5018004I-84506J-158932D01*
G01*
X21152734Y-11234728D02*
G75*
G02*
X20909300Y-11160300I-84504J158928D01*
G01*
X18532289Y-15742567D02*
X21004542Y-14428046D01*
X18532289Y-15742567D02*
G75*
G02*
X18288862Y-15668136I-84499J158927D01*
G01*
X16620000Y-6225000D02*
G75*
G02*
X16800000Y-6405000I0J-180000D01*
G01*
X17329008Y-7706886D02*
G75*
G02*
X16799997Y-7389024I-169008J317866D01*
G01*
X18555759Y-5604979D02*
G75*
G02*
X18481334Y-5848416I-158949J-84501D01*
G01*
X14150000Y-6045000D02*
G75*
G02*
X13970000Y-6225000I-180000J0D01*
G01*
X12440736Y-6542533D02*
X12093342Y-7195886D01*
X22270290Y-10844385D02*
X23134106Y-12468986D01*
X9105473Y-10749105D02*
G75*
G02*
X9179897Y-10992538I-84493J-158925D01*
G01*
X8995458Y-14428044D02*
G75*
G02*
X8921030Y-14184609I84512J158934D01*
G01*
X17906658Y-7195886D02*
G75*
G02*
X17832230Y-7439320I-158928J-84504D01*
G01*
X21816584Y-10054980D02*
G75*
G02*
X21742157Y-10298415I-158944J-84500D01*
G01*
X21152734Y-11234728D02*
X22026855Y-10769956D01*
X17635123Y-6298349D02*
X18481333Y-5848415D01*
X21703222Y-9458366D02*
X22665636Y-8946644D01*
X1311874Y-7918986D02*
G75*
G02*
X1237446Y-7675549I84516J158936D01*
G01*
X7090929Y-9021070D02*
G75*
G02*
X7334365Y-8946642I158931J-84500D01*
G01*
X7354948Y-3838388D02*
X6819751Y-4844948D01*
X12364887Y-6298354D02*
X11518667Y-5848415D01*
X20820100Y-10992540D02*
G75*
G02*
X20894530Y-10749110I158930J84500D01*
G01*
X2468135Y-4977519D02*
G75*
G02*
X2542562Y-5220954I-84505J-158931D01*
G01*
X8847266Y-11234728D02*
X7973145Y-10769956D01*
X25679639Y-5328112D02*
X27286606Y-4473676D01*
X13200000Y-7389024D02*
G75*
G02*
X12670994Y-7706883I-360000J4D01*
G01*
X11342945Y-5305587D02*
X11387092Y-5329060D01*
X6640926Y-9483993D02*
X5802126Y-9037995D01*
X12670992Y-7706886D02*
X12167769Y-7439322D01*
X21064199Y-13773438D02*
X23059680Y-12712422D01*
X20894527Y-10749105D02*
X21742158Y-10298416D01*
X25371597Y-9818310D02*
X25043000Y-9200278D01*
X15000000Y-5575000D02*
X15670000Y-5575000D01*
X13200000Y-6405000D02*
G75*
G02*
X13380000Y-6225000I180000J0D01*
G01*
X27623935Y-4724689D02*
G75*
G02*
X27549507Y-4968121I-158935J-84501D01*
G01*
X12449245Y-14279959D02*
G75*
G02*
X14038555Y-13325000I1589310J-845041D01*
G01*
X15670000Y-5575000D02*
G75*
G02*
X15850000Y-5755000I0J-180000D01*
G01*
X6819751Y-4844948D02*
G75*
G02*
X6576316Y-4919373I-158931J84508D01*
G01*
X7729710Y-10844383D02*
G75*
G02*
X7973144Y-10769958I158930J-84508D01*
G01*
X2716194Y-9005440D02*
G75*
G02*
X2662439Y-8829624I61046J114790D01*
G01*
X27286606Y-4473676D02*
G75*
G02*
X27530042Y-4548102I84504J-158934D01*
G01*
X24197874Y-9037995D02*
G75*
G02*
X24441304Y-9112424I84496J-158945D01*
G01*
X17559264Y-6542533D02*
X17906658Y-7195886D01*
X8935801Y-13773435D02*
X6940320Y-12712420D01*
X23115639Y-9409567D02*
X22909071Y-9021070D01*
X27318780Y-8794308D02*
G75*
G02*
X27372535Y-8618498I114780J61028D01*
G01*
X24695129Y-4243335D02*
G75*
G02*
X24938561Y-4317762I84501J-158935D01*
G01*
X25436207Y-5253686D02*
X24938564Y-4317761D01*
X7729710Y-10844383D02*
X6865894Y-12468984D01*
X14150000Y-5755000D02*
G75*
G02*
X14330000Y-5575000I180000J0D01*
G01*
X5558691Y-9112421D02*
G75*
G02*
X5802122Y-9038003I158929J-84519D01*
G01*
X20738790Y-3938225D02*
X20948542Y-4332710D01*
X18538482Y-5572487D02*
X18555759Y-5604979D01*
X2469946Y-4548102D02*
G75*
G02*
X2713383Y-4473674I158934J-84508D01*
G01*
X18731481Y-5062151D02*
G75*
G02*
X18657053Y-5305583I-158941J-84499D01*
G01*
X21816584Y-10054980D02*
X21628796Y-9701802D01*
X1237435Y-7675550D02*
X2542561Y-5220954D01*
X5315260Y-9186847D02*
X5200427Y-9125852D01*
X18708007Y-5018004D02*
G75*
G02*
X18782434Y-4774569I158933J84504D01*
G01*
X11711145Y-15668140D02*
G75*
G02*
X11467712Y-15742565I-158926J84490D01*
G01*
X15750000Y-11225000D02*
G75*
G02*
X15800000Y-11275000I0J-50000D01*
G01*
X2627468Y-8618494D02*
G75*
G02*
X2681217Y-8794306I-61018J-114776D01*
G01*
X7354948Y-3838388D02*
G75*
G02*
X7598385Y-3763960I158932J-84502D01*
G01*
X12167769Y-7439322D02*
G75*
G02*
X12093340Y-7195885I84501J158932D01*
G01*
X22401616Y-3763962D02*
G75*
G02*
X22645049Y-3838389I84504J-158928D01*
G01*
X5558691Y-9112421D02*
G75*
G02*
X5315257Y-9186846I-158931J84511D01*
G01*
X9105473Y-10749105D02*
X8257842Y-10298416D01*
X14150000Y-5755000D02*
X14150000Y-6045000D01*
X18288855Y-15668140D02*
X17550755Y-14279959D01*
X15000000Y-5575000D02*
X14330000Y-5575000D01*
X9090701Y-11160301D02*
G75*
G02*
X8847265Y-11234729I-158931J84501D01*
G01*
X14250000Y-11325000D02*
G75*
G02*
X14200000Y-11275000I0J50000D01*
G01*
X11217566Y-4774568D02*
X9504645Y-3863799D01*
X21191978Y-4407138D02*
X22401616Y-3763962D01*
X11342945Y-5305587D02*
G75*
G02*
X11268515Y-5062149I84515J158937D01*
G01*
X9261210Y-3938225D02*
X9051458Y-4332713D01*
X16030000Y-6225000D02*
G75*
G02*
X15850000Y-6045000I0J180000D01*
G01*
X18538482Y-5572496D02*
G75*
G02*
X18612910Y-5329065I158948J84496D01*
G01*
X16800000Y-7389024D02*
X16800000Y-6405000D01*
X27623935Y-4724689D02*
X27530041Y-4548100D01*
X16620000Y-6225000D02*
X16030000Y-6225000D01*
X13200000Y-7389024D02*
X13200000Y-6405000D01*
X8935801Y-13773414D02*
G75*
G02*
X9010223Y-14016847I-84501J-158926D01*
G01*
X20989772Y-14016852D02*
G75*
G02*
X21064201Y-13773420I158928J84502D01*
G01*
X14250331Y-11325729D02*
X15749636Y-11325729D01*
X22026855Y-10769956D02*
G75*
G02*
X22270289Y-10844383I84506J-158924D01*
G01*
X2376052Y-4724689D02*
X2469946Y-4548100D01*
X2450478Y-4968120D02*
X2468137Y-4977519D01*
X4320347Y-5328112D02*
X2713381Y-4473676D01*
X28762552Y-7675550D02*
X27457425Y-5220954D01*
X25615032Y-9892736D02*
X27283806Y-9005440D01*
X11291993Y-5018004D02*
X11268519Y-5062151D01*
X6884361Y-9409567D02*
X7090929Y-9021070D01*
X8921030Y-14184609D02*
X9010228Y-14016850D01*
X8257842Y-10298416D02*
G75*
G02*
X8183420Y-10054982I84498J158926D01*
G01*
X27318780Y-8794308D02*
X27337558Y-8829625D01*
X23359074Y-9483993D02*
X24197874Y-9037995D01*
X9051458Y-4332713D02*
G75*
G02*
X8808024Y-4407136I-158928J84503D01*
G01*
X13380000Y-6225000D02*
X13970000Y-6225000D01*
X18657055Y-5305587D02*
X18612908Y-5329060D01*
X2627468Y-8618494D02*
X1311874Y-7918986D01*
X4628403Y-9818310D02*
G75*
G02*
X4384968Y-9892737I-158933J84510D01*
G01*
X4628403Y-9818310D02*
X4957000Y-9200278D01*
X21078970Y-14184611D02*
G75*
G02*
X21004545Y-14428052I-158930J-84509D01*
G01*
X11467711Y-15742565D02*
X8995458Y-14428044D01*
X18708007Y-5018004D02*
X18731481Y-5062151D01*
X11387092Y-5329060D02*
G75*
G02*
X11461514Y-5572494I-84512J-158930D01*
G01*
X20495355Y-3863799D02*
G75*
G02*
X20738791Y-3938225I84505J-158931D01*
G01*
X24684744Y-9186847D02*
G75*
G02*
X24441304Y-9112424I-84504J158947D01*
G01*
X24799565Y-9125852D02*
G75*
G02*
X25042995Y-9200281I84495J-158948D01*
G01*
X23423684Y-4919374D02*
X24695129Y-4243335D01*
X5061436Y-4317761D02*
G75*
G02*
X5304875Y-4243328I158935J-84500D01*
G01*
X12365363Y-6298602D02*
G75*
G02*
X12440736Y-6542533I-83553J-159428D01*
G01*
X6884361Y-9409567D02*
G75*
G02*
X6640926Y-9483993I-158931J84507D01*
G01*
X21628796Y-9701802D02*
G75*
G02*
X21703221Y-9458365I158944J84502D01*
G01*
X17559264Y-6542533D02*
G75*
G02*
X17634637Y-6298602I158926J84503D01*
G01*
X8808022Y-4407138D02*
X7598384Y-3763962D01*
X27372532Y-8618494D02*
X28688126Y-7918986D01*
X14200000Y-11275000D02*
G75*
G02*
X14250696Y-11224995I50010J0D01*
G01*
X15961445Y-13325000D02*
G75*
G02*
X17550755Y-14279959I0J-1800000D01*
G01*
X21191978Y-4407138D02*
G75*
G02*
X20948543Y-4332712I-84508J158918D01*
G01*
X27549508Y-4968120D02*
X27531850Y-4977519D01*
X4563795Y-5253686D02*
G75*
G02*
X4320362Y-5328109I-158925J84496D01*
G01*
X11461518Y-5572487D02*
X11444241Y-5604979D01*
X2681220Y-8794308D02*
X2662442Y-8829625D01*
X4384968Y-9892736D02*
X2716194Y-9005440D01*
X11518667Y-5848415D02*
G75*
G02*
X11444240Y-5604978I84513J158935D01*
G01*
X27457425Y-5220954D02*
G75*
G02*
X27531851Y-4977518I158935J84504D01*
G01*
X2450478Y-4968124D02*
G75*
G02*
X2376047Y-4724686I84502J158934D01*
G01*
X25615032Y-9892736D02*
G75*
G02*
X25371598Y-9818309I-84502J158936D01*
G01*
X15961445Y-13325000D02*
X14038555Y-13325000D01*
X22645000Y-3838296D02*
X23180249Y-4844948D01*
X6576315Y-4919374D02*
X5304871Y-4243335D01*
X17329008Y-7706886D02*
X17832231Y-7439322D01*
X20909299Y-11160301D02*
X20820100Y-10992540D01*
X23134106Y-12468986D02*
G75*
G02*
X23059678Y-12712419I-158926J-84504D01*
G01*
X4957000Y-9200278D02*
G75*
G02*
X5200433Y-9125855I158930J-84512D01*
G01*
X23359074Y-9483993D02*
G75*
G02*
X23115639Y-9409567I-84504J158933D01*
G01*
X14250696Y-11225000D02*
X15750000Y-11225000D01*
X28762552Y-7675550D02*
G75*
G02*
X28688127Y-7918989I-158922J-84510D01*
G01*
X15800000Y-11275733D02*
G75*
G02*
X15750000Y-11325730I-49990J-7D01*
G01*
X9090701Y-11160301D02*
X9179900Y-10992540D01*
X11711145Y-15668140D02*
X12449245Y-14279959D01*
D11*
D12*
X9527240Y-14265800D02*
X9637240Y-14375800D01*
X9637240Y-14265800D02*
X9527240Y-14375800D01*
X9862760Y-14444200D02*
X9972760Y-14554200D01*
X9972760Y-14444200D02*
X9862760Y-14554200D01*
X20027240Y-14444200D02*
X20137240Y-14554200D01*
X20137240Y-14444200D02*
X20027240Y-14554200D01*
X20362760Y-14265800D02*
X20472760Y-14375800D01*
X20472760Y-14265800D02*
X20362760Y-14375800D01*
D11*
X1474657Y-16077622D02*
X1474657Y-15877622D01*
X1474657Y-15877622D02*
X1522276Y-15877622D01*
X1522276Y-15877622D02*
X1550847Y-15887146D01*
X1550847Y-15887146D02*
X1569895Y-15906194D01*
X1569895Y-15906194D02*
X1579419Y-15925241D01*
X1579419Y-15925241D02*
X1588943Y-15963336D01*
X1588943Y-15963336D02*
X1588943Y-15991908D01*
X1588943Y-15991908D02*
X1579419Y-16030003D01*
X1579419Y-16030003D02*
X1569895Y-16049051D01*
X1569895Y-16049051D02*
X1550847Y-16068098D01*
X1550847Y-16068098D02*
X1522276Y-16077622D01*
X1522276Y-16077622D02*
X1474657Y-16077622D01*
X1674657Y-16077622D02*
X1674657Y-15944289D01*
X1674657Y-15982384D02*
X1684181Y-15963336D01*
X1684181Y-15963336D02*
X1693705Y-15953813D01*
X1693705Y-15953813D02*
X1712752Y-15944289D01*
X1712752Y-15944289D02*
X1731800Y-15944289D01*
X1798466Y-16077622D02*
X1798466Y-15944289D01*
X1798466Y-15877622D02*
X1788943Y-15887146D01*
X1788943Y-15887146D02*
X1798466Y-15896670D01*
X1798466Y-15896670D02*
X1807990Y-15887146D01*
X1807990Y-15887146D02*
X1798466Y-15877622D01*
X1798466Y-15877622D02*
X1798466Y-15896670D01*
X1922276Y-16077622D02*
X1903228Y-16068098D01*
X1903228Y-16068098D02*
X1893705Y-16049051D01*
X1893705Y-16049051D02*
X1893705Y-15877622D01*
X2027038Y-16077622D02*
X2007990Y-16068098D01*
X2007990Y-16068098D02*
X1998466Y-16049051D01*
X1998466Y-16049051D02*
X1998466Y-15877622D01*
X2255609Y-16077622D02*
X2255609Y-15877622D01*
X2255609Y-15877622D02*
X2322276Y-16020479D01*
X2322276Y-16020479D02*
X2388943Y-15877622D01*
X2388943Y-15877622D02*
X2388943Y-16077622D01*
X2569895Y-16077622D02*
X2569895Y-15972860D01*
X2569895Y-15972860D02*
X2560371Y-15953813D01*
X2560371Y-15953813D02*
X2541324Y-15944289D01*
X2541324Y-15944289D02*
X2503228Y-15944289D01*
X2503228Y-15944289D02*
X2484181Y-15953813D01*
X2569895Y-16068098D02*
X2550848Y-16077622D01*
X2550848Y-16077622D02*
X2503228Y-16077622D01*
X2503228Y-16077622D02*
X2484181Y-16068098D01*
X2484181Y-16068098D02*
X2474657Y-16049051D01*
X2474657Y-16049051D02*
X2474657Y-16030003D01*
X2474657Y-16030003D02*
X2484181Y-16010955D01*
X2484181Y-16010955D02*
X2503228Y-16001432D01*
X2503228Y-16001432D02*
X2550848Y-16001432D01*
X2550848Y-16001432D02*
X2569895Y-15991908D01*
X2665133Y-15944289D02*
X2665133Y-16144289D01*
X2665133Y-15953813D02*
X2684181Y-15944289D01*
X2684181Y-15944289D02*
X2722276Y-15944289D01*
X2722276Y-15944289D02*
X2741324Y-15953813D01*
X2741324Y-15953813D02*
X2750848Y-15963336D01*
X2750848Y-15963336D02*
X2760371Y-15982384D01*
X2760371Y-15982384D02*
X2760371Y-16039527D01*
X2760371Y-16039527D02*
X2750848Y-16058574D01*
X2750848Y-16058574D02*
X2741324Y-16068098D01*
X2741324Y-16068098D02*
X2722276Y-16077622D01*
X2722276Y-16077622D02*
X2684181Y-16077622D01*
X2684181Y-16077622D02*
X2665133Y-16068098D01*
X2846086Y-16058574D02*
X2855609Y-16068098D01*
X2855609Y-16068098D02*
X2846086Y-16077622D01*
X2846086Y-16077622D02*
X2836562Y-16068098D01*
X2836562Y-16068098D02*
X2846086Y-16058574D01*
X2846086Y-16058574D02*
X2846086Y-16077622D01*
X2846086Y-15953813D02*
X2855609Y-15963336D01*
X2855609Y-15963336D02*
X2846086Y-15972860D01*
X2846086Y-15972860D02*
X2836562Y-15963336D01*
X2836562Y-15963336D02*
X2846086Y-15953813D01*
X2846086Y-15953813D02*
X2846086Y-15972860D01*
D12*
X1103880Y-16351138D02*
X1213880Y-16461138D01*
X1213880Y-16351138D02*
X1103880Y-16461138D01*
D11*
X1579419Y-16497622D02*
X1465133Y-16497622D01*
X1522276Y-16497622D02*
X1522276Y-16297622D01*
X1522276Y-16297622D02*
X1503228Y-16326194D01*
X1503228Y-16326194D02*
X1484181Y-16345241D01*
X1484181Y-16345241D02*
X1465133Y-16354765D01*
X1665133Y-16478574D02*
X1674657Y-16488098D01*
X1674657Y-16488098D02*
X1665133Y-16497622D01*
X1665133Y-16497622D02*
X1655609Y-16488098D01*
X1655609Y-16488098D02*
X1665133Y-16478574D01*
X1665133Y-16478574D02*
X1665133Y-16497622D01*
X1865133Y-16497622D02*
X1750847Y-16497622D01*
X1807990Y-16497622D02*
X1807990Y-16297622D01*
X1807990Y-16297622D02*
X1788943Y-16326194D01*
X1788943Y-16326194D02*
X1769895Y-16345241D01*
X1769895Y-16345241D02*
X1750847Y-16354765D01*
X1988943Y-16297622D02*
X2007990Y-16297622D01*
X2007990Y-16297622D02*
X2027038Y-16307146D01*
X2027038Y-16307146D02*
X2036562Y-16316670D01*
X2036562Y-16316670D02*
X2046086Y-16335717D01*
X2046086Y-16335717D02*
X2055609Y-16373813D01*
X2055609Y-16373813D02*
X2055609Y-16421432D01*
X2055609Y-16421432D02*
X2046086Y-16459527D01*
X2046086Y-16459527D02*
X2036562Y-16478574D01*
X2036562Y-16478574D02*
X2027038Y-16488098D01*
X2027038Y-16488098D02*
X2007990Y-16497622D01*
X2007990Y-16497622D02*
X1988943Y-16497622D01*
X1988943Y-16497622D02*
X1969895Y-16488098D01*
X1969895Y-16488098D02*
X1960371Y-16478574D01*
X1960371Y-16478574D02*
X1950847Y-16459527D01*
X1950847Y-16459527D02*
X1941324Y-16421432D01*
X1941324Y-16421432D02*
X1941324Y-16373813D01*
X1941324Y-16373813D02*
X1950847Y-16335717D01*
X1950847Y-16335717D02*
X1960371Y-16316670D01*
X1960371Y-16316670D02*
X1969895Y-16307146D01*
X1969895Y-16307146D02*
X1988943Y-16297622D01*
X2179419Y-16297622D02*
X2198467Y-16297622D01*
X2198467Y-16297622D02*
X2217514Y-16307146D01*
X2217514Y-16307146D02*
X2227038Y-16316670D01*
X2227038Y-16316670D02*
X2236562Y-16335717D01*
X2236562Y-16335717D02*
X2246086Y-16373813D01*
X2246086Y-16373813D02*
X2246086Y-16421432D01*
X2246086Y-16421432D02*
X2236562Y-16459527D01*
X2236562Y-16459527D02*
X2227038Y-16478574D01*
X2227038Y-16478574D02*
X2217514Y-16488098D01*
X2217514Y-16488098D02*
X2198467Y-16497622D01*
X2198467Y-16497622D02*
X2179419Y-16497622D01*
X2179419Y-16497622D02*
X2160371Y-16488098D01*
X2160371Y-16488098D02*
X2150848Y-16478574D01*
X2150848Y-16478574D02*
X2141324Y-16459527D01*
X2141324Y-16459527D02*
X2131800Y-16421432D01*
X2131800Y-16421432D02*
X2131800Y-16373813D01*
X2131800Y-16373813D02*
X2141324Y-16335717D01*
X2141324Y-16335717D02*
X2150848Y-16316670D01*
X2150848Y-16316670D02*
X2160371Y-16307146D01*
X2160371Y-16307146D02*
X2179419Y-16297622D01*
X2331800Y-16497622D02*
X2331800Y-16364289D01*
X2331800Y-16383336D02*
X2341324Y-16373813D01*
X2341324Y-16373813D02*
X2360371Y-16364289D01*
X2360371Y-16364289D02*
X2388943Y-16364289D01*
X2388943Y-16364289D02*
X2407990Y-16373813D01*
X2407990Y-16373813D02*
X2417514Y-16392860D01*
X2417514Y-16392860D02*
X2417514Y-16497622D01*
X2417514Y-16392860D02*
X2427038Y-16373813D01*
X2427038Y-16373813D02*
X2446086Y-16364289D01*
X2446086Y-16364289D02*
X2474657Y-16364289D01*
X2474657Y-16364289D02*
X2493705Y-16373813D01*
X2493705Y-16373813D02*
X2503229Y-16392860D01*
X2503229Y-16392860D02*
X2503229Y-16497622D01*
X2598467Y-16497622D02*
X2598467Y-16364289D01*
X2598467Y-16383336D02*
X2607990Y-16373813D01*
X2607990Y-16373813D02*
X2627038Y-16364289D01*
X2627038Y-16364289D02*
X2655610Y-16364289D01*
X2655610Y-16364289D02*
X2674657Y-16373813D01*
X2674657Y-16373813D02*
X2684181Y-16392860D01*
X2684181Y-16392860D02*
X2684181Y-16497622D01*
X2684181Y-16392860D02*
X2693705Y-16373813D01*
X2693705Y-16373813D02*
X2712752Y-16364289D01*
X2712752Y-16364289D02*
X2741324Y-16364289D01*
X2741324Y-16364289D02*
X2760371Y-16373813D01*
X2760371Y-16373813D02*
X2769895Y-16392860D01*
X2769895Y-16392860D02*
X2769895Y-16497622D01*
X3160371Y-16288098D02*
X2988943Y-16545241D01*
X3417514Y-16297622D02*
X3436562Y-16297622D01*
X3436562Y-16297622D02*
X3455610Y-16307146D01*
X3455610Y-16307146D02*
X3465133Y-16316670D01*
X3465133Y-16316670D02*
X3474657Y-16335717D01*
X3474657Y-16335717D02*
X3484181Y-16373813D01*
X3484181Y-16373813D02*
X3484181Y-16421432D01*
X3484181Y-16421432D02*
X3474657Y-16459527D01*
X3474657Y-16459527D02*
X3465133Y-16478574D01*
X3465133Y-16478574D02*
X3455610Y-16488098D01*
X3455610Y-16488098D02*
X3436562Y-16497622D01*
X3436562Y-16497622D02*
X3417514Y-16497622D01*
X3417514Y-16497622D02*
X3398467Y-16488098D01*
X3398467Y-16488098D02*
X3388943Y-16478574D01*
X3388943Y-16478574D02*
X3379419Y-16459527D01*
X3379419Y-16459527D02*
X3369895Y-16421432D01*
X3369895Y-16421432D02*
X3369895Y-16373813D01*
X3369895Y-16373813D02*
X3379419Y-16335717D01*
X3379419Y-16335717D02*
X3388943Y-16316670D01*
X3388943Y-16316670D02*
X3398467Y-16307146D01*
X3398467Y-16307146D02*
X3417514Y-16297622D01*
X3569895Y-16478574D02*
X3579419Y-16488098D01*
X3579419Y-16488098D02*
X3569895Y-16497622D01*
X3569895Y-16497622D02*
X3560371Y-16488098D01*
X3560371Y-16488098D02*
X3569895Y-16478574D01*
X3569895Y-16478574D02*
X3569895Y-16497622D01*
X3703229Y-16297622D02*
X3722276Y-16297622D01*
X3722276Y-16297622D02*
X3741324Y-16307146D01*
X3741324Y-16307146D02*
X3750848Y-16316670D01*
X3750848Y-16316670D02*
X3760371Y-16335717D01*
X3760371Y-16335717D02*
X3769895Y-16373813D01*
X3769895Y-16373813D02*
X3769895Y-16421432D01*
X3769895Y-16421432D02*
X3760371Y-16459527D01*
X3760371Y-16459527D02*
X3750848Y-16478574D01*
X3750848Y-16478574D02*
X3741324Y-16488098D01*
X3741324Y-16488098D02*
X3722276Y-16497622D01*
X3722276Y-16497622D02*
X3703229Y-16497622D01*
X3703229Y-16497622D02*
X3684181Y-16488098D01*
X3684181Y-16488098D02*
X3674657Y-16478574D01*
X3674657Y-16478574D02*
X3665133Y-16459527D01*
X3665133Y-16459527D02*
X3655610Y-16421432D01*
X3655610Y-16421432D02*
X3655610Y-16373813D01*
X3655610Y-16373813D02*
X3665133Y-16335717D01*
X3665133Y-16335717D02*
X3674657Y-16316670D01*
X3674657Y-16316670D02*
X3684181Y-16307146D01*
X3684181Y-16307146D02*
X3703229Y-16297622D01*
X3941324Y-16364289D02*
X3941324Y-16497622D01*
X3893705Y-16288098D02*
X3846086Y-16430955D01*
X3846086Y-16430955D02*
X3969895Y-16430955D01*
X4027038Y-16297622D02*
X4150848Y-16297622D01*
X4150848Y-16297622D02*
X4084181Y-16373813D01*
X4084181Y-16373813D02*
X4112752Y-16373813D01*
X4112752Y-16373813D02*
X4131800Y-16383336D01*
X4131800Y-16383336D02*
X4141324Y-16392860D01*
X4141324Y-16392860D02*
X4150848Y-16411908D01*
X4150848Y-16411908D02*
X4150848Y-16459527D01*
X4150848Y-16459527D02*
X4141324Y-16478574D01*
X4141324Y-16478574D02*
X4131800Y-16488098D01*
X4131800Y-16488098D02*
X4112752Y-16497622D01*
X4112752Y-16497622D02*
X4055610Y-16497622D01*
X4055610Y-16497622D02*
X4036562Y-16488098D01*
X4036562Y-16488098D02*
X4027038Y-16478574D01*
X4217514Y-16297622D02*
X4341324Y-16297622D01*
X4341324Y-16297622D02*
X4274657Y-16373813D01*
X4274657Y-16373813D02*
X4303229Y-16373813D01*
X4303229Y-16373813D02*
X4322276Y-16383336D01*
X4322276Y-16383336D02*
X4331800Y-16392860D01*
X4331800Y-16392860D02*
X4341324Y-16411908D01*
X4341324Y-16411908D02*
X4341324Y-16459527D01*
X4341324Y-16459527D02*
X4331800Y-16478574D01*
X4331800Y-16478574D02*
X4322276Y-16488098D01*
X4322276Y-16488098D02*
X4303229Y-16497622D01*
X4303229Y-16497622D02*
X4246086Y-16497622D01*
X4246086Y-16497622D02*
X4227038Y-16488098D01*
X4227038Y-16488098D02*
X4217514Y-16478574D01*
X4417514Y-16297622D02*
X4417514Y-16335717D01*
X4493705Y-16297622D02*
X4493705Y-16335717D01*
X4788943Y-16573813D02*
X4779419Y-16564289D01*
X4779419Y-16564289D02*
X4760372Y-16535717D01*
X4760372Y-16535717D02*
X4750848Y-16516670D01*
X4750848Y-16516670D02*
X4741324Y-16488098D01*
X4741324Y-16488098D02*
X4731800Y-16440479D01*
X4731800Y-16440479D02*
X4731800Y-16402384D01*
X4731800Y-16402384D02*
X4741324Y-16354765D01*
X4741324Y-16354765D02*
X4750848Y-16326194D01*
X4750848Y-16326194D02*
X4760372Y-16307146D01*
X4760372Y-16307146D02*
X4779419Y-16278574D01*
X4779419Y-16278574D02*
X4788943Y-16269051D01*
X4950848Y-16364289D02*
X4950848Y-16497622D01*
X4903229Y-16288098D02*
X4855610Y-16430955D01*
X4855610Y-16430955D02*
X4979419Y-16430955D01*
X5207991Y-16497622D02*
X5207991Y-16297622D01*
X5293705Y-16497622D02*
X5293705Y-16392860D01*
X5293705Y-16392860D02*
X5284181Y-16373813D01*
X5284181Y-16373813D02*
X5265134Y-16364289D01*
X5265134Y-16364289D02*
X5236562Y-16364289D01*
X5236562Y-16364289D02*
X5217515Y-16373813D01*
X5217515Y-16373813D02*
X5207991Y-16383336D01*
X5417515Y-16497622D02*
X5398467Y-16488098D01*
X5398467Y-16488098D02*
X5388943Y-16478574D01*
X5388943Y-16478574D02*
X5379419Y-16459527D01*
X5379419Y-16459527D02*
X5379419Y-16402384D01*
X5379419Y-16402384D02*
X5388943Y-16383336D01*
X5388943Y-16383336D02*
X5398467Y-16373813D01*
X5398467Y-16373813D02*
X5417515Y-16364289D01*
X5417515Y-16364289D02*
X5446086Y-16364289D01*
X5446086Y-16364289D02*
X5465134Y-16373813D01*
X5465134Y-16373813D02*
X5474657Y-16383336D01*
X5474657Y-16383336D02*
X5484181Y-16402384D01*
X5484181Y-16402384D02*
X5484181Y-16459527D01*
X5484181Y-16459527D02*
X5474657Y-16478574D01*
X5474657Y-16478574D02*
X5465134Y-16488098D01*
X5465134Y-16488098D02*
X5446086Y-16497622D01*
X5446086Y-16497622D02*
X5417515Y-16497622D01*
X5598467Y-16497622D02*
X5579419Y-16488098D01*
X5579419Y-16488098D02*
X5569896Y-16469051D01*
X5569896Y-16469051D02*
X5569896Y-16297622D01*
X5750848Y-16488098D02*
X5731800Y-16497622D01*
X5731800Y-16497622D02*
X5693705Y-16497622D01*
X5693705Y-16497622D02*
X5674657Y-16488098D01*
X5674657Y-16488098D02*
X5665134Y-16469051D01*
X5665134Y-16469051D02*
X5665134Y-16392860D01*
X5665134Y-16392860D02*
X5674657Y-16373813D01*
X5674657Y-16373813D02*
X5693705Y-16364289D01*
X5693705Y-16364289D02*
X5731800Y-16364289D01*
X5731800Y-16364289D02*
X5750848Y-16373813D01*
X5750848Y-16373813D02*
X5760372Y-16392860D01*
X5760372Y-16392860D02*
X5760372Y-16411908D01*
X5760372Y-16411908D02*
X5665134Y-16430955D01*
X5836562Y-16488098D02*
X5855610Y-16497622D01*
X5855610Y-16497622D02*
X5893705Y-16497622D01*
X5893705Y-16497622D02*
X5912753Y-16488098D01*
X5912753Y-16488098D02*
X5922276Y-16469051D01*
X5922276Y-16469051D02*
X5922276Y-16459527D01*
X5922276Y-16459527D02*
X5912753Y-16440479D01*
X5912753Y-16440479D02*
X5893705Y-16430955D01*
X5893705Y-16430955D02*
X5865134Y-16430955D01*
X5865134Y-16430955D02*
X5846086Y-16421432D01*
X5846086Y-16421432D02*
X5836562Y-16402384D01*
X5836562Y-16402384D02*
X5836562Y-16392860D01*
X5836562Y-16392860D02*
X5846086Y-16373813D01*
X5846086Y-16373813D02*
X5865134Y-16364289D01*
X5865134Y-16364289D02*
X5893705Y-16364289D01*
X5893705Y-16364289D02*
X5912753Y-16373813D01*
X5988943Y-16573813D02*
X5998467Y-16564289D01*
X5998467Y-16564289D02*
X6017515Y-16535717D01*
X6017515Y-16535717D02*
X6027038Y-16516670D01*
X6027038Y-16516670D02*
X6036562Y-16488098D01*
X6036562Y-16488098D02*
X6046086Y-16440479D01*
X6046086Y-16440479D02*
X6046086Y-16402384D01*
X6046086Y-16402384D02*
X6036562Y-16354765D01*
X6036562Y-16354765D02*
X6027038Y-16326194D01*
X6027038Y-16326194D02*
X6017515Y-16307146D01*
X6017515Y-16307146D02*
X5998467Y-16278574D01*
X5998467Y-16278574D02*
X5988943Y-16269051D01*
X6350848Y-16573813D02*
X6341324Y-16564289D01*
X6341324Y-16564289D02*
X6322276Y-16535717D01*
X6322276Y-16535717D02*
X6312753Y-16516670D01*
X6312753Y-16516670D02*
X6303229Y-16488098D01*
X6303229Y-16488098D02*
X6293705Y-16440479D01*
X6293705Y-16440479D02*
X6293705Y-16402384D01*
X6293705Y-16402384D02*
X6303229Y-16354765D01*
X6303229Y-16354765D02*
X6312753Y-16326194D01*
X6312753Y-16326194D02*
X6322276Y-16307146D01*
X6322276Y-16307146D02*
X6341324Y-16278574D01*
X6341324Y-16278574D02*
X6350848Y-16269051D01*
X6427038Y-16364289D02*
X6427038Y-16497622D01*
X6427038Y-16383336D02*
X6436562Y-16373813D01*
X6436562Y-16373813D02*
X6455610Y-16364289D01*
X6455610Y-16364289D02*
X6484181Y-16364289D01*
X6484181Y-16364289D02*
X6503229Y-16373813D01*
X6503229Y-16373813D02*
X6512753Y-16392860D01*
X6512753Y-16392860D02*
X6512753Y-16497622D01*
X6636562Y-16497622D02*
X6617515Y-16488098D01*
X6617515Y-16488098D02*
X6607991Y-16478574D01*
X6607991Y-16478574D02*
X6598467Y-16459527D01*
X6598467Y-16459527D02*
X6598467Y-16402384D01*
X6598467Y-16402384D02*
X6607991Y-16383336D01*
X6607991Y-16383336D02*
X6617515Y-16373813D01*
X6617515Y-16373813D02*
X6636562Y-16364289D01*
X6636562Y-16364289D02*
X6665134Y-16364289D01*
X6665134Y-16364289D02*
X6684181Y-16373813D01*
X6684181Y-16373813D02*
X6693705Y-16383336D01*
X6693705Y-16383336D02*
X6703229Y-16402384D01*
X6703229Y-16402384D02*
X6703229Y-16459527D01*
X6703229Y-16459527D02*
X6693705Y-16478574D01*
X6693705Y-16478574D02*
X6684181Y-16488098D01*
X6684181Y-16488098D02*
X6665134Y-16497622D01*
X6665134Y-16497622D02*
X6636562Y-16497622D01*
X6760372Y-16364289D02*
X6836562Y-16364289D01*
X6788943Y-16297622D02*
X6788943Y-16469051D01*
X6788943Y-16469051D02*
X6798467Y-16488098D01*
X6798467Y-16488098D02*
X6817515Y-16497622D01*
X6817515Y-16497622D02*
X6836562Y-16497622D01*
X7055610Y-16364289D02*
X7055610Y-16564289D01*
X7055610Y-16373813D02*
X7074657Y-16364289D01*
X7074657Y-16364289D02*
X7112753Y-16364289D01*
X7112753Y-16364289D02*
X7131800Y-16373813D01*
X7131800Y-16373813D02*
X7141324Y-16383336D01*
X7141324Y-16383336D02*
X7150848Y-16402384D01*
X7150848Y-16402384D02*
X7150848Y-16459527D01*
X7150848Y-16459527D02*
X7141324Y-16478574D01*
X7141324Y-16478574D02*
X7131800Y-16488098D01*
X7131800Y-16488098D02*
X7112753Y-16497622D01*
X7112753Y-16497622D02*
X7074657Y-16497622D01*
X7074657Y-16497622D02*
X7055610Y-16488098D01*
X7265134Y-16497622D02*
X7246086Y-16488098D01*
X7246086Y-16488098D02*
X7236562Y-16469051D01*
X7236562Y-16469051D02*
X7236562Y-16297622D01*
X7427038Y-16497622D02*
X7427038Y-16392860D01*
X7427038Y-16392860D02*
X7417515Y-16373813D01*
X7417515Y-16373813D02*
X7398467Y-16364289D01*
X7398467Y-16364289D02*
X7360372Y-16364289D01*
X7360372Y-16364289D02*
X7341324Y-16373813D01*
X7427038Y-16488098D02*
X7407991Y-16497622D01*
X7407991Y-16497622D02*
X7360372Y-16497622D01*
X7360372Y-16497622D02*
X7341324Y-16488098D01*
X7341324Y-16488098D02*
X7331800Y-16469051D01*
X7331800Y-16469051D02*
X7331800Y-16450003D01*
X7331800Y-16450003D02*
X7341324Y-16430955D01*
X7341324Y-16430955D02*
X7360372Y-16421432D01*
X7360372Y-16421432D02*
X7407991Y-16421432D01*
X7407991Y-16421432D02*
X7427038Y-16411908D01*
X7493705Y-16364289D02*
X7569896Y-16364289D01*
X7522277Y-16297622D02*
X7522277Y-16469051D01*
X7522277Y-16469051D02*
X7531800Y-16488098D01*
X7531800Y-16488098D02*
X7550848Y-16497622D01*
X7550848Y-16497622D02*
X7569896Y-16497622D01*
X7712753Y-16488098D02*
X7693705Y-16497622D01*
X7693705Y-16497622D02*
X7655610Y-16497622D01*
X7655610Y-16497622D02*
X7636562Y-16488098D01*
X7636562Y-16488098D02*
X7627038Y-16469051D01*
X7627038Y-16469051D02*
X7627038Y-16392860D01*
X7627038Y-16392860D02*
X7636562Y-16373813D01*
X7636562Y-16373813D02*
X7655610Y-16364289D01*
X7655610Y-16364289D02*
X7693705Y-16364289D01*
X7693705Y-16364289D02*
X7712753Y-16373813D01*
X7712753Y-16373813D02*
X7722277Y-16392860D01*
X7722277Y-16392860D02*
X7722277Y-16411908D01*
X7722277Y-16411908D02*
X7627038Y-16430955D01*
X7893705Y-16497622D02*
X7893705Y-16297622D01*
X7893705Y-16488098D02*
X7874658Y-16497622D01*
X7874658Y-16497622D02*
X7836562Y-16497622D01*
X7836562Y-16497622D02*
X7817515Y-16488098D01*
X7817515Y-16488098D02*
X7807991Y-16478574D01*
X7807991Y-16478574D02*
X7798467Y-16459527D01*
X7798467Y-16459527D02*
X7798467Y-16402384D01*
X7798467Y-16402384D02*
X7807991Y-16383336D01*
X7807991Y-16383336D02*
X7817515Y-16373813D01*
X7817515Y-16373813D02*
X7836562Y-16364289D01*
X7836562Y-16364289D02*
X7874658Y-16364289D01*
X7874658Y-16364289D02*
X7893705Y-16373813D01*
X7969896Y-16573813D02*
X7979419Y-16564289D01*
X7979419Y-16564289D02*
X7998467Y-16535717D01*
X7998467Y-16535717D02*
X8007991Y-16516670D01*
X8007991Y-16516670D02*
X8017515Y-16488098D01*
X8017515Y-16488098D02*
X8027038Y-16440479D01*
X8027038Y-16440479D02*
X8027038Y-16402384D01*
X8027038Y-16402384D02*
X8017515Y-16354765D01*
X8017515Y-16354765D02*
X8007991Y-16326194D01*
X8007991Y-16326194D02*
X7998467Y-16307146D01*
X7998467Y-16307146D02*
X7979419Y-16278574D01*
X7979419Y-16278574D02*
X7969896Y-16269051D01*
M02*
