%TF.GenerationSoftware,KiCad,Pcbnew,9.0.2*%
%TF.CreationDate,2025-06-13T18:26:32+01:00*%
%TF.ProjectId,____,e4e8e4e8-2e6b-4696-9361-645f70636258,2.0*%
%TF.SameCoordinates,Original*%
%TF.FileFunction,Soldermask,Bot*%
%TF.FilePolarity,Negative*%
%FSLAX46Y46*%
G04 Gerber Fmt 4.6, Leading zero omitted, Abs format (unit mm)*
G04 Created by KiCad (PCBNEW 9.0.2) date 2025-06-13 18:26:32*
%MOMM*%
%LPD*%
G01*
G04 APERTURE LIST*
G04 Aperture macros list*
%AMRoundRect*
0 Rectangle with rounded corners*
0 $1 Rounding radius*
0 $2 $3 $4 $5 $6 $7 $8 $9 X,Y pos of 4 corners*
0 Add a 4 corners polygon primitive as box body*
4,1,4,$2,$3,$4,$5,$6,$7,$8,$9,$2,$3,0*
0 Add four circle primitives for the rounded corners*
1,1,$1+$1,$2,$3*
1,1,$1+$1,$4,$5*
1,1,$1+$1,$6,$7*
1,1,$1+$1,$8,$9*
0 Add four rect primitives between the rounded corners*
20,1,$1+$1,$2,$3,$4,$5,0*
20,1,$1+$1,$4,$5,$6,$7,0*
20,1,$1+$1,$6,$7,$8,$9,0*
20,1,$1+$1,$8,$9,$2,$3,0*%
%AMHorizOval*
0 Thick line with rounded ends*
0 $1 width*
0 $2 $3 position (X,Y) of the first rounded end (center of the circle)*
0 $4 $5 position (X,Y) of the second rounded end (center of the circle)*
0 Add line between two ends*
20,1,$1,$2,$3,$4,$5,0*
0 Add two circle primitives to create the rounded ends*
1,1,$1,$2,$3*
1,1,$1,$4,$5*%
G04 Aperture macros list end*
%ADD10C,0.000000*%
%ADD11C,0.031792*%
%ADD12C,0.028759*%
%ADD13RoundRect,0.250000X0.351455X-1.149556X1.149556X0.351455X-0.351455X1.149556X-1.149556X-0.351455X0*%
%ADD14RoundRect,0.250000X0.574454X-0.730156X0.926557X-0.067945X-0.574454X0.730156X-0.926557X0.067945X0*%
%ADD15RoundRect,0.250000X1.149556X-0.351455X0.351455X1.149556X-1.149556X0.351455X-0.351455X-1.149556X0*%
%ADD16RoundRect,0.250000X0.926557X0.067945X0.574454X0.730156X-0.926557X-0.067945X-0.574454X-0.730156X0*%
%ADD17RoundRect,0.112500X0.262516X0.012168X0.156885X0.210831X-0.262516X-0.012168X-0.156885X-0.210831X0*%
%ADD18RoundRect,0.112500X0.156885X-0.210831X0.262516X-0.012168X-0.156885X0.210831X-0.262516X0.012168X0*%
%ADD19RoundRect,0.112500X-0.262516X-0.012168X-0.156885X-0.210831X0.262516X0.012168X0.156885X0.210831X0*%
%ADD20RoundRect,0.112500X-0.156885X0.210831X-0.262516X0.012168X0.156885X-0.210831X0.262516X-0.012168X0*%
%ADD21RoundRect,0.112500X-0.012168X0.262516X-0.210831X0.156885X0.012168X-0.262516X0.210831X-0.156885X0*%
%ADD22RoundRect,0.112500X0.210831X0.156885X0.012168X0.262516X-0.210831X-0.156885X-0.012168X-0.262516X0*%
%ADD23RoundRect,0.150000X0.150000X0.625000X-0.150000X0.625000X-0.150000X-0.625000X0.150000X-0.625000X0*%
%ADD24RoundRect,0.250000X0.350000X0.650000X-0.350000X0.650000X-0.350000X-0.650000X0.350000X-0.650000X0*%
%ADD25RoundRect,0.150000X-0.150000X-0.625000X0.150000X-0.625000X0.150000X0.625000X-0.150000X0.625000X0*%
%ADD26RoundRect,0.250000X-0.350000X-0.650000X0.350000X-0.650000X0.350000X0.650000X-0.350000X0.650000X0*%
%ADD27RoundRect,0.240000X-1.433564X-0.438285X0.438285X-1.433564X1.433564X0.438285X-0.438285X1.433564X0*%
%ADD28C,3.600000*%
%ADD29C,2.200000*%
%ADD30HorizOval,1.800000X-0.117368X-0.220737X0.117368X0.220737X0*%
%ADD31C,5.400000*%
%ADD32RoundRect,0.240000X-0.438285X-1.433564X1.433564X-0.438285X0.438285X1.433564X-1.433564X0.438285X0*%
%ADD33HorizOval,1.800000X-0.117368X0.220737X0.117368X-0.220737X0*%
%ADD34C,5.600000*%
%ADD35C,3.800000*%
%ADD36C,1.500000*%
%ADD37RoundRect,0.800000X-0.365454X0.590715X-0.694084X-0.027349X0.365454X-0.590715X0.694084X0.027349X0*%
%ADD38RoundRect,0.800000X0.694084X-0.027349X0.365454X0.590715X-0.694084X0.027349X-0.365454X-0.590715X0*%
%ADD39C,1.100000*%
%ADD40RoundRect,0.080000X-0.126713X-0.656311X0.614963X-0.261955X0.126713X0.656311X-0.614963X0.261955X0*%
%ADD41RoundRect,0.080000X0.295812X-1.450964X1.037488X-1.056608X-0.295812X1.450964X-1.037488X1.056608X0*%
%ADD42RoundRect,0.096000X-0.677148X-0.320004X0.382437X-0.643952X0.677148X0.320004X-0.382437X0.643952X0*%
%ADD43RoundRect,0.096000X0.320004X-0.677148X0.643952X0.382437X-0.320004X0.677148X-0.643952X-0.382437X0*%
%ADD44RoundRect,0.225000X-0.225000X-0.250000X0.225000X-0.250000X0.225000X0.250000X-0.225000X0.250000X0*%
%ADD45RoundRect,0.100000X-0.100000X0.350000X-0.100000X-0.350000X0.100000X-0.350000X0.100000X0.350000X0*%
%ADD46RoundRect,0.225000X0.225000X0.250000X-0.225000X0.250000X-0.225000X-0.250000X0.225000X-0.250000X0*%
%ADD47RoundRect,0.100000X-0.350000X-0.100000X0.350000X-0.100000X0.350000X0.100000X-0.350000X0.100000X0*%
%ADD48RoundRect,0.250000X0.250000X0.475000X-0.250000X0.475000X-0.250000X-0.475000X0.250000X-0.475000X0*%
%ADD49RoundRect,0.080000X0.044555X-0.810827X0.697121X0.416471X-0.044555X0.810827X-0.697121X-0.416471X0*%
%ADD50RoundRect,0.080000X-0.120000X0.170000X-0.120000X-0.170000X0.120000X-0.170000X0.120000X0.170000X0*%
%ADD51RoundRect,0.100000X0.245610X-0.017336X-0.151716X0.193926X-0.245610X0.017336X0.151716X-0.193926X0*%
%ADD52RoundRect,0.080000X-0.614963X-0.261955X0.126713X-0.656311X0.614963X0.261955X-0.126713X0.656311X0*%
%ADD53RoundRect,0.080000X-1.037488X-1.056608X-0.295812X-1.450964X1.037488X1.056608X0.295812X1.450964X0*%
%ADD54RoundRect,0.096000X-0.643952X0.382437X-0.320004X-0.677148X0.643952X-0.382437X0.320004X0.677148X0*%
%ADD55RoundRect,0.096000X-0.382437X-0.643952X0.677148X-0.320004X0.382437X0.643952X-0.677148X0.320004X0*%
%ADD56RoundRect,0.100000X-0.151716X-0.193926X0.245610X0.017336X0.151716X0.193926X-0.245610X-0.017336X0*%
%ADD57RoundRect,0.050000X-0.285000X-0.100000X0.285000X-0.100000X0.285000X0.100000X-0.285000X0.100000X0*%
%ADD58RoundRect,0.100000X0.350000X0.100000X-0.350000X0.100000X-0.350000X-0.100000X0.350000X-0.100000X0*%
%ADD59RoundRect,0.225000X0.250000X-0.225000X0.250000X0.225000X-0.250000X0.225000X-0.250000X-0.225000X0*%
%ADD60RoundRect,0.080000X-0.697121X0.416471X-0.044555X-0.810827X0.697121X-0.416471X0.044555X0.810827X0*%
%ADD61RoundRect,0.075000X0.075000X0.575000X-0.075000X0.575000X-0.075000X-0.575000X0.075000X-0.575000X0*%
%ADD62RoundRect,0.250000X0.650000X0.850000X-0.650000X0.850000X-0.650000X-0.850000X0.650000X-0.850000X0*%
G04 APERTURE END LIST*
D10*
G36*
X137621323Y-100259524D02*
G01*
X137668791Y-100265761D01*
X137714870Y-100275238D01*
X137759578Y-100287845D01*
X137802932Y-100303466D01*
X137844946Y-100321987D01*
X137885637Y-100343296D01*
X137925028Y-100367277D01*
X137963127Y-100393819D01*
X137999956Y-100422809D01*
X138035530Y-100454130D01*
X138069866Y-100487672D01*
X138102979Y-100523316D01*
X138134888Y-100560955D01*
X138165609Y-100600470D01*
X138195159Y-100641751D01*
X138195140Y-100641745D01*
X138195123Y-100641741D01*
X138195088Y-100641730D01*
X138256060Y-100738191D01*
X138311637Y-100841410D01*
X138362004Y-100950171D01*
X138407347Y-101063265D01*
X138447850Y-101179465D01*
X138483699Y-101297561D01*
X138515080Y-101416334D01*
X138542179Y-101534571D01*
X138565181Y-101651055D01*
X138584269Y-101764566D01*
X138599632Y-101873892D01*
X138611453Y-101977818D01*
X138619922Y-102075123D01*
X138625218Y-102164592D01*
X138627531Y-102245013D01*
X138627044Y-102315166D01*
X138620553Y-102463295D01*
X138609318Y-102611468D01*
X138593163Y-102759349D01*
X138571902Y-102906606D01*
X138545361Y-103052896D01*
X138513355Y-103197888D01*
X138475705Y-103341245D01*
X138432231Y-103482633D01*
X138382750Y-103621714D01*
X138327085Y-103758150D01*
X138265053Y-103891607D01*
X138196477Y-104021751D01*
X138121174Y-104148243D01*
X138038963Y-104270752D01*
X137949664Y-104388935D01*
X137853098Y-104502461D01*
X137802415Y-104556260D01*
X137746430Y-104612145D01*
X137626113Y-104727436D01*
X137565558Y-104785488D01*
X137507256Y-104842901D01*
X137453098Y-104898996D01*
X137428161Y-104926336D01*
X137404969Y-104953093D01*
X137428952Y-104912228D01*
X137452617Y-104869802D01*
X137476055Y-104826262D01*
X137499364Y-104782045D01*
X137545962Y-104693358D01*
X137569444Y-104649769D01*
X137593171Y-104607272D01*
X137645519Y-104517417D01*
X137672879Y-104472000D01*
X137700920Y-104426709D01*
X137729554Y-104381880D01*
X137758692Y-104337854D01*
X137788254Y-104294972D01*
X137818150Y-104253568D01*
X137840116Y-104223727D01*
X137868391Y-104184279D01*
X137900000Y-104138246D01*
X137916121Y-104113702D01*
X137931954Y-104088648D01*
X137947131Y-104063456D01*
X137961272Y-104038508D01*
X137974010Y-104014178D01*
X137984972Y-103990845D01*
X137993783Y-103968890D01*
X137997264Y-103958545D01*
X138000070Y-103948686D01*
X138002151Y-103939360D01*
X138003460Y-103930612D01*
X138003954Y-103922494D01*
X138003583Y-103915047D01*
X138002461Y-103902634D01*
X138001960Y-103890269D01*
X138002043Y-103877943D01*
X138002683Y-103865659D01*
X138003842Y-103853412D01*
X138005496Y-103841198D01*
X138010146Y-103816864D01*
X138016388Y-103792636D01*
X138023961Y-103768491D01*
X138032618Y-103744408D01*
X138042107Y-103720369D01*
X138083343Y-103624197D01*
X138093211Y-103600044D01*
X138102399Y-103575806D01*
X138110655Y-103551462D01*
X138117726Y-103526988D01*
X138163277Y-103329257D01*
X138170141Y-103302293D01*
X138177300Y-103276052D01*
X138184763Y-103250908D01*
X138192536Y-103227224D01*
X138200632Y-103205368D01*
X138209062Y-103185711D01*
X138217831Y-103168619D01*
X138222347Y-103161151D01*
X138226952Y-103154462D01*
X138240007Y-103135859D01*
X138252278Y-103116433D01*
X138274511Y-103075300D01*
X138293753Y-103031435D01*
X138310109Y-102985219D01*
X138323678Y-102937032D01*
X138334561Y-102887246D01*
X138342862Y-102836245D01*
X138348682Y-102784403D01*
X138352124Y-102732102D01*
X138353288Y-102679715D01*
X138352277Y-102627620D01*
X138349192Y-102576198D01*
X138344136Y-102525826D01*
X138337212Y-102476879D01*
X138328518Y-102429739D01*
X138318159Y-102384783D01*
X138313932Y-102389472D01*
X138309644Y-102395050D01*
X138300848Y-102408567D01*
X138291706Y-102424752D01*
X138282160Y-102443022D01*
X138261594Y-102483470D01*
X138250453Y-102504477D01*
X138238652Y-102525232D01*
X138226136Y-102545146D01*
X138212836Y-102563637D01*
X138205874Y-102572164D01*
X138198693Y-102580117D01*
X138191286Y-102587421D01*
X138183645Y-102594003D01*
X138175760Y-102599793D01*
X138167628Y-102604714D01*
X138159236Y-102608693D01*
X138150579Y-102611661D01*
X138141649Y-102613541D01*
X138132437Y-102614262D01*
X138122936Y-102613746D01*
X138113141Y-102611928D01*
X138109110Y-102610381D01*
X138104710Y-102607715D01*
X138094923Y-102599298D01*
X138083995Y-102587229D01*
X138072146Y-102572063D01*
X138059599Y-102554353D01*
X138046572Y-102534653D01*
X138019958Y-102491502D01*
X137938324Y-102350093D01*
X138008250Y-102454829D01*
X137991412Y-102425453D01*
X137971819Y-102394837D01*
X137949686Y-102363381D01*
X137925231Y-102331476D01*
X137898670Y-102299519D01*
X137870215Y-102267910D01*
X137840089Y-102237040D01*
X137808503Y-102207307D01*
X137775675Y-102179109D01*
X137741821Y-102152839D01*
X137707155Y-102128896D01*
X137671896Y-102107673D01*
X137654113Y-102098205D01*
X137636260Y-102089570D01*
X137618369Y-102081807D01*
X137600463Y-102074978D01*
X137582570Y-102069125D01*
X137564718Y-102064296D01*
X137546934Y-102060547D01*
X137529245Y-102057922D01*
X137545889Y-102081931D01*
X137564409Y-102107261D01*
X137605164Y-102161181D01*
X137647695Y-102218241D01*
X137668433Y-102247501D01*
X137688184Y-102277007D01*
X137706467Y-102306581D01*
X137722810Y-102336042D01*
X137736731Y-102365211D01*
X137747755Y-102393911D01*
X137752033Y-102408028D01*
X137755404Y-102421957D01*
X137757816Y-102435682D01*
X137759202Y-102449175D01*
X137759509Y-102462416D01*
X137758671Y-102475384D01*
X137756632Y-102488053D01*
X137753334Y-102500401D01*
X137738854Y-102477927D01*
X137724323Y-102454111D01*
X137694649Y-102403741D01*
X137663453Y-102351851D01*
X137647010Y-102326136D01*
X137629861Y-102301002D01*
X137611899Y-102276767D01*
X137593012Y-102253754D01*
X137573093Y-102232283D01*
X137552033Y-102212673D01*
X137541042Y-102203666D01*
X137529725Y-102195242D01*
X137518069Y-102187446D01*
X137506060Y-102180317D01*
X137493687Y-102173889D01*
X137480933Y-102168210D01*
X137467783Y-102163315D01*
X137454226Y-102159244D01*
X137458188Y-102181768D01*
X137462847Y-102203890D01*
X137468058Y-102225603D01*
X137473674Y-102246902D01*
X137497268Y-102327885D01*
X137507694Y-102365783D01*
X137512051Y-102384068D01*
X137515644Y-102401905D01*
X137518322Y-102419288D01*
X137519944Y-102436213D01*
X137520359Y-102452676D01*
X137519423Y-102468672D01*
X137504949Y-102455173D01*
X137490542Y-102442511D01*
X137476157Y-102430606D01*
X137461745Y-102419380D01*
X137447264Y-102408754D01*
X137432664Y-102398654D01*
X137417902Y-102388993D01*
X137402935Y-102379702D01*
X137387711Y-102370694D01*
X137372190Y-102361898D01*
X137340068Y-102344616D01*
X137306200Y-102327227D01*
X137270219Y-102309102D01*
X137276810Y-102317152D01*
X137283094Y-102325387D01*
X137289109Y-102333786D01*
X137294891Y-102342323D01*
X137305917Y-102359736D01*
X137316470Y-102377435D01*
X137337379Y-102412965D01*
X137348335Y-102430428D01*
X137354075Y-102439004D01*
X137360033Y-102447443D01*
X137361998Y-102446568D01*
X137365372Y-102453557D01*
X137369837Y-102459468D01*
X137370944Y-102460913D01*
X137372077Y-102462359D01*
X137373248Y-102463811D01*
X137374469Y-102465274D01*
X137373673Y-102464849D01*
X137372905Y-102464427D01*
X137371422Y-102463596D01*
X137369948Y-102462763D01*
X137368405Y-102461911D01*
X137481812Y-102732891D01*
X137470244Y-102716302D01*
X137457175Y-102698663D01*
X137428218Y-102661018D01*
X137398309Y-102621563D01*
X137384050Y-102601657D01*
X137370819Y-102581900D01*
X137359034Y-102562492D01*
X137349116Y-102543632D01*
X137344991Y-102534472D01*
X137341490Y-102525525D01*
X137338666Y-102516815D01*
X137336573Y-102508366D01*
X137335262Y-102500207D01*
X137334788Y-102492360D01*
X137335202Y-102484852D01*
X137336556Y-102477706D01*
X137338902Y-102470949D01*
X137342298Y-102464604D01*
X137346790Y-102458699D01*
X137352436Y-102453256D01*
X137334294Y-102442576D01*
X137317206Y-102431930D01*
X137301055Y-102421347D01*
X137285733Y-102410867D01*
X137257115Y-102390350D01*
X137230450Y-102370660D01*
X137204837Y-102352070D01*
X137192140Y-102343275D01*
X137179368Y-102334863D01*
X137166408Y-102326866D01*
X137153147Y-102319317D01*
X137139472Y-102312255D01*
X137125267Y-102305713D01*
X137124117Y-102318276D01*
X137123354Y-102331014D01*
X137123074Y-102343944D01*
X137123383Y-102357086D01*
X137124381Y-102370464D01*
X137126165Y-102384094D01*
X137128838Y-102397995D01*
X137132502Y-102412191D01*
X137137257Y-102426701D01*
X137143202Y-102441543D01*
X137150439Y-102456740D01*
X137159064Y-102472310D01*
X137169186Y-102488275D01*
X137180899Y-102504650D01*
X137194306Y-102521464D01*
X137209508Y-102538728D01*
X137139657Y-102503216D01*
X137107529Y-102485937D01*
X137092005Y-102477140D01*
X137076781Y-102468135D01*
X137061811Y-102458843D01*
X137047051Y-102449186D01*
X137032450Y-102439083D01*
X137017970Y-102428460D01*
X137003561Y-102417232D01*
X136989174Y-102405327D01*
X136974771Y-102392661D01*
X136960302Y-102379161D01*
X136975065Y-102400548D01*
X136991085Y-102422650D01*
X137025486Y-102468656D01*
X137060721Y-102516457D01*
X137077777Y-102540808D01*
X137093995Y-102565340D01*
X137109025Y-102589965D01*
X137122517Y-102614588D01*
X137134125Y-102639126D01*
X137143500Y-102663485D01*
X137147238Y-102675573D01*
X137150289Y-102687579D01*
X137152606Y-102699498D01*
X137154145Y-102711317D01*
X137154867Y-102723025D01*
X137154723Y-102734609D01*
X137153671Y-102746058D01*
X137151671Y-102757365D01*
X137166251Y-102764034D01*
X137180805Y-102771135D01*
X137195149Y-102778741D01*
X137209091Y-102786935D01*
X137222444Y-102795796D01*
X137235025Y-102805402D01*
X137246642Y-102815835D01*
X137252027Y-102821387D01*
X137257104Y-102827174D01*
X137261844Y-102833207D01*
X137266227Y-102839497D01*
X137270229Y-102846054D01*
X137273823Y-102852886D01*
X137276991Y-102860005D01*
X137279702Y-102867420D01*
X137281943Y-102875141D01*
X137283680Y-102883178D01*
X137284897Y-102891541D01*
X137285566Y-102900239D01*
X137285666Y-102909284D01*
X137285174Y-102918685D01*
X137284063Y-102928450D01*
X137282313Y-102938593D01*
X137279899Y-102949121D01*
X137276798Y-102960044D01*
X137149431Y-102769279D01*
X137136944Y-102750576D01*
X137137040Y-102750615D01*
X137137135Y-102750651D01*
X137137233Y-102750684D01*
X137137332Y-102750716D01*
X137137537Y-102750774D01*
X137137743Y-102750828D01*
X137137951Y-102750882D01*
X137138157Y-102750941D01*
X137138257Y-102750971D01*
X137138357Y-102751004D01*
X137138454Y-102751038D01*
X137138549Y-102751076D01*
X137120736Y-102725053D01*
X137100563Y-102699705D01*
X137078270Y-102675046D01*
X137054099Y-102651092D01*
X137028291Y-102627862D01*
X137001087Y-102605371D01*
X136972730Y-102583633D01*
X136943458Y-102562669D01*
X136913516Y-102542493D01*
X136883145Y-102523122D01*
X136852581Y-102504572D01*
X136822072Y-102486861D01*
X136762176Y-102454021D01*
X136705383Y-102424729D01*
X136753120Y-102499460D01*
X136776065Y-102537881D01*
X136798283Y-102576861D01*
X136819702Y-102616293D01*
X136840235Y-102656067D01*
X136859805Y-102696078D01*
X136878332Y-102736210D01*
X136895733Y-102776361D01*
X136911935Y-102816422D01*
X136926850Y-102856282D01*
X136940403Y-102895835D01*
X136952512Y-102934970D01*
X136963097Y-102973580D01*
X136972078Y-103011556D01*
X136979375Y-103048792D01*
X136966842Y-103023713D01*
X136952519Y-102998595D01*
X136918876Y-102948315D01*
X136879181Y-102898131D01*
X136834167Y-102848215D01*
X136784570Y-102798743D01*
X136731122Y-102749891D01*
X136674562Y-102701832D01*
X136615625Y-102654738D01*
X136555040Y-102608790D01*
X136493547Y-102564159D01*
X136370769Y-102479546D01*
X136146622Y-102333816D01*
X136195736Y-102404597D01*
X136245266Y-102471073D01*
X136295215Y-102534196D01*
X136345582Y-102594927D01*
X136551243Y-102833008D01*
X136571265Y-102858031D01*
X136592597Y-102887257D01*
X136614808Y-102920097D01*
X136637476Y-102955951D01*
X136660176Y-102994225D01*
X136682483Y-103034326D01*
X136703969Y-103075655D01*
X136724210Y-103117620D01*
X136742781Y-103159621D01*
X136759258Y-103201067D01*
X136773211Y-103241362D01*
X136784219Y-103279909D01*
X136791854Y-103316111D01*
X136795692Y-103349378D01*
X136796055Y-103364723D01*
X136795307Y-103379109D01*
X136793399Y-103392464D01*
X136790275Y-103404713D01*
X136745154Y-103338415D01*
X136699962Y-103274905D01*
X136654355Y-103214157D01*
X136607983Y-103156140D01*
X136560511Y-103100823D01*
X136511584Y-103048179D01*
X136460863Y-102998180D01*
X136407998Y-102950793D01*
X136352650Y-102905991D01*
X136294467Y-102863747D01*
X136233108Y-102824027D01*
X136168228Y-102786805D01*
X136099480Y-102752052D01*
X136026520Y-102719735D01*
X135949004Y-102689830D01*
X135866581Y-102662305D01*
X135887689Y-102694796D01*
X135908453Y-102728033D01*
X135950071Y-102795390D01*
X135971476Y-102828832D01*
X135993649Y-102861664D01*
X136016864Y-102893545D01*
X136028949Y-102909026D01*
X136041396Y-102924140D01*
X136058420Y-102943295D01*
X136075963Y-102961419D01*
X136093897Y-102978701D01*
X136112098Y-102995327D01*
X136185054Y-103059093D01*
X136202704Y-103075300D01*
X136219863Y-103091990D01*
X136236411Y-103109355D01*
X136252219Y-103127585D01*
X136267163Y-103146867D01*
X136281116Y-103167395D01*
X136293954Y-103189354D01*
X136299912Y-103200931D01*
X136305547Y-103212936D01*
X136286037Y-103204682D01*
X136265707Y-103195555D01*
X136223089Y-103175041D01*
X136178720Y-103152093D01*
X136133621Y-103127417D01*
X136088819Y-103101715D01*
X136045331Y-103075690D01*
X136004179Y-103050047D01*
X135966390Y-103025484D01*
X135949612Y-103013565D01*
X135932832Y-103000309D01*
X135916021Y-102985961D01*
X135899151Y-102970767D01*
X135830503Y-102906499D01*
X135812905Y-102890794D01*
X135795072Y-102875730D01*
X135776981Y-102861551D01*
X135758600Y-102848506D01*
X135739898Y-102836844D01*
X135720852Y-102826809D01*
X135711188Y-102822480D01*
X135701427Y-102818651D01*
X135691564Y-102815353D01*
X135681597Y-102812615D01*
X135674904Y-102825305D01*
X135669212Y-102838891D01*
X135664482Y-102853321D01*
X135660679Y-102868536D01*
X135657766Y-102884476D01*
X135655700Y-102901085D01*
X135653972Y-102936088D01*
X135655189Y-102973081D01*
X135659053Y-103011609D01*
X135665260Y-103051211D01*
X135673506Y-103091433D01*
X135683490Y-103131815D01*
X135694911Y-103171896D01*
X135707467Y-103211221D01*
X135720852Y-103249330D01*
X135734767Y-103285769D01*
X135748907Y-103320075D01*
X135776660Y-103380461D01*
X135794097Y-103413343D01*
X135813485Y-103445952D01*
X135834635Y-103478293D01*
X135857349Y-103510384D01*
X135881433Y-103542228D01*
X135906696Y-103573844D01*
X135959973Y-103636419D01*
X136181282Y-103879648D01*
X136280745Y-103997292D01*
X136377208Y-104117123D01*
X136471102Y-104239001D01*
X136562843Y-104362794D01*
X136652859Y-104488369D01*
X136741577Y-104615591D01*
X136916801Y-104874437D01*
X137109024Y-105123863D01*
X137165491Y-105201822D01*
X137190426Y-105238793D01*
X137212058Y-105273369D01*
X137229554Y-105304761D01*
X137242088Y-105332181D01*
X137246234Y-105344152D01*
X137248831Y-105354833D01*
X137249772Y-105364123D01*
X137248953Y-105371929D01*
X137246440Y-105377168D01*
X137242316Y-105379477D01*
X137236680Y-105379020D01*
X137229639Y-105375970D01*
X137211747Y-105362767D01*
X137189465Y-105341220D01*
X137163611Y-105312684D01*
X137135016Y-105278517D01*
X137072883Y-105198702D01*
X137009656Y-105112612D01*
X136951923Y-105031091D01*
X136879290Y-104925097D01*
X136495320Y-104350000D01*
X136056365Y-103799382D01*
X136055575Y-103831997D01*
X136053438Y-103860803D01*
X136050018Y-103885964D01*
X136045379Y-103907641D01*
X136039581Y-103926000D01*
X136032687Y-103941206D01*
X136024764Y-103953419D01*
X136015872Y-103962803D01*
X136006075Y-103969523D01*
X135995438Y-103973741D01*
X135984021Y-103975623D01*
X135971890Y-103975332D01*
X135959107Y-103973027D01*
X135945736Y-103968877D01*
X135931840Y-103963043D01*
X135917481Y-103955688D01*
X135887634Y-103937072D01*
X135856693Y-103914341D01*
X135825173Y-103888795D01*
X135793574Y-103861749D01*
X135732169Y-103808380D01*
X135703377Y-103784673D01*
X135676530Y-103764694D01*
X135688983Y-103782847D01*
X135701770Y-103800743D01*
X135727488Y-103835957D01*
X135751980Y-103870715D01*
X135763234Y-103888042D01*
X135773539Y-103905397D01*
X135782688Y-103922832D01*
X135790463Y-103940391D01*
X135793771Y-103949229D01*
X135796654Y-103958121D01*
X135799088Y-103967065D01*
X135801043Y-103976069D01*
X135802499Y-103985140D01*
X135803423Y-103994284D01*
X135803792Y-104003508D01*
X135803577Y-104012816D01*
X135802753Y-104022214D01*
X135801294Y-104031708D01*
X135799171Y-104041307D01*
X135796357Y-104051013D01*
X135785627Y-104033374D01*
X135771636Y-104013453D01*
X135754757Y-103991674D01*
X135735363Y-103968465D01*
X135713824Y-103944250D01*
X135690512Y-103919455D01*
X135665800Y-103894510D01*
X135640057Y-103869837D01*
X135613657Y-103845860D01*
X135586968Y-103823012D01*
X135560367Y-103801715D01*
X135534219Y-103782394D01*
X135508902Y-103765477D01*
X135484785Y-103751390D01*
X135462240Y-103740559D01*
X135451675Y-103736499D01*
X135441637Y-103733412D01*
X135511564Y-103838143D01*
X135485322Y-103827817D01*
X135459313Y-103815634D01*
X135433519Y-103801772D01*
X135407913Y-103786403D01*
X135382472Y-103769706D01*
X135357173Y-103751861D01*
X135331993Y-103733039D01*
X135306912Y-103713418D01*
X135256943Y-103672483D01*
X135207081Y-103630466D01*
X135157144Y-103588777D01*
X135106943Y-103548824D01*
X135114358Y-103557416D01*
X135121545Y-103566227D01*
X135128519Y-103575237D01*
X135135291Y-103584429D01*
X135148302Y-103603280D01*
X135160708Y-103622634D01*
X135172629Y-103642345D01*
X135184191Y-103662261D01*
X135206746Y-103702123D01*
X135214284Y-103715186D01*
X135221605Y-103727432D01*
X135235497Y-103749575D01*
X135248233Y-103768736D01*
X135259622Y-103785101D01*
X135277596Y-103810191D01*
X135283797Y-103819290D01*
X135286117Y-103823060D01*
X135287887Y-103826342D01*
X135289081Y-103829154D01*
X135289674Y-103831527D01*
X135289646Y-103833479D01*
X135288969Y-103835036D01*
X135287624Y-103836222D01*
X135285580Y-103837058D01*
X135282819Y-103837567D01*
X135279314Y-103837775D01*
X135275045Y-103837703D01*
X135269983Y-103837374D01*
X135257397Y-103836046D01*
X135221683Y-103831341D01*
X135194422Y-103826484D01*
X135164166Y-103818831D01*
X135131235Y-103808586D01*
X135095944Y-103795963D01*
X135058617Y-103781166D01*
X135019569Y-103764406D01*
X134979119Y-103745894D01*
X134937589Y-103725832D01*
X134852547Y-103681911D01*
X134766998Y-103634309D01*
X134683490Y-103584695D01*
X134604572Y-103534742D01*
X134616819Y-103550110D01*
X134628714Y-103565987D01*
X134640280Y-103582286D01*
X134651537Y-103598926D01*
X134673209Y-103632889D01*
X134693907Y-103667206D01*
X134733062Y-103734199D01*
X134751862Y-103765532D01*
X134770377Y-103794524D01*
X134782687Y-103813607D01*
X134793139Y-103831155D01*
X134801800Y-103847210D01*
X134808736Y-103861815D01*
X134814014Y-103875008D01*
X134817702Y-103886834D01*
X134819871Y-103897335D01*
X134820581Y-103906554D01*
X134819903Y-103914531D01*
X134817905Y-103921310D01*
X134814653Y-103926932D01*
X134810213Y-103931437D01*
X134804653Y-103934870D01*
X134798042Y-103937274D01*
X134790447Y-103938686D01*
X134781930Y-103939151D01*
X134772566Y-103938712D01*
X134762418Y-103937410D01*
X134751553Y-103935287D01*
X134740037Y-103932385D01*
X134715332Y-103924411D01*
X134688835Y-103913823D01*
X134661085Y-103900964D01*
X134632619Y-103886163D01*
X134603979Y-103869760D01*
X134575696Y-103852087D01*
X134576234Y-103856030D01*
X134576596Y-103860000D01*
X134576788Y-103863999D01*
X134576820Y-103868025D01*
X134576700Y-103872078D01*
X134576442Y-103876160D01*
X134576046Y-103880271D01*
X134575526Y-103884413D01*
X134574891Y-103888584D01*
X134574147Y-103892785D01*
X134573304Y-103897014D01*
X134572371Y-103901276D01*
X134570266Y-103909894D01*
X134567903Y-103918639D01*
X134406264Y-103898313D01*
X134328849Y-103888319D01*
X134251836Y-103877130D01*
X134173828Y-103863762D01*
X134134012Y-103855956D01*
X134093423Y-103847237D01*
X134051886Y-103837481D01*
X134009223Y-103826566D01*
X133965261Y-103814374D01*
X133919827Y-103800776D01*
X133942452Y-103817383D01*
X133966725Y-103833229D01*
X133992516Y-103848376D01*
X134019695Y-103862893D01*
X134077689Y-103890309D01*
X134139659Y-103916004D01*
X134204564Y-103940519D01*
X134271349Y-103964386D01*
X134406393Y-104012320D01*
X134472555Y-104037458D01*
X134536418Y-104064088D01*
X134596932Y-104092749D01*
X134625606Y-104108005D01*
X134653050Y-104123970D01*
X134679136Y-104140708D01*
X134703730Y-104158291D01*
X134726705Y-104176781D01*
X134747922Y-104196246D01*
X134767257Y-104216754D01*
X134784580Y-104238370D01*
X134799756Y-104261163D01*
X134812657Y-104285199D01*
X134776222Y-104278803D01*
X134739742Y-104275059D01*
X134703215Y-104273561D01*
X134666653Y-104273912D01*
X134630060Y-104275711D01*
X134593442Y-104278558D01*
X134520160Y-104285788D01*
X134446851Y-104292404D01*
X134410205Y-104294480D01*
X134373569Y-104295200D01*
X134336953Y-104294164D01*
X134300361Y-104290972D01*
X134263799Y-104285225D01*
X134245532Y-104281267D01*
X134227275Y-104276519D01*
X134240505Y-104286240D01*
X134253855Y-104296598D01*
X134280673Y-104318386D01*
X134307275Y-104340218D01*
X134320356Y-104350626D01*
X134333211Y-104360420D01*
X134345786Y-104369387D01*
X134358028Y-104377321D01*
X134364005Y-104380835D01*
X134369875Y-104384013D01*
X134375635Y-104386828D01*
X134381275Y-104389254D01*
X134386790Y-104391264D01*
X134392168Y-104392833D01*
X134397407Y-104393936D01*
X134402500Y-104394545D01*
X134407437Y-104394637D01*
X134412213Y-104394180D01*
X134416819Y-104393153D01*
X134421250Y-104391528D01*
X134430410Y-104387734D01*
X134438527Y-104384950D01*
X134445648Y-104383111D01*
X134451820Y-104382151D01*
X134457085Y-104382011D01*
X134461497Y-104382625D01*
X134465099Y-104383932D01*
X134467936Y-104385865D01*
X134470058Y-104388363D01*
X134471510Y-104391365D01*
X134472340Y-104394805D01*
X134472594Y-104398617D01*
X134472318Y-104402742D01*
X134471560Y-104407115D01*
X134470367Y-104411674D01*
X134468786Y-104416355D01*
X134466860Y-104421093D01*
X134464642Y-104425828D01*
X134459502Y-104435026D01*
X134453740Y-104443449D01*
X134447735Y-104450582D01*
X134444756Y-104453510D01*
X134441856Y-104455925D01*
X134439080Y-104457767D01*
X134436477Y-104458969D01*
X134434093Y-104459472D01*
X134431972Y-104459209D01*
X134430167Y-104458118D01*
X134428721Y-104456136D01*
X134429905Y-104459163D01*
X134430392Y-104462151D01*
X134430254Y-104465106D01*
X134429568Y-104468032D01*
X134428411Y-104470935D01*
X134426860Y-104473819D01*
X134422880Y-104479559D01*
X134413552Y-104491076D01*
X134409430Y-104496939D01*
X134407769Y-104499917D01*
X134406480Y-104502934D01*
X134405637Y-104505994D01*
X134405318Y-104509101D01*
X134405600Y-104512264D01*
X134406555Y-104515488D01*
X134408267Y-104518777D01*
X134410808Y-104522137D01*
X134414252Y-104525573D01*
X134418681Y-104529093D01*
X134424167Y-104532698D01*
X134430788Y-104536400D01*
X134438623Y-104540199D01*
X134447746Y-104544103D01*
X134458232Y-104548114D01*
X134470161Y-104552244D01*
X134483607Y-104556493D01*
X134498647Y-104560870D01*
X134482111Y-104570388D01*
X134465274Y-104578766D01*
X134448164Y-104586083D01*
X134430800Y-104592413D01*
X134413206Y-104597830D01*
X134395402Y-104602410D01*
X134359264Y-104609371D01*
X134322569Y-104613896D01*
X134285492Y-104616597D01*
X134210932Y-104618938D01*
X134137034Y-104621247D01*
X134100785Y-104623905D01*
X134065247Y-104628373D01*
X134030598Y-104635258D01*
X134013667Y-104639799D01*
X133997025Y-104645168D01*
X133980695Y-104651448D01*
X133964702Y-104658708D01*
X133949067Y-104667027D01*
X133933813Y-104676483D01*
X133945498Y-104676389D01*
X133957753Y-104677034D01*
X133983819Y-104680397D01*
X134011742Y-104686298D01*
X134041244Y-104694461D01*
X134072051Y-104704610D01*
X134103889Y-104716468D01*
X134136482Y-104729758D01*
X134169557Y-104744207D01*
X134236053Y-104775466D01*
X134301178Y-104808039D01*
X134418532Y-104868279D01*
X134394753Y-104882558D01*
X134369219Y-104895076D01*
X134342138Y-104906058D01*
X134313715Y-104915730D01*
X134284162Y-104924322D01*
X134253685Y-104932054D01*
X134190780Y-104945845D01*
X134126669Y-104958909D01*
X134063008Y-104973049D01*
X134031863Y-104981086D01*
X134001455Y-104990068D01*
X133971986Y-105000221D01*
X133943672Y-105011769D01*
X133969902Y-105019916D01*
X133992374Y-105028842D01*
X134011324Y-105038470D01*
X134026975Y-105048726D01*
X134039562Y-105059544D01*
X134049313Y-105070845D01*
X134056460Y-105082560D01*
X134061234Y-105094613D01*
X134063863Y-105106937D01*
X134064580Y-105119455D01*
X134063616Y-105132096D01*
X134061198Y-105144783D01*
X134057558Y-105157449D01*
X134052928Y-105170018D01*
X134041618Y-105194585D01*
X134017245Y-105239370D01*
X134007871Y-105258429D01*
X134004692Y-105266871D01*
X134002829Y-105274492D01*
X134002511Y-105281218D01*
X134003964Y-105286975D01*
X134007424Y-105291694D01*
X134013120Y-105295301D01*
X134021283Y-105297723D01*
X134032144Y-105298888D01*
X134045930Y-105298721D01*
X134062874Y-105297153D01*
X134053045Y-105307275D01*
X134045957Y-105316824D01*
X134041473Y-105325808D01*
X134039449Y-105334247D01*
X134039752Y-105342153D01*
X134042242Y-105349541D01*
X134046783Y-105356425D01*
X134053235Y-105362823D01*
X134061460Y-105368748D01*
X134071322Y-105374212D01*
X134082680Y-105379238D01*
X134095399Y-105383833D01*
X134124362Y-105391796D01*
X134157106Y-105398227D01*
X134192529Y-105403241D01*
X134229524Y-105406956D01*
X134266986Y-105409497D01*
X134303816Y-105410977D01*
X134371147Y-105411238D01*
X134422683Y-105408690D01*
X134386712Y-105424953D01*
X134350722Y-105441867D01*
X134315535Y-105459281D01*
X134281985Y-105477049D01*
X134250896Y-105495022D01*
X134223089Y-105513049D01*
X134210679Y-105522039D01*
X134199398Y-105530987D01*
X134189352Y-105539872D01*
X134180645Y-105548680D01*
X134173378Y-105557390D01*
X134167658Y-105565985D01*
X134163585Y-105574446D01*
X134161265Y-105582752D01*
X134160796Y-105590887D01*
X134162288Y-105598830D01*
X134165842Y-105606568D01*
X134171557Y-105614075D01*
X134179541Y-105621338D01*
X134189897Y-105628336D01*
X134202730Y-105635047D01*
X134218139Y-105641460D01*
X134236228Y-105647553D01*
X134257102Y-105653307D01*
X134280864Y-105658703D01*
X134307617Y-105663721D01*
X134338991Y-105668184D01*
X134375764Y-105671849D01*
X134417161Y-105674681D01*
X134462391Y-105676640D01*
X134561240Y-105677791D01*
X134666056Y-105674996D01*
X134718749Y-105672027D01*
X134770589Y-105667956D01*
X134820794Y-105662747D01*
X134868582Y-105656362D01*
X134913171Y-105648765D01*
X134953782Y-105639917D01*
X134989631Y-105629777D01*
X135019936Y-105618311D01*
X135065523Y-105598812D01*
X135111828Y-105580525D01*
X135158799Y-105563377D01*
X135206386Y-105547290D01*
X135303199Y-105518002D01*
X135401865Y-105492068D01*
X135501970Y-105468888D01*
X135603107Y-105447862D01*
X135806853Y-105409887D01*
X135863679Y-105401257D01*
X135920689Y-105395460D01*
X135977882Y-105392230D01*
X136035263Y-105391295D01*
X136092830Y-105392400D01*
X136150588Y-105395274D01*
X136208538Y-105399655D01*
X136266684Y-105405277D01*
X136383567Y-105419177D01*
X136501260Y-105434858D01*
X136619772Y-105450197D01*
X136739125Y-105463077D01*
X136725324Y-105473049D01*
X136711397Y-105481762D01*
X136697348Y-105489283D01*
X136683184Y-105495675D01*
X136668901Y-105501000D01*
X136654508Y-105505326D01*
X136640006Y-105508715D01*
X136625395Y-105511231D01*
X136610683Y-105512938D01*
X136595868Y-105513903D01*
X136580955Y-105514189D01*
X136565949Y-105513857D01*
X136535661Y-105511606D01*
X136505025Y-105507663D01*
X136379497Y-105485263D01*
X136347481Y-105480574D01*
X136315261Y-105477277D01*
X136282857Y-105475887D01*
X136266593Y-105476069D01*
X136250292Y-105476917D01*
X136218111Y-105479622D01*
X136186477Y-105482899D01*
X136124606Y-105490873D01*
X136064155Y-105500248D01*
X136004603Y-105510435D01*
X135886101Y-105530868D01*
X135826111Y-105539935D01*
X135764931Y-105547442D01*
X135601328Y-105566283D01*
X135437992Y-105588006D01*
X135274983Y-105612125D01*
X135112363Y-105638155D01*
X134788527Y-105694011D01*
X134466968Y-105751701D01*
X134403926Y-105763678D01*
X134335626Y-105778062D01*
X134264136Y-105794573D01*
X134191524Y-105812935D01*
X134119849Y-105832864D01*
X134051181Y-105854086D01*
X133987587Y-105876320D01*
X133958337Y-105887730D01*
X133931131Y-105899286D01*
X133920697Y-105903322D01*
X133909765Y-105906398D01*
X133898373Y-105908568D01*
X133886560Y-105909882D01*
X133874362Y-105910390D01*
X133861823Y-105910140D01*
X133848980Y-105909183D01*
X133835872Y-105907565D01*
X133822538Y-105905339D01*
X133809017Y-105902554D01*
X133781577Y-105895502D01*
X133753862Y-105886808D01*
X133726186Y-105876867D01*
X133698862Y-105866074D01*
X133672205Y-105854827D01*
X133622145Y-105832554D01*
X133578516Y-105813218D01*
X133559896Y-105805643D01*
X133543826Y-105799992D01*
X133527306Y-105795612D01*
X133507882Y-105791586D01*
X133461998Y-105783804D01*
X133409548Y-105775050D01*
X133381915Y-105769809D01*
X133353906Y-105763726D01*
X133325941Y-105756606D01*
X133298445Y-105748244D01*
X133285002Y-105743536D01*
X133271839Y-105738444D01*
X133258999Y-105732943D01*
X133246540Y-105727008D01*
X133234517Y-105720613D01*
X133222976Y-105713733D01*
X133211975Y-105706345D01*
X133201565Y-105698422D01*
X133191801Y-105689941D01*
X133182732Y-105680876D01*
X133174413Y-105671204D01*
X133166895Y-105660895D01*
X133161767Y-105653520D01*
X133156432Y-105646423D01*
X133145198Y-105632990D01*
X133133312Y-105620457D01*
X133120892Y-105608687D01*
X133108052Y-105597540D01*
X133094910Y-105586882D01*
X133068192Y-105566479D01*
X133041673Y-105546375D01*
X133028781Y-105536090D01*
X133016289Y-105525469D01*
X133004315Y-105514372D01*
X132992981Y-105502659D01*
X132982393Y-105490196D01*
X132977420Y-105483641D01*
X132972678Y-105476844D01*
X132854103Y-105192401D01*
X132838016Y-105166134D01*
X132824100Y-105139259D01*
X132811931Y-105111869D01*
X132801088Y-105084065D01*
X132762562Y-104970669D01*
X132752037Y-104942266D01*
X132740309Y-104914037D01*
X132726963Y-104886082D01*
X132711576Y-104858501D01*
X132693722Y-104831388D01*
X132683739Y-104818040D01*
X132672986Y-104804845D01*
X132661406Y-104791817D01*
X132648946Y-104778969D01*
X132635553Y-104766311D01*
X132621176Y-104753857D01*
X132587595Y-104728038D01*
X132552048Y-104704535D01*
X132514742Y-104683324D01*
X132475878Y-104664382D01*
X132435660Y-104647683D01*
X132394294Y-104633194D01*
X132351980Y-104620896D01*
X132308926Y-104610762D01*
X132265333Y-104602767D01*
X132221405Y-104596882D01*
X132177347Y-104593084D01*
X132133360Y-104591343D01*
X132089653Y-104591637D01*
X132046425Y-104593942D01*
X132003881Y-104598225D01*
X131962227Y-104604465D01*
X131923194Y-104613393D01*
X131871342Y-104627966D01*
X131739199Y-104667688D01*
X131585865Y-104710916D01*
X131507520Y-104729873D01*
X131431402Y-104744936D01*
X131360019Y-104754521D01*
X131326885Y-104756763D01*
X131295876Y-104757035D01*
X131267303Y-104755144D01*
X131241480Y-104750891D01*
X131218725Y-104744074D01*
X131199345Y-104734496D01*
X131183658Y-104721959D01*
X131171976Y-104706264D01*
X131164610Y-104687212D01*
X131161878Y-104664605D01*
X131164091Y-104638245D01*
X131171563Y-104607929D01*
X131184607Y-104573463D01*
X131203535Y-104534647D01*
X131220478Y-104506166D01*
X131239170Y-104480565D01*
X131259526Y-104457705D01*
X131281466Y-104437455D01*
X131304906Y-104419675D01*
X131329759Y-104404227D01*
X131355941Y-104390978D01*
X131383372Y-104379790D01*
X131411968Y-104370527D01*
X131441642Y-104363049D01*
X131472315Y-104357222D01*
X131503900Y-104352912D01*
X131569471Y-104348287D01*
X131637689Y-104348078D01*
X131707885Y-104351198D01*
X131779386Y-104356549D01*
X131923638Y-104369583D01*
X131995047Y-104375077D01*
X132065085Y-104378436D01*
X132133085Y-104378564D01*
X132198374Y-104374371D01*
X132278135Y-104365404D01*
X132354390Y-104355421D01*
X132427000Y-104344012D01*
X132495827Y-104330772D01*
X132560731Y-104315295D01*
X132621574Y-104297176D01*
X132650428Y-104286998D01*
X132678215Y-104276008D01*
X132704920Y-104264154D01*
X132730522Y-104251385D01*
X132755004Y-104237651D01*
X132778351Y-104222902D01*
X132800541Y-104207086D01*
X132821562Y-104190150D01*
X132841394Y-104172048D01*
X132860020Y-104152726D01*
X132877422Y-104132135D01*
X132893585Y-104110225D01*
X132908489Y-104086942D01*
X132922118Y-104062236D01*
X132934454Y-104036059D01*
X132945482Y-104008356D01*
X132955181Y-103979081D01*
X132963536Y-103948179D01*
X132970528Y-103915602D01*
X132976142Y-103881300D01*
X132980402Y-103851078D01*
X132983731Y-103830687D01*
X132988110Y-103807797D01*
X132993722Y-103783168D01*
X133000757Y-103757567D01*
X133009396Y-103731760D01*
X133019832Y-103706506D01*
X133025779Y-103694326D01*
X133032246Y-103682571D01*
X133039253Y-103671339D01*
X133046825Y-103660721D01*
X133054985Y-103650819D01*
X133063756Y-103641719D01*
X133073160Y-103633524D01*
X133083223Y-103626329D01*
X133093965Y-103620227D01*
X133105413Y-103615314D01*
X133117588Y-103611686D01*
X133130516Y-103609439D01*
X133144215Y-103608668D01*
X133158712Y-103609470D01*
X133174030Y-103611936D01*
X133190192Y-103616167D01*
X133205481Y-103620620D01*
X133221092Y-103624578D01*
X133236956Y-103628011D01*
X133253004Y-103630882D01*
X133269171Y-103633156D01*
X133285386Y-103634801D01*
X133301579Y-103635780D01*
X133317683Y-103636061D01*
X133333629Y-103635608D01*
X133349352Y-103634389D01*
X133364777Y-103632369D01*
X133379841Y-103629509D01*
X133394472Y-103625779D01*
X133408605Y-103621147D01*
X133422167Y-103615573D01*
X133435095Y-103609030D01*
X133442246Y-103604670D01*
X133448623Y-103600053D01*
X133454268Y-103595207D01*
X133459221Y-103590149D01*
X133463520Y-103584902D01*
X133467204Y-103579491D01*
X133470312Y-103573940D01*
X133472883Y-103568266D01*
X133474959Y-103562496D01*
X133476572Y-103556653D01*
X133477766Y-103550760D01*
X133478582Y-103544834D01*
X133479056Y-103538905D01*
X133479226Y-103532992D01*
X133478817Y-103521308D01*
X133477667Y-103509963D01*
X133476090Y-103499140D01*
X133472903Y-103479783D01*
X133471916Y-103471617D01*
X133471712Y-103467990D01*
X133471755Y-103464696D01*
X133472079Y-103461762D01*
X133472727Y-103459206D01*
X133473736Y-103457057D01*
X133475146Y-103455330D01*
X133478596Y-103452409D01*
X133482448Y-103449650D01*
X133486671Y-103447043D01*
X133491237Y-103444574D01*
X133501286Y-103440005D01*
X133512353Y-103435843D01*
X133524213Y-103431991D01*
X133536630Y-103428348D01*
X133562198Y-103421303D01*
X133574885Y-103417702D01*
X133587197Y-103413921D01*
X133598897Y-103409856D01*
X133609759Y-103405415D01*
X133619545Y-103400492D01*
X133623959Y-103397823D01*
X133628020Y-103394995D01*
X133631694Y-103392001D01*
X133634954Y-103388826D01*
X133637771Y-103385456D01*
X133640114Y-103381881D01*
X133643940Y-103374870D01*
X133647106Y-103368437D01*
X133649652Y-103362544D01*
X133651615Y-103357156D01*
X133653032Y-103352230D01*
X133653943Y-103347728D01*
X133654386Y-103343611D01*
X133654399Y-103339842D01*
X133654018Y-103336382D01*
X133653288Y-103333190D01*
X133652238Y-103330229D01*
X133650914Y-103327462D01*
X133649351Y-103324845D01*
X133647585Y-103322345D01*
X133643610Y-103317532D01*
X133639288Y-103312708D01*
X133634935Y-103307567D01*
X133632838Y-103304783D01*
X133630849Y-103301799D01*
X133629003Y-103298581D01*
X133627337Y-103295091D01*
X133625894Y-103291287D01*
X133624709Y-103287133D01*
X133623820Y-103282591D01*
X133623268Y-103277616D01*
X133623090Y-103272177D01*
X133623323Y-103266232D01*
X133624004Y-103259741D01*
X133625177Y-103252665D01*
X133645357Y-103140604D01*
X133650253Y-103121131D01*
X133653034Y-103112523D01*
X133656121Y-103104630D01*
X133659582Y-103097421D01*
X133663479Y-103090871D01*
X133667878Y-103084950D01*
X133672841Y-103079632D01*
X133678437Y-103074885D01*
X133684727Y-103070686D01*
X133691780Y-103067004D01*
X133699653Y-103063809D01*
X133708417Y-103061078D01*
X133718134Y-103058780D01*
X133728869Y-103056886D01*
X133740686Y-103055369D01*
X133767828Y-103053354D01*
X133800074Y-103052505D01*
X133837942Y-103052607D01*
X133881947Y-103053426D01*
X133901674Y-103053613D01*
X133920334Y-103053236D01*
X133937982Y-103052321D01*
X133954678Y-103050887D01*
X133970482Y-103048959D01*
X133985453Y-103046561D01*
X133999652Y-103043718D01*
X134013137Y-103040447D01*
X134025965Y-103036778D01*
X134038198Y-103032729D01*
X134049895Y-103028325D01*
X134061115Y-103023589D01*
X134082362Y-103013214D01*
X134102409Y-103001785D01*
X134121736Y-102989492D01*
X134140813Y-102976517D01*
X134180116Y-102949260D01*
X134201292Y-102935350D01*
X134224117Y-102921497D01*
X134249063Y-102907882D01*
X134276604Y-102894697D01*
X134290662Y-102888805D01*
X134304983Y-102883511D01*
X134334359Y-102874611D01*
X134364629Y-102867776D01*
X134395693Y-102862792D01*
X134427448Y-102859442D01*
X134459789Y-102857509D01*
X134492613Y-102856779D01*
X134525822Y-102857035D01*
X134592975Y-102859636D01*
X134660423Y-102863584D01*
X134727349Y-102867153D01*
X134760362Y-102868257D01*
X134792932Y-102868614D01*
X134856339Y-102870275D01*
X134885997Y-102872451D01*
X134914397Y-102875494D01*
X134941623Y-102879382D01*
X134967757Y-102884090D01*
X134992874Y-102889599D01*
X135017059Y-102895885D01*
X135062953Y-102910691D01*
X135106081Y-102928334D01*
X135147093Y-102948630D01*
X135186634Y-102971402D01*
X135225350Y-102996462D01*
X135263885Y-103023636D01*
X135343000Y-103083596D01*
X135429148Y-103149830D01*
X135476476Y-103184851D01*
X135527496Y-103220899D01*
X135366214Y-102983631D01*
X135324789Y-102919561D01*
X135284784Y-102854247D01*
X135247133Y-102788021D01*
X135212770Y-102721216D01*
X135182624Y-102654161D01*
X135157626Y-102587183D01*
X135147350Y-102553826D01*
X135138714Y-102520615D01*
X135131827Y-102487586D01*
X135126812Y-102454786D01*
X135123785Y-102422251D01*
X135122859Y-102390025D01*
X135124151Y-102358149D01*
X135127782Y-102326664D01*
X135133864Y-102295611D01*
X135142516Y-102265032D01*
X135153854Y-102234969D01*
X135167993Y-102205460D01*
X135187575Y-102171464D01*
X135208337Y-102140317D01*
X135230132Y-102111670D01*
X135252823Y-102085165D01*
X135276262Y-102060452D01*
X135300311Y-102037175D01*
X135324829Y-102014981D01*
X135349666Y-101993515D01*
X135399752Y-101951355D01*
X135424712Y-101929956D01*
X135449429Y-101907867D01*
X135473759Y-101884740D01*
X135497559Y-101860217D01*
X135520690Y-101833949D01*
X135543009Y-101805579D01*
X135547198Y-101800234D01*
X135551692Y-101795098D01*
X135561520Y-101785416D01*
X135572379Y-101776460D01*
X135584150Y-101768164D01*
X135596712Y-101760459D01*
X135609947Y-101753274D01*
X135623737Y-101746542D01*
X135637961Y-101740194D01*
X135753239Y-101694993D01*
X135771843Y-101685948D01*
X135789292Y-101676023D01*
X135805727Y-101665354D01*
X135821297Y-101654079D01*
X135836145Y-101642326D01*
X135850415Y-101630233D01*
X135877800Y-101605567D01*
X135904617Y-101581157D01*
X135918173Y-101569383D01*
X135932021Y-101558075D01*
X135946305Y-101547373D01*
X135961169Y-101537404D01*
X135976759Y-101528308D01*
X135993219Y-101520215D01*
X136052769Y-101492241D01*
X136110039Y-101462462D01*
X136165182Y-101430975D01*
X136218364Y-101397867D01*
X136269735Y-101363228D01*
X136319457Y-101327145D01*
X136367688Y-101289710D01*
X136414586Y-101251011D01*
X136460307Y-101211144D01*
X136505011Y-101170192D01*
X136591995Y-101085401D01*
X136676803Y-100997357D01*
X136760695Y-100906777D01*
X136798489Y-100863657D01*
X136837535Y-100816249D01*
X136919789Y-100712528D01*
X137008270Y-100603540D01*
X137055098Y-100549541D01*
X137103788Y-100497195D01*
X137154439Y-100447491D01*
X137207156Y-100401416D01*
X137262035Y-100359961D01*
X137290318Y-100341277D01*
X137319182Y-100324119D01*
X137348638Y-100308609D01*
X137378694Y-100294876D01*
X137409370Y-100283038D01*
X137440676Y-100273221D01*
X137472626Y-100265550D01*
X137505228Y-100260147D01*
X137538499Y-100257137D01*
X137572450Y-100256642D01*
X137621323Y-100259524D01*
G37*
G36*
X157664108Y-72635937D02*
G01*
X157668036Y-72640198D01*
X157671303Y-72646806D01*
X157673944Y-72655600D01*
X157675996Y-72666418D01*
X157678479Y-72693483D01*
X157679047Y-72726709D01*
X157677990Y-72764803D01*
X157675602Y-72806478D01*
X157672178Y-72850440D01*
X157642544Y-73129552D01*
X157640598Y-73209804D01*
X157640636Y-73290324D01*
X157642198Y-73370998D01*
X157644828Y-73451711D01*
X157651451Y-73612812D01*
X157654525Y-73692972D01*
X157656830Y-73772722D01*
X157659338Y-74061679D01*
X157644943Y-73925435D01*
X157622730Y-73759226D01*
X157619842Y-73737202D01*
X157617681Y-73715064D01*
X157616180Y-73692824D01*
X157615271Y-73670494D01*
X157614888Y-73648087D01*
X157614962Y-73625615D01*
X157616214Y-73580524D01*
X157626028Y-73399964D01*
X157626223Y-73380648D01*
X157625524Y-73360904D01*
X157624070Y-73340814D01*
X157621999Y-73320460D01*
X157616572Y-73279286D01*
X157610361Y-73238039D01*
X157604478Y-73197371D01*
X157602010Y-73177461D01*
X157600044Y-73157941D01*
X157598719Y-73138896D01*
X157598176Y-73120405D01*
X157598552Y-73102550D01*
X157599989Y-73085416D01*
X157607488Y-73005295D01*
X157608797Y-72995245D01*
X157610344Y-72985256D01*
X157612172Y-72975351D01*
X157614333Y-72965547D01*
X157616872Y-72955869D01*
X157619833Y-72946333D01*
X157623264Y-72936965D01*
X157627212Y-72927781D01*
X157631122Y-72919123D01*
X157634434Y-72911284D01*
X157637178Y-72904223D01*
X157639385Y-72897896D01*
X157641090Y-72892257D01*
X157642323Y-72887263D01*
X157643116Y-72882869D01*
X157643502Y-72879032D01*
X157643511Y-72875710D01*
X157643177Y-72872856D01*
X157642531Y-72870427D01*
X157641606Y-72868379D01*
X157640432Y-72866668D01*
X157639042Y-72865251D01*
X157637467Y-72864083D01*
X157635742Y-72863120D01*
X157631963Y-72861634D01*
X157627960Y-72860443D01*
X157623987Y-72859195D01*
X157622093Y-72858439D01*
X157620303Y-72857538D01*
X157618647Y-72856445D01*
X157617161Y-72855118D01*
X157615874Y-72853514D01*
X157614818Y-72851589D01*
X157614026Y-72849295D01*
X157613530Y-72846592D01*
X157613362Y-72843437D01*
X157613552Y-72839782D01*
X157613962Y-72832399D01*
X157614102Y-72822575D01*
X157614049Y-72797083D01*
X157614338Y-72766254D01*
X157614909Y-72749758D01*
X157615919Y-72733032D01*
X157617490Y-72716442D01*
X157619740Y-72700359D01*
X157622787Y-72685151D01*
X157624646Y-72677990D01*
X157626748Y-72671183D01*
X157629109Y-72664781D01*
X157631743Y-72658828D01*
X157634667Y-72653369D01*
X157637891Y-72648451D01*
X157641435Y-72644117D01*
X157645310Y-72640419D01*
X157649533Y-72637398D01*
X157654119Y-72635102D01*
X157659482Y-72634185D01*
X157664108Y-72635937D01*
G37*
D11*
X157573011Y-74257395D02*
X157574068Y-74262366D01*
X157575286Y-74267714D01*
X157576680Y-74273473D01*
X157578264Y-74279682D01*
X157580058Y-74286388D01*
X157582083Y-74293649D01*
X157584364Y-74301536D01*
X157586935Y-74310142D01*
X157589840Y-74319589D01*
X157593139Y-74330049D01*
X157596920Y-74341782D01*
X157601330Y-74355215D01*
X157606644Y-74371165D01*
X157613558Y-74391691D01*
X157617478Y-74403278D01*
X157622927Y-74419394D01*
X157628460Y-74435823D01*
X157634042Y-74452531D01*
X157639639Y-74469482D01*
X157642433Y-74478037D01*
X157645217Y-74486641D01*
X157647988Y-74495287D01*
X157650741Y-74503972D01*
X157653472Y-74512692D01*
X157656177Y-74521442D01*
X157658851Y-74530217D01*
X157661491Y-74539013D01*
X157664091Y-74547826D01*
X157666647Y-74556652D01*
X157669156Y-74565485D01*
X157671613Y-74574322D01*
X157674013Y-74583159D01*
X157676353Y-74591990D01*
X157678628Y-74600811D01*
X157680833Y-74609618D01*
X157682965Y-74618407D01*
X157685019Y-74627173D01*
X157686991Y-74635912D01*
X157688877Y-74644619D01*
X157689786Y-74648960D01*
X157690671Y-74653290D01*
X157691533Y-74657611D01*
X157692371Y-74661921D01*
X157693184Y-74666220D01*
X157693971Y-74670507D01*
X157694733Y-74674781D01*
X157695468Y-74679043D01*
X157696176Y-74683292D01*
X157696857Y-74687526D01*
X157697509Y-74691746D01*
X157698134Y-74695951D01*
X157698728Y-74700140D01*
X157699294Y-74704313D01*
X157699829Y-74708469D01*
X157700333Y-74712608D01*
X157700806Y-74716730D01*
X157701247Y-74720832D01*
X157701656Y-74724916D01*
X157702032Y-74728981D01*
X157702375Y-74733025D01*
X157702683Y-74737049D01*
X157702957Y-74741052D01*
X157703196Y-74745033D01*
X157703400Y-74748992D01*
X157703567Y-74752928D01*
X157703698Y-74756841D01*
X157703791Y-74760729D01*
X157703847Y-74764594D01*
X157703865Y-74768433D01*
X157703844Y-74772247D01*
X157703783Y-74776035D01*
X157703683Y-74779797D01*
X157703542Y-74783531D01*
X157703360Y-74787237D01*
X157703137Y-74790915D01*
X157702872Y-74794564D01*
X157702564Y-74798184D01*
X157702213Y-74801774D01*
X157701819Y-74805334D01*
X157701380Y-74808862D01*
X157700897Y-74812359D01*
X157700368Y-74815824D01*
X157699794Y-74819256D01*
X157699174Y-74822654D01*
X157698506Y-74826019D01*
X157697791Y-74829350D01*
X157697028Y-74832646D01*
X157696217Y-74835906D01*
X157695357Y-74839131D01*
X157694447Y-74842319D01*
X157693488Y-74845469D01*
X157692477Y-74848583D01*
X157691416Y-74851657D01*
X157690302Y-74854694D01*
X157689137Y-74857691D01*
X157687919Y-74860648D01*
X157686648Y-74863565D01*
X157685322Y-74866440D01*
X157683943Y-74869275D01*
X157682508Y-74872067D01*
X157681018Y-74874817D01*
X157679472Y-74877523D01*
X157677870Y-74880186D01*
X157676210Y-74882805D01*
X157674493Y-74885378D01*
X157672718Y-74887907D01*
X157670884Y-74890389D01*
X157668991Y-74892826D01*
X157667039Y-74895215D01*
X157665026Y-74897556D01*
X157662952Y-74899850D01*
D10*
G36*
X157662600Y-74092550D02*
G01*
X157676342Y-74260314D01*
X157686816Y-74428470D01*
X157694664Y-74596757D01*
X157700531Y-74764923D01*
X157700775Y-74774689D01*
X157699963Y-74770088D01*
X157688528Y-74687715D01*
X157679518Y-74603622D01*
X157672631Y-74518285D01*
X157667569Y-74432181D01*
X157661723Y-74259565D01*
X157659580Y-74089583D01*
X157659338Y-74061679D01*
X157662600Y-74092550D01*
G37*
D11*
X139560924Y-103150883D02*
X139558160Y-103151566D01*
X139555429Y-103152322D01*
X139552726Y-103153153D01*
X139550049Y-103154059D01*
X139547396Y-103155040D01*
X139544762Y-103156098D01*
X139542146Y-103157236D01*
X139539542Y-103158453D01*
X139536948Y-103159754D01*
X139534360Y-103161140D01*
X139531775Y-103162615D01*
X139529186Y-103164182D01*
X139526590Y-103165846D01*
X139523981Y-103167613D01*
X139521353Y-103169487D01*
X139518698Y-103171478D01*
X139516008Y-103173593D01*
X139513273Y-103175845D01*
X139510478Y-103178246D01*
X139507609Y-103180815D01*
X139504642Y-103183576D01*
X139501547Y-103186562D01*
X139498280Y-103189821D01*
X139494771Y-103193431D01*
X139490892Y-103197528D01*
X139486374Y-103202406D01*
X139480779Y-103208532D01*
X139474498Y-103215404D01*
X139471336Y-103218820D01*
X139468149Y-103222208D01*
X139464930Y-103225560D01*
X139461672Y-103228865D01*
X139460025Y-103230498D01*
X139458366Y-103232115D01*
X139456693Y-103233716D01*
X139455006Y-103235299D01*
D10*
G36*
X160118603Y-71217000D02*
G01*
X160164249Y-71221967D01*
X160209605Y-71230116D01*
X160254626Y-71241552D01*
X160299271Y-71256384D01*
X160343498Y-71274716D01*
X160387263Y-71296657D01*
X160416419Y-71314061D01*
X160443727Y-71333303D01*
X160469260Y-71354284D01*
X160493094Y-71376902D01*
X160515297Y-71401057D01*
X160535945Y-71426646D01*
X160555108Y-71453569D01*
X160572862Y-71481728D01*
X160589280Y-71511019D01*
X160604431Y-71541342D01*
X160631231Y-71604682D01*
X160653847Y-71670942D01*
X160672860Y-71739313D01*
X160688854Y-71808991D01*
X160702410Y-71879169D01*
X160724542Y-72017797D01*
X160743916Y-72148748D01*
X160754026Y-72209328D01*
X160765196Y-72265568D01*
X160792560Y-72385958D01*
X160821984Y-72504610D01*
X160854918Y-72621534D01*
X160873157Y-72679351D01*
X160892819Y-72736738D01*
X160914084Y-72793700D01*
X160937136Y-72850236D01*
X160962155Y-72906345D01*
X160989325Y-72962030D01*
X161018826Y-73017293D01*
X161050839Y-73072134D01*
X161085547Y-73126557D01*
X161123131Y-73180558D01*
X161133341Y-73195797D01*
X161142294Y-73211469D01*
X161150182Y-73227535D01*
X161157200Y-73243946D01*
X161163539Y-73260662D01*
X161169392Y-73277637D01*
X161180410Y-73312186D01*
X161191794Y-73347240D01*
X161198107Y-73364847D01*
X161205089Y-73382449D01*
X161212934Y-73400000D01*
X161221833Y-73417456D01*
X161231982Y-73434776D01*
X161243572Y-73451911D01*
X161320804Y-73548695D01*
X161329949Y-73561306D01*
X161338526Y-73574030D01*
X161346395Y-73586869D01*
X161353421Y-73599823D01*
X161359467Y-73612893D01*
X161364393Y-73626079D01*
X161368064Y-73639379D01*
X161369387Y-73646073D01*
X161370344Y-73652796D01*
X161375487Y-73688524D01*
X161382384Y-73722839D01*
X161390735Y-73755977D01*
X161400242Y-73788170D01*
X161410603Y-73819657D01*
X161421518Y-73850670D01*
X161443814Y-73912225D01*
X161454592Y-73943234D01*
X161464727Y-73974713D01*
X161473916Y-74006896D01*
X161481859Y-74040018D01*
X161488257Y-74074316D01*
X161492809Y-74110024D01*
X161495215Y-74147378D01*
X161495175Y-74186612D01*
X161492666Y-74219237D01*
X161487453Y-74250941D01*
X161479657Y-74281749D01*
X161469397Y-74311682D01*
X161456798Y-74340765D01*
X161441981Y-74369016D01*
X161425066Y-74396462D01*
X161406176Y-74423124D01*
X161385433Y-74449023D01*
X161362955Y-74474183D01*
X161338869Y-74498627D01*
X161313292Y-74522377D01*
X161258155Y-74567883D01*
X161198520Y-74610881D01*
X161135357Y-74651554D01*
X161069638Y-74690082D01*
X161002337Y-74726642D01*
X160934426Y-74761417D01*
X160676118Y-74886256D01*
X160738327Y-74880548D01*
X160796824Y-74873883D01*
X160904548Y-74859595D01*
X161003042Y-74847227D01*
X161050002Y-74842961D01*
X161096062Y-74840616D01*
X161141691Y-74840666D01*
X161187357Y-74843594D01*
X161233528Y-74849880D01*
X161280677Y-74860004D01*
X161304764Y-74866652D01*
X161329271Y-74874441D01*
X161354256Y-74883429D01*
X161379779Y-74893676D01*
X161405896Y-74905241D01*
X161432668Y-74918185D01*
X161488411Y-74948450D01*
X161516797Y-74964426D01*
X161545937Y-74979977D01*
X161605681Y-75010349D01*
X161666068Y-75040653D01*
X161725525Y-75071976D01*
X161754412Y-75088359D01*
X161782474Y-75105405D01*
X161809516Y-75123249D01*
X161835342Y-75142027D01*
X161859751Y-75161876D01*
X161882549Y-75182931D01*
X161903538Y-75205326D01*
X161913294Y-75217071D01*
X161922523Y-75229202D01*
X161939782Y-75254392D01*
X161954579Y-75278655D01*
X161967418Y-75302064D01*
X161978802Y-75324700D01*
X161999211Y-75367956D01*
X162009245Y-75388732D01*
X162019836Y-75409041D01*
X162031484Y-75428961D01*
X162044696Y-75448570D01*
X162052045Y-75458283D01*
X162059973Y-75467945D01*
X162068542Y-75477567D01*
X162077817Y-75487160D01*
X162087860Y-75496734D01*
X162098734Y-75506297D01*
X162110501Y-75515859D01*
X162123224Y-75525430D01*
X162136967Y-75535020D01*
X162151793Y-75544637D01*
X162167763Y-75554293D01*
X162184941Y-75563995D01*
X162223460Y-75585288D01*
X162256305Y-75604134D01*
X162283807Y-75620990D01*
X162306305Y-75636307D01*
X162315780Y-75643529D01*
X162324130Y-75650537D01*
X162331397Y-75657387D01*
X162337620Y-75664134D01*
X162342842Y-75670836D01*
X162347108Y-75677552D01*
X162350456Y-75684334D01*
X162352929Y-75691241D01*
X162354569Y-75698330D01*
X162355418Y-75705657D01*
X162355518Y-75713278D01*
X162354910Y-75721251D01*
X162353638Y-75729630D01*
X162351742Y-75738476D01*
X162346245Y-75757787D01*
X162307691Y-75864925D01*
X162305169Y-75871639D01*
X162302514Y-75877602D01*
X162299742Y-75882867D01*
X162296868Y-75887489D01*
X162293903Y-75891519D01*
X162290862Y-75895009D01*
X162287760Y-75898015D01*
X162284607Y-75900587D01*
X162281420Y-75902777D01*
X162278213Y-75904640D01*
X162274998Y-75906230D01*
X162271789Y-75907593D01*
X162265448Y-75909869D01*
X162259295Y-75911885D01*
X162253445Y-75914066D01*
X162250666Y-75915349D01*
X162248005Y-75916833D01*
X162245472Y-75918568D01*
X162243085Y-75920607D01*
X162240855Y-75923005D01*
X162238796Y-75925813D01*
X162236922Y-75929082D01*
X162235247Y-75932869D01*
X162233785Y-75937223D01*
X162232550Y-75942198D01*
X162231556Y-75947846D01*
X162230814Y-75954222D01*
X162230339Y-75961376D01*
X162230148Y-75969362D01*
X162230389Y-75973629D01*
X162231144Y-75977956D01*
X162232379Y-75982335D01*
X162234064Y-75986766D01*
X162236167Y-75991245D01*
X162238655Y-75995764D01*
X162244668Y-76004919D01*
X162251854Y-76014196D01*
X162259955Y-76023567D01*
X162268726Y-76032998D01*
X162277913Y-76042460D01*
X162296534Y-76061345D01*
X162305465Y-76070708D01*
X162313810Y-76079974D01*
X162321314Y-76089113D01*
X162327732Y-76098094D01*
X162330452Y-76102515D01*
X162332806Y-76106884D01*
X162334761Y-76111199D01*
X162336289Y-76115453D01*
X162336647Y-76117654D01*
X162336445Y-76120021D01*
X162335729Y-76122558D01*
X162334543Y-76125261D01*
X162332933Y-76128134D01*
X162330942Y-76131173D01*
X162326005Y-76137753D01*
X162313567Y-76152922D01*
X162306789Y-76161507D01*
X162300121Y-76170757D01*
X162293925Y-76180671D01*
X162291116Y-76185877D01*
X162288561Y-76191249D01*
X162286305Y-76196788D01*
X162284393Y-76202489D01*
X162282869Y-76208357D01*
X162281780Y-76214391D01*
X162281171Y-76220590D01*
X162281086Y-76226952D01*
X162281572Y-76233481D01*
X162282671Y-76240173D01*
X162284431Y-76247030D01*
X162286897Y-76254050D01*
X162290112Y-76261236D01*
X162294125Y-76268587D01*
X162302048Y-76280718D01*
X162311006Y-76292326D01*
X162320930Y-76303405D01*
X162331736Y-76313950D01*
X162343352Y-76323958D01*
X162355701Y-76333420D01*
X162368707Y-76342338D01*
X162382291Y-76350703D01*
X162396377Y-76358511D01*
X162410891Y-76365761D01*
X162425755Y-76372443D01*
X162440893Y-76378556D01*
X162456227Y-76384096D01*
X162471682Y-76389055D01*
X162487182Y-76393431D01*
X162502649Y-76397220D01*
X162518761Y-76401637D01*
X162533259Y-76407160D01*
X162546215Y-76413714D01*
X162557693Y-76421232D01*
X162567765Y-76429642D01*
X162576495Y-76438871D01*
X162583953Y-76448850D01*
X162590206Y-76459505D01*
X162595322Y-76470768D01*
X162599369Y-76482567D01*
X162602416Y-76494832D01*
X162604531Y-76507489D01*
X162605780Y-76520470D01*
X162606231Y-76533701D01*
X162605954Y-76547114D01*
X162605015Y-76560636D01*
X162601425Y-76587723D01*
X162596004Y-76614394D01*
X162589295Y-76640082D01*
X162581842Y-76664218D01*
X162574189Y-76686230D01*
X162566876Y-76705553D01*
X162555454Y-76733856D01*
X162543164Y-76766370D01*
X162532932Y-76798079D01*
X162524717Y-76829018D01*
X162518479Y-76859221D01*
X162514177Y-76888725D01*
X162511772Y-76917563D01*
X162511223Y-76945774D01*
X162512489Y-76973390D01*
X162515531Y-77000446D01*
X162520306Y-77026980D01*
X162526776Y-77053026D01*
X162534900Y-77078619D01*
X162544636Y-77103796D01*
X162555946Y-77128588D01*
X162568789Y-77153035D01*
X162583125Y-77177169D01*
X162598913Y-77201029D01*
X162616112Y-77224647D01*
X162634681Y-77248059D01*
X162654581Y-77271300D01*
X162698213Y-77317414D01*
X162746684Y-77363269D01*
X162799669Y-77409147D01*
X162856847Y-77455333D01*
X162917894Y-77502107D01*
X162982485Y-77549752D01*
X163036931Y-77586029D01*
X163095885Y-77619919D01*
X163158219Y-77652028D01*
X163222809Y-77682974D01*
X163354251Y-77743813D01*
X163418849Y-77774929D01*
X163481200Y-77807325D01*
X163540174Y-77841615D01*
X163594648Y-77878406D01*
X163619846Y-77897932D01*
X163643495Y-77918313D01*
X163665455Y-77939627D01*
X163685588Y-77961947D01*
X163703750Y-77985351D01*
X163719800Y-78009917D01*
X163733600Y-78035721D01*
X163745009Y-78062839D01*
X163753884Y-78091346D01*
X163760084Y-78121321D01*
X163763471Y-78152839D01*
X163763903Y-78185975D01*
X163760888Y-78229056D01*
X163754951Y-78265426D01*
X163746264Y-78295415D01*
X163735000Y-78319351D01*
X163721331Y-78337563D01*
X163705426Y-78350380D01*
X163687461Y-78358131D01*
X163667607Y-78361145D01*
X163646035Y-78359749D01*
X163622919Y-78354275D01*
X163598430Y-78345048D01*
X163572740Y-78332399D01*
X163546022Y-78316658D01*
X163518448Y-78298151D01*
X163461420Y-78254158D01*
X163403031Y-78203053D01*
X163344661Y-78147464D01*
X163233484Y-78033360D01*
X163138906Y-77932889D01*
X163101287Y-77894342D01*
X163071948Y-77867094D01*
X163038994Y-77840863D01*
X163004293Y-77815880D01*
X162968008Y-77792271D01*
X162930303Y-77770163D01*
X162891339Y-77749676D01*
X162851285Y-77730937D01*
X162810299Y-77714070D01*
X162768549Y-77699198D01*
X162726195Y-77686447D01*
X162683403Y-77675940D01*
X162640334Y-77667804D01*
X162597155Y-77662158D01*
X162554025Y-77659130D01*
X162511113Y-77658846D01*
X162468577Y-77661427D01*
X162426585Y-77666997D01*
X162407908Y-77670593D01*
X162389981Y-77674859D01*
X162372766Y-77679756D01*
X162356223Y-77685249D01*
X162340312Y-77691299D01*
X162324993Y-77697867D01*
X162295976Y-77712421D01*
X162268858Y-77728614D01*
X162243323Y-77746149D01*
X162219053Y-77764733D01*
X162195735Y-77784068D01*
X162105672Y-77863009D01*
X162082380Y-77881666D01*
X162058147Y-77899303D01*
X162032658Y-77915619D01*
X162005593Y-77930323D01*
X161760682Y-78117371D01*
X161753177Y-78120885D01*
X161745592Y-78124076D01*
X161730192Y-78129576D01*
X161714520Y-78134051D01*
X161698601Y-78137676D01*
X161682473Y-78140628D01*
X161666166Y-78143089D01*
X161633148Y-78147240D01*
X161599807Y-78151550D01*
X161583098Y-78154209D01*
X161566404Y-78157443D01*
X161549762Y-78161425D01*
X161533202Y-78166337D01*
X161516757Y-78172353D01*
X161508589Y-78175832D01*
X161500460Y-78179655D01*
X161488795Y-78184824D01*
X161476754Y-78189040D01*
X161464368Y-78192357D01*
X161451671Y-78194819D01*
X161438694Y-78196475D01*
X161425473Y-78197373D01*
X161412039Y-78197561D01*
X161398428Y-78197088D01*
X161384671Y-78195998D01*
X161370802Y-78194343D01*
X161356855Y-78192171D01*
X161342860Y-78189526D01*
X161314867Y-78183020D01*
X161287088Y-78175204D01*
X161259790Y-78166467D01*
X161233239Y-78157190D01*
X161183438Y-78138545D01*
X161139811Y-78122344D01*
X161120976Y-78116118D01*
X161104481Y-78111650D01*
X161087737Y-78108510D01*
X161067824Y-78105760D01*
X161020372Y-78100691D01*
X160965882Y-78094950D01*
X160937174Y-78091361D01*
X160908114Y-78087047D01*
X160879175Y-78081818D01*
X160850826Y-78075490D01*
X160823536Y-78067876D01*
X160810434Y-78063528D01*
X160797774Y-78058788D01*
X160785613Y-78053636D01*
X160774012Y-78048044D01*
X160763028Y-78041991D01*
X160752718Y-78035452D01*
X160743144Y-78028407D01*
X160734364Y-78020831D01*
X160726435Y-78012701D01*
X160719417Y-78003990D01*
X160701633Y-77980379D01*
X160682007Y-77955873D01*
X160638050Y-77904820D01*
X160589193Y-77852108D01*
X160537086Y-77799011D01*
X160483382Y-77746802D01*
X160429726Y-77696758D01*
X160377769Y-77650152D01*
X160329161Y-77608258D01*
X160079527Y-77397518D01*
X159827005Y-77187227D01*
X159699187Y-77083374D01*
X159570077Y-76980982D01*
X159439485Y-76880502D01*
X159307221Y-76782383D01*
X159257992Y-76745292D01*
X159210571Y-76707446D01*
X159118163Y-76630499D01*
X159071683Y-76591900D01*
X159024018Y-76553555D01*
X158974423Y-76515715D01*
X158948666Y-76497061D01*
X158922149Y-76478627D01*
X158908456Y-76469742D01*
X158894462Y-76461453D01*
X158865703Y-76446455D01*
X158836152Y-76433199D01*
X158806081Y-76421252D01*
X158686170Y-76377886D01*
X158657668Y-76365984D01*
X158630312Y-76352789D01*
X158617150Y-76345573D01*
X158604378Y-76337870D01*
X158592030Y-76329627D01*
X158580143Y-76320792D01*
X158568748Y-76311308D01*
X158557882Y-76301122D01*
X158547580Y-76290179D01*
X158537875Y-76278426D01*
X158528803Y-76265808D01*
X158520397Y-76252271D01*
X158512693Y-76237761D01*
X158505727Y-76222224D01*
X158615529Y-76270747D01*
X158725834Y-76316718D01*
X158835598Y-76361985D01*
X158943773Y-76408388D01*
X158996940Y-76432593D01*
X159049316Y-76457774D01*
X159100773Y-76484164D01*
X159151180Y-76511991D01*
X159200406Y-76541489D01*
X159248321Y-76572885D01*
X159294795Y-76606410D01*
X159339694Y-76642297D01*
X159497155Y-76777058D01*
X159574229Y-76845835D01*
X159649332Y-76915962D01*
X159721812Y-76987753D01*
X159791012Y-77061524D01*
X159824179Y-77099249D01*
X159856283Y-77137586D01*
X159887241Y-77176576D01*
X159916971Y-77216256D01*
X159937483Y-77241338D01*
X159963460Y-77268044D01*
X159994205Y-77296012D01*
X160029022Y-77324886D01*
X160067215Y-77354309D01*
X160108089Y-77383923D01*
X160150949Y-77413368D01*
X160195097Y-77442286D01*
X160284474Y-77497114D01*
X160370655Y-77545542D01*
X160410805Y-77566461D01*
X160448071Y-77584707D01*
X160481751Y-77599919D01*
X160511153Y-77611741D01*
X160536830Y-77620771D01*
X160560107Y-77627979D01*
X160581062Y-77633434D01*
X160599774Y-77637202D01*
X160616324Y-77639353D01*
X160630793Y-77639956D01*
X160643261Y-77639073D01*
X160653807Y-77636777D01*
X160662511Y-77633133D01*
X160669457Y-77628209D01*
X160674720Y-77622076D01*
X160678382Y-77614797D01*
X160680526Y-77606442D01*
X160681228Y-77597079D01*
X160680572Y-77586775D01*
X160678634Y-77575599D01*
X160675497Y-77563618D01*
X160671240Y-77550899D01*
X160665945Y-77537510D01*
X160659691Y-77523520D01*
X160644625Y-77494005D01*
X160626686Y-77462894D01*
X160606515Y-77430731D01*
X160584751Y-77398057D01*
X160562039Y-77365414D01*
X160539019Y-77333345D01*
X160582376Y-77361320D01*
X160640817Y-77394759D01*
X160673453Y-77411892D01*
X160707165Y-77428424D01*
X160741062Y-77443702D01*
X160774246Y-77457072D01*
X160805818Y-77467875D01*
X160834883Y-77475459D01*
X160848196Y-77477840D01*
X160860544Y-77479167D01*
X160871817Y-77479365D01*
X160881903Y-77478347D01*
X160890689Y-77476033D01*
X160898064Y-77472340D01*
X160903915Y-77467187D01*
X160908130Y-77460492D01*
X160910598Y-77452173D01*
X160911206Y-77442150D01*
X160909842Y-77430336D01*
X160906391Y-77416655D01*
X160920281Y-77426485D01*
X160932136Y-77433523D01*
X160942124Y-77437944D01*
X160950404Y-77439928D01*
X160957141Y-77439653D01*
X160962497Y-77437296D01*
X160966635Y-77433037D01*
X160969721Y-77427053D01*
X160971919Y-77419521D01*
X160973387Y-77410621D01*
X160974798Y-77389428D01*
X160976083Y-77338457D01*
X160978571Y-77311527D01*
X160980846Y-77298326D01*
X160984027Y-77285537D01*
X160988277Y-77273340D01*
X160993762Y-77261911D01*
X161000641Y-77251429D01*
X161009080Y-77242071D01*
X161019242Y-77234019D01*
X161031289Y-77227448D01*
X161045384Y-77222535D01*
X161061693Y-77219461D01*
X161080376Y-77218404D01*
X161101600Y-77219540D01*
X161125525Y-77223048D01*
X161152316Y-77229106D01*
X161133567Y-77204948D01*
X161113123Y-77181422D01*
X161091279Y-77158439D01*
X161068327Y-77135907D01*
X161020264Y-77091831D01*
X160971273Y-77048461D01*
X160923693Y-77005065D01*
X160901165Y-76983130D01*
X160879867Y-76960913D01*
X160860089Y-76938325D01*
X160842127Y-76915273D01*
X160826272Y-76891665D01*
X160812818Y-76867411D01*
X160944569Y-76873918D01*
X161017256Y-76878273D01*
X161090472Y-76884449D01*
X161126341Y-76888473D01*
X161161213Y-76893260D01*
X161194714Y-76898910D01*
X161226468Y-76905524D01*
X161256100Y-76913205D01*
X161283231Y-76922057D01*
X161307488Y-76932177D01*
X161318422Y-76937745D01*
X161328495Y-76943669D01*
X161320013Y-76927855D01*
X161310633Y-76912833D01*
X161300412Y-76898548D01*
X161289410Y-76884945D01*
X161277683Y-76871973D01*
X161265289Y-76859577D01*
X161238725Y-76836289D01*
X161210182Y-76814650D01*
X161180119Y-76794224D01*
X161117276Y-76755276D01*
X161053875Y-76715967D01*
X161023116Y-76695090D01*
X160993600Y-76672823D01*
X160965783Y-76648726D01*
X160952656Y-76635858D01*
X160940127Y-76622369D01*
X160928254Y-76608206D01*
X160917094Y-76593314D01*
X160906703Y-76577640D01*
X160897142Y-76561129D01*
X160912355Y-76564859D01*
X160926124Y-76567902D01*
X160938519Y-76570290D01*
X160949607Y-76572059D01*
X160959459Y-76573240D01*
X160968144Y-76573867D01*
X160975728Y-76573972D01*
X160982283Y-76573592D01*
X160987878Y-76572759D01*
X160992579Y-76571505D01*
X160996459Y-76569865D01*
X160999586Y-76567872D01*
X161002025Y-76565559D01*
X161003851Y-76562961D01*
X161005129Y-76560110D01*
X161005928Y-76557039D01*
X161006321Y-76553782D01*
X161006371Y-76550373D01*
X161005733Y-76543233D01*
X161003412Y-76528595D01*
X161002836Y-76521634D01*
X161002935Y-76518360D01*
X161003385Y-76515268D01*
X161004254Y-76512391D01*
X161005611Y-76509763D01*
X161007527Y-76507419D01*
X161010066Y-76505390D01*
X161007823Y-76506383D01*
X161005713Y-76506425D01*
X161003746Y-76505593D01*
X161001933Y-76503965D01*
X161000280Y-76501622D01*
X160998796Y-76498639D01*
X160997493Y-76495098D01*
X160996376Y-76491073D01*
X160994742Y-76481892D01*
X160993964Y-76471719D01*
X160994113Y-76461182D01*
X160994558Y-76455972D01*
X160995260Y-76450906D01*
X160996230Y-76446062D01*
X160997476Y-76441517D01*
X160999007Y-76437351D01*
X161000830Y-76433641D01*
X161002956Y-76430465D01*
X161005395Y-76427902D01*
X161008153Y-76426029D01*
X161011240Y-76424926D01*
X161014664Y-76424670D01*
X161018437Y-76425340D01*
X161022564Y-76427014D01*
X161027055Y-76429768D01*
X161031919Y-76433684D01*
X161037166Y-76438838D01*
X161042803Y-76445308D01*
X161048840Y-76453172D01*
X161051865Y-76456795D01*
X161055340Y-76459988D01*
X161059248Y-76462772D01*
X161063569Y-76465162D01*
X161068284Y-76467180D01*
X161073373Y-76468845D01*
X161078816Y-76470175D01*
X161084597Y-76471191D01*
X161090694Y-76471910D01*
X161097089Y-76472352D01*
X161103763Y-76472535D01*
X161110695Y-76472481D01*
X161125264Y-76471730D01*
X161140639Y-76470253D01*
X161156669Y-76468198D01*
X161173201Y-76465725D01*
X161207154Y-76460119D01*
X161241274Y-76454658D01*
X161258013Y-76452363D01*
X161274332Y-76450560D01*
X161256147Y-76445543D01*
X161238348Y-76439837D01*
X161203810Y-76426534D01*
X161170525Y-76411001D01*
X161138297Y-76393590D01*
X161106930Y-76374649D01*
X161076231Y-76354528D01*
X161016051Y-76312145D01*
X160956202Y-76269242D01*
X160925914Y-76248468D01*
X160895122Y-76228614D01*
X160863635Y-76210028D01*
X160831253Y-76193062D01*
X160797787Y-76178064D01*
X160763036Y-76165385D01*
X160786227Y-76151021D01*
X160810767Y-76138870D01*
X160836575Y-76128810D01*
X160863575Y-76120718D01*
X160891683Y-76114470D01*
X160920824Y-76109945D01*
X160950914Y-76107015D01*
X160981874Y-76105561D01*
X161013624Y-76105457D01*
X161046085Y-76106581D01*
X161112822Y-76112018D01*
X161181444Y-76120887D01*
X161251310Y-76132198D01*
X161392229Y-76158208D01*
X161462001Y-76170932D01*
X161530466Y-76182153D01*
X161596983Y-76190885D01*
X161660914Y-76196140D01*
X161691711Y-76197157D01*
X161721619Y-76196934D01*
X161750563Y-76195348D01*
X161778461Y-76192278D01*
X161732315Y-76181337D01*
X161688147Y-76169916D01*
X161645743Y-76158037D01*
X161604892Y-76145716D01*
X161565381Y-76132972D01*
X161526997Y-76119825D01*
X161452756Y-76092398D01*
X161380466Y-76063582D01*
X161308426Y-76033529D01*
X161158280Y-75970313D01*
X161160606Y-75961558D01*
X161163092Y-75953042D01*
X161164414Y-75948884D01*
X161165799Y-75944801D01*
X161167255Y-75940790D01*
X161168790Y-75936861D01*
X161170411Y-75933014D01*
X161172124Y-75929256D01*
X161173941Y-75925591D01*
X161175864Y-75922021D01*
X161177905Y-75918551D01*
X161180071Y-75915184D01*
X161182368Y-75911926D01*
X161184806Y-75908780D01*
X161151477Y-75909944D01*
X161118471Y-75909829D01*
X161086420Y-75908415D01*
X161055957Y-75905677D01*
X161027716Y-75901596D01*
X161002334Y-75896149D01*
X160990910Y-75892905D01*
X160980439Y-75889312D01*
X160971000Y-75885365D01*
X160962670Y-75881063D01*
X160955528Y-75876402D01*
X160949656Y-75871381D01*
X160945132Y-75865995D01*
X160942034Y-75860241D01*
X160940441Y-75854120D01*
X160940435Y-75847625D01*
X160942095Y-75840755D01*
X160945496Y-75833508D01*
X160950721Y-75825880D01*
X160957849Y-75817869D01*
X160966956Y-75809471D01*
X160978124Y-75800685D01*
X160991433Y-75791505D01*
X161006961Y-75781932D01*
X161024787Y-75771961D01*
X161044990Y-75761590D01*
X161075520Y-75745738D01*
X161107468Y-75728004D01*
X161174874Y-75689563D01*
X161209956Y-75670193D01*
X161245707Y-75651616D01*
X161263775Y-75642834D01*
X161281941Y-75634501D01*
X161300181Y-75626699D01*
X161318471Y-75619513D01*
X161225150Y-75623315D01*
X161128023Y-75624528D01*
X161030134Y-75622978D01*
X160934526Y-75618495D01*
X160888528Y-75615103D01*
X160844241Y-75610910D01*
X160802045Y-75605901D01*
X160762320Y-75600052D01*
X160725446Y-75593339D01*
X160691804Y-75585744D01*
X160661776Y-75577245D01*
X160635739Y-75567820D01*
X160602458Y-75554038D01*
X160590892Y-75548895D01*
X160586345Y-75546649D01*
X160582611Y-75544577D01*
X160579680Y-75542644D01*
X160577544Y-75540823D01*
X160576192Y-75539077D01*
X160575619Y-75537377D01*
X160575811Y-75535691D01*
X160576764Y-75533985D01*
X160578463Y-75532228D01*
X160580904Y-75530388D01*
X160584077Y-75528432D01*
X160587972Y-75526327D01*
X160597892Y-75521548D01*
X160626002Y-75508806D01*
X160644048Y-75500328D01*
X160664658Y-75490103D01*
X160687760Y-75477872D01*
X160700223Y-75470926D01*
X160713283Y-75463383D01*
X160752746Y-75440138D01*
X160772718Y-75428672D01*
X160792898Y-75417563D01*
X160813319Y-75407004D01*
X160834012Y-75397184D01*
X160844473Y-75392610D01*
X160855017Y-75388294D01*
X160865646Y-75384257D01*
X160876365Y-75380524D01*
X160812913Y-75390023D01*
X160748821Y-75401158D01*
X160684631Y-75412615D01*
X160620889Y-75423082D01*
X160589357Y-75427533D01*
X160558140Y-75431244D01*
X160527308Y-75434049D01*
X160496927Y-75435788D01*
X160467068Y-75436294D01*
X160437797Y-75435403D01*
X160409182Y-75432949D01*
X160381292Y-75428771D01*
X160494217Y-75373034D01*
X160483981Y-75370689D01*
X160472800Y-75368923D01*
X160447860Y-75367030D01*
X160419931Y-75367171D01*
X160389548Y-75369163D01*
X160357243Y-75372821D01*
X160323557Y-75377965D01*
X160289020Y-75384408D01*
X160254169Y-75391971D01*
X160219538Y-75400468D01*
X160185662Y-75409716D01*
X160153077Y-75419532D01*
X160122316Y-75429734D01*
X160093916Y-75440136D01*
X160068409Y-75450558D01*
X160046333Y-75460815D01*
X160028220Y-75470724D01*
X160030637Y-75460912D01*
X160033597Y-75451538D01*
X160037080Y-75442586D01*
X160041066Y-75434035D01*
X160045534Y-75425867D01*
X160050465Y-75418064D01*
X160055838Y-75410607D01*
X160061634Y-75403478D01*
X160067830Y-75396658D01*
X160074409Y-75390130D01*
X160081352Y-75383871D01*
X160088635Y-75377870D01*
X160104149Y-75366552D01*
X160120788Y-75356027D01*
X160138391Y-75346150D01*
X160156801Y-75336771D01*
X160195391Y-75318915D01*
X160235270Y-75301279D01*
X160255291Y-75292173D01*
X160275153Y-75282680D01*
X160241914Y-75286558D01*
X160205125Y-75292692D01*
X160125261Y-75308209D01*
X160084374Y-75315833D01*
X160044303Y-75322195D01*
X160006143Y-75326412D01*
X159970986Y-75327609D01*
X159954874Y-75326799D01*
X159939922Y-75324903D01*
X159926268Y-75321812D01*
X159914045Y-75317416D01*
X159903394Y-75311603D01*
X159894447Y-75304266D01*
X159887344Y-75295293D01*
X159882220Y-75284575D01*
X159879211Y-75272002D01*
X159878455Y-75257464D01*
X159880088Y-75240849D01*
X159884247Y-75222051D01*
X159891067Y-75200958D01*
X159900686Y-75177458D01*
X159913238Y-75151443D01*
X159928862Y-75122803D01*
X159273406Y-75380173D01*
X158653330Y-75686238D01*
X158537432Y-75741715D01*
X158446672Y-75783448D01*
X158348871Y-75826390D01*
X158255155Y-75864445D01*
X158213307Y-75879737D01*
X158176651Y-75891523D01*
X158146579Y-75899042D01*
X158124482Y-75901530D01*
X158116860Y-75900651D01*
X158111752Y-75898229D01*
X158109333Y-75894167D01*
X158109777Y-75888374D01*
X158112971Y-75881205D01*
X158118431Y-75873629D01*
X158126020Y-75865677D01*
X158135596Y-75857383D01*
X158160161Y-75839905D01*
X158191010Y-75821466D01*
X158227031Y-75802338D01*
X158267111Y-75782788D01*
X158354992Y-75743506D01*
X158646176Y-75623610D01*
X158927347Y-75487054D01*
X159067789Y-75421235D01*
X159208533Y-75357493D01*
X159349880Y-75296155D01*
X159492133Y-75237552D01*
X159635588Y-75182009D01*
X159780548Y-75129856D01*
X160093822Y-75029869D01*
X160171248Y-75002314D01*
X160208934Y-74987567D01*
X160245715Y-74972030D01*
X160281430Y-74955597D01*
X160315917Y-74938163D01*
X160349012Y-74919617D01*
X160380554Y-74899857D01*
X160434782Y-74861439D01*
X160464181Y-74838799D01*
X160494450Y-74814201D01*
X160525098Y-74787889D01*
X160555633Y-74760110D01*
X160585564Y-74731109D01*
X160614402Y-74701130D01*
X160641655Y-74670421D01*
X160666831Y-74639226D01*
X160689441Y-74607793D01*
X160708992Y-74576364D01*
X160724996Y-74545186D01*
X160731513Y-74529769D01*
X160736959Y-74514508D01*
X160741273Y-74499430D01*
X160744392Y-74484569D01*
X160746256Y-74469957D01*
X160746804Y-74455621D01*
X160736804Y-74453008D01*
X160726613Y-74450933D01*
X160716245Y-74449369D01*
X160705712Y-74448287D01*
X160684199Y-74447452D01*
X160662172Y-74448202D01*
X160639731Y-74450309D01*
X160616974Y-74453542D01*
X160593998Y-74457672D01*
X160570906Y-74462475D01*
X160479321Y-74483807D01*
X160457114Y-74488530D01*
X160435381Y-74492551D01*
X160414221Y-74495642D01*
X160393731Y-74497575D01*
X160348724Y-74499952D01*
X160300264Y-74501584D01*
X160249590Y-74502378D01*
X160197938Y-74502235D01*
X160146544Y-74501056D01*
X160096646Y-74498745D01*
X160049481Y-74495203D01*
X160027310Y-74492941D01*
X160006286Y-74490334D01*
X160017169Y-74482755D01*
X160028118Y-74475708D01*
X160050215Y-74463109D01*
X160072563Y-74452309D01*
X160095147Y-74443081D01*
X160117951Y-74435198D01*
X160140964Y-74428434D01*
X160164170Y-74422560D01*
X160187558Y-74417349D01*
X160282623Y-74398603D01*
X160306699Y-74393306D01*
X160330870Y-74387306D01*
X160355125Y-74380383D01*
X160379446Y-74372305D01*
X160397783Y-74365440D01*
X160415990Y-74358076D01*
X160452035Y-74342073D01*
X160487653Y-74324726D01*
X160522911Y-74306466D01*
X160592631Y-74268943D01*
X160627234Y-74250541D01*
X160661758Y-74232957D01*
X160576616Y-74215583D01*
X160494532Y-74202723D01*
X160415189Y-74194230D01*
X160338275Y-74189953D01*
X160263476Y-74189748D01*
X160190477Y-74193467D01*
X160118967Y-74200961D01*
X160048633Y-74212087D01*
X159979158Y-74226691D01*
X159910231Y-74244632D01*
X159841539Y-74265759D01*
X159772767Y-74289928D01*
X159703600Y-74316988D01*
X159633729Y-74346794D01*
X159562837Y-74379198D01*
X159490611Y-74414053D01*
X159494031Y-74401884D01*
X159499056Y-74389364D01*
X159505601Y-74376531D01*
X159513588Y-74363423D01*
X159533545Y-74336533D01*
X159558259Y-74308998D01*
X159587065Y-74281120D01*
X159619296Y-74253200D01*
X159654288Y-74225545D01*
X159691372Y-74198456D01*
X159729885Y-74172234D01*
X159769156Y-74147186D01*
X159808524Y-74123610D01*
X159847321Y-74101814D01*
X159884879Y-74082097D01*
X159920535Y-74064763D01*
X159953621Y-74050117D01*
X159983472Y-74038458D01*
X160280619Y-73935105D01*
X160354605Y-73907694D01*
X160429424Y-73878001D01*
X160505556Y-73845198D01*
X160583478Y-73808457D01*
X160316498Y-73822588D01*
X160167863Y-73834476D01*
X160092292Y-73842382D01*
X160016850Y-73851882D01*
X159942262Y-73863196D01*
X159869250Y-73876537D01*
X159798538Y-73892122D01*
X159730849Y-73910167D01*
X159666908Y-73930888D01*
X159607438Y-73954500D01*
X159553163Y-73981223D01*
X159528200Y-73995815D01*
X159504807Y-74011267D01*
X159529744Y-73982669D01*
X159556510Y-73954270D01*
X159584982Y-73926127D01*
X159615036Y-73898289D01*
X159646549Y-73870811D01*
X159679397Y-73843749D01*
X159713458Y-73817156D01*
X159748604Y-73791085D01*
X159784715Y-73765592D01*
X159821668Y-73740727D01*
X159859337Y-73716549D01*
X159897602Y-73693109D01*
X159936335Y-73670460D01*
X159975417Y-73648659D01*
X160054123Y-73607809D01*
X159990293Y-73604780D01*
X159922000Y-73603273D01*
X159886723Y-73603356D01*
X159850980Y-73604139D01*
X159814992Y-73605729D01*
X159778973Y-73608231D01*
X159743141Y-73611750D01*
X159707715Y-73616397D01*
X159672910Y-73622272D01*
X159638944Y-73629487D01*
X159606034Y-73638145D01*
X159574398Y-73648355D01*
X159544254Y-73660221D01*
X159515817Y-73673850D01*
X159515917Y-73673865D01*
X159516019Y-73673884D01*
X159516121Y-73673906D01*
X159516224Y-73673930D01*
X159516431Y-73673982D01*
X159516638Y-73674039D01*
X159516844Y-73674095D01*
X159517050Y-73674147D01*
X159517152Y-73674169D01*
X159517254Y-73674190D01*
X159517354Y-73674206D01*
X159517455Y-73674220D01*
X159497290Y-73684174D01*
X159291604Y-73785698D01*
X159294381Y-73774687D01*
X159297554Y-73764362D01*
X159301110Y-73754704D01*
X159305031Y-73745692D01*
X159309305Y-73737304D01*
X159313914Y-73729522D01*
X159318843Y-73722324D01*
X159324078Y-73715688D01*
X159329601Y-73709597D01*
X159335401Y-73704030D01*
X159341458Y-73698966D01*
X159347760Y-73694383D01*
X159354289Y-73690265D01*
X159361033Y-73686586D01*
X159367974Y-73683331D01*
X159375096Y-73680476D01*
X159382386Y-73678002D01*
X159389826Y-73675888D01*
X159405102Y-73672660D01*
X159420800Y-73670631D01*
X159436795Y-73669634D01*
X159452967Y-73669510D01*
X159469191Y-73670094D01*
X159485347Y-73671223D01*
X159501308Y-73672737D01*
X159505228Y-73661944D01*
X159510042Y-73651503D01*
X159515710Y-73641398D01*
X159522189Y-73631621D01*
X159529431Y-73622155D01*
X159537398Y-73612991D01*
X159546043Y-73604118D01*
X159555324Y-73595520D01*
X159575623Y-73579111D01*
X159597944Y-73563665D01*
X159621941Y-73549086D01*
X159647269Y-73535276D01*
X159673580Y-73522140D01*
X159700527Y-73509579D01*
X159754942Y-73485799D01*
X159807737Y-73463158D01*
X159832661Y-73452026D01*
X159856140Y-73440886D01*
X159836859Y-73445343D01*
X159818053Y-73449110D01*
X159799642Y-73452228D01*
X159781550Y-73454746D01*
X159763697Y-73456707D01*
X159746001Y-73458155D01*
X159728390Y-73459139D01*
X159710779Y-73459700D01*
X159693092Y-73459887D01*
X159675250Y-73459743D01*
X159638787Y-73458644D01*
X159560538Y-73454473D01*
X159582335Y-73447121D01*
X159602352Y-73439265D01*
X159620685Y-73430939D01*
X159637432Y-73422174D01*
X159652688Y-73413004D01*
X159666553Y-73403461D01*
X159679123Y-73393580D01*
X159690495Y-73383391D01*
X159700766Y-73372929D01*
X159710032Y-73362226D01*
X159718393Y-73351315D01*
X159725945Y-73340228D01*
X159732784Y-73329001D01*
X159739007Y-73317664D01*
X159744715Y-73306251D01*
X159750000Y-73294796D01*
X159734428Y-73293359D01*
X159719053Y-73292638D01*
X159703795Y-73292544D01*
X159688572Y-73292990D01*
X159673305Y-73293890D01*
X159657913Y-73295157D01*
X159626436Y-73298449D01*
X159593498Y-73302170D01*
X159558456Y-73305629D01*
X159539946Y-73307044D01*
X159520669Y-73308133D01*
X159500546Y-73308809D01*
X159479496Y-73308987D01*
X159481663Y-73316524D01*
X159482601Y-73323885D01*
X159482368Y-73331076D01*
X159481021Y-73338102D01*
X159478622Y-73344968D01*
X159475226Y-73351677D01*
X159470892Y-73358235D01*
X159465677Y-73364645D01*
X159459640Y-73370915D01*
X159452840Y-73377046D01*
X159445334Y-73383045D01*
X159437181Y-73388915D01*
X159419163Y-73400289D01*
X159399253Y-73411205D01*
X159377916Y-73421700D01*
X159355615Y-73431809D01*
X159309984Y-73451024D01*
X159266085Y-73469147D01*
X159245946Y-73477889D01*
X159227633Y-73486470D01*
X159461337Y-73308498D01*
X159459576Y-73308465D01*
X159457882Y-73308448D01*
X159456182Y-73308427D01*
X159455307Y-73308409D01*
X159454403Y-73308379D01*
X159456194Y-73307722D01*
X159457934Y-73307050D01*
X159459638Y-73306364D01*
X159461319Y-73305666D01*
X159468141Y-73302780D01*
X159474557Y-73298414D01*
X159475822Y-73300154D01*
X159485202Y-73295825D01*
X159494460Y-73291267D01*
X159512681Y-73281623D01*
X159548552Y-73261307D01*
X159566541Y-73251256D01*
X159584795Y-73241690D01*
X159594073Y-73237186D01*
X159603482Y-73232920D01*
X159613041Y-73228931D01*
X159622773Y-73225256D01*
X159582551Y-73222961D01*
X159544526Y-73221086D01*
X159508066Y-73219991D01*
X159490225Y-73219849D01*
X159472539Y-73220038D01*
X159454930Y-73220601D01*
X159437317Y-73221586D01*
X159419622Y-73223034D01*
X159401769Y-73224995D01*
X159383674Y-73227512D01*
X159365264Y-73230628D01*
X159346455Y-73234391D01*
X159327171Y-73238845D01*
X159334359Y-73224524D01*
X159342951Y-73210474D01*
X159352817Y-73196627D01*
X159363829Y-73182913D01*
X159375858Y-73169262D01*
X159388773Y-73155605D01*
X159416751Y-73127997D01*
X159477676Y-73069661D01*
X159493189Y-73054023D01*
X159508559Y-73037825D01*
X159523655Y-73020997D01*
X159538348Y-73003470D01*
X159524572Y-73000217D01*
X159510737Y-72997882D01*
X159496852Y-72996424D01*
X159482922Y-72995803D01*
X159468957Y-72995973D01*
X159454965Y-72996897D01*
X159440952Y-72998533D01*
X159426930Y-73000838D01*
X159398887Y-73007291D01*
X159370901Y-73015926D01*
X159343038Y-73026412D01*
X159315365Y-73038419D01*
X159287946Y-73051611D01*
X159260849Y-73065659D01*
X159207887Y-73095000D01*
X159157004Y-73123785D01*
X159132512Y-73137143D01*
X159108735Y-73149367D01*
X159112052Y-73137023D01*
X159116621Y-73125032D01*
X159122379Y-73113384D01*
X159129265Y-73102070D01*
X159137213Y-73091077D01*
X159146163Y-73080398D01*
X159156048Y-73070020D01*
X159166811Y-73059933D01*
X159190707Y-73040591D01*
X159217349Y-73022290D01*
X159246232Y-73004948D01*
X159276853Y-72988478D01*
X159308711Y-72972800D01*
X159341301Y-72957829D01*
X159406663Y-72929679D01*
X159468918Y-72903362D01*
X159497622Y-72890685D01*
X159524040Y-72878214D01*
X159507408Y-72871642D01*
X159490132Y-72865997D01*
X159472258Y-72861253D01*
X159453836Y-72857376D01*
X159434914Y-72854338D01*
X159415539Y-72852113D01*
X159395759Y-72850665D01*
X159375625Y-72849973D01*
X159334479Y-72850724D01*
X159292486Y-72854126D01*
X159250032Y-72859949D01*
X159207503Y-72867957D01*
X159165283Y-72877912D01*
X159123758Y-72889583D01*
X159083311Y-72902732D01*
X159044329Y-72917126D01*
X159007198Y-72932529D01*
X158972303Y-72948705D01*
X158940026Y-72965421D01*
X158910757Y-72982441D01*
X159023682Y-72926701D01*
X158882281Y-73008349D01*
X158837657Y-73032411D01*
X158816525Y-73042959D01*
X158796804Y-73052022D01*
X158778960Y-73059232D01*
X158763461Y-73064220D01*
X158750776Y-73066616D01*
X158745633Y-73066726D01*
X158741369Y-73066049D01*
X158731976Y-73062726D01*
X158723491Y-73058422D01*
X158715874Y-73053191D01*
X158709080Y-73047099D01*
X158703067Y-73040200D01*
X158697789Y-73032558D01*
X158693207Y-73024230D01*
X158689273Y-73015274D01*
X158685947Y-73005753D01*
X158683184Y-72995724D01*
X158680942Y-72985246D01*
X158679176Y-72974380D01*
X158676904Y-72951717D01*
X158676020Y-72928212D01*
X158676178Y-72904338D01*
X158677034Y-72880574D01*
X158679447Y-72835262D01*
X158680313Y-72814668D01*
X158680490Y-72796079D01*
X158679632Y-72779975D01*
X158678706Y-72773001D01*
X158677391Y-72766826D01*
X158645941Y-72800580D01*
X158614843Y-72837058D01*
X158584372Y-72875984D01*
X158554808Y-72917080D01*
X158526425Y-72960070D01*
X158499503Y-73004680D01*
X158474316Y-73050631D01*
X158451146Y-73097646D01*
X158430266Y-73145453D01*
X158411954Y-73193772D01*
X158396486Y-73242329D01*
X158384144Y-73290845D01*
X158375200Y-73339047D01*
X158369932Y-73386655D01*
X158368619Y-73433395D01*
X158369533Y-73456353D01*
X158371538Y-73478991D01*
X158372182Y-73487088D01*
X158372358Y-73495813D01*
X158371408Y-73515000D01*
X158368879Y-73536238D01*
X158364963Y-73559213D01*
X158359853Y-73583610D01*
X158353743Y-73609117D01*
X158346822Y-73635422D01*
X158339285Y-73662207D01*
X158279868Y-73856221D01*
X158273755Y-73880952D01*
X158268732Y-73906163D01*
X158264570Y-73931748D01*
X158261040Y-73957598D01*
X158248665Y-74061503D01*
X158244863Y-74087067D01*
X158240321Y-74112251D01*
X158234806Y-74136948D01*
X158228097Y-74161051D01*
X158219957Y-74184451D01*
X158215282Y-74195854D01*
X158210163Y-74207041D01*
X158204574Y-74217999D01*
X158198484Y-74228715D01*
X158191866Y-74239173D01*
X158184689Y-74249362D01*
X158180645Y-74255626D01*
X158177013Y-74262903D01*
X158173773Y-74271134D01*
X158170913Y-74280252D01*
X158168412Y-74290192D01*
X158166255Y-74300892D01*
X158162907Y-74324311D01*
X158160734Y-74349998D01*
X158159601Y-74377438D01*
X158159374Y-74406115D01*
X158159921Y-74435519D01*
X158161106Y-74465133D01*
X158162795Y-74494449D01*
X158167152Y-74550119D01*
X158171916Y-74598420D01*
X158176019Y-74635247D01*
X158181207Y-74686052D01*
X158185367Y-74737969D01*
X158188589Y-74790666D01*
X158190972Y-74843805D01*
X158192611Y-74897049D01*
X158193597Y-74950062D01*
X158194003Y-75054052D01*
X158193304Y-75102719D01*
X158191845Y-75152209D01*
X158187858Y-75252314D01*
X158185934Y-75302262D01*
X158184462Y-75351687D01*
X158183743Y-75400261D01*
X158184081Y-75447643D01*
X158177375Y-75412875D01*
X158169449Y-75376729D01*
X158150594Y-75301070D01*
X158128810Y-75222198D01*
X158105393Y-75141647D01*
X158058842Y-74981643D01*
X158038299Y-74905253D01*
X158021306Y-74833320D01*
X157994440Y-74686721D01*
X157976197Y-74539722D01*
X157966254Y-74392520D01*
X157964286Y-74245323D01*
X157969968Y-74098328D01*
X157982977Y-73951734D01*
X158002988Y-73805744D01*
X158029677Y-73660557D01*
X158062721Y-73516375D01*
X158101794Y-73373398D01*
X158146571Y-73231828D01*
X158196731Y-73091867D01*
X158251947Y-72953709D01*
X158311897Y-72817562D01*
X158376254Y-72683623D01*
X158444697Y-72552094D01*
X158479351Y-72491096D01*
X158521564Y-72422607D01*
X158570887Y-72347771D01*
X158626873Y-72267737D01*
X158689073Y-72183646D01*
X158757041Y-72096649D01*
X158830328Y-72007889D01*
X158908490Y-71918512D01*
X158991077Y-71829665D01*
X159077640Y-71742494D01*
X159167734Y-71658145D01*
X159260911Y-71577764D01*
X159356725Y-71502495D01*
X159454725Y-71433488D01*
X159554466Y-71371886D01*
X159655499Y-71318835D01*
X159655464Y-71318826D01*
X159655447Y-71318821D01*
X159655428Y-71318817D01*
X159701659Y-71297842D01*
X159748022Y-71278980D01*
X159794475Y-71262339D01*
X159840974Y-71248026D01*
X159887481Y-71236146D01*
X159933949Y-71226809D01*
X159980339Y-71220117D01*
X160026605Y-71216182D01*
X160072708Y-71215107D01*
X160118603Y-71217000D01*
G37*
D12*
X139033000Y-103216336D02*
X139034450Y-103213499D01*
X139036334Y-103209634D01*
X139038758Y-103204472D01*
X139041868Y-103197660D01*
X139045868Y-103188706D01*
X139051089Y-103176825D01*
X139058179Y-103160503D01*
X139069569Y-103134096D01*
X139081372Y-103106726D01*
X139087644Y-103092231D01*
X139094134Y-103077295D01*
X139100817Y-103061993D01*
X139107671Y-103046400D01*
X139114672Y-103030589D01*
X139121798Y-103014634D01*
X139129026Y-102998612D01*
X139132670Y-102990598D01*
X139136331Y-102982595D01*
X139140007Y-102974612D01*
X139143693Y-102966658D01*
X139147387Y-102958743D01*
X139151086Y-102950876D01*
X139154788Y-102943067D01*
X139158489Y-102935324D01*
X139162186Y-102927657D01*
X139165877Y-102920075D01*
X139169559Y-102912587D01*
X139173229Y-102905203D01*
X139176884Y-102897933D01*
X139180521Y-102890785D01*
X139184137Y-102883768D01*
X139187729Y-102876893D01*
X139191295Y-102870168D01*
X139194832Y-102863602D01*
X139198336Y-102857206D01*
X139201805Y-102850987D01*
X139205236Y-102844956D01*
X139208626Y-102839122D01*
X139211972Y-102833495D01*
X139215272Y-102828082D01*
X139218521Y-102822894D01*
X139220127Y-102820388D01*
X139221719Y-102817941D01*
X139223297Y-102815555D01*
X139224861Y-102813230D01*
X139226410Y-102810969D01*
X139227944Y-102808773D01*
X139229464Y-102806642D01*
X139230967Y-102804577D01*
X139232454Y-102802580D01*
X139233926Y-102800653D01*
X139235380Y-102798795D01*
X139236817Y-102797009D01*
X139238237Y-102795295D01*
X139239639Y-102793655D01*
X139241023Y-102792089D01*
X139242388Y-102790600D01*
X139243734Y-102789187D01*
X139245062Y-102787853D01*
X139246369Y-102786599D01*
X139247657Y-102785425D01*
X139248924Y-102784332D01*
X139250171Y-102783323D01*
X139251396Y-102782398D01*
X139252600Y-102781558D01*
X139253782Y-102780804D01*
X139254943Y-102780138D01*
X139256080Y-102779561D01*
X139257195Y-102779074D01*
X139258287Y-102778678D01*
X139258824Y-102778514D01*
X139259355Y-102778374D01*
X139259880Y-102778257D01*
X139260399Y-102778163D01*
X139260912Y-102778093D01*
X139261419Y-102778047D01*
X139261919Y-102778025D01*
X139262414Y-102778027D01*
X139262902Y-102778053D01*
X139263384Y-102778103D01*
X139263859Y-102778178D01*
X139264329Y-102778278D01*
X139264791Y-102778402D01*
X139265248Y-102778552D01*
X139265697Y-102778726D01*
X139266141Y-102778926D01*
X139266577Y-102779151D01*
X139267007Y-102779401D01*
X139267430Y-102779678D01*
X139267847Y-102779980D01*
X139268256Y-102780308D01*
X139268659Y-102780662D01*
X139269055Y-102781043D01*
X139269444Y-102781450D01*
X139269826Y-102781883D01*
X139270201Y-102782343D01*
D10*
G36*
X157714120Y-74850268D02*
G01*
X157731301Y-74927775D01*
X157751803Y-75002139D01*
X157775925Y-75072881D01*
X157775947Y-75072900D01*
X157708898Y-75099849D01*
X157700775Y-74774689D01*
X157714120Y-74850268D01*
G37*
D12*
X139270201Y-102782343D02*
X139271138Y-102783603D01*
X139272016Y-102784916D01*
X139272835Y-102786285D01*
X139273596Y-102787712D01*
X139274299Y-102789199D01*
X139274943Y-102790750D01*
X139275529Y-102792366D01*
X139276054Y-102794051D01*
X139276519Y-102795809D01*
X139276920Y-102797642D01*
X139277258Y-102799554D01*
X139277528Y-102801548D01*
X139277730Y-102803629D01*
X139277860Y-102805800D01*
X139277916Y-102808065D01*
X139277894Y-102810428D01*
X139277792Y-102812894D01*
X139277605Y-102815466D01*
X139277330Y-102818149D01*
X139276964Y-102820948D01*
X139276500Y-102823867D01*
X139275937Y-102826910D01*
X139275268Y-102830083D01*
X139274490Y-102833390D01*
X139273597Y-102836837D01*
X139272585Y-102840429D01*
X139271447Y-102844171D01*
X139270179Y-102848068D01*
X139268775Y-102852128D01*
X139267230Y-102856355D01*
X139265536Y-102860756D01*
X139263687Y-102865340D01*
X139261678Y-102870112D01*
X139259499Y-102875082D01*
X139257144Y-102880260D01*
X139254603Y-102885657D01*
X139251865Y-102891286D01*
X139248920Y-102897166D01*
X139245752Y-102903317D01*
X139242341Y-102909772D01*
X139238658Y-102916576D01*
X139234661Y-102923804D01*
X139230271Y-102931587D01*
X139225323Y-102940217D01*
X139218534Y-102951907D01*
X139213479Y-102960605D01*
X139211197Y-102964570D01*
X139209104Y-102968257D01*
X139207218Y-102971649D01*
X139205559Y-102974729D01*
X139204144Y-102977479D01*
X139203534Y-102978726D01*
X139202993Y-102979884D01*
D11*
X139795712Y-102976710D02*
X139794082Y-102975848D01*
X139792422Y-102975060D01*
X139790731Y-102974345D01*
X139789008Y-102973703D01*
X139787251Y-102973133D01*
X139785458Y-102972636D01*
X139783627Y-102972210D01*
X139781757Y-102971857D01*
X139779845Y-102971577D01*
X139777889Y-102971372D01*
X139775887Y-102971242D01*
X139773837Y-102971188D01*
X139771736Y-102971213D01*
X139769582Y-102971319D01*
X139767374Y-102971507D01*
X139765108Y-102971779D01*
X139762781Y-102972140D01*
X139760393Y-102972591D01*
X139757939Y-102973135D01*
X139755418Y-102973776D01*
X139752827Y-102974517D01*
X139750163Y-102975361D01*
X139747424Y-102976313D01*
X139744607Y-102977377D01*
X139741709Y-102978556D01*
X139738728Y-102979855D01*
X139735662Y-102981278D01*
X139732506Y-102982829D01*
X139729258Y-102984515D01*
X139725916Y-102986339D01*
X139722476Y-102988308D01*
X139718934Y-102990425D01*
X139715288Y-102992697D01*
X139711534Y-102995130D01*
X139707667Y-102997730D01*
X139703684Y-103000503D01*
X139699580Y-103003457D01*
X139695348Y-103006599D01*
X139690983Y-103009938D01*
X139686477Y-103013483D01*
X139681819Y-103017247D01*
X139676998Y-103021243D01*
X139671996Y-103025490D01*
X139666788Y-103030012D01*
X139661336Y-103034847D01*
X139655579Y-103040053D01*
X139649400Y-103045741D01*
X139642529Y-103052160D01*
X139634975Y-103059289D01*
X139628296Y-103065591D01*
X139625247Y-103068441D01*
X139622404Y-103071066D01*
X139619775Y-103073445D01*
X139617372Y-103075558D01*
X139615203Y-103077387D01*
X139614210Y-103078189D01*
X139613278Y-103078912D01*
D10*
G36*
X137395635Y-104968182D02*
G01*
X137386252Y-104983142D01*
X137376797Y-104997782D01*
X137367264Y-105012062D01*
X137357638Y-105025947D01*
X137347903Y-105039392D01*
X137338051Y-105052360D01*
X137328068Y-105064814D01*
X137334751Y-105051911D01*
X137342351Y-105038648D01*
X137350826Y-105025046D01*
X137360137Y-105011134D01*
X137370244Y-104996942D01*
X137381111Y-104982494D01*
X137392697Y-104967818D01*
X137404961Y-104952940D01*
X137395635Y-104968182D01*
G37*
D11*
X138966837Y-103736379D02*
X138965470Y-103739564D01*
X138964006Y-103742774D01*
X138962442Y-103746011D01*
X138960776Y-103749276D01*
X138959005Y-103752573D01*
X138957125Y-103755903D01*
X138955133Y-103759269D01*
X138953025Y-103762674D01*
X138950799Y-103766120D01*
X138948449Y-103769611D01*
X138945970Y-103773150D01*
X138943359Y-103776741D01*
X138940608Y-103780387D01*
X138937713Y-103784094D01*
X138934666Y-103787865D01*
X138931460Y-103791707D01*
X138928087Y-103795626D01*
X138924536Y-103799630D01*
X138920797Y-103803726D01*
X138916858Y-103807925D01*
X138912702Y-103812238D01*
X138908313Y-103816680D01*
X138903669Y-103821268D01*
X138898742Y-103826025D01*
X138893498Y-103830979D01*
X138887892Y-103836167D01*
X138881861Y-103841643D01*
X138875315Y-103847482D01*
X138868113Y-103853803D01*
X138860008Y-103860816D01*
X138850492Y-103868954D01*
X138836439Y-103880870D01*
X138821697Y-103893373D01*
X138814382Y-103899626D01*
X138807129Y-103905885D01*
X138799956Y-103912152D01*
X138796406Y-103915291D01*
X138792883Y-103918433D01*
X138789390Y-103921579D01*
X138785929Y-103924729D01*
X138782502Y-103927885D01*
X138779111Y-103931046D01*
X138775760Y-103934212D01*
X138772450Y-103937385D01*
X138769184Y-103940564D01*
X138765964Y-103943751D01*
X138762792Y-103946945D01*
X138759671Y-103950147D01*
X138756603Y-103953357D01*
X138753590Y-103956577D01*
X138750636Y-103959805D01*
X138747741Y-103963043D01*
X138744909Y-103966292D01*
X138742142Y-103969551D01*
X138739442Y-103972821D01*
X138736811Y-103976102D01*
X138734252Y-103979395D01*
X138731768Y-103982701D01*
X157218075Y-72808906D02*
X157220127Y-72810879D01*
X157222114Y-72812900D01*
X157224040Y-72814971D01*
X157225905Y-72817094D01*
X157227712Y-72819271D01*
X157229463Y-72821504D01*
X157231161Y-72823797D01*
X157232807Y-72826154D01*
X157234403Y-72828577D01*
X157235951Y-72831071D01*
X157237453Y-72833642D01*
X157238911Y-72836293D01*
X157240327Y-72839033D01*
X157241703Y-72841867D01*
X157243042Y-72844805D01*
X157244346Y-72847856D01*
X157245618Y-72851033D01*
X157246861Y-72854351D01*
X157248080Y-72857828D01*
X157249281Y-72861488D01*
X157250470Y-72865362D01*
X157251657Y-72869496D01*
X157252856Y-72873952D01*
X157254091Y-72878834D01*
X157255401Y-72884321D01*
X157256875Y-72890806D01*
X157258656Y-72898903D01*
X157260660Y-72907995D01*
X157261691Y-72912534D01*
X157262756Y-72917062D01*
X157263868Y-72921574D01*
X157265037Y-72926066D01*
X157265647Y-72928303D01*
X157266275Y-72930533D01*
X157266923Y-72932756D01*
X157267593Y-72934971D01*
X157424363Y-73627429D02*
X157420960Y-73620171D01*
X157417603Y-73612823D01*
X157414290Y-73605382D01*
X157411021Y-73597842D01*
X157407792Y-73590198D01*
X157404604Y-73582444D01*
X157401454Y-73574575D01*
X157398340Y-73566582D01*
X157395261Y-73558459D01*
X157392213Y-73550197D01*
X157389196Y-73541787D01*
X157386205Y-73533218D01*
X157383239Y-73524477D01*
X157380293Y-73515552D01*
X157377365Y-73506427D01*
X157374450Y-73497082D01*
X157371542Y-73487499D01*
X157368637Y-73477650D01*
X157365727Y-73467507D01*
X157362804Y-73457032D01*
X157359857Y-73446181D01*
X157356873Y-73434895D01*
X157353836Y-73423100D01*
X157350722Y-73410695D01*
X157347499Y-73397538D01*
X157344119Y-73383416D01*
X157340504Y-73367987D01*
X157336512Y-73350619D01*
X157331815Y-73329864D01*
X157327332Y-73309884D01*
X157322822Y-73289782D01*
X157318274Y-73269687D01*
X157315976Y-73259643D01*
X157313654Y-73249603D01*
X157311305Y-73239567D01*
X157308924Y-73229537D01*
X157306506Y-73219512D01*
X157304047Y-73209494D01*
X157301542Y-73199484D01*
X157298987Y-73189482D01*
X157296377Y-73179488D01*
X157293708Y-73169504D01*
X157290975Y-73159531D01*
X157288172Y-73149569D01*
X157285297Y-73139618D01*
X157283830Y-73134647D01*
X157282344Y-73129680D01*
X157280837Y-73124716D01*
X157279308Y-73119755D01*
X157277758Y-73114798D01*
X157276186Y-73109845D01*
X157274591Y-73104895D01*
X157272972Y-73099949D01*
X157271329Y-73095007D01*
X157269662Y-73090069D01*
X157267969Y-73085135D01*
X157266251Y-73080205D01*
X157264507Y-73075279D01*
X157262735Y-73070358D01*
X157260936Y-73065441D01*
X157259109Y-73060528D01*
X157257254Y-73055621D01*
X157255369Y-73050717D01*
X157253455Y-73045819D01*
X157251510Y-73040926D01*
X157249534Y-73036038D01*
X157247527Y-73031154D01*
X157245488Y-73026276D01*
X157243416Y-73021403D01*
X157241311Y-73016536D01*
X157239173Y-73011674D01*
X157237000Y-73006817D01*
X157234792Y-73001966D01*
X157232548Y-72997121D01*
X157230269Y-72992282D01*
X157208720Y-72720400D02*
X157209049Y-72721207D01*
X157209348Y-72721996D01*
X157209616Y-72722755D01*
X157209856Y-72723497D01*
X157210066Y-72724212D01*
X157210251Y-72724911D01*
X157210409Y-72725586D01*
X157210543Y-72726245D01*
X157210653Y-72726883D01*
X157210740Y-72727506D01*
X157210804Y-72728111D01*
X157210846Y-72728701D01*
X157210868Y-72729276D01*
X157210869Y-72729837D01*
X157210851Y-72730384D01*
X157210813Y-72730918D01*
X157210756Y-72731441D01*
X157210681Y-72731952D01*
X157210475Y-72732945D01*
X157210196Y-72733901D01*
X157209845Y-72734826D01*
X157209419Y-72735726D01*
X157208916Y-72736605D01*
X157208332Y-72737468D01*
X157207660Y-72738321D01*
X157206891Y-72739169D01*
X157206017Y-72740018D01*
X157205021Y-72740876D01*
X157203883Y-72741753D01*
X157202574Y-72742666D01*
X157201042Y-72743642D01*
X157199181Y-72744741D01*
X157196493Y-72746245D01*
X157193784Y-72747762D01*
X157192464Y-72748536D01*
X157191182Y-72749329D01*
X157189950Y-72750149D01*
X157188779Y-72751004D01*
X157188221Y-72751446D01*
X157187682Y-72751900D01*
X157187165Y-72752365D01*
X157186670Y-72752844D01*
X157186200Y-72753337D01*
X157185755Y-72753845D01*
X157185337Y-72754368D01*
X157184947Y-72754908D01*
X157184588Y-72755466D01*
X157184259Y-72756042D01*
X157183964Y-72756638D01*
X157183703Y-72757254D01*
X157183478Y-72757891D01*
X157183290Y-72758550D01*
X157183140Y-72759232D01*
X157183031Y-72759938D01*
X157182964Y-72760669D01*
X157182939Y-72761426D01*
X157182959Y-72762209D01*
X157183024Y-72763020D01*
X157183137Y-72763859D01*
X157183299Y-72764728D01*
X157183512Y-72765627D01*
X157183776Y-72766557D01*
X157184093Y-72767519D01*
X157184465Y-72768514D01*
X157184893Y-72769542D01*
X157185378Y-72770606D01*
X157185923Y-72771705D01*
X157186528Y-72772841D01*
X157187194Y-72774014D01*
X157187925Y-72775226D01*
X157188720Y-72776476D01*
X157189581Y-72777767D01*
X157190510Y-72779100D01*
X157191508Y-72780474D01*
X157192577Y-72781891D01*
X157193718Y-72783351D01*
X157194933Y-72784857D01*
X157196222Y-72786408D01*
X157197588Y-72788006D01*
X157199032Y-72789650D01*
X157200555Y-72791344D01*
X157202159Y-72793086D01*
X157203846Y-72794879D01*
X157205616Y-72796722D01*
X157207471Y-72798618D01*
X157209413Y-72800566D01*
X157211442Y-72802568D01*
X157213562Y-72804625D01*
X157215772Y-72806737D01*
X157218075Y-72808906D01*
X138731768Y-103982701D02*
X138529295Y-104227843D01*
D12*
X157627212Y-72927781D02*
X157625705Y-72931118D01*
X157624250Y-72934532D01*
X157622846Y-72938029D01*
X157621492Y-72941613D01*
X157620189Y-72945288D01*
X157618935Y-72949062D01*
X157617729Y-72952940D01*
X157616571Y-72956931D01*
X157615461Y-72961042D01*
X157614397Y-72965285D01*
X157613379Y-72969671D01*
X157612405Y-72974214D01*
X157611474Y-72978931D01*
X157610584Y-72983844D01*
X157609734Y-72988979D01*
X157608921Y-72994372D01*
X157608140Y-73000070D01*
X157607387Y-73006138D01*
X157606654Y-73012677D01*
X157605925Y-73019849D01*
X157605177Y-73027957D01*
X157604347Y-73037712D01*
X157603671Y-73046034D01*
X157602858Y-73055994D01*
X157602004Y-73065891D01*
X157601547Y-73070809D01*
X157601063Y-73075705D01*
X157600545Y-73080575D01*
X157599989Y-73085416D01*
D10*
G36*
X157662972Y-74899855D02*
G01*
X157662952Y-74899850D01*
X157662966Y-74899831D01*
X157662972Y-74899855D01*
G37*
G36*
X157107844Y-72541198D02*
G01*
X157113652Y-72542540D01*
X157119258Y-72544654D01*
X157124662Y-72547490D01*
X157129869Y-72550998D01*
X157134883Y-72555131D01*
X157139706Y-72559838D01*
X157144343Y-72565070D01*
X157148798Y-72570780D01*
X157153074Y-72576917D01*
X157161099Y-72590274D01*
X157168448Y-72604750D01*
X157175147Y-72619950D01*
X157181227Y-72635480D01*
X157186711Y-72650949D01*
X157196014Y-72680123D01*
X157203275Y-72704323D01*
X157206211Y-72713574D01*
X157208720Y-72720400D01*
X157209990Y-72723945D01*
X157210687Y-72727123D01*
X157210867Y-72729966D01*
X157210575Y-72732507D01*
X157209867Y-72734775D01*
X157208788Y-72736806D01*
X157207394Y-72738627D01*
X157205734Y-72740273D01*
X157203856Y-72741772D01*
X157201817Y-72743159D01*
X157197444Y-72745719D01*
X157193022Y-72748203D01*
X157188958Y-72750867D01*
X157187187Y-72752345D01*
X157185658Y-72753961D01*
X157184421Y-72755748D01*
X157183527Y-72757738D01*
X157183029Y-72759962D01*
X157182973Y-72762453D01*
X157183415Y-72765240D01*
X157184402Y-72768355D01*
X157185988Y-72771831D01*
X157188221Y-72775699D01*
X157191154Y-72779991D01*
X157194833Y-72784737D01*
X157199317Y-72789970D01*
X157204651Y-72795721D01*
X157210886Y-72802024D01*
X157218075Y-72808906D01*
X157221346Y-72812106D01*
X157224415Y-72815390D01*
X157227291Y-72818753D01*
X157229985Y-72822196D01*
X157232504Y-72825710D01*
X157234859Y-72829296D01*
X157239103Y-72836660D01*
X157242799Y-72844260D01*
X157246012Y-72852065D01*
X157248817Y-72860045D01*
X157251285Y-72868174D01*
X157253489Y-72876420D01*
X157255501Y-72884755D01*
X157259239Y-72901570D01*
X157263077Y-72918388D01*
X157265214Y-72926723D01*
X157267593Y-72934971D01*
X157384871Y-73272884D01*
X157398914Y-73318602D01*
X157411627Y-73364037D01*
X157422646Y-73408874D01*
X157431616Y-73452797D01*
X157438177Y-73495487D01*
X157441971Y-73536629D01*
X157442638Y-73575906D01*
X157439821Y-73613004D01*
X157438896Y-73622259D01*
X157438493Y-73631693D01*
X157438583Y-73641290D01*
X157439135Y-73651044D01*
X157440874Y-73665674D01*
X157424363Y-73627429D01*
X157230269Y-72992282D01*
X157214279Y-72955676D01*
X157190282Y-72896375D01*
X157162274Y-72822891D01*
X157134245Y-72743736D01*
X157110192Y-72667425D01*
X157100905Y-72632996D01*
X157094109Y-72602468D01*
X157090305Y-72576910D01*
X157089989Y-72557382D01*
X157091298Y-72550213D01*
X157093664Y-72544950D01*
X157097154Y-72541725D01*
X157101828Y-72540675D01*
X157107844Y-72541198D01*
G37*
D12*
X157775925Y-75072881D02*
X157775947Y-75072900D01*
D10*
G36*
X137990386Y-104889485D02*
G01*
X137945795Y-104832623D01*
X137945823Y-104832617D01*
X138002086Y-104783414D01*
X138057022Y-104729264D01*
X138110655Y-104670732D01*
X138160002Y-104611950D01*
X137990386Y-104889485D01*
G37*
D11*
X157101828Y-72540675D02*
X157103671Y-72540743D01*
X157105503Y-72540891D01*
X157107324Y-72541117D01*
X157109137Y-72541423D01*
X157110944Y-72541808D01*
X157112746Y-72542273D01*
X157114544Y-72542820D01*
X157116340Y-72543450D01*
X157118136Y-72544164D01*
X157119933Y-72544964D01*
X157121732Y-72545852D01*
X157123534Y-72546830D01*
X157125341Y-72547902D01*
X157127153Y-72549070D01*
X157128972Y-72550337D01*
X157130798Y-72551707D01*
X157132632Y-72553182D01*
X157134476Y-72554767D01*
X157136329Y-72556465D01*
X157138191Y-72558280D01*
X157140065Y-72560218D01*
X157141950Y-72562281D01*
X157143846Y-72564475D01*
X157145754Y-72566804D01*
X157147674Y-72569274D01*
X157149606Y-72571889D01*
X157151550Y-72574655D01*
X157153507Y-72577576D01*
X157155477Y-72580660D01*
X157157459Y-72583911D01*
X157159454Y-72587335D01*
X157161463Y-72590940D01*
X157163484Y-72594730D01*
X157165519Y-72598714D01*
X157167567Y-72602899D01*
X157169630Y-72607292D01*
X157171708Y-72611902D01*
X157173802Y-72616739D01*
X157175912Y-72621812D01*
X157178042Y-72627136D01*
X157180193Y-72632724D01*
X157182371Y-72638595D01*
X157184579Y-72644774D01*
X157186828Y-72651294D01*
X157189132Y-72658206D01*
X157191515Y-72665592D01*
X157194022Y-72673607D01*
X157196762Y-72682601D01*
X157199743Y-72692561D01*
X157202375Y-72701357D01*
X157203591Y-72705349D01*
X157204741Y-72709044D01*
X157205827Y-72712417D01*
X157206852Y-72715449D01*
X157207815Y-72718117D01*
X157208275Y-72719308D01*
X157208720Y-72720400D01*
D12*
X157622730Y-73759226D02*
X157625722Y-73779558D01*
X157628660Y-73800071D01*
X157631544Y-73820768D01*
X157634374Y-73841657D01*
X157637150Y-73862742D01*
X157639873Y-73884029D01*
X157642542Y-73905525D01*
X157645157Y-73927236D01*
X157647719Y-73949170D01*
X157650228Y-73971334D01*
X157652684Y-73993737D01*
X157655087Y-74016387D01*
X157657436Y-74039293D01*
X157659734Y-74062465D01*
X157661978Y-74085915D01*
X157664171Y-74109653D01*
X157666312Y-74133694D01*
X157668400Y-74158049D01*
X157670438Y-74182734D01*
X157672424Y-74207766D01*
X157674359Y-74233162D01*
X157676244Y-74258941D01*
X157678079Y-74285126D01*
X157679865Y-74311741D01*
X157681601Y-74338812D01*
X157683290Y-74366369D01*
X157684931Y-74394446D01*
X157686525Y-74423083D01*
X157688073Y-74452321D01*
X157689577Y-74482214D01*
X157691038Y-74512819D01*
X157692456Y-74544205D01*
X157693835Y-74576456D01*
X157695177Y-74609671D01*
X157696483Y-74643971D01*
X157697758Y-74679509D01*
X157699006Y-74716481D01*
X157700233Y-74755143D01*
X157701447Y-74795844D01*
X157702659Y-74839087D01*
X157703887Y-74885635D01*
X157705160Y-74936767D01*
X157706535Y-74994958D01*
X157708155Y-75066473D01*
X157708898Y-75099849D01*
D10*
G36*
X138538230Y-104039228D02*
G01*
X138451383Y-104185366D01*
X138360012Y-104331932D01*
X138312577Y-104403971D01*
X138263944Y-104474430D01*
X138214095Y-104542752D01*
X138163005Y-104608372D01*
X138160002Y-104611950D01*
X138165096Y-104603614D01*
X138254259Y-104460913D01*
X138345200Y-104319096D01*
X138438348Y-104178705D01*
X138534132Y-104040289D01*
X138552392Y-104015185D01*
X138538230Y-104039228D01*
G37*
D11*
X157662952Y-74899850D02*
X157662972Y-74899855D01*
X157230269Y-72992282D02*
X157228199Y-72987834D01*
X157225493Y-72981817D01*
X157222096Y-72974064D01*
X157218002Y-72964511D01*
X157213252Y-72953216D01*
X157210647Y-72946943D01*
X157207935Y-72940357D01*
X157205099Y-72933419D01*
X157202169Y-72926195D01*
X157199166Y-72918738D01*
X157196084Y-72911029D01*
X157192977Y-72903204D01*
X157189807Y-72895163D01*
X157186653Y-72887108D01*
X157183452Y-72878874D01*
X157180299Y-72870708D01*
X157177113Y-72862399D01*
X157174000Y-72854222D01*
X157170866Y-72845933D01*
X157167822Y-72837823D01*
X157164769Y-72829631D01*
X157161817Y-72821651D01*
X157158865Y-72813613D01*
X157156022Y-72805811D01*
X157153188Y-72797972D01*
X157150466Y-72790383D01*
X157147759Y-72782775D01*
X157145166Y-72775427D01*
X157142593Y-72768074D01*
X157140134Y-72760984D01*
X157137700Y-72753903D01*
X157135378Y-72747085D01*
X157133084Y-72740285D01*
X157130899Y-72733747D01*
X157128746Y-72727236D01*
X157126699Y-72720982D01*
X157124684Y-72714762D01*
X157122773Y-72708794D01*
X157120896Y-72702865D01*
X157119117Y-72697181D01*
X157117374Y-72691541D01*
X157115726Y-72686138D01*
X157114113Y-72680783D01*
X157112591Y-72675658D01*
X157111105Y-72670582D01*
X157109705Y-72665729D01*
X157108342Y-72660927D01*
X157107060Y-72656338D01*
X157105814Y-72651803D01*
X157104646Y-72647472D01*
X157103513Y-72643196D01*
X157102453Y-72639115D01*
X157101429Y-72635089D01*
X157100473Y-72631250D01*
X157099551Y-72627466D01*
X157098695Y-72623862D01*
X157097872Y-72620311D01*
X157097109Y-72616931D01*
X157096380Y-72613604D01*
X157095706Y-72610441D01*
X157095065Y-72607330D01*
X157094477Y-72604373D01*
X157093919Y-72601469D01*
X157093411Y-72598711D01*
X157092932Y-72596003D01*
X157092498Y-72593435D01*
X157092094Y-72590916D01*
X157091731Y-72588529D01*
X157091396Y-72586189D01*
X157091099Y-72583974D01*
X157090829Y-72581805D01*
X157090594Y-72579754D01*
X157090385Y-72577747D01*
X157090207Y-72575851D01*
X157090054Y-72573998D01*
X157089930Y-72572249D01*
X157089829Y-72570541D01*
X157089754Y-72568931D01*
X157089702Y-72567360D01*
X157089672Y-72565882D01*
X157089664Y-72564440D01*
X157089677Y-72563085D01*
X157089709Y-72561765D01*
X157089760Y-72560526D01*
X157089830Y-72559320D01*
X157089915Y-72558190D01*
X157090019Y-72557091D01*
X157090136Y-72556062D01*
X157090270Y-72555064D01*
X157090416Y-72554130D01*
X157090578Y-72553224D01*
X157090750Y-72552379D01*
X157090937Y-72551560D01*
X157091132Y-72550796D01*
X157091342Y-72550058D01*
X157091558Y-72549371D01*
X157091788Y-72548707D01*
X157092024Y-72548090D01*
X157092272Y-72547496D01*
X157092525Y-72546943D01*
X157092790Y-72546412D01*
X157093059Y-72545919D01*
X157093339Y-72545448D01*
X157093622Y-72545010D01*
X157093917Y-72544592D01*
X157094215Y-72544205D01*
X157094523Y-72543837D01*
X157094835Y-72543497D01*
X157095157Y-72543175D01*
X157095483Y-72542878D01*
X157095818Y-72542599D01*
X157096159Y-72542343D01*
X157096509Y-72542104D01*
X157096865Y-72541886D01*
X157097230Y-72541685D01*
X157097603Y-72541504D01*
X157097985Y-72541340D01*
X157098376Y-72541194D01*
X157098777Y-72541066D01*
X157099610Y-72540863D01*
X157100489Y-72540732D01*
X157101418Y-72540676D01*
X157101828Y-72540675D01*
D12*
X138699042Y-103766193D02*
X138709669Y-103748771D01*
X138720943Y-103730438D01*
X138733005Y-103710972D01*
X138746067Y-103690038D01*
X138760479Y-103667083D01*
X138776902Y-103641066D01*
X138796927Y-103609473D01*
X138811959Y-103585806D01*
X138826392Y-103563081D01*
X138840822Y-103540330D01*
X138855232Y-103517548D01*
X138869604Y-103494730D01*
X138883922Y-103471872D01*
X138891055Y-103460425D01*
X138898169Y-103448967D01*
X138905260Y-103437497D01*
X138912327Y-103426013D01*
X138919368Y-103414515D01*
X138926381Y-103403003D01*
X138933363Y-103391475D01*
X138940313Y-103379932D01*
X138947228Y-103368373D01*
X138954106Y-103356796D01*
X138960945Y-103345202D01*
X138967743Y-103333590D01*
X138974498Y-103321960D01*
X138981207Y-103310309D01*
X138987869Y-103298639D01*
X138994482Y-103286948D01*
X139001043Y-103275236D01*
X139007550Y-103263502D01*
X139014002Y-103251746D01*
X139020395Y-103239967D01*
X139026729Y-103228163D01*
X139033000Y-103216336D01*
D10*
G36*
X138532540Y-104227063D02*
G01*
X138436753Y-104360978D01*
X138339995Y-104493588D01*
X138290204Y-104558183D01*
X138238913Y-104620985D01*
X138185704Y-104681502D01*
X138130173Y-104739231D01*
X138127580Y-104722898D01*
X138127103Y-104706245D01*
X138128627Y-104689327D01*
X138132037Y-104672173D01*
X138137220Y-104654822D01*
X138144065Y-104637298D01*
X138152451Y-104619638D01*
X138162268Y-104601874D01*
X138185735Y-104566161D01*
X138213546Y-104530415D01*
X138244789Y-104494895D01*
X138278547Y-104459859D01*
X138313904Y-104425559D01*
X138349945Y-104392260D01*
X138420420Y-104329685D01*
X138482644Y-104274193D01*
X138508375Y-104249748D01*
X138529295Y-104227843D01*
X138545894Y-104208860D01*
X138532540Y-104227063D01*
G37*
D12*
X139147163Y-103049263D02*
X139146800Y-103052906D01*
X139146353Y-103056591D01*
X139145821Y-103060321D01*
X139145201Y-103064101D01*
X139144492Y-103067936D01*
X139143692Y-103071831D01*
X139142797Y-103075792D01*
X139141804Y-103079827D01*
X139140710Y-103083942D01*
X139139510Y-103088149D01*
X139138199Y-103092456D01*
X139136771Y-103096877D01*
X139135219Y-103101428D01*
X139133533Y-103106127D01*
X139131701Y-103110999D01*
X139129709Y-103116076D01*
X139127536Y-103121400D01*
X139125155Y-103127032D01*
X139122521Y-103133062D01*
X139119566Y-103139636D01*
X139116161Y-103147031D01*
X139112002Y-103155893D01*
X139108424Y-103163444D01*
X139104148Y-103172475D01*
X139099939Y-103181473D01*
X139097876Y-103185961D01*
X139095847Y-103190443D01*
X139093861Y-103194919D01*
X139091922Y-103199390D01*
D10*
G36*
X139266014Y-102778867D02*
G01*
X139270201Y-102782343D01*
X139273024Y-102786624D01*
X139275171Y-102791351D01*
X139276677Y-102796491D01*
X139277580Y-102802016D01*
X139277913Y-102807887D01*
X139277716Y-102814077D01*
X139277019Y-102820549D01*
X139275865Y-102827275D01*
X139274281Y-102834221D01*
X139272310Y-102841351D01*
X139267345Y-102856045D01*
X139261253Y-102871099D01*
X139254317Y-102886251D01*
X139246829Y-102901243D01*
X139239076Y-102915814D01*
X139223911Y-102942656D01*
X139211120Y-102964707D01*
X139206329Y-102973284D01*
X139202993Y-102979884D01*
X139201330Y-102983145D01*
X139199606Y-102985793D01*
X139197825Y-102987885D01*
X139195993Y-102989476D01*
X139194116Y-102990614D01*
X139192197Y-102991360D01*
X139190249Y-102991766D01*
X139188269Y-102991885D01*
X139186268Y-102991770D01*
X139184249Y-102991478D01*
X139180183Y-102990572D01*
X139176123Y-102989602D01*
X139172106Y-102989000D01*
X139170131Y-102988971D01*
X139168183Y-102989195D01*
X139166270Y-102989727D01*
X139164399Y-102990623D01*
X139162573Y-102991933D01*
X139160799Y-102993715D01*
X139159083Y-102996018D01*
X139157430Y-102998899D01*
X139155845Y-103002416D01*
X139154335Y-103006618D01*
X139152906Y-103011560D01*
X139151563Y-103017295D01*
X139150310Y-103023878D01*
X139149158Y-103031365D01*
X139148105Y-103039811D01*
X139147163Y-103049263D01*
X139145990Y-103059190D01*
X139144277Y-103069019D01*
X139142074Y-103078757D01*
X139139433Y-103088408D01*
X139136403Y-103097979D01*
X139133033Y-103107472D01*
X139129378Y-103116896D01*
X139125488Y-103126254D01*
X139091922Y-103199390D01*
X139084598Y-103214947D01*
X139075996Y-103230598D01*
X139066282Y-103246341D01*
X139055611Y-103262171D01*
X139044149Y-103278094D01*
X139032055Y-103294101D01*
X139006628Y-103326380D01*
X138980624Y-103358995D01*
X138955337Y-103391940D01*
X138943368Y-103408531D01*
X138932064Y-103425202D01*
X138921586Y-103441952D01*
X138912097Y-103458778D01*
X138830316Y-103620054D01*
X138808855Y-103659729D01*
X138797682Y-103679228D01*
X138786147Y-103698442D01*
X138774195Y-103717325D01*
X138761776Y-103735835D01*
X138748835Y-103753928D01*
X138735322Y-103771557D01*
X138632981Y-103904391D01*
X138552392Y-104015185D01*
X138699042Y-103766193D01*
X138740914Y-103698281D01*
X138783656Y-103630398D01*
X138869943Y-103494192D01*
X138912577Y-103425608D01*
X138954266Y-103356523D01*
X138994559Y-103286809D01*
X139033000Y-103216336D01*
X139146892Y-102959800D01*
X139165908Y-102920017D01*
X139184677Y-102882731D01*
X139202809Y-102849211D01*
X139219913Y-102820721D01*
X139235596Y-102798524D01*
X139242782Y-102790182D01*
X139249466Y-102783886D01*
X139255600Y-102779798D01*
X139261133Y-102778070D01*
X139266014Y-102778867D01*
G37*
G36*
X158187347Y-75466532D02*
G01*
X158190043Y-75485034D01*
X158192229Y-75502979D01*
X158193887Y-75520325D01*
X158194994Y-75537028D01*
X158195533Y-75553044D01*
X158195482Y-75568332D01*
X158194819Y-75582847D01*
X158192400Y-75567070D01*
X158190352Y-75550913D01*
X158188645Y-75534402D01*
X158187249Y-75517565D01*
X158186134Y-75500431D01*
X158185267Y-75483025D01*
X158184620Y-75465378D01*
X158184165Y-75447514D01*
X158187347Y-75466532D01*
G37*
D12*
X137945823Y-104832617D02*
X137952931Y-104826755D01*
X137960072Y-104820762D01*
X137967246Y-104814637D01*
X137974454Y-104808378D01*
X137981697Y-104801983D01*
X137988976Y-104795450D01*
X137996291Y-104788777D01*
X138003643Y-104781962D01*
X138011033Y-104775004D01*
X138018461Y-104767899D01*
X138025929Y-104760646D01*
X138033437Y-104753243D01*
X138040986Y-104745688D01*
X138048577Y-104737977D01*
X138056211Y-104730109D01*
X138063889Y-104722081D01*
X138071612Y-104713890D01*
X138079381Y-104705535D01*
X138087197Y-104697011D01*
X138095062Y-104688317D01*
X138102976Y-104679449D01*
X138110941Y-104670404D01*
X138118958Y-104661180D01*
X138127029Y-104651772D01*
X138135155Y-104642178D01*
X138143337Y-104632393D01*
X138151578Y-104622415D01*
X138159879Y-104612238D01*
X138168242Y-104601860D01*
X138176668Y-104591275D01*
X138185161Y-104580479D01*
X138193723Y-104569468D01*
X138202355Y-104558235D01*
X138211061Y-104546776D01*
X138219843Y-104535086D01*
X138228704Y-104523156D01*
X138237649Y-104510983D01*
X138246679Y-104498557D01*
X138255800Y-104485872D01*
X138265016Y-104472919D01*
X138274331Y-104459689D01*
X138283750Y-104446173D01*
X138293280Y-104432360D01*
X138302926Y-104418238D01*
X138312696Y-104403794D01*
X138322597Y-104389014D01*
X138332640Y-104373881D01*
X138342833Y-104358378D01*
X138353188Y-104342484D01*
X138363720Y-104326175D01*
X138374443Y-104309423D01*
X138385375Y-104292198D01*
X138396539Y-104274462D01*
X138407960Y-104256169D01*
X138419668Y-104237266D01*
X138431705Y-104217685D01*
X138444117Y-104197343D01*
X138456969Y-104176129D01*
X138470346Y-104153899D01*
X138484366Y-104130451D01*
X138499200Y-104105491D01*
X138515118Y-104078557D01*
X138532591Y-104048844D01*
X138552589Y-104014693D01*
X138582555Y-103963359D01*
X138597608Y-103937559D01*
X138612517Y-103912034D01*
X138627286Y-103886810D01*
X138641913Y-103861916D01*
X138656402Y-103837379D01*
X138663594Y-103825254D01*
X138670752Y-103813228D01*
X138677876Y-103801306D01*
X138684965Y-103789490D01*
X138692021Y-103777785D01*
X138699042Y-103766193D01*
D10*
G36*
X157589913Y-74759540D02*
G01*
X157635507Y-74767172D01*
X157679763Y-74778297D01*
X157722777Y-74792797D01*
X157764646Y-74810555D01*
X157805463Y-74831456D01*
X157845326Y-74855382D01*
X157884332Y-74882215D01*
X157922575Y-74911837D01*
X157960152Y-74944133D01*
X157997158Y-74978985D01*
X158033690Y-75016275D01*
X158105714Y-75097701D01*
X158176990Y-75187475D01*
X158248285Y-75284658D01*
X158320369Y-75388311D01*
X158469970Y-75611285D01*
X158631932Y-75848894D01*
X158719467Y-75970842D01*
X158812393Y-76093636D01*
X158866797Y-76169887D01*
X158939161Y-76275520D01*
X159019959Y-76400382D01*
X159099670Y-76534317D01*
X159136141Y-76601513D01*
X159168768Y-76667166D01*
X159196361Y-76730010D01*
X159217729Y-76788775D01*
X159231681Y-76842193D01*
X159235506Y-76866498D01*
X159237029Y-76888991D01*
X159236102Y-76909511D01*
X159232579Y-76927899D01*
X159226308Y-76943999D01*
X159217143Y-76957651D01*
X159194176Y-76968360D01*
X159171038Y-76975123D01*
X159147754Y-76978150D01*
X159124350Y-76977644D01*
X159100853Y-76973819D01*
X159077287Y-76966882D01*
X159053677Y-76957040D01*
X159030048Y-76944503D01*
X159006427Y-76929478D01*
X158982841Y-76912175D01*
X158959313Y-76892801D01*
X158935868Y-76871566D01*
X158889337Y-76824342D01*
X158843447Y-76772171D01*
X158798407Y-76716724D01*
X158754417Y-76659662D01*
X158670415Y-76547374D01*
X158630810Y-76495483D01*
X158593074Y-76448649D01*
X158557410Y-76408541D01*
X158524026Y-76376827D01*
X158209411Y-76002152D01*
X158086904Y-75854224D01*
X157978695Y-75718263D01*
X157878108Y-75583540D01*
X157778470Y-75439326D01*
X157673098Y-75274892D01*
X157555322Y-75079508D01*
X157540709Y-75058824D01*
X157527083Y-75038192D01*
X157514628Y-75017611D01*
X157503526Y-74997084D01*
X157493963Y-74976614D01*
X157486123Y-74956200D01*
X157480189Y-74935844D01*
X157477993Y-74925687D01*
X157476344Y-74915547D01*
X157475263Y-74905422D01*
X157474774Y-74895313D01*
X157474898Y-74885219D01*
X157475660Y-74875141D01*
X157477082Y-74865080D01*
X157479189Y-74855035D01*
X157482000Y-74845005D01*
X157485542Y-74834994D01*
X157489835Y-74824998D01*
X157494905Y-74815020D01*
X157500771Y-74805059D01*
X157507459Y-74795115D01*
X157514992Y-74785189D01*
X157523392Y-74775281D01*
X157532682Y-74765391D01*
X157542885Y-74755519D01*
X157589913Y-74759540D01*
G37*
D11*
X139455006Y-103235299D02*
X139447431Y-103242275D01*
X139439283Y-103249671D01*
X139430487Y-103257548D01*
X139420946Y-103265988D01*
X139410524Y-103275102D01*
X139399028Y-103285052D01*
X139386152Y-103296095D01*
X139371361Y-103308680D01*
X139353522Y-103323763D01*
X139329633Y-103343879D01*
X139303005Y-103366304D01*
X139289526Y-103377695D01*
X139275971Y-103389198D01*
X139262364Y-103400809D01*
X139248731Y-103412521D01*
X139241912Y-103418414D01*
X139235096Y-103424331D01*
X139228286Y-103430271D01*
X139221484Y-103436233D01*
X139214695Y-103442217D01*
X139207921Y-103448222D01*
X139201166Y-103454248D01*
X139194432Y-103460293D01*
X139187723Y-103466358D01*
X139181041Y-103472441D01*
X139174390Y-103478543D01*
X139167774Y-103484661D01*
X139161194Y-103490797D01*
X139154654Y-103496948D01*
X139148158Y-103503115D01*
X139141709Y-103509296D01*
X139135309Y-103515492D01*
X139128962Y-103521702D01*
X139122670Y-103527924D01*
X139116438Y-103534159D01*
X139110267Y-103540405D01*
X139104162Y-103546662D01*
X139098126Y-103552930D01*
X139092160Y-103559207D01*
X139086270Y-103565494D01*
X139080457Y-103571789D01*
X139074725Y-103578092D01*
X139069077Y-103584402D01*
X139063516Y-103590719D01*
X139058045Y-103597042D01*
X139052667Y-103603370D01*
X139047387Y-103609703D01*
X139044783Y-103612871D01*
X139042205Y-103616040D01*
X139039653Y-103619210D01*
X139037126Y-103622380D01*
X139034627Y-103625552D01*
X139032154Y-103628724D01*
X139029708Y-103631896D01*
X139027290Y-103635069D01*
X139024900Y-103638242D01*
X139022538Y-103641416D01*
X139020205Y-103644590D01*
X139017902Y-103647764D01*
X139015627Y-103650938D01*
X139013383Y-103654112D01*
X139011170Y-103657286D01*
X139008987Y-103660460D01*
X139006835Y-103663634D01*
X139004714Y-103666807D01*
X139002626Y-103669980D01*
X139000570Y-103673152D01*
X138998547Y-103676324D01*
X138996556Y-103679495D01*
X138994600Y-103682666D01*
X138992677Y-103685836D01*
X138990788Y-103689005D01*
X138988934Y-103692172D01*
X138987115Y-103695339D01*
X138985332Y-103698505D01*
X138983584Y-103701670D01*
X138981873Y-103704833D01*
X138980198Y-103707995D01*
X138978560Y-103711155D01*
X138976960Y-103714315D01*
X138975397Y-103717472D01*
X138973873Y-103720628D01*
X138972387Y-103723782D01*
X138970940Y-103726934D01*
X138969533Y-103730084D01*
X138968165Y-103733233D01*
X138966837Y-103736379D01*
X157662972Y-74899855D02*
X157660111Y-74889272D01*
X157657295Y-74878547D01*
X157654523Y-74867675D01*
X157651793Y-74856651D01*
X157649106Y-74845467D01*
X157646461Y-74834118D01*
X157643857Y-74822595D01*
X157641294Y-74810890D01*
X157638770Y-74798995D01*
X157636285Y-74786900D01*
X157633838Y-74774594D01*
X157631428Y-74762065D01*
X157629053Y-74749301D01*
X157626712Y-74736286D01*
X157624404Y-74723005D01*
X157622126Y-74709438D01*
X157619878Y-74695565D01*
X157617656Y-74681362D01*
X157615458Y-74666800D01*
X157613281Y-74651847D01*
X157611121Y-74636465D01*
X157608975Y-74620606D01*
X157606835Y-74604216D01*
X157604697Y-74587226D01*
X157602551Y-74569546D01*
X157600386Y-74551065D01*
X157598188Y-74531629D01*
X157595937Y-74511027D01*
X157593601Y-74488947D01*
X157591133Y-74464888D01*
X157588446Y-74437956D01*
X157585350Y-74406204D01*
X157581702Y-74368223D01*
X157579397Y-74344192D01*
X157577077Y-74320164D01*
X157574726Y-74296144D01*
X157572329Y-74272138D01*
X157569870Y-74248151D01*
X157568613Y-74236167D01*
X157567335Y-74224189D01*
X157566034Y-74212219D01*
X157564708Y-74200256D01*
X157563355Y-74188303D01*
X157561973Y-74176359D01*
X157560561Y-74164426D01*
X157559116Y-74152503D01*
X157557637Y-74140591D01*
X157556121Y-74128692D01*
X157554567Y-74116806D01*
X157552972Y-74104933D01*
X157551336Y-74093075D01*
X157549655Y-74081231D01*
X157547929Y-74069403D01*
X157546155Y-74057591D01*
X157544331Y-74045796D01*
X157542455Y-74034019D01*
X157540525Y-74022260D01*
X157538540Y-74010520D01*
X157536498Y-73998799D01*
X157534396Y-73987099D01*
X157532233Y-73975420D01*
X157530007Y-73963762D01*
X157527716Y-73952127D01*
X157525358Y-73940514D01*
X157522931Y-73928925D01*
X157520433Y-73917361D01*
X157517862Y-73905821D01*
X157515217Y-73894308D01*
X157513866Y-73888561D01*
X157512495Y-73882820D01*
X157511105Y-73877087D01*
X157509695Y-73871360D01*
X157508264Y-73865640D01*
X157506814Y-73859927D01*
X157505343Y-73854221D01*
X157503851Y-73848523D01*
X157502338Y-73842831D01*
X157500804Y-73837147D01*
X157499248Y-73831471D01*
X157497670Y-73825802D01*
X157496071Y-73820140D01*
X157494449Y-73814486D01*
X157492805Y-73808840D01*
X157491138Y-73803202D01*
X157489448Y-73797572D01*
X157487734Y-73791950D01*
X157485998Y-73786336D01*
X157484237Y-73780730D01*
X157482453Y-73775132D01*
X157480645Y-73769543D01*
X157478812Y-73763962D01*
X157476954Y-73758389D01*
X157475072Y-73752826D01*
X157473165Y-73747271D01*
X157471232Y-73741724D01*
X157469274Y-73736187D01*
X157467289Y-73730659D01*
X157465279Y-73725139D01*
X157463242Y-73719629D01*
X157461179Y-73714128D01*
X157459089Y-73708636D01*
X157456972Y-73703153D01*
X157454828Y-73697680D01*
X157452656Y-73692217D01*
X157450457Y-73686763D01*
X157448229Y-73681319D01*
X157445974Y-73675884D01*
X157443690Y-73670460D01*
X157441377Y-73665045D01*
X157439035Y-73659641D01*
X157436664Y-73654246D01*
X157434264Y-73648862D01*
X157431834Y-73643488D01*
X157429374Y-73638125D01*
X157426883Y-73632772D01*
X157424363Y-73627429D01*
D12*
X157708898Y-75099849D02*
X157712067Y-75098573D01*
X157744002Y-75085724D01*
X157775947Y-75072900D01*
D10*
G36*
X157456213Y-73701209D02*
G01*
X157482973Y-73776753D01*
X157505246Y-73853848D01*
X157523641Y-73932279D01*
X157538766Y-74011835D01*
X157551228Y-74092298D01*
X157561634Y-74173458D01*
X157568127Y-74232656D01*
X157558231Y-74182507D01*
X157543562Y-74101802D01*
X157536713Y-74060903D01*
X157530424Y-74020509D01*
X157524872Y-73981277D01*
X157520236Y-73943859D01*
X157517263Y-73924165D01*
X157512897Y-73903943D01*
X157507375Y-73883277D01*
X157500941Y-73862256D01*
X157486286Y-73819477D01*
X157470857Y-73776287D01*
X157463451Y-73754750D01*
X157456574Y-73733364D01*
X157450464Y-73712217D01*
X157445360Y-73691390D01*
X157441504Y-73670971D01*
X157440874Y-73665674D01*
X157456213Y-73701209D01*
G37*
D12*
X157642544Y-73129552D02*
X157642706Y-73126370D01*
X157643008Y-73122082D01*
X157643489Y-73116399D01*
X157644202Y-73108946D01*
X157645214Y-73099192D01*
X157646633Y-73086295D01*
X157648654Y-73068619D01*
X157651995Y-73040039D01*
X157655458Y-73010434D01*
X157657274Y-72994744D01*
X157659121Y-72978565D01*
X157660984Y-72961972D01*
X157662846Y-72945040D01*
X157664688Y-72927847D01*
X157666494Y-72910468D01*
X157668246Y-72892978D01*
X157669096Y-72884216D01*
X157669927Y-72875454D01*
X157670736Y-72866704D01*
X157671520Y-72857973D01*
X157672278Y-72849271D01*
X157673008Y-72840609D01*
X157673707Y-72831995D01*
X157674374Y-72823439D01*
X157675005Y-72814950D01*
X157675599Y-72806539D01*
X157676154Y-72798214D01*
X157676668Y-72789985D01*
X157677138Y-72781861D01*
X157677563Y-72773852D01*
X157677939Y-72765968D01*
X157678266Y-72758218D01*
X157678540Y-72750611D01*
X157678760Y-72743157D01*
X157678924Y-72735865D01*
X157679028Y-72728746D01*
X157679073Y-72721807D01*
X157679054Y-72715060D01*
X157678970Y-72708513D01*
X157678819Y-72702177D01*
X157678598Y-72696059D01*
X157678461Y-72693086D01*
X157678306Y-72690171D01*
X157678132Y-72687315D01*
X157677940Y-72684521D01*
X157677729Y-72681788D01*
X157677498Y-72679118D01*
X157677248Y-72676513D01*
X157676979Y-72673974D01*
X157676689Y-72671501D01*
X157676379Y-72669096D01*
X157676048Y-72666760D01*
X157675697Y-72664494D01*
X157675324Y-72662300D01*
X157674930Y-72660179D01*
X157674514Y-72658131D01*
X157674076Y-72656159D01*
X157673617Y-72654263D01*
X157673134Y-72652444D01*
X157672629Y-72650703D01*
X157672101Y-72649043D01*
X157671550Y-72647463D01*
X157670975Y-72645966D01*
X157670376Y-72644552D01*
X157669754Y-72643223D01*
X157669107Y-72641979D01*
X157668435Y-72640822D01*
X157667738Y-72639753D01*
X157667016Y-72638774D01*
X157666269Y-72637885D01*
X157665886Y-72637475D01*
X157665496Y-72637088D01*
X157665100Y-72636724D01*
X157664697Y-72636383D01*
X157664288Y-72636066D01*
X157663872Y-72635773D01*
X157663450Y-72635503D01*
X157663021Y-72635258D01*
X157662585Y-72635036D01*
X157662142Y-72634839D01*
X157661693Y-72634666D01*
X157661237Y-72634518D01*
X157660774Y-72634394D01*
X157660304Y-72634295D01*
X157659827Y-72634222D01*
X157659344Y-72634173D01*
X157658853Y-72634150D01*
X157658356Y-72634152D01*
X157657851Y-72634179D01*
X157657339Y-72634233D01*
X157656821Y-72634312D01*
X157656295Y-72634417D01*
X157655762Y-72634549D01*
X157655221Y-72634707D01*
X157654674Y-72634891D01*
X157654119Y-72635102D01*
D11*
X157267593Y-72934971D02*
X157270666Y-72944800D01*
X157274024Y-72955280D01*
X157277703Y-72966500D01*
X157281747Y-72978580D01*
X157286215Y-72991685D01*
X157291197Y-73006051D01*
X157296827Y-73022054D01*
X157303344Y-73040351D01*
X157311253Y-73062335D01*
X157321878Y-73091684D01*
X157333726Y-73124419D01*
X157339704Y-73141024D01*
X157345692Y-73157764D01*
X157351670Y-73174623D01*
X157357621Y-73191583D01*
X157360579Y-73200096D01*
X157363524Y-73208628D01*
X157366452Y-73217178D01*
X157369361Y-73225742D01*
X157372248Y-73234319D01*
X157375112Y-73242906D01*
X157377950Y-73251502D01*
X157380759Y-73260105D01*
X157383537Y-73268712D01*
X157386282Y-73277321D01*
X157388991Y-73285930D01*
X157391662Y-73294538D01*
X157394293Y-73303141D01*
X157396881Y-73311738D01*
X157399423Y-73320327D01*
X157401918Y-73328905D01*
X157404362Y-73337471D01*
X157406754Y-73346022D01*
X157409092Y-73354557D01*
X157411372Y-73363073D01*
X157413593Y-73371567D01*
X157415751Y-73380039D01*
X157417845Y-73388485D01*
X157419873Y-73396905D01*
X157421831Y-73405294D01*
X157423717Y-73413653D01*
X157425530Y-73421977D01*
X157427266Y-73430266D01*
X157428924Y-73438517D01*
X157430501Y-73446729D01*
X157431993Y-73454898D01*
X157433401Y-73463023D01*
X157434071Y-73467068D01*
X157434719Y-73471102D01*
X157435345Y-73475123D01*
X157435947Y-73479132D01*
X157436527Y-73483128D01*
X157437082Y-73487112D01*
X157437614Y-73491082D01*
X157438122Y-73495039D01*
X157438605Y-73498983D01*
X157439064Y-73502912D01*
X157439497Y-73506827D01*
X157439905Y-73510728D01*
X157440287Y-73514614D01*
X157440644Y-73518485D01*
X157440974Y-73522340D01*
X157441278Y-73526181D01*
X157441554Y-73530005D01*
X157441804Y-73533813D01*
X157442026Y-73537605D01*
X157442220Y-73541381D01*
X157442387Y-73545139D01*
X157442525Y-73548881D01*
X157442634Y-73552605D01*
X157442715Y-73556312D01*
X157442766Y-73560000D01*
X157442787Y-73563671D01*
X157442779Y-73567323D01*
X157442741Y-73570956D01*
X157442672Y-73574571D01*
X157442573Y-73578166D01*
X157442442Y-73581742D01*
X157442280Y-73585298D01*
X157442087Y-73588834D01*
X157441861Y-73592350D01*
X157441603Y-73595845D01*
X157441313Y-73599319D01*
X157440990Y-73602773D01*
X157440634Y-73606205D01*
X157440244Y-73609615D01*
X157439821Y-73613004D01*
D12*
X157613552Y-72839782D02*
X157613471Y-72840720D01*
X157613412Y-72841627D01*
X157613376Y-72842489D01*
X157613362Y-72843323D01*
X157613367Y-72844116D01*
X157613393Y-72844882D01*
X157613437Y-72845611D01*
X157613500Y-72846316D01*
X157613579Y-72846987D01*
X157613676Y-72847635D01*
X157613788Y-72848254D01*
X157613917Y-72848851D01*
X157614060Y-72849422D01*
X157614218Y-72849972D01*
X157614391Y-72850500D01*
X157614577Y-72851008D01*
X157614778Y-72851496D01*
X157614993Y-72851966D01*
X157615221Y-72852420D01*
X157615463Y-72852855D01*
X157615988Y-72853682D01*
X157616571Y-72854452D01*
X157617213Y-72855173D01*
X157617920Y-72855848D01*
X157618699Y-72856483D01*
X157619558Y-72857083D01*
X157620509Y-72857653D01*
X157621569Y-72858198D01*
X157622764Y-72858725D01*
X157624136Y-72859248D01*
X157625765Y-72859789D01*
X157627871Y-72860418D01*
X157628591Y-72860625D01*
X157631060Y-72861349D01*
X157632275Y-72861737D01*
X157633466Y-72862155D01*
X157634627Y-72862614D01*
X157635750Y-72863123D01*
X157636295Y-72863401D01*
X157636828Y-72863694D01*
X157637347Y-72864006D01*
X157637852Y-72864337D01*
X157638342Y-72864688D01*
X157638816Y-72865060D01*
X157639274Y-72865456D01*
X157639713Y-72865876D01*
X157640133Y-72866322D01*
X157640534Y-72866794D01*
X157640914Y-72867295D01*
X157641273Y-72867824D01*
X157641608Y-72868385D01*
X157641921Y-72868977D01*
X157642209Y-72869603D01*
X157642472Y-72870263D01*
X157642708Y-72870959D01*
X157642917Y-72871691D01*
X157643098Y-72872463D01*
X157643251Y-72873273D01*
X157643373Y-72874125D01*
X157643464Y-72875019D01*
X157643523Y-72875956D01*
X157643550Y-72876938D01*
X157643543Y-72877966D01*
X157643501Y-72879041D01*
X157643424Y-72880165D01*
X157643310Y-72881339D01*
X157643159Y-72882563D01*
X157642969Y-72883840D01*
X157642740Y-72885171D01*
X157642471Y-72886557D01*
X157642161Y-72887999D01*
X157641809Y-72889498D01*
X157641414Y-72891057D01*
X157640974Y-72892675D01*
X157640490Y-72894355D01*
X157639960Y-72896097D01*
X157639384Y-72897903D01*
X157638759Y-72899775D01*
X157638087Y-72901712D01*
X157637364Y-72903718D01*
X157636591Y-72905793D01*
X157635767Y-72907937D01*
X157634891Y-72910154D01*
X157633961Y-72912443D01*
X157632977Y-72914807D01*
X157631938Y-72917246D01*
X157630843Y-72919761D01*
X157629691Y-72922355D01*
X157628481Y-72925028D01*
X157627212Y-72927781D01*
X138912097Y-103458778D02*
X138906527Y-103469363D01*
X138900620Y-103480754D01*
X138894245Y-103493214D01*
X138887166Y-103507213D01*
X138878870Y-103523781D01*
X138869127Y-103543354D01*
X138861688Y-103558308D01*
X138854223Y-103573253D01*
X138846712Y-103588170D01*
X138842933Y-103595613D01*
X138839134Y-103603043D01*
X138835313Y-103610457D01*
X138831468Y-103617853D01*
X138827595Y-103625229D01*
X138823693Y-103632582D01*
X138819758Y-103639911D01*
X138815788Y-103647214D01*
X138811780Y-103654487D01*
X138807731Y-103661729D01*
X138803640Y-103668938D01*
X138799503Y-103676111D01*
X138795318Y-103683247D01*
X138791081Y-103690342D01*
X138786792Y-103697395D01*
X138782446Y-103704404D01*
X138778041Y-103711366D01*
X138775816Y-103714828D01*
X138773575Y-103718279D01*
X138771318Y-103721716D01*
X138769045Y-103725141D01*
X138766755Y-103728552D01*
X138764448Y-103731949D01*
X138762124Y-103735333D01*
X138759782Y-103738702D01*
X138757423Y-103742057D01*
X138755045Y-103745398D01*
X138752648Y-103748723D01*
X138750232Y-103752033D01*
X138747797Y-103755328D01*
X138745343Y-103758606D01*
X138742868Y-103761869D01*
X138740374Y-103765115D01*
X138737858Y-103768344D01*
X138735322Y-103771557D01*
X157775925Y-75072881D02*
X157772700Y-75064250D01*
X157769513Y-75055490D01*
X157766362Y-75046598D01*
X157763249Y-75037574D01*
X157760174Y-75028414D01*
X157757137Y-75019116D01*
X157754139Y-75009680D01*
X157751179Y-75000102D01*
X157748259Y-74990381D01*
X157745378Y-74980514D01*
X157742537Y-74970499D01*
X157739737Y-74960334D01*
X157736977Y-74950016D01*
X157734258Y-74939542D01*
X157731581Y-74928911D01*
X157728945Y-74918119D01*
X157726352Y-74907165D01*
X157723802Y-74896044D01*
X157721294Y-74884754D01*
X157718831Y-74873292D01*
X157716411Y-74861655D01*
X157714035Y-74849840D01*
X157711704Y-74837842D01*
X157709419Y-74825659D01*
X157707179Y-74813288D01*
X157704985Y-74800722D01*
X157702837Y-74787960D01*
X157700737Y-74774997D01*
X157698684Y-74761827D01*
X157696678Y-74748447D01*
X157694721Y-74734850D01*
X157692813Y-74721033D01*
X157690953Y-74706989D01*
X157689143Y-74692713D01*
X157687383Y-74678197D01*
X157685673Y-74663435D01*
X157684014Y-74648420D01*
X157682406Y-74633143D01*
X157680850Y-74617597D01*
X157679346Y-74601771D01*
X157677894Y-74585656D01*
X157676494Y-74569241D01*
X157675148Y-74552513D01*
X157673855Y-74535460D01*
X157672616Y-74518066D01*
X157671431Y-74500315D01*
X157670300Y-74482188D01*
X157669224Y-74463665D01*
X157668203Y-74444722D01*
X157667237Y-74425332D01*
X157666326Y-74405463D01*
X157665471Y-74385079D01*
X157664671Y-74364136D01*
X157663927Y-74342583D01*
X157663239Y-74320358D01*
X157662605Y-74297382D01*
X157662027Y-74273558D01*
X157661503Y-74248760D01*
X157661033Y-74222818D01*
X157660616Y-74195501D01*
X157660250Y-74166467D01*
X157659931Y-74135180D01*
X157659656Y-74100710D01*
X157659412Y-74061132D01*
X157659128Y-74001713D01*
X157658992Y-73971844D01*
X157658842Y-73942284D01*
X157658665Y-73913056D01*
X157658443Y-73884183D01*
X157658164Y-73855690D01*
X157657998Y-73841593D01*
X157657812Y-73827600D01*
X157657604Y-73813713D01*
X157657372Y-73799936D01*
X157657115Y-73786271D01*
X157656830Y-73772722D01*
D10*
G36*
X139778626Y-102971443D02*
G01*
X139784540Y-102972414D01*
X139790240Y-102974157D01*
X139795712Y-102976710D01*
X139799235Y-102979957D01*
X139800645Y-102984495D01*
X139800062Y-102990237D01*
X139797612Y-102997099D01*
X139787573Y-103013853D01*
X139771501Y-103034085D01*
X139750350Y-103057125D01*
X139725093Y-103082297D01*
X139666108Y-103136358D01*
X139602256Y-103190895D01*
X139541259Y-103240530D01*
X139490825Y-103279888D01*
X139458674Y-103303594D01*
X138973012Y-103756599D01*
X138939591Y-103781466D01*
X138948411Y-103769666D01*
X138953766Y-103761494D01*
X138958643Y-103753228D01*
X138963011Y-103744856D01*
X138966837Y-103736379D01*
X138982946Y-103702843D01*
X139003162Y-103669161D01*
X139027019Y-103635429D01*
X139054046Y-103601738D01*
X139083776Y-103568184D01*
X139115738Y-103534865D01*
X139149465Y-103501873D01*
X139184485Y-103469302D01*
X139455006Y-103235299D01*
X139461191Y-103229344D01*
X139467209Y-103223196D01*
X139478942Y-103210549D01*
X139490587Y-103197857D01*
X139496497Y-103191645D01*
X139502529Y-103185605D01*
X139508730Y-103179799D01*
X139515150Y-103174291D01*
X139521835Y-103169137D01*
X139528836Y-103164405D01*
X139536193Y-103160149D01*
X139540026Y-103158221D01*
X139543964Y-103156438D01*
X139548019Y-103154802D01*
X139552190Y-103153327D01*
X139556490Y-103152018D01*
X139560924Y-103150883D01*
X139570590Y-103148516D01*
X139579141Y-103146176D01*
X139586636Y-103143862D01*
X139593136Y-103141573D01*
X139598695Y-103139302D01*
X139603382Y-103137051D01*
X139607249Y-103134818D01*
X139610360Y-103132601D01*
X139612772Y-103130396D01*
X139614549Y-103128204D01*
X139615746Y-103126019D01*
X139616427Y-103123843D01*
X139616648Y-103121674D01*
X139616470Y-103119507D01*
X139615954Y-103117344D01*
X139615160Y-103115178D01*
X139612971Y-103110838D01*
X139610384Y-103106476D01*
X139607876Y-103102073D01*
X139606805Y-103099852D01*
X139605928Y-103097615D01*
X139605313Y-103095360D01*
X139605016Y-103093086D01*
X139605098Y-103090787D01*
X139605618Y-103088470D01*
X139606635Y-103086123D01*
X139608214Y-103083751D01*
X139610406Y-103081346D01*
X139613278Y-103078912D01*
X139618864Y-103074255D01*
X139626031Y-103067712D01*
X139644420Y-103050383D01*
X139667064Y-103029770D01*
X139679547Y-103019116D01*
X139692579Y-103008705D01*
X139705979Y-102998893D01*
X139719582Y-102990030D01*
X139733210Y-102982475D01*
X139739982Y-102979298D01*
X139746696Y-102976580D01*
X139753327Y-102974368D01*
X139759857Y-102972703D01*
X139766265Y-102971630D01*
X139772530Y-102971196D01*
X139778626Y-102971443D01*
G37*
D12*
X139202993Y-102979884D02*
X139202594Y-102980737D01*
X139202192Y-102981552D01*
X139201792Y-102982316D01*
X139201388Y-102983045D01*
X139200986Y-102983729D01*
X139200581Y-102984380D01*
X139200178Y-102984990D01*
X139199772Y-102985568D01*
X139199367Y-102986110D01*
X139198959Y-102986623D01*
X139198552Y-102987103D01*
X139198143Y-102987555D01*
X139197733Y-102987978D01*
X139197321Y-102988375D01*
X139196908Y-102988746D01*
X139196492Y-102989093D01*
X139196074Y-102989415D01*
X139195653Y-102989715D01*
X139195228Y-102989994D01*
X139194802Y-102990250D01*
X139193933Y-102990703D01*
X139193043Y-102991079D01*
X139192127Y-102991382D01*
X139191176Y-102991613D01*
X139190184Y-102991774D01*
X139189141Y-102991864D01*
X139188032Y-102991882D01*
X139186842Y-102991824D01*
X139185543Y-102991683D01*
X139184094Y-102991450D01*
X139182412Y-102991104D01*
X139180274Y-102990595D01*
X139179547Y-102990415D01*
X139177047Y-102989808D01*
X139175801Y-102989536D01*
X139174560Y-102989302D01*
X139173325Y-102989119D01*
X139172097Y-102988999D01*
X139171487Y-102988967D01*
X139170879Y-102988955D01*
X139170273Y-102988965D01*
X139169670Y-102988999D01*
X139169070Y-102989058D01*
X139168473Y-102989143D01*
X139167880Y-102989258D01*
X139167289Y-102989402D01*
X139166702Y-102989577D01*
X139166119Y-102989786D01*
X139165540Y-102990029D01*
X139164964Y-102990309D01*
X139164393Y-102990626D01*
X139163827Y-102990983D01*
X139163264Y-102991381D01*
X139162707Y-102991821D01*
X139162154Y-102992306D01*
X139161606Y-102992836D01*
X139161064Y-102993413D01*
X139160527Y-102994039D01*
X139159995Y-102994716D01*
X139159469Y-102995444D01*
X139158949Y-102996226D01*
X139158435Y-102997063D01*
X139157927Y-102997957D01*
X139157426Y-102998909D01*
X139156931Y-102999921D01*
X139156443Y-103000994D01*
X139155961Y-103002130D01*
X139155487Y-103003331D01*
X139155020Y-103004598D01*
X139154560Y-103005933D01*
X139154108Y-103007336D01*
X139153663Y-103008811D01*
X139153226Y-103010358D01*
X139152797Y-103011979D01*
X139152377Y-103013676D01*
X139151965Y-103015450D01*
X139151561Y-103017302D01*
X139151166Y-103019235D01*
X139150780Y-103021250D01*
X139150402Y-103023348D01*
X139150034Y-103025531D01*
X139149676Y-103027801D01*
X139149327Y-103030158D01*
X139148987Y-103032606D01*
X139148658Y-103035145D01*
X139148338Y-103037776D01*
X139148029Y-103040502D01*
X139147729Y-103043324D01*
X139147441Y-103046244D01*
X139147163Y-103049263D01*
D11*
X138130158Y-104739249D02*
X138137927Y-104731514D01*
X138145728Y-104723634D01*
X138153565Y-104715605D01*
X138161441Y-104707423D01*
X138169360Y-104699081D01*
X138177325Y-104690574D01*
X138185342Y-104681897D01*
X138193414Y-104673042D01*
X138201547Y-104664002D01*
X138209747Y-104654770D01*
X138218019Y-104645336D01*
X138226371Y-104635691D01*
X138234810Y-104625824D01*
X138243345Y-104615724D01*
X138251984Y-104605376D01*
X138260740Y-104594766D01*
X138269624Y-104583875D01*
X138278650Y-104572686D01*
X138287834Y-104561174D01*
X138297196Y-104549312D01*
X138306757Y-104537071D01*
X138316546Y-104524410D01*
X138326594Y-104511286D01*
X138336941Y-104497640D01*
X138347639Y-104483402D01*
X138358755Y-104468479D01*
X138370376Y-104452746D01*
X138382627Y-104436030D01*
X138395690Y-104418075D01*
X138409857Y-104398473D01*
X138425650Y-104376494D01*
X138444208Y-104350542D01*
X138466356Y-104319477D01*
X138480367Y-104299818D01*
X138494390Y-104280169D01*
X138508436Y-104260543D01*
X138522515Y-104240952D01*
X138536638Y-104221408D01*
X138543719Y-104211657D01*
X138550815Y-104201923D01*
X138557927Y-104192207D01*
X138565056Y-104182511D01*
X138572204Y-104172835D01*
X138579373Y-104163183D01*
X138586563Y-104153554D01*
X138593776Y-104143951D01*
X138601012Y-104134375D01*
X138608275Y-104124828D01*
X138615564Y-104115311D01*
X138622881Y-104105826D01*
X138630227Y-104096375D01*
X138637604Y-104086958D01*
X138645014Y-104077578D01*
X138652456Y-104068236D01*
X138659933Y-104058933D01*
X138667447Y-104049671D01*
X138674997Y-104040452D01*
X138682586Y-104031278D01*
X138690215Y-104022148D01*
X138697885Y-104013066D01*
X138705598Y-104004033D01*
X138713355Y-103995051D01*
X138721157Y-103986120D01*
X138729005Y-103977242D01*
X138736902Y-103968419D01*
X138744847Y-103959653D01*
X138752843Y-103950945D01*
X138760891Y-103942296D01*
X138764935Y-103937995D01*
X138768992Y-103933709D01*
X138773063Y-103929439D01*
X138777147Y-103925184D01*
X138781246Y-103920946D01*
X138785359Y-103916723D01*
X138789485Y-103912518D01*
X138793627Y-103908328D01*
X138797783Y-103904156D01*
X138801953Y-103900001D01*
X138806139Y-103895862D01*
X138810340Y-103891742D01*
X138814556Y-103887638D01*
X138818787Y-103883553D01*
X138823034Y-103879486D01*
X138827297Y-103875436D01*
X138831576Y-103871405D01*
X138835871Y-103867393D01*
X138840182Y-103863399D01*
X138844509Y-103859425D01*
X138848853Y-103855469D01*
X138853214Y-103851533D01*
X138857592Y-103847616D01*
X138861986Y-103843719D01*
X138866398Y-103839842D01*
X138870828Y-103835984D01*
X138875275Y-103832148D01*
X138879739Y-103828331D01*
X138884222Y-103824536D01*
X138888723Y-103820761D01*
X138893242Y-103817007D01*
X138897779Y-103813274D01*
X138902335Y-103809563D01*
X138906909Y-103805874D01*
X138911503Y-103802206D01*
X138916115Y-103798560D01*
X138920747Y-103794937D01*
X138925398Y-103791336D01*
X138930069Y-103787757D01*
X138934759Y-103784202D01*
X138939470Y-103780669D01*
X138944200Y-103777159D01*
X138948950Y-103773673D01*
X138953721Y-103770210D01*
X138958513Y-103766771D01*
X138963325Y-103763356D01*
X138968158Y-103759966D01*
X138973012Y-103756599D01*
D12*
X137945823Y-104832617D02*
X137945795Y-104832623D01*
D11*
X157520236Y-73943859D02*
X157573011Y-74257395D01*
X138973012Y-103756599D02*
X138979588Y-103752015D01*
X138986169Y-103747330D01*
X138992759Y-103742542D01*
X138999360Y-103737647D01*
X139005978Y-103732642D01*
X139012616Y-103727521D01*
X139019278Y-103722281D01*
X139025971Y-103716916D01*
X139032699Y-103711421D01*
X139039469Y-103705790D01*
X139046288Y-103700015D01*
X139053162Y-103694089D01*
X139060101Y-103688003D01*
X139067115Y-103681747D01*
X139074213Y-103675308D01*
X139081410Y-103668673D01*
X139088720Y-103661828D01*
X139096160Y-103654751D01*
X139103752Y-103647422D01*
X139111521Y-103639812D01*
X139119499Y-103631888D01*
X139127725Y-103623607D01*
X139136253Y-103614911D01*
X139145152Y-103605725D01*
X139154522Y-103595942D01*
X139164509Y-103585402D01*
X139175354Y-103573848D01*
X139187495Y-103560803D01*
X139201939Y-103545178D01*
X139215815Y-103530113D01*
X139229772Y-103514960D01*
X139243758Y-103499830D01*
X139250771Y-103492281D01*
X139257801Y-103484747D01*
X139264853Y-103477231D01*
X139271931Y-103469735D01*
X139279037Y-103462262D01*
X139286175Y-103454816D01*
X139293349Y-103447399D01*
X139300563Y-103440014D01*
X139307820Y-103432664D01*
X139315124Y-103425353D01*
X139322478Y-103418082D01*
X139329886Y-103410856D01*
X139337351Y-103403676D01*
X139341106Y-103400105D01*
X139344877Y-103396546D01*
X139348665Y-103393001D01*
X139352468Y-103389469D01*
X139356289Y-103385951D01*
X139360128Y-103382447D01*
X139363984Y-103378958D01*
X139367859Y-103375484D01*
X139371753Y-103372026D01*
X139375666Y-103368583D01*
X139379599Y-103365156D01*
X139383552Y-103361746D01*
X139387525Y-103358352D01*
X139391520Y-103354976D01*
X139395536Y-103351617D01*
X139399575Y-103348277D01*
X139403635Y-103344954D01*
X139407719Y-103341650D01*
X139411826Y-103338366D01*
X139415957Y-103335100D01*
X139420112Y-103331855D01*
X139424292Y-103328629D01*
X139428497Y-103325424D01*
X139432728Y-103322240D01*
X139436984Y-103319077D01*
X139441267Y-103315936D01*
X139445578Y-103312817D01*
X139449915Y-103309720D01*
X139454280Y-103306645D01*
X139458674Y-103303594D01*
D12*
X138735322Y-103771557D02*
X138722565Y-103787669D01*
X138709764Y-103803964D01*
X138696918Y-103820447D01*
X138684023Y-103837122D01*
X138671076Y-103853994D01*
X138658075Y-103871068D01*
X138645015Y-103888349D01*
X138631894Y-103905844D01*
X138618709Y-103923558D01*
X138605454Y-103941499D01*
X138592126Y-103959672D01*
X138578720Y-103978086D01*
X138565232Y-103996748D01*
X138551656Y-104015667D01*
X138537988Y-104034853D01*
X138524219Y-104054315D01*
X138510346Y-104074064D01*
X138496359Y-104094112D01*
X138482252Y-104114471D01*
X138468016Y-104135156D01*
X138453642Y-104156182D01*
X138439120Y-104177565D01*
X138424438Y-104199325D01*
X138409584Y-104221481D01*
X138394545Y-104244057D01*
X138379304Y-104267078D01*
X138363844Y-104290573D01*
X138348145Y-104314576D01*
X138332185Y-104339124D01*
X138315936Y-104364259D01*
X138299369Y-104390034D01*
X138282447Y-104416506D01*
X138265127Y-104443747D01*
X138247358Y-104471841D01*
X138229076Y-104500894D01*
X138210202Y-104531034D01*
X138190635Y-104562429D01*
X138170241Y-104595298D01*
X138148838Y-104629941D01*
X138126166Y-104666786D01*
X138101827Y-104706486D01*
X138075157Y-104750134D01*
X138044867Y-104799846D01*
X138007700Y-104860981D01*
X137990386Y-104889485D01*
D11*
X139613278Y-103078912D02*
X139612590Y-103079447D01*
X139611936Y-103079980D01*
X139611325Y-103080504D01*
X139610746Y-103081026D01*
X139610206Y-103081540D01*
X139609697Y-103082053D01*
X139609222Y-103082558D01*
X139608777Y-103083062D01*
X139608363Y-103083560D01*
X139607976Y-103084056D01*
X139607618Y-103084548D01*
X139607286Y-103085038D01*
X139606980Y-103085524D01*
X139606698Y-103086009D01*
X139606441Y-103086492D01*
X139606206Y-103086974D01*
X139605994Y-103087456D01*
X139605804Y-103087936D01*
X139605486Y-103088898D01*
X139605249Y-103089865D01*
X139605091Y-103090842D01*
X139605010Y-103091834D01*
X139605006Y-103092847D01*
X139605080Y-103093887D01*
X139605236Y-103094962D01*
X139605477Y-103096080D01*
X139605811Y-103097253D01*
X139606244Y-103098494D01*
X139606790Y-103099822D01*
X139607468Y-103101267D01*
X139608307Y-103102879D01*
X139609369Y-103104761D01*
X139610944Y-103107407D01*
X139612532Y-103110076D01*
X139613289Y-103111406D01*
X139614002Y-103112734D01*
X139614659Y-103114060D01*
X139615245Y-103115385D01*
X139615508Y-103116047D01*
X139615748Y-103116710D01*
X139615963Y-103117372D01*
X139616152Y-103118034D01*
X139616313Y-103118696D01*
X139616445Y-103119358D01*
X139616545Y-103120020D01*
X139616612Y-103120683D01*
X139616645Y-103121346D01*
X139616641Y-103122009D01*
X139616599Y-103122672D01*
X139616517Y-103123336D01*
X139616393Y-103124000D01*
X139616227Y-103124665D01*
X139616015Y-103125331D01*
X139615756Y-103125997D01*
X139615450Y-103126664D01*
X139615093Y-103127332D01*
X139614684Y-103128000D01*
X139614222Y-103128669D01*
X139613704Y-103129340D01*
X139613129Y-103130011D01*
X139612496Y-103130683D01*
X139611803Y-103131356D01*
X139611047Y-103132031D01*
X139610228Y-103132707D01*
X139609343Y-103133384D01*
X139608390Y-103134062D01*
X139607369Y-103134742D01*
X139606277Y-103135423D01*
X139605113Y-103136105D01*
X139603875Y-103136790D01*
X139602561Y-103137475D01*
X139601170Y-103138163D01*
X139599699Y-103138852D01*
X139598148Y-103139543D01*
X139596513Y-103140236D01*
X139594795Y-103140930D01*
X139592990Y-103141627D01*
X139591098Y-103142325D01*
X139589116Y-103143026D01*
X139587043Y-103143728D01*
X139584878Y-103144433D01*
X139582617Y-103145140D01*
X139580261Y-103145850D01*
X139577806Y-103146561D01*
X139575252Y-103147275D01*
X139572596Y-103147992D01*
X139569837Y-103148711D01*
X139566973Y-103149432D01*
X139564003Y-103150156D01*
X139560924Y-103150883D01*
X157439821Y-73613004D02*
X157439412Y-73616446D01*
X157439075Y-73619958D01*
X157438811Y-73623542D01*
X157438621Y-73627204D01*
X157438507Y-73630944D01*
X157438470Y-73634768D01*
X157438512Y-73638679D01*
X157438635Y-73642682D01*
X157438840Y-73646780D01*
X157439129Y-73650978D01*
X157439506Y-73655282D01*
X157439972Y-73659698D01*
X157440531Y-73664230D01*
X157441185Y-73668888D01*
X157441938Y-73673677D01*
X157442793Y-73678608D01*
X157443755Y-73683688D01*
X157444829Y-73688931D01*
X157446019Y-73694347D01*
X157447331Y-73699953D01*
X157448773Y-73705767D01*
X157450353Y-73711808D01*
X157452081Y-73718104D01*
X157453969Y-73724687D01*
X157456034Y-73731598D01*
X157458294Y-73738894D01*
X157460779Y-73746651D01*
X157463529Y-73754981D01*
X157466605Y-73764056D01*
X157470118Y-73774182D01*
X157474289Y-73785986D01*
X157480504Y-73803338D01*
X157487019Y-73821537D01*
X157490228Y-73830609D01*
X157493380Y-73839656D01*
X157496458Y-73848670D01*
X157497963Y-73853163D01*
X157499443Y-73857645D01*
X157500895Y-73862117D01*
X157502317Y-73866576D01*
X157503707Y-73871022D01*
X157505063Y-73875454D01*
X157506382Y-73879872D01*
X157507662Y-73884274D01*
X157508901Y-73888661D01*
X157510097Y-73893031D01*
X157511246Y-73897382D01*
X157512348Y-73901716D01*
X157513400Y-73906030D01*
X157514399Y-73910324D01*
X157515344Y-73914597D01*
X157516232Y-73918849D01*
X157517060Y-73923078D01*
X157517827Y-73927284D01*
X157518531Y-73931466D01*
X157519168Y-73935623D01*
X157519737Y-73939754D01*
X157520236Y-73943859D01*
D12*
X157654119Y-72635102D02*
X157652678Y-72635724D01*
X157651261Y-72636423D01*
X157649867Y-72637199D01*
X157648494Y-72638054D01*
X157647142Y-72638991D01*
X157645808Y-72640011D01*
X157644493Y-72641119D01*
X157643195Y-72642316D01*
X157641914Y-72643605D01*
X157640650Y-72644992D01*
X157639402Y-72646479D01*
X157638170Y-72648071D01*
X157636955Y-72649772D01*
X157635757Y-72651587D01*
X157634576Y-72653521D01*
X157633413Y-72655578D01*
X157632269Y-72657765D01*
X157631144Y-72660086D01*
X157630041Y-72662547D01*
X157628959Y-72665154D01*
X157627901Y-72667913D01*
X157626867Y-72670831D01*
X157625860Y-72673913D01*
X157624880Y-72677166D01*
X157623930Y-72680598D01*
X157623011Y-72684214D01*
X157622125Y-72688023D01*
X157621275Y-72692033D01*
X157620461Y-72696250D01*
X157619686Y-72700683D01*
X157618952Y-72705342D01*
X157618261Y-72710235D01*
X157617615Y-72715373D01*
X157617017Y-72720767D01*
X157616468Y-72726428D01*
X157615970Y-72732373D01*
X157615526Y-72738616D01*
X157615137Y-72745180D01*
X157614805Y-72752092D01*
X157614532Y-72759387D01*
X157614318Y-72767121D01*
X157614167Y-72775378D01*
X157614076Y-72784313D01*
X157614047Y-72794260D01*
X157614082Y-72807782D01*
X157614110Y-72817842D01*
X157614104Y-72822417D01*
X157614073Y-72826657D01*
X157614010Y-72830537D01*
X157613908Y-72834034D01*
X157613757Y-72837124D01*
X157613662Y-72838508D01*
X157613552Y-72839782D01*
X137990386Y-104889485D02*
X137987369Y-104885634D01*
X137966593Y-104859120D01*
X137945795Y-104832623D01*
X157599989Y-73085416D02*
X157599524Y-73089617D01*
X157599124Y-73093950D01*
X157598792Y-73098423D01*
X157598528Y-73103042D01*
X157598335Y-73107817D01*
X157598215Y-73112758D01*
X157598170Y-73117874D01*
X157598203Y-73123178D01*
X157598316Y-73128685D01*
X157598513Y-73134410D01*
X157598797Y-73140372D01*
X157599173Y-73146595D01*
X157599646Y-73153105D01*
X157600220Y-73159938D01*
X157600905Y-73167136D01*
X157601708Y-73174757D01*
X157602642Y-73182876D01*
X157603725Y-73191604D01*
X157604981Y-73201106D01*
X157606452Y-73211658D01*
X157608219Y-73223790D01*
X157610480Y-73238831D01*
X157611853Y-73247841D01*
X157614793Y-73267243D01*
X157616233Y-73276958D01*
X157617633Y-73286671D01*
X157618978Y-73296373D01*
X157620254Y-73306056D01*
X157620862Y-73310888D01*
X157621447Y-73315711D01*
X157622007Y-73320526D01*
X157622541Y-73325331D01*
X157623047Y-73330124D01*
X157623523Y-73334906D01*
X157623968Y-73339674D01*
X157624378Y-73344427D01*
X157624754Y-73349166D01*
X157625092Y-73353887D01*
X157625391Y-73358592D01*
X157625649Y-73363277D01*
X157625865Y-73367943D01*
X157626036Y-73372588D01*
X157626161Y-73377212D01*
X157626238Y-73381812D01*
X157626265Y-73386389D01*
X157626240Y-73390940D01*
X157626162Y-73395466D01*
X157626028Y-73399964D01*
D10*
G36*
X138936396Y-103785739D02*
G01*
X138922846Y-103801493D01*
X138908014Y-103816979D01*
X138892148Y-103832237D01*
X138875500Y-103847319D01*
X138858318Y-103862267D01*
X138823361Y-103891958D01*
X138789280Y-103921678D01*
X138773197Y-103936665D01*
X138758081Y-103951802D01*
X138744190Y-103967130D01*
X138731768Y-103982701D01*
X138709044Y-104012787D01*
X138684620Y-104043987D01*
X138658977Y-104075825D01*
X138632595Y-104107819D01*
X138579539Y-104170378D01*
X138545894Y-104208860D01*
X138581116Y-104160840D01*
X138630710Y-104095756D01*
X138681732Y-104032304D01*
X138734609Y-103970968D01*
X138789755Y-103912243D01*
X138847592Y-103856613D01*
X138908538Y-103804571D01*
X138939591Y-103781466D01*
X138936396Y-103785739D01*
G37*
D11*
X138130176Y-104739255D02*
X138130158Y-104739249D01*
D10*
G36*
X138086754Y-104611076D02*
G01*
X138131893Y-104616632D01*
X138176395Y-104625581D01*
X138220283Y-104638075D01*
X138263585Y-104654262D01*
X138306323Y-104674294D01*
X138310223Y-104687945D01*
X138313324Y-104701154D01*
X138315644Y-104713935D01*
X138317204Y-104726297D01*
X138318025Y-104738254D01*
X138318126Y-104749814D01*
X138317526Y-104760990D01*
X138316246Y-104771793D01*
X138314308Y-104782234D01*
X138311728Y-104792326D01*
X138308530Y-104802078D01*
X138304730Y-104811502D01*
X138300353Y-104820610D01*
X138295412Y-104829415D01*
X138289934Y-104837926D01*
X138283936Y-104846153D01*
X138277438Y-104854109D01*
X138270457Y-104861808D01*
X138255140Y-104876469D01*
X138238143Y-104890229D01*
X138219626Y-104903175D01*
X138199748Y-104915400D01*
X138178672Y-104926998D01*
X138156554Y-104938052D01*
X138133559Y-104948658D01*
X137933869Y-105058977D01*
X137760397Y-105148696D01*
X137602001Y-105223770D01*
X137447529Y-105290150D01*
X137285836Y-105353790D01*
X137105778Y-105420647D01*
X136645976Y-105587817D01*
X136601208Y-105598591D01*
X136550267Y-105615493D01*
X136494170Y-105637185D01*
X136433926Y-105662321D01*
X136305035Y-105717564D01*
X136238407Y-105744986D01*
X136171679Y-105770484D01*
X136105849Y-105792721D01*
X136041941Y-105810353D01*
X136011020Y-105817020D01*
X135980957Y-105822034D01*
X135951880Y-105825227D01*
X135923910Y-105826429D01*
X135897179Y-105825471D01*
X135871811Y-105822190D01*
X135847934Y-105816413D01*
X135825672Y-105807978D01*
X135805151Y-105796714D01*
X135786500Y-105782451D01*
X135769843Y-105765024D01*
X135755307Y-105744267D01*
X135754197Y-105727862D01*
X135756815Y-105710783D01*
X135762959Y-105693097D01*
X135772416Y-105674863D01*
X135784981Y-105656145D01*
X135800447Y-105637009D01*
X135839239Y-105597724D01*
X135887125Y-105557516D01*
X135942444Y-105516887D01*
X136003526Y-105476344D01*
X136068709Y-105436386D01*
X136204708Y-105360250D01*
X136337112Y-105292516D01*
X136452598Y-105237216D01*
X136537839Y-105198384D01*
X136679712Y-105138503D01*
X136816493Y-105076661D01*
X137075561Y-104951866D01*
X137316606Y-104833566D01*
X137430861Y-104779842D01*
X137541194Y-104731327D01*
X137647808Y-104689218D01*
X137750897Y-104654713D01*
X137801179Y-104640684D01*
X137850652Y-104629005D01*
X137899343Y-104619824D01*
X137947273Y-104613292D01*
X137994471Y-104609558D01*
X138040956Y-104608767D01*
X138086754Y-104611076D01*
G37*
D12*
X157626028Y-73399964D02*
X157625559Y-73411917D01*
X157624979Y-73424737D01*
X157624270Y-73438717D01*
X157623400Y-73454382D01*
X157622301Y-73472883D01*
X157620953Y-73494684D01*
X157619919Y-73511355D01*
X157618911Y-73528030D01*
X157617957Y-73544705D01*
X157617508Y-73553041D01*
X157617083Y-73561375D01*
X157616685Y-73569706D01*
X157616317Y-73578034D01*
X157615983Y-73586358D01*
X157615686Y-73594678D01*
X157615429Y-73602993D01*
X157615216Y-73611303D01*
X157615051Y-73619606D01*
X157614936Y-73627902D01*
X157614874Y-73636191D01*
X157614871Y-73644473D01*
X157614927Y-73652745D01*
X157615048Y-73661008D01*
X157615237Y-73669261D01*
X157615496Y-73677504D01*
X157615830Y-73685736D01*
X157616025Y-73689848D01*
X157616241Y-73693956D01*
X157616477Y-73698062D01*
X157616733Y-73702164D01*
X157617010Y-73706264D01*
X157617310Y-73710360D01*
X157617630Y-73714452D01*
X157617974Y-73718541D01*
X157618340Y-73722627D01*
X157618729Y-73726709D01*
X157619142Y-73730787D01*
X157619579Y-73734862D01*
X157620041Y-73738932D01*
X157620527Y-73742999D01*
X157621039Y-73747062D01*
X157621576Y-73751121D01*
X157622140Y-73755176D01*
X157622730Y-73759226D01*
D10*
G36*
X138130176Y-104739255D02*
G01*
X138130158Y-104739249D01*
X138130173Y-104739231D01*
X138130176Y-104739255D01*
G37*
D11*
X138529295Y-104227843D02*
X138525894Y-104231620D01*
X138522165Y-104235642D01*
X138518079Y-104239932D01*
X138513603Y-104244517D01*
X138508696Y-104249428D01*
X138503312Y-104254703D01*
X138497393Y-104260393D01*
X138490864Y-104266560D01*
X138483625Y-104273289D01*
X138475538Y-104280698D01*
X138466397Y-104288969D01*
X138455863Y-104298397D01*
X138443286Y-104309552D01*
X138427037Y-104323869D01*
X138417843Y-104331950D01*
X138405066Y-104343182D01*
X138392060Y-104354643D01*
X138378872Y-104366321D01*
X138365549Y-104378203D01*
X138358852Y-104384215D01*
X138352139Y-104390274D01*
X138345416Y-104396377D01*
X138338689Y-104402522D01*
X138331964Y-104408707D01*
X138325247Y-104414932D01*
X138318543Y-104421195D01*
X138311860Y-104427493D01*
X138305201Y-104433825D01*
X138298574Y-104440190D01*
X138291985Y-104446586D01*
X138285439Y-104453011D01*
X138278942Y-104459463D01*
X138272500Y-104465941D01*
X138266119Y-104472443D01*
X138259806Y-104478968D01*
X138253565Y-104485513D01*
X138247403Y-104492078D01*
X138241326Y-104498660D01*
X138235340Y-104505258D01*
X138232382Y-104508562D01*
X138229450Y-104511870D01*
X138226543Y-104515180D01*
X138223663Y-104518494D01*
X138220809Y-104521810D01*
X138217984Y-104525129D01*
X138215187Y-104528450D01*
X138212419Y-104531774D01*
X138209682Y-104535099D01*
X138206975Y-104538426D01*
X138204300Y-104541754D01*
X138201657Y-104545083D01*
X138199048Y-104548414D01*
X138196472Y-104551745D01*
X138193930Y-104555077D01*
X138191424Y-104558409D01*
X138188954Y-104561742D01*
X138186520Y-104565075D01*
X138184124Y-104568407D01*
X138181766Y-104571739D01*
X138179447Y-104575070D01*
X138177168Y-104578401D01*
X138174929Y-104581730D01*
X138172732Y-104585058D01*
X138170576Y-104588385D01*
X138168463Y-104591710D01*
X138166394Y-104595033D01*
X138164368Y-104598354D01*
X138162388Y-104601673D01*
X138160453Y-104604989D01*
X138158564Y-104608303D01*
X138156722Y-104611613D01*
X138154929Y-104614921D01*
X138153184Y-104618225D01*
X138151488Y-104621526D01*
X138149842Y-104624823D01*
X138148247Y-104628116D01*
X138146704Y-104631404D01*
X138145213Y-104634689D01*
X138143774Y-104637969D01*
X138142390Y-104641244D01*
X138141060Y-104644514D01*
X138139786Y-104647778D01*
X138138567Y-104651038D01*
X138137405Y-104654291D01*
X138136301Y-104657539D01*
X138135254Y-104660781D01*
X138134267Y-104664017D01*
X138133339Y-104667246D01*
X138132472Y-104670469D01*
X138131666Y-104673684D01*
X138130922Y-104676893D01*
X138130240Y-104680094D01*
X138129622Y-104683288D01*
X138129068Y-104686474D01*
X138128579Y-104689652D01*
X138128155Y-104692822D01*
X138127798Y-104695983D01*
X138127508Y-104699137D01*
X138127285Y-104702281D01*
X138127131Y-104705416D01*
X138127047Y-104708543D01*
X138127032Y-104711659D01*
X138127089Y-104714767D01*
X138127217Y-104717864D01*
X138127417Y-104720952D01*
X138127690Y-104724029D01*
X138128037Y-104727096D01*
X138128458Y-104730152D01*
X138128954Y-104733197D01*
X138129527Y-104736232D01*
X138130176Y-104739255D01*
X139458674Y-103303594D02*
X139462690Y-103300776D01*
X139468043Y-103296920D01*
X139474861Y-103291904D01*
X139483183Y-103285677D01*
X139492943Y-103278271D01*
X139498336Y-103274140D01*
X139503977Y-103269794D01*
X139509902Y-103265203D01*
X139516052Y-103260412D01*
X139522381Y-103255456D01*
X139528905Y-103250321D01*
X139535508Y-103245098D01*
X139542273Y-103239719D01*
X139549032Y-103234320D01*
X139555921Y-103228790D01*
X139562734Y-103223295D01*
X139569648Y-103217692D01*
X139576433Y-103212167D01*
X139583291Y-103206556D01*
X139589982Y-103201055D01*
X139596723Y-103195487D01*
X139603269Y-103190052D01*
X139609844Y-103184567D01*
X139616207Y-103179231D01*
X139622581Y-103173860D01*
X139628733Y-103168649D01*
X139634881Y-103163414D01*
X139640801Y-103158346D01*
X139646705Y-103153265D01*
X139652380Y-103148355D01*
X139658029Y-103143439D01*
X139663448Y-103138696D01*
X139668835Y-103133954D01*
X139673996Y-103129384D01*
X139679116Y-103124822D01*
X139684016Y-103120430D01*
X139688871Y-103116050D01*
X139693510Y-103111837D01*
X139698101Y-103107641D01*
X139702483Y-103103608D01*
X139706812Y-103099595D01*
X139710941Y-103095740D01*
X139715015Y-103091909D01*
X139718896Y-103088231D01*
X139722721Y-103084579D01*
X139726360Y-103081075D01*
X139729942Y-103077599D01*
X139733346Y-103074266D01*
X139736693Y-103070961D01*
X139739870Y-103067794D01*
X139742989Y-103064657D01*
X139745948Y-103061653D01*
X139748848Y-103058679D01*
X139751595Y-103055832D01*
X139754285Y-103053016D01*
X139756830Y-103050322D01*
X139759318Y-103047659D01*
X139761668Y-103045113D01*
X139763963Y-103042597D01*
X139766128Y-103040193D01*
X139768239Y-103037820D01*
X139770227Y-103035554D01*
X139772162Y-103033317D01*
X139773982Y-103031183D01*
X139775750Y-103029077D01*
X139777410Y-103027070D01*
X139779020Y-103025090D01*
X139780528Y-103023204D01*
X139781988Y-103021346D01*
X139783352Y-103019576D01*
X139784671Y-103017832D01*
X139785900Y-103016173D01*
X139787085Y-103014540D01*
X139788186Y-103012987D01*
X139789246Y-103011458D01*
X139790228Y-103010006D01*
X139791169Y-103008577D01*
X139792039Y-103007220D01*
X139792870Y-103005886D01*
X139793635Y-103004620D01*
X139794363Y-103003376D01*
X139795030Y-103002196D01*
X139795661Y-103001036D01*
X139796237Y-102999938D01*
X139796780Y-102998859D01*
X139797271Y-102997837D01*
X139797731Y-102996834D01*
X139798144Y-102995884D01*
X139798527Y-102994952D01*
X139798867Y-102994070D01*
X139799180Y-102993205D01*
X139799454Y-102992386D01*
X139799701Y-102991584D01*
X139799914Y-102990825D01*
X139800101Y-102990081D01*
X139800258Y-102989377D01*
X139800390Y-102988688D01*
X139800495Y-102988035D01*
X139800577Y-102987396D01*
X139800635Y-102986791D01*
X139800671Y-102986199D01*
X139800684Y-102985638D01*
X139800678Y-102985089D01*
X139800651Y-102984568D01*
X139800605Y-102984059D01*
X139800540Y-102983575D01*
X139800457Y-102983102D01*
X139800358Y-102982651D01*
X139800240Y-102982211D01*
X139800106Y-102981791D01*
X139799955Y-102981382D01*
X139799788Y-102980990D01*
X139799604Y-102980608D01*
X139799405Y-102980241D01*
X139799189Y-102979885D01*
X139798957Y-102979541D01*
X139798708Y-102979208D01*
X139798442Y-102978886D01*
X139798159Y-102978575D01*
X139797539Y-102977983D01*
X139796844Y-102977430D01*
X139796067Y-102976916D01*
X139795712Y-102976710D01*
D12*
X139091922Y-103199390D02*
X139090224Y-103203261D01*
X139088404Y-103207213D01*
X139086456Y-103211253D01*
X139084374Y-103215385D01*
X139082154Y-103219617D01*
X139079787Y-103223956D01*
X139077268Y-103228409D01*
X139074588Y-103232986D01*
X139071736Y-103237698D01*
X139068703Y-103242558D01*
X139065476Y-103247579D01*
X139062039Y-103252780D01*
X139058375Y-103258182D01*
X139054461Y-103263812D01*
X139050269Y-103269704D01*
X139045763Y-103275902D01*
X139040894Y-103282466D01*
X139035593Y-103289484D01*
X139029754Y-103297085D01*
X139023203Y-103305487D01*
X139015607Y-103315110D01*
X139006128Y-103327006D01*
X139000436Y-103334121D01*
X138988188Y-103349453D01*
X138982084Y-103357147D01*
X138976015Y-103364859D01*
X138969999Y-103372589D01*
X138964052Y-103380337D01*
X138961110Y-103384217D01*
X138958192Y-103388102D01*
X138955299Y-103391992D01*
X138952434Y-103395886D01*
X138949599Y-103399784D01*
X138946796Y-103403687D01*
X138944027Y-103407594D01*
X138941294Y-103411506D01*
X138938600Y-103415421D01*
X138935946Y-103419342D01*
X138933335Y-103423266D01*
X138930769Y-103427195D01*
X138928249Y-103431128D01*
X138925778Y-103435065D01*
X138923358Y-103439007D01*
X138920991Y-103442953D01*
X138918680Y-103446903D01*
X138916425Y-103450857D01*
X138914230Y-103454815D01*
X138912097Y-103458778D01*
X157656830Y-73772722D02*
X157656338Y-73752320D01*
X157655741Y-73730806D01*
X157655028Y-73707917D01*
X157654184Y-73683256D01*
X157653180Y-73656171D01*
X157651966Y-73625428D01*
X157650419Y-73588056D01*
X157649235Y-73560038D01*
X157648098Y-73533141D01*
X157646977Y-73506223D01*
X157645889Y-73479289D01*
X157644851Y-73452342D01*
X157643881Y-73425388D01*
X157643426Y-73411909D01*
X157642995Y-73398429D01*
X157642589Y-73384950D01*
X157642211Y-73371471D01*
X157641862Y-73357993D01*
X157641545Y-73344517D01*
X157641262Y-73331043D01*
X157641015Y-73317572D01*
X157640807Y-73304104D01*
X157640638Y-73290639D01*
X157640512Y-73277179D01*
X157640431Y-73263724D01*
X157640397Y-73250274D01*
X157640411Y-73236830D01*
X157640477Y-73223393D01*
X157640595Y-73209962D01*
X157640769Y-73196539D01*
X157641001Y-73183123D01*
X157641292Y-73169716D01*
X157641645Y-73156319D01*
X157642061Y-73142930D01*
X157642544Y-73129552D01*
D10*
G36*
X157573011Y-74257395D02*
G01*
X157580177Y-74286825D01*
X157590237Y-74320861D01*
X157616379Y-74400031D01*
X157646124Y-74489460D01*
X157660687Y-74536318D01*
X157674158Y-74583700D01*
X157685875Y-74630922D01*
X157695172Y-74677305D01*
X157701384Y-74722168D01*
X157703850Y-74764829D01*
X157703470Y-74785123D01*
X157701903Y-74804609D01*
X157699068Y-74823206D01*
X157694881Y-74840826D01*
X157689258Y-74857386D01*
X157682119Y-74872800D01*
X157673378Y-74886983D01*
X157662966Y-74899831D01*
X157643741Y-74822071D01*
X157627920Y-74743056D01*
X157614900Y-74663023D01*
X157604078Y-74582187D01*
X157586587Y-74418965D01*
X157570591Y-74255097D01*
X157568127Y-74232656D01*
X157573011Y-74257395D01*
G37*
D13*
%TO.C,D36*%
X39077476Y-69194653D03*
D14*
X40145523Y-67185947D03*
%TD*%
D13*
%TO.C,D37*%
X94577476Y-119194653D03*
D14*
X95645523Y-117185947D03*
%TD*%
D15*
%TO.C,D38*%
X205422524Y-119194653D03*
D16*
X204354477Y-117185947D03*
%TD*%
D15*
%TO.C,D39*%
X260922524Y-69194653D03*
D16*
X259854477Y-67185947D03*
%TD*%
D17*
%TO.C,D68*%
X200172209Y-120193387D03*
X199561896Y-119045556D03*
X201632948Y-118680528D03*
%TD*%
%TO.C,D67*%
X184210392Y-90173507D03*
X183600079Y-89025676D03*
X185671131Y-88660648D03*
%TD*%
D18*
%TO.C,D66*%
X106204552Y-123584048D03*
X106814865Y-122436217D03*
X108275604Y-123949076D03*
%TD*%
%TO.C,D65*%
X122166344Y-93563908D03*
X122776657Y-92416077D03*
X124237396Y-93928936D03*
%TD*%
D19*
%TO.C,D64*%
X225277791Y-120606613D03*
X225888104Y-121754444D03*
X223817052Y-122119472D03*
%TD*%
D17*
%TO.C,D63*%
X194939261Y-72010593D03*
X194328948Y-70862762D03*
X196400000Y-70497734D03*
%TD*%
D18*
%TO.C,D62*%
X87561896Y-128754444D03*
X88172209Y-127606613D03*
X89632948Y-129119472D03*
%TD*%
%TO.C,D61*%
X111437473Y-75400998D03*
X112047786Y-74253167D03*
X113508525Y-75766026D03*
%TD*%
D17*
%TO.C,D60*%
X187095979Y-133941564D03*
X186485666Y-132793733D03*
X188556718Y-132428705D03*
%TD*%
%TO.C,D59*%
X207076547Y-56496526D03*
X206466234Y-55348695D03*
X208537286Y-54983667D03*
%TD*%
D18*
%TO.C,D58*%
X119280779Y-137332224D03*
X119891092Y-136184393D03*
X121351831Y-137697252D03*
%TD*%
%TO.C,D57*%
X99300192Y-59886930D03*
X99910505Y-58739099D03*
X101371244Y-60251958D03*
%TD*%
D17*
%TO.C,D56*%
X180872209Y-119443387D03*
X180261896Y-118295556D03*
X182332948Y-117930528D03*
%TD*%
%TO.C,D55*%
X226725375Y-55109620D03*
X226115062Y-53961789D03*
X228186114Y-53596761D03*
%TD*%
D20*
%TO.C,D54*%
X128638104Y-123045556D03*
X128027791Y-124193387D03*
X126567052Y-122680528D03*
%TD*%
D18*
%TO.C,D53*%
X79651363Y-58500022D03*
X80261676Y-57352191D03*
X81722415Y-58865050D03*
%TD*%
D21*
%TO.C,D52*%
X175043387Y-108977791D03*
X173895556Y-109588104D03*
X173530528Y-107517052D03*
%TD*%
D17*
%TO.C,D51*%
X249660505Y-59903345D03*
X249050192Y-58755514D03*
X251121244Y-58390486D03*
%TD*%
D22*
%TO.C,D50*%
X126104444Y-109588104D03*
X124956613Y-108977791D03*
X126469472Y-107517052D03*
%TD*%
D18*
%TO.C,D49*%
X56716232Y-63293747D03*
X57326545Y-62145916D03*
X58787284Y-63658775D03*
%TD*%
D19*
%TO.C,D48*%
X285618632Y-75571497D03*
X286228945Y-76719328D03*
X284157893Y-77084356D03*
%TD*%
D17*
%TO.C,D47*%
X272126164Y-63814124D03*
X271515851Y-62666293D03*
X273586903Y-62301265D03*
%TD*%
D18*
%TO.C,D46*%
X13771055Y-76719328D03*
X14381368Y-75571497D03*
X15842107Y-77084356D03*
%TD*%
%TO.C,D45*%
X34250575Y-67204523D03*
X34860888Y-66056692D03*
X36321627Y-67569551D03*
%TD*%
D23*
%TO.C,J1*%
X151500000Y-127300000D03*
X150500000Y-127300000D03*
X149500000Y-127300000D03*
X148500000Y-127300000D03*
D24*
X152800000Y-131175000D03*
X147200000Y-131175000D03*
%TD*%
D25*
%TO.C,J42*%
X149000000Y-61625000D03*
X150000000Y-61625000D03*
X151000000Y-61625000D03*
D26*
X147700000Y-57750000D03*
X152300000Y-57750000D03*
%TD*%
D23*
%TO.C,J41*%
X151000000Y-64575000D03*
X150000000Y-64575000D03*
X149000000Y-64575000D03*
D24*
X152300000Y-68450000D03*
X147700000Y-68450000D03*
%TD*%
D27*
%TO.C,SW17*%
X105562250Y-109006196D03*
X115654552Y-116864022D03*
D28*
X108870503Y-110878482D03*
X112299351Y-115080030D03*
D29*
X101244409Y-113505779D03*
D30*
X99268104Y-118287695D03*
D31*
X106100621Y-116087873D03*
D29*
X110956833Y-118669967D03*
%TD*%
D27*
%TO.C,SW12*%
X113543024Y-93996168D03*
X123635326Y-101853994D03*
D28*
X116851277Y-95868454D03*
X120280125Y-100070002D03*
D29*
X109225183Y-98495751D03*
D30*
X107248878Y-103277667D03*
D31*
X114081395Y-101077845D03*
D29*
X118937607Y-103659939D03*
%TD*%
D32*
%TO.C,SW25*%
X194631788Y-48877188D03*
X206789765Y-44904331D03*
D28*
X198033936Y-47181491D03*
X203434564Y-46688323D03*
D29*
X195947606Y-54972976D03*
D33*
X198806859Y-59285420D03*
D31*
X200803818Y-52390882D03*
D29*
X205660030Y-49808788D03*
%TD*%
D32*
%TO.C,SW39*%
X174651224Y-126322222D03*
X186809201Y-122349365D03*
D28*
X178053372Y-124626525D03*
X183454000Y-124133357D03*
D29*
X175967042Y-132418010D03*
D33*
X178826295Y-136730454D03*
D31*
X180823254Y-129835916D03*
D29*
X185679466Y-127253822D03*
%TD*%
D27*
%TO.C,SW16*%
X94833140Y-90843365D03*
X104925442Y-98701191D03*
D28*
X98141393Y-92715651D03*
X101570241Y-96917199D03*
D29*
X90515299Y-95342948D03*
D30*
X88538994Y-100124864D03*
D31*
X95371511Y-97925042D03*
D29*
X100227723Y-100507136D03*
%TD*%
D32*
%TO.C,SW35*%
X230242647Y-77510498D03*
X242400624Y-73537641D03*
D28*
X233644795Y-75814801D03*
X239045423Y-75321633D03*
D29*
X231558465Y-83606286D03*
D33*
X234417718Y-87918730D03*
D31*
X236414677Y-81024192D03*
D29*
X241270889Y-78442098D03*
%TD*%
D27*
%TO.C,SW4*%
X98657890Y-45309078D03*
X108750192Y-53166904D03*
D28*
X101966143Y-47181364D03*
X105394991Y-51382912D03*
D29*
X94340049Y-49808661D03*
D30*
X92363744Y-54590577D03*
D31*
X99196261Y-52390755D03*
D29*
X104052473Y-54972849D03*
%TD*%
D27*
%TO.C,SW15*%
X82695857Y-75329295D03*
X92788159Y-83187121D03*
D28*
X86004110Y-77201581D03*
X89432958Y-81403129D03*
D29*
X78378016Y-79828878D03*
D30*
X76401711Y-84610794D03*
D31*
X83234228Y-82410972D03*
D29*
X88090440Y-84993066D03*
%TD*%
D27*
%TO.C,SW21*%
X118638477Y-122754372D03*
X128730779Y-130612198D03*
D28*
X121946730Y-124626658D03*
X125375578Y-128828206D03*
D29*
X114320636Y-127253955D03*
D30*
X112344331Y-132035871D03*
D31*
X119176848Y-129836049D03*
D29*
X124033060Y-132418143D03*
%TD*%
D32*
%TO.C,SW26*%
X182494502Y-64391255D03*
X194652479Y-60418398D03*
D28*
X185896650Y-62695558D03*
X191297278Y-62202390D03*
D29*
X183810320Y-70487043D03*
D33*
X186669573Y-74799487D03*
D31*
X188666532Y-67904949D03*
D29*
X193522744Y-65322855D03*
%TD*%
D27*
%TO.C,SW13*%
X40111897Y-78736113D03*
X50204199Y-86593939D03*
D28*
X43420150Y-80608399D03*
X46848998Y-84809947D03*
D29*
X35794056Y-83235696D03*
D30*
X33817751Y-88017612D03*
D31*
X40650268Y-85817790D03*
D29*
X45506480Y-88399884D03*
%TD*%
D27*
%TO.C,SW18*%
X82157646Y-114682868D03*
X92249948Y-122540694D03*
D28*
X85465899Y-116555154D03*
X88894747Y-120756702D03*
D29*
X77839805Y-119182451D03*
D30*
X75863500Y-123964367D03*
D31*
X82696017Y-121764545D03*
D29*
X87552229Y-124346639D03*
%TD*%
D27*
%TO.C,SW1*%
X33608272Y-52626671D03*
X43700574Y-60484497D03*
D28*
X36916525Y-54498957D03*
X40345373Y-58700505D03*
D29*
X29290431Y-57126254D03*
D30*
X27314126Y-61908170D03*
D31*
X34146643Y-59708348D03*
D29*
X39002855Y-62290442D03*
%TD*%
D32*
%TO.C,SW22*%
X259681405Y-56194786D03*
X271839382Y-52221929D03*
D28*
X263083553Y-54499089D03*
X268484181Y-54005921D03*
D29*
X260997223Y-62290574D03*
D33*
X263856476Y-66603018D03*
D31*
X265853435Y-59708480D03*
D29*
X270709647Y-57126386D03*
%TD*%
D27*
%TO.C,SW11*%
X102814155Y-75833253D03*
X112906457Y-83691079D03*
D28*
X106122408Y-77705539D03*
X109551256Y-81907087D03*
D29*
X98496314Y-80332836D03*
D30*
X96520009Y-85114752D03*
D31*
X103352526Y-82914930D03*
D29*
X108208738Y-85497024D03*
%TD*%
D32*
%TO.C,SW28*%
X267662422Y-71204895D03*
X279820399Y-67232038D03*
D28*
X271064570Y-69509198D03*
X276465198Y-69016030D03*
D29*
X268978240Y-77300683D03*
D33*
X271837493Y-81613127D03*
D31*
X273834452Y-74718589D03*
D29*
X278690664Y-72136495D03*
%TD*%
D32*
%TO.C,SW24*%
X214280616Y-47490281D03*
X226438593Y-43517424D03*
D28*
X217682764Y-45794584D03*
X223083392Y-45301416D03*
D29*
X215596434Y-53586069D03*
D33*
X218455687Y-57898513D03*
D31*
X220452646Y-51003975D03*
D29*
X225308858Y-48421881D03*
%TD*%
D27*
%TO.C,SW10*%
X90676873Y-60319186D03*
X100769175Y-68177012D03*
D28*
X93985126Y-62191472D03*
X97413974Y-66393020D03*
D29*
X86359032Y-64818769D03*
D30*
X84382727Y-69600685D03*
D31*
X91215244Y-67400863D03*
D29*
X96071456Y-69982957D03*
%TD*%
D32*
%TO.C,SW38*%
X187727450Y-112574049D03*
X199885427Y-108601192D03*
D28*
X191129598Y-110878352D03*
X196530226Y-110385184D03*
D29*
X189043268Y-118669837D03*
D33*
X191902521Y-122982281D03*
D31*
X193899480Y-116087743D03*
D29*
X198755692Y-113505649D03*
%TD*%
D32*
%TO.C,SW34*%
X253177779Y-82304225D03*
X265335756Y-78331368D03*
D28*
X256579927Y-80608528D03*
X261980555Y-80115360D03*
D29*
X254493597Y-88400013D03*
D33*
X257352850Y-92712457D03*
D31*
X259349809Y-85817919D03*
D29*
X264206021Y-83235825D03*
%TD*%
D32*
%TO.C,SW40*%
X182632237Y-141332331D03*
X194790214Y-137359474D03*
D28*
X186034385Y-139636634D03*
X191435013Y-139143466D03*
D29*
X183948055Y-147428119D03*
D33*
X186807308Y-151740563D03*
D31*
X188804267Y-144846025D03*
D29*
X193660479Y-142263931D03*
%TD*%
D27*
%TO.C,SW6*%
X121524042Y-78986056D03*
X131616344Y-86843882D03*
D28*
X124832295Y-80858342D03*
X128261143Y-85059890D03*
D29*
X117206201Y-83485639D03*
D30*
X115229896Y-88267555D03*
D31*
X122062413Y-86067733D03*
D29*
X126918625Y-88649827D03*
%TD*%
D32*
%TO.C,SW31*%
X202612804Y-63887297D03*
X214770781Y-59914440D03*
D28*
X206014952Y-62191600D03*
X211415580Y-61698432D03*
D29*
X203928622Y-69983085D03*
D33*
X206787875Y-74295529D03*
D31*
X208784834Y-67400991D03*
D29*
X213641046Y-64818897D03*
%TD*%
D32*
%TO.C,SW27*%
X171765633Y-82554169D03*
X183923610Y-78581312D03*
D28*
X175167781Y-80858472D03*
X180568409Y-80365304D03*
D29*
X173081451Y-88649957D03*
D33*
X175940704Y-92962401D03*
D31*
X177937663Y-86067863D03*
D29*
X182793875Y-83485769D03*
%TD*%
D27*
%TO.C,SW9*%
X71028042Y-58932279D03*
X81120344Y-66790105D03*
D28*
X74336295Y-60804565D03*
X77765143Y-65006113D03*
D29*
X66710201Y-63431862D03*
D30*
X64733896Y-68213778D03*
D31*
X71566413Y-66013956D03*
D29*
X76422625Y-68596050D03*
%TD*%
D27*
%TO.C,SW20*%
X110657459Y-137764476D03*
X120749761Y-145622302D03*
D28*
X113965712Y-139636762D03*
X117394560Y-143838310D03*
D29*
X106339618Y-142264059D03*
D30*
X104363313Y-147045975D03*
D31*
X111195830Y-144846153D03*
D29*
X116052042Y-147428247D03*
%TD*%
D32*
%TO.C,SW42*%
X211132051Y-118250722D03*
X223290028Y-114277865D03*
D28*
X214534199Y-116555025D03*
X219934827Y-116061857D03*
D29*
X212447869Y-124346510D03*
D33*
X215307122Y-128658954D03*
D31*
X217304081Y-121764416D03*
D29*
X222160293Y-119182322D03*
%TD*%
D32*
%TO.C,SW37*%
X198456536Y-94411474D03*
X210614513Y-90438617D03*
D28*
X201858684Y-92715777D03*
X207259312Y-92222609D03*
D29*
X199772354Y-100507262D03*
D33*
X202631607Y-104819706D03*
D31*
X204628566Y-97925168D03*
D29*
X209484778Y-95343074D03*
%TD*%
D32*
%TO.C,SW30*%
X222261633Y-62500391D03*
X234419610Y-58527534D03*
D28*
X225663781Y-60804694D03*
X231064409Y-60311526D03*
D29*
X223577451Y-68596179D03*
D33*
X226436704Y-72908623D03*
D31*
X228433663Y-66014085D03*
D29*
X233289875Y-63431991D03*
%TD*%
D27*
%TO.C,SW8*%
X48092912Y-63726004D03*
X58185214Y-71583830D03*
D28*
X51401165Y-65598290D03*
X54830013Y-69799838D03*
D29*
X43775071Y-68225587D03*
D30*
X41798766Y-73007503D03*
D31*
X48631283Y-70807681D03*
D29*
X53487495Y-73389775D03*
%TD*%
D27*
%TO.C,SW5*%
X110795171Y-60823146D03*
X120887473Y-68680972D03*
D28*
X114103424Y-62695432D03*
X117532272Y-66896980D03*
D29*
X106477330Y-65322729D03*
D30*
X104501025Y-70104645D03*
D31*
X111333542Y-67904823D03*
D29*
X116189754Y-70486917D03*
%TD*%
D32*
%TO.C,SW29*%
X245196762Y-67294116D03*
X257354739Y-63321259D03*
D28*
X248598910Y-65598419D03*
X253999538Y-65105251D03*
D29*
X246512580Y-73389904D03*
D33*
X249371833Y-77702348D03*
D31*
X251368792Y-70807810D03*
D29*
X256225004Y-68225716D03*
%TD*%
D27*
%TO.C,SW7*%
X25627255Y-67636781D03*
X35719557Y-75494607D03*
D28*
X28935508Y-69509067D03*
X32364356Y-73710615D03*
D29*
X21309414Y-72136364D03*
D30*
X19333109Y-76918280D03*
D31*
X26165626Y-74718458D03*
D29*
X31021838Y-77300552D03*
%TD*%
D27*
%TO.C,SW3*%
X79009061Y-43922170D03*
X89101363Y-51779996D03*
D28*
X82317314Y-45794456D03*
X85746162Y-49996004D03*
D29*
X74691220Y-48421753D03*
D30*
X72714915Y-53203669D03*
D31*
X79547432Y-51003847D03*
D29*
X84403644Y-53585941D03*
%TD*%
D32*
%TO.C,SW23*%
X237215746Y-52284006D03*
X249373723Y-48311149D03*
D28*
X240617894Y-50588309D03*
X246018522Y-50095141D03*
D29*
X238531564Y-58379794D03*
D33*
X241390817Y-62692238D03*
D31*
X243387776Y-55797700D03*
D29*
X248243988Y-53215606D03*
%TD*%
D27*
%TO.C,SW19*%
X97581233Y-124016305D03*
X107673535Y-131874131D03*
D28*
X100889486Y-125888591D03*
X104318334Y-130090139D03*
D29*
X93263392Y-128515888D03*
D30*
X91287087Y-133297804D03*
D31*
X98119604Y-131097982D03*
D29*
X102975816Y-133680076D03*
%TD*%
D32*
%TO.C,SW36*%
X210593819Y-78897404D03*
X222751796Y-74924547D03*
D28*
X213995967Y-77201707D03*
X219396595Y-76708539D03*
D29*
X211909637Y-84993192D03*
D33*
X214768890Y-89305636D03*
D31*
X216765849Y-82411098D03*
D29*
X221622061Y-79829004D03*
%TD*%
D27*
%TO.C,SW14*%
X63047028Y-73942388D03*
X73139330Y-81800214D03*
D28*
X66355281Y-75814674D03*
X69784129Y-80016222D03*
D29*
X58729187Y-78441971D03*
D30*
X56752882Y-83223887D03*
D31*
X63585399Y-81024065D03*
D29*
X68441611Y-83606159D03*
%TD*%
D27*
%TO.C,SW2*%
X56073930Y-48715895D03*
X66166232Y-56573721D03*
D28*
X59382183Y-50588181D03*
X62811031Y-54789729D03*
D29*
X51756089Y-53215478D03*
D30*
X49779784Y-57997394D03*
D31*
X56612301Y-55797572D03*
D29*
X61468513Y-58379666D03*
%TD*%
D32*
%TO.C,SW41*%
X195708467Y-127584155D03*
X207866444Y-123611298D03*
D28*
X199110615Y-125888458D03*
X204511243Y-125395290D03*
D29*
X197024285Y-133679943D03*
D33*
X199883538Y-137992387D03*
D31*
X201880497Y-131097849D03*
D29*
X206736709Y-128515755D03*
%TD*%
D32*
%TO.C,SW33*%
X179746650Y-97564279D03*
X191904627Y-93591422D03*
D28*
X183148798Y-95868582D03*
X188549426Y-95375414D03*
D29*
X181062468Y-103660067D03*
D33*
X183921721Y-107972511D03*
D31*
X185918680Y-101077973D03*
D29*
X190774892Y-98495879D03*
%TD*%
D32*
%TO.C,SW32*%
X190475520Y-79401366D03*
X202633497Y-75428509D03*
D28*
X193877668Y-77705669D03*
X199278296Y-77212501D03*
D29*
X191791338Y-85497154D03*
D33*
X194650591Y-89809598D03*
D31*
X196647550Y-82915060D03*
D29*
X201503762Y-80332966D03*
%TD*%
D34*
%TO.C,H13*%
X135500000Y-65925000D03*
%TD*%
D35*
%TO.C,H5*%
X53650000Y-88950000D03*
%TD*%
D36*
%TO.C,SW43*%
X121101573Y-110221595D03*
X118754215Y-114636333D03*
X119927894Y-112428964D03*
D37*
X129179041Y-111005493D03*
X123920959Y-120894507D03*
D36*
X133904312Y-117028932D03*
X131556954Y-121443670D03*
%TD*%
D35*
%TO.C,H3*%
X26900000Y-47800000D03*
%TD*%
%TO.C,H1*%
X94400000Y-112000000D03*
%TD*%
%TO.C,H7*%
X188400000Y-55400000D03*
%TD*%
%TO.C,H6*%
X111600000Y-55400000D03*
%TD*%
%TO.C,H4*%
X273100000Y-47800000D03*
%TD*%
D34*
%TO.C,H15*%
X135500000Y-130000000D03*
%TD*%
D35*
%TO.C,H8*%
X246350000Y-88950000D03*
%TD*%
D34*
%TO.C,H16*%
X164500000Y-130000000D03*
%TD*%
%TO.C,H14*%
X164500000Y-65925000D03*
%TD*%
D36*
%TO.C,SW44*%
X181245785Y-114636333D03*
X178898427Y-110221595D03*
X180072106Y-112428964D03*
D38*
X176079041Y-120894507D03*
X170820959Y-111005493D03*
D36*
X168443046Y-121443670D03*
X166095688Y-117028932D03*
%TD*%
D35*
%TO.C,H2*%
X205600000Y-112000000D03*
%TD*%
D39*
%TO.C,SW50*%
X200822400Y-144991996D03*
X204177600Y-143208004D03*
D40*
X198982635Y-143874962D03*
X204280320Y-141058132D03*
X200748530Y-142936019D03*
D41*
X198071263Y-145888516D03*
D42*
X200089342Y-147873424D03*
D43*
X206976333Y-144211546D03*
D41*
X206459265Y-141428536D03*
D40*
X202514425Y-141997075D03*
%TD*%
D44*
%TO.C,C3*%
X152725001Y-116600000D03*
X154274999Y-116600000D03*
%TD*%
D45*
%TO.C,RN6*%
X148800000Y-116150000D03*
X149600000Y-116150000D03*
X150400000Y-116150000D03*
X151200000Y-116150000D03*
X151200000Y-117850000D03*
X150400000Y-117850000D03*
X149600000Y-117850000D03*
X148800000Y-117850000D03*
%TD*%
D46*
%TO.C,C4*%
X147274999Y-115100000D03*
X145725001Y-115100000D03*
%TD*%
D47*
%TO.C,RN4*%
X157150000Y-93900000D03*
X157150000Y-93100000D03*
X157150000Y-92300000D03*
X157150000Y-91500000D03*
X158850000Y-91500000D03*
X158850000Y-92300000D03*
X158850000Y-93100000D03*
X158850000Y-93900000D03*
%TD*%
D48*
%TO.C,C5*%
X145450000Y-61900000D03*
X143550000Y-61900000D03*
%TD*%
D45*
%TO.C,RN7*%
X163850000Y-107650000D03*
X164650000Y-107650000D03*
X164650000Y-109350000D03*
X163850000Y-109350000D03*
%TD*%
D48*
%TO.C,C40*%
X143150000Y-96000000D03*
X141250000Y-96000000D03*
%TD*%
D44*
%TO.C,C1*%
X152725000Y-115100000D03*
X154275000Y-115100000D03*
%TD*%
D45*
%TO.C,RN2*%
X146850000Y-87400000D03*
X147650000Y-87400000D03*
X148450000Y-87400000D03*
X149250000Y-87400000D03*
X149250000Y-89100000D03*
X148450000Y-89100000D03*
X147650000Y-89100000D03*
X146850000Y-89100000D03*
%TD*%
D49*
%TO.C,SW101*%
X22218964Y-64463901D03*
X24214219Y-60711374D03*
X20717953Y-63665800D03*
X22713208Y-59913273D03*
%TD*%
D45*
%TO.C,RN3*%
X150750000Y-87400000D03*
X151550000Y-87400000D03*
X152350000Y-87400000D03*
X153150000Y-87400000D03*
X153150000Y-89100000D03*
X152350000Y-89100000D03*
X151550000Y-89100000D03*
X150750000Y-89100000D03*
%TD*%
D49*
%TO.C,SW47*%
X16773094Y-74706093D03*
X18768349Y-70953566D03*
X15272083Y-73907992D03*
X17267338Y-70155465D03*
%TD*%
D50*
%TO.C,RN1*%
X163900000Y-110700000D03*
X164600000Y-110700000D03*
X164600000Y-111700000D03*
X163900000Y-111700000D03*
%TD*%
D51*
%TO.C,D44*%
X95643957Y-135272082D03*
X95338800Y-135845998D03*
X95033644Y-136419914D03*
X93356043Y-135527918D03*
X93661200Y-134954002D03*
X93966356Y-134380086D03*
%TD*%
D39*
%TO.C,SW51*%
X95822400Y-143208004D03*
X99177600Y-144991996D03*
D52*
X95719679Y-141058133D03*
X101017365Y-143874962D03*
X97485574Y-141997076D03*
D53*
X93540735Y-141428536D03*
D54*
X93023667Y-144211546D03*
D55*
X99910658Y-147873424D03*
D53*
X101928737Y-145888516D03*
D52*
X99251470Y-142936019D03*
%TD*%
D56*
%TO.C,D43*%
X204966356Y-136419914D03*
X204661200Y-135845998D03*
X204356043Y-135272082D03*
X206033644Y-134380086D03*
X206338800Y-134954002D03*
X206643957Y-135527918D03*
%TD*%
D57*
%TO.C,U40*%
X166860000Y-105600000D03*
X166860000Y-105100000D03*
X166860000Y-104600000D03*
X166860000Y-104100000D03*
X168340000Y-104100000D03*
X168340000Y-104600000D03*
X168340000Y-105100000D03*
X168340000Y-105600000D03*
%TD*%
D58*
%TO.C,RN5*%
X142850000Y-91500000D03*
X142850000Y-92300000D03*
X142850000Y-93100000D03*
X142850000Y-93900000D03*
X141150000Y-93900000D03*
X141150000Y-93100000D03*
X141150000Y-92300000D03*
X141150000Y-91500000D03*
%TD*%
D59*
%TO.C,C55*%
X166400000Y-102175000D03*
X166400000Y-100625000D03*
%TD*%
D60*
%TO.C,SW104*%
X275785781Y-60711374D03*
X277781036Y-64463901D03*
X277286792Y-59913273D03*
X279282047Y-63665800D03*
%TD*%
D46*
%TO.C,C2*%
X147274999Y-116600000D03*
X145725001Y-116600000D03*
%TD*%
D60*
%TO.C,SW45*%
X281231651Y-70953566D03*
X283226906Y-74706093D03*
X282732662Y-70155465D03*
X284727917Y-73907992D03*
%TD*%
D61*
%TO.C,J2*%
X156750000Y-99200000D03*
X156250000Y-99200000D03*
X155750000Y-99200000D03*
X155250000Y-99200000D03*
X154750000Y-99200000D03*
X154250000Y-99200000D03*
X153750000Y-99200000D03*
X153250000Y-99200000D03*
X152750000Y-99200000D03*
X152250000Y-99200000D03*
X151750000Y-99200000D03*
X151250000Y-99200000D03*
X150750000Y-99200000D03*
X150250000Y-99200000D03*
X149750000Y-99200000D03*
X149250000Y-99200000D03*
X148750000Y-99200000D03*
X148250000Y-99200000D03*
X147750000Y-99200000D03*
X147250000Y-99200000D03*
X146750000Y-99200000D03*
X146250000Y-99200000D03*
X145750000Y-99200000D03*
X145250000Y-99200000D03*
X144750000Y-99200000D03*
X144250000Y-99200000D03*
X143750000Y-99200000D03*
X143250000Y-99200000D03*
D62*
X158650000Y-102450000D03*
X141350000Y-102450000D03*
%TD*%
M02*
