M48
; DRILL file {KiCad 8.0.8} date 2025-01-20T03:09:01+0100
; FORMAT={-:-/ absolute / metric / decimal}
; #@! TF.CreationDate,2025-01-20T03:09:01+01:00
; #@! TF.GenerationSoftware,Kicad,Pcbnew,8.0.8
; #@! TF.FileFunction,NonPlated,1,2,NPTH
FMAT,2
METRIC
; #@! TA.AperFunction,NonPlated,NPTH,ComponentDrill
T1C1.900
; #@! TA.AperFunction,NonPlated,NPTH,ComponentDrill
T2C5.050
%
G90
G05
T1
X23.109Y-70.136
X31.09Y-55.126
X32.822Y-75.301
X37.594Y-81.236
X40.803Y-60.29
X45.575Y-66.226
X47.306Y-86.4
X53.556Y-51.215
X55.287Y-71.39
X60.529Y-76.442
X63.269Y-56.38
X68.51Y-61.432
X70.242Y-81.606
X76.491Y-46.422
X78.223Y-66.596
X79.64Y-117.182
X80.178Y-77.829
X86.204Y-51.586
X88.159Y-62.819
X89.352Y-122.347
X89.89Y-82.993
X92.315Y-93.343
X95.063Y-126.516
X96.14Y-47.809
X97.871Y-67.983
X100.296Y-78.333
X102.028Y-98.507
X103.044Y-111.506
X104.776Y-131.68
X105.852Y-52.973
X108.14Y-140.264
X108.277Y-63.323
X110.009Y-83.497
X111.025Y-96.496
X112.757Y-116.67
X116.121Y-125.254
X117.852Y-145.428
X117.99Y-68.487
X119.006Y-81.486
X120.738Y-101.66
X125.833Y-130.418
X128.719Y-86.65
X171.281Y-86.65
X174.167Y-130.418
X179.262Y-101.66
X180.994Y-81.486
X182.01Y-68.487
X182.148Y-145.428
X183.879Y-125.254
X187.243Y-116.67
X188.975Y-96.496
X189.991Y-83.497
X191.723Y-63.323
X191.86Y-140.264
X194.148Y-52.973
X195.224Y-131.68
X196.956Y-111.506
X197.972Y-98.507
X199.704Y-78.333
X202.129Y-67.983
X203.86Y-47.809
X204.937Y-126.516
X207.685Y-93.343
X210.11Y-82.993
X210.648Y-122.347
X211.841Y-62.819
X213.796Y-51.586
X219.822Y-77.829
X220.36Y-117.182
X221.777Y-66.596
X223.509Y-46.422
X229.758Y-81.606
X231.49Y-61.432
X236.732Y-56.38
X239.471Y-76.442
X244.713Y-71.39
X246.444Y-51.216
X252.694Y-86.4
X254.425Y-66.226
X259.197Y-60.291
X262.406Y-81.236
X267.178Y-75.301
X268.91Y-55.126
X276.891Y-70.136
T2
X27.966Y-72.718
X35.947Y-57.708
X42.45Y-83.818
X50.431Y-68.808
X58.412Y-53.798
X65.385Y-79.024
X73.366Y-64.014
X81.347Y-49.004
X84.496Y-119.765
X85.034Y-80.411
X93.015Y-65.401
X97.172Y-95.925
X99.92Y-129.098
X100.996Y-50.391
X105.153Y-80.915
X107.901Y-114.088
X112.996Y-142.846
X113.134Y-65.905
X115.881Y-99.078
X120.977Y-127.836
X123.862Y-84.068
X176.138Y-84.068
X179.023Y-127.836
X184.119Y-99.078
X186.867Y-65.905
X187.004Y-142.846
X192.099Y-114.088
X194.848Y-80.915
X199.004Y-50.391
X200.08Y-129.098
X202.829Y-95.925
X206.985Y-65.401
X214.966Y-80.411
X215.504Y-119.764
X218.653Y-49.004
X226.634Y-64.014
X234.615Y-79.024
X241.588Y-53.798
X249.569Y-68.808
X257.55Y-83.818
X264.053Y-57.708
X272.034Y-72.719
M30
