M48
; DRILL file {KiCad 8.0.8} date 2025-01-21T22:16:05+0100
; FORMAT={-:-/ absolute / metric / decimal}
; #@! TF.CreationDate,2025-01-21T22:16:05+01:00
; #@! TF.GenerationSoftware,Kicad,Pcbnew,8.0.8
; #@! TF.FileFunction,Plated,1,2,PTH
FMAT,2
METRIC
; #@! TA.AperFunction,Plated,PTH,ViaDrill
T1C0.300
; #@! TA.AperFunction,Plated,PTH,ViaDrill
T2C0.350
; #@! TA.AperFunction,Plated,PTH,ViaDrill
T3C0.400
; #@! TA.AperFunction,Plated,PTH,ComponentDrill
T4C1.100
; #@! TA.AperFunction,Plated,PTH,ComponentDrill
T5C1.600
; #@! TA.AperFunction,Plated,PTH,ComponentDrill
T6C2.000
; #@! TA.AperFunction,Plated,PTH,ComponentDrill
T7C2.200
; #@! TA.AperFunction,Plated,PTH,ComponentDrill
T8C3.050
; #@! TA.AperFunction,Plated,PTH,ComponentDrill
T9C3.200
%
G90
G05
T1
X29.55Y-78.04
X32.17Y-50.0
X37.26Y-77.08
X37.811Y-70.641
X43.86Y-89.15
X44.45Y-51.27
X45.3Y-49.07
X45.6Y-50.78
X46.024Y-62.933
X47.197Y-50.538
X47.23Y-58.38
X47.431Y-52.899
X48.2Y-58.88
X48.53Y-47.93
X48.98Y-55.13
X49.02Y-56.64
X49.4Y-48.05
X50.29Y-46.28
X51.27Y-65.61
X51.51Y-50.82
X53.57Y-47.0
X54.97Y-50.82
X57.1Y-79.42
X58.0Y-76.24
X58.15Y-65.81
X59.14Y-64.06
X59.86Y-83.46
X60.127Y-59.123
X62.44Y-89.671
X62.59Y-87.86
X63.65Y-89.55
X64.01Y-69.2
X64.15Y-90.571
X65.06Y-69.139
X67.29Y-92.97
X67.291Y-69.46
X67.8Y-68.21
X75.38Y-94.0
X75.5Y-41.01
X75.87Y-53.39
X76.51Y-74.31
X77.88Y-60.4
X79.75Y-44.71
X80.67Y-45.28
X81.6Y-45.4
X82.104Y-74.686
X83.38Y-58.99
X84.19Y-61.5
X86.68Y-85.75
X87.73Y-100.51
X89.79Y-46.29
X90.53Y-58.12
X90.81Y-111.49
X92.39Y-98.84
X94.36Y-71.42
X94.96Y-56.09
X95.977Y-115.643
X96.35Y-110.65
X97.06Y-76.079
X97.19Y-118.59
X97.28Y-44.78
X98.99Y-101.4
X100.17Y-112.16
X100.26Y-112.81
X100.5Y-83.9
X102.12Y-80.92
X103.54Y-108.92
X103.72Y-55.43
X103.9Y-51.58
X104.09Y-107.91
X104.23Y-92.07
X104.46Y-109.38
X104.534Y-100.204
X105.01Y-108.37
X105.92Y-57.48
X106.25Y-61.73
X106.32Y-47.23
X106.58Y-86.19
X108.38Y-68.87
X108.67Y-55.75
X110.06Y-93.87
X110.09Y-73.47
X111.196Y-127.106
X113.149Y-125.789
X115.28Y-132.68
X117.52Y-150.91
X118.18Y-54.5
X119.02Y-86.93
X120.46Y-75.23
X123.0Y-132.61
X125.6Y-93.27
X125.6Y-95.07
X126.58Y-107.156
X126.62Y-96.02
X127.08Y-112.73
X127.68Y-109.23
X129.33Y-73.29
X129.54Y-116.79
X130.03Y-73.29
X130.91Y-73.29
X130.92Y-80.97
X131.595Y-73.29
X131.61Y-77.232
X132.26Y-73.3
X132.26Y-75.37
X134.16Y-111.47
X134.26Y-126.02
X135.22Y-89.97
X139.34Y-89.975
X142.15Y-70.18
X143.17Y-93.824
X143.39Y-72.89
X144.26Y-105.18
X144.28Y-101.64
X145.07Y-105.19
X145.09Y-101.65
X145.225Y-106.616
X145.26Y-111.78
X145.26Y-113.27
X145.748Y-80.75
X145.75Y-108.875
X145.87Y-101.66
X145.9Y-105.19
X146.36Y-95.12
X146.68Y-105.19
X146.69Y-101.67
X146.73Y-122.07
X146.75Y-108.44
X147.38Y-100.29
X147.459Y-110.919
X147.459Y-111.921
X147.87Y-115.83
X148.67Y-115.61
X148.7Y-102.61
X148.83Y-110.3
X149.225Y-105.21
X149.24Y-109.4
X149.25Y-112.27
X149.725Y-100.3
X149.726Y-97.888
X150.25Y-108.431
X150.34Y-116.43
X150.38Y-93.73
X150.5Y-122.38
X150.57Y-80.74
X150.775Y-102.61
X150.78Y-105.77
X150.84Y-104.14
X151.225Y-108.464
X151.5Y-122.88
X152.0Y-78.69
X152.0Y-82.78
X152.32Y-125.21
X152.41Y-110.62
X152.575Y-106.295
X152.67Y-115.76
X152.78Y-86.35
X152.806Y-113.434
X153.09Y-125.0
X153.225Y-106.295
X153.35Y-104.99
X153.59Y-101.54
X153.596Y-97.901
X153.78Y-108.75
X153.87Y-110.78
X153.87Y-115.75
X153.87Y-116.43
X154.09Y-105.0
X154.226Y-83.09
X154.84Y-106.49
X154.91Y-105.0
X154.95Y-101.74
X155.17Y-108.555
X155.48Y-113.723
X155.67Y-101.74
X155.69Y-89.07
X155.72Y-109.08
X155.75Y-105.0
X155.92Y-77.52
X157.85Y-104.6
X158.62Y-73.62
X158.93Y-105.18
X159.41Y-127.09
X159.46Y-112.87
X162.11Y-98.81
X162.15Y-105.77
X164.18Y-111.66
X165.16Y-116.43
X172.34Y-109.3
X172.99Y-112.73
X175.95Y-57.37
X178.34Y-72.73
X178.47Y-115.14
X179.39Y-89.99
X179.48Y-58.26
X181.29Y-58.84
X183.3Y-74.28
X183.34Y-128.85
X183.815Y-54.165
X185.09Y-105.89
X186.12Y-69.4
X187.46Y-99.33
X187.53Y-73.76
X188.13Y-82.36
X188.29Y-80.02
X188.3Y-73.36
X189.14Y-84.94
X189.21Y-75.16
X189.37Y-45.19
X191.65Y-79.91
X191.8Y-78.11
X191.84Y-96.24
X192.106Y-67.606
X192.15Y-79.35
X192.865Y-98.185
X193.06Y-93.67
X193.12Y-95.07
X194.13Y-94.43
X194.31Y-75.43
X194.81Y-97.65
X195.27Y-96.52
X196.71Y-105.38
X197.6Y-63.55
X198.46Y-58.68
X198.68Y-62.97
X199.471Y-58.219
X199.77Y-110.34
X199.9Y-111.21
X200.37Y-109.3
X200.56Y-113.81
X200.683Y-111.453
X201.09Y-104.86
X201.12Y-111.95
X201.91Y-72.96
X202.289Y-109.701
X203.77Y-118.45
X204.358Y-52.058
X204.577Y-117.173
X205.29Y-104.57
X205.51Y-97.49
X206.21Y-95.81
X206.3Y-114.25
X206.712Y-112.752
X207.11Y-77.1
X210.73Y-94.44
X211.74Y-94.86
X211.78Y-52.35
X212.78Y-99.41
X213.277Y-97.783
X215.19Y-58.75
X215.45Y-95.4
X218.38Y-54.57
X219.31Y-66.44
X219.84Y-98.27
X220.52Y-81.92
X221.21Y-74.79
X221.93Y-65.13
X222.91Y-73.77
X223.038Y-65.922
X224.586Y-67.074
X226.53Y-69.51
X227.08Y-71.72
X231.34Y-82.35
X232.648Y-68.976
X233.808Y-71.256
X233.98Y-84.86
X235.04Y-52.47
X235.12Y-53.8
X235.98Y-70.58
X236.07Y-86.02
X237.37Y-88.46
X237.76Y-66.46
X237.83Y-53.787
X239.89Y-66.82
X239.98Y-80.71
X240.42Y-65.92
X241.06Y-59.59
X242.4Y-42.868
X244.78Y-42.15
X245.59Y-83.5
X248.91Y-74.57
X249.677Y-51.483
X249.82Y-50.81
X250.08Y-43.21
X250.51Y-45.38
X251.06Y-48.08
X251.53Y-46.04
X251.985Y-52.825
X252.89Y-48.65
X253.13Y-56.45
X253.34Y-51.38
X253.74Y-48.63
X253.75Y-49.92
X255.06Y-70.34
X255.587Y-45.473
X255.74Y-51.16
X257.28Y-89.46
X258.45Y-79.77
X262.19Y-86.6
X263.448Y-63.482
X263.51Y-89.2
X269.42Y-60.18
X270.76Y-61.51
T2
X18.9Y-70.6
X23.278Y-72.961
X29.2Y-79.6
X32.4Y-58.8
X45.43Y-93.07
X54.56Y-48.61
X54.7Y-54.9
X57.51Y-78.68
X60.44Y-45.68
X64.0Y-92.66
X69.79Y-90.12
X77.7Y-50.1
X81.1Y-126.15
X86.48Y-88.8
X89.111Y-66.64
X90.4Y-89.7
X93.52Y-60.81
X97.5Y-51.5
X98.59Y-74.1
X101.93Y-53.6
X102.21Y-82.28
X102.34Y-63.65
X103.05Y-62.44
X103.58Y-64.59
X103.72Y-47.98
X104.01Y-59.6
X104.55Y-120.09
X106.06Y-108.91
X107.53Y-52.98
X109.915Y-97.855
X110.28Y-135.95
X110.86Y-111.75
X110.91Y-123.34
X112.2Y-150.1
X114.3Y-71.85
X114.58Y-87.93
X114.69Y-115.38
X117.03Y-55.6
X117.1Y-129.2
X117.33Y-105.32
X135.81Y-75.32
X139.36Y-75.34
X139.45Y-124.36
X141.47Y-108.96
X142.1Y-104.69
X142.85Y-126.14
X143.0Y-107.3
X144.31Y-110.94
X146.0Y-128.1
X147.87Y-100.94
X148.09Y-112.29
X148.13Y-104.57
X150.0Y-128.3
X150.85Y-104.92
X151.62Y-100.94
X151.8Y-114.2
X152.8Y-97.7
X153.17Y-94.11
X153.66Y-81.07
X155.42Y-128.12
X155.7Y-110.98
X156.7Y-107.3
X162.83Y-73.84
X170.37Y-63.12
X171.23Y-94.07
X180.04Y-135.19
X180.11Y-59.03
X180.87Y-90.84
X181.95Y-86.22
X182.9Y-102.55
X183.0Y-57.04
X183.45Y-85.49
X185.082Y-88.598
X185.62Y-132.25
X185.67Y-146.41
X187.0Y-100.49
X187.38Y-76.12
X191.68Y-91.02
X193.3Y-73.5
X197.925Y-133.058
X198.7Y-69.2
X199.71Y-63.45
X199.86Y-46.37
X201.2Y-69.5
X202.19Y-47.82
X205.33Y-47.84
X206.0Y-102.0
X207.79Y-61.6
X208.14Y-121.95
X208.31Y-98.34
X211.15Y-100.44
X212.59Y-43.26
X213.8Y-84.2
X214.03Y-59.36
X214.49Y-46.38
X214.7Y-60.7
X218.59Y-43.62
X219.0Y-58.9
X219.9Y-89.7
X219.96Y-40.91
X220.43Y-82.8
X220.8Y-80.48
X221.7Y-93.3
X221.84Y-46.57
X223.25Y-69.43
X224.47Y-43.85
X225.19Y-46.42
X225.89Y-67.11
X227.0Y-54.01
X233.5Y-54.8
X237.31Y-51.35
X238.49Y-54.23
X240.21Y-73.78
X240.7Y-57.4
X241.55Y-48.34
X242.0Y-40.2
X242.68Y-45.22
X248.56Y-44.85
X248.7Y-71.98
X255.91Y-64.71
X258.93Y-51.15
X263.985Y-84.975
X269.523Y-76.793
X278.5Y-75.5
T3
X37.28Y-66.21
X43.332Y-92.968
X80.546Y-120.704
X81.92Y-72.626
X89.92Y-130.3
X95.48Y-72.4
X96.676Y-116.856
X108.66Y-142.89
X115.074Y-74.32
X121.5Y-74.32
X146.38Y-67.21
X153.86Y-67.21
X157.721Y-131.23
X159.36Y-70.17
X163.19Y-82.18
X164.53Y-78.52
X164.56Y-73.54
X168.82Y-111.5
X168.82Y-117.88
X168.83Y-130.44
X185.58Y-129.37
X193.341Y-84.639
X195.087Y-70.727
X200.217Y-118.327
X204.31Y-74.787
X206.86Y-55.369
X240.95Y-80.05
X243.182Y-73.108
X250.158Y-59.128
X272.34Y-62.5
T4
X121.362Y-112.73
X122.536Y-110.523
X123.71Y-108.316
X134.165Y-119.538
X136.512Y-115.123
X163.488Y-115.123
X165.835Y-119.538
X176.29Y-108.316
X177.464Y-110.523
X178.638Y-112.73
T5
X21.133Y-74.918
X29.114Y-59.908
X35.618Y-86.018
X43.599Y-71.008
X51.58Y-55.997
X58.553Y-81.224
X66.534Y-66.214
X74.515Y-51.204
X77.663Y-121.964
X78.202Y-82.611
X86.183Y-67.601
X90.339Y-98.125
X93.087Y-131.298
X94.164Y-52.591
X98.32Y-83.115
X101.068Y-116.288
X106.163Y-145.046
X106.301Y-68.105
X109.049Y-101.278
X114.144Y-130.036
X117.03Y-86.268
X174.141Y-90.962
X177.026Y-134.73
X182.122Y-105.973
X184.87Y-72.799
X185.007Y-149.741
X190.103Y-120.982
X192.851Y-87.81
X197.007Y-57.285
X198.084Y-135.992
X200.832Y-102.82
X204.988Y-72.296
X212.969Y-87.306
X213.507Y-126.659
X216.656Y-55.899
X224.637Y-70.909
X232.618Y-85.919
X239.591Y-60.692
X247.572Y-75.702
X255.553Y-90.712
X262.056Y-64.603
X270.037Y-79.613
T7
X25.5Y-52.0
X71.5Y-39.0
X228.5Y-39.0
X274.5Y-52.0
T8
X30.736Y-67.509
X34.164Y-71.711
X38.717Y-52.499
X42.145Y-56.701
X45.22Y-78.608
X48.649Y-82.81
X53.201Y-63.598
X56.63Y-67.8
X61.182Y-48.588
X64.611Y-52.79
X68.155Y-73.815
X71.584Y-78.016
X76.136Y-58.805
X79.565Y-63.006
X84.117Y-43.794
X87.266Y-114.555
X87.546Y-47.996
X87.804Y-75.202
X90.695Y-118.757
X91.233Y-79.403
X95.785Y-60.191
X99.214Y-64.393
X99.941Y-90.716
X102.689Y-123.889
X103.37Y-94.917
X103.766Y-45.181
X106.118Y-128.09
X107.195Y-49.383
X107.922Y-75.706
X110.671Y-108.878
X111.351Y-79.907
X114.099Y-113.08
X115.766Y-137.637
X115.903Y-60.695
X118.651Y-93.868
X119.195Y-141.838
X119.332Y-64.897
X122.08Y-98.07
X123.747Y-122.627
X126.632Y-78.858
X127.176Y-126.828
X130.061Y-83.06
X173.368Y-78.858
X176.253Y-122.627
X178.768Y-78.365
X181.349Y-93.869
X181.654Y-122.133
X184.097Y-60.696
X184.234Y-137.637
X186.749Y-93.375
X189.33Y-108.878
X189.497Y-60.202
X189.635Y-137.143
X192.078Y-75.706
X194.73Y-108.385
X196.234Y-45.181
X197.311Y-123.888
X197.478Y-75.213
X200.059Y-90.716
X201.635Y-44.688
X202.711Y-123.395
X204.215Y-60.192
X205.459Y-90.223
X209.616Y-59.698
X212.196Y-75.202
X212.734Y-114.555
X215.883Y-43.795
X217.597Y-74.709
X218.135Y-114.062
X221.283Y-43.301
X223.864Y-58.805
X229.264Y-58.312
X231.845Y-73.815
X237.245Y-73.322
X238.818Y-48.588
X244.219Y-48.095
X246.799Y-63.598
X252.2Y-63.105
X254.78Y-78.609
X260.181Y-78.115
X261.284Y-52.499
X266.684Y-52.006
X269.265Y-67.509
X274.665Y-67.016
T9
X18.0Y-60.0
X37.0Y-95.0
X66.0Y-41.0
X81.0Y-102.0
X95.0Y-140.0
X117.5Y-50.0
X130.0Y-101.925
X135.5Y-65.925
X135.5Y-130.0
X164.5Y-65.925
X164.5Y-130.0
X170.0Y-101.925
X182.5Y-50.0
X205.0Y-140.0
X219.0Y-102.0
X234.0Y-41.0
X263.0Y-95.0
X282.0Y-60.0
T6
X126.706Y-119.082G85X126.352Y-118.895
G05
X131.964Y-109.193G85X131.611Y-109.006
G05
X168.036Y-109.193G85X168.389Y-109.006
G05
X173.294Y-119.082G85X173.647Y-118.895
G05
M30
