%TF.GenerationSoftware,KiCad,Pcbnew,9.0.2*%
%TF.CreationDate,2025-06-13T18:26:31+01:00*%
%TF.ProjectId,____,e4e8e4e8-2e6b-4696-9361-645f70636258,2.0*%
%TF.SameCoordinates,Original*%
%TF.FileFunction,Paste,Bot*%
%TF.FilePolarity,Positive*%
%FSLAX46Y46*%
G04 Gerber Fmt 4.6, Leading zero omitted, Abs format (unit mm)*
G04 Created by KiCad (PCBNEW 9.0.2) date 2025-06-13 18:26:31*
%MOMM*%
%LPD*%
G01*
G04 APERTURE LIST*
G04 Aperture macros list*
%AMRoundRect*
0 Rectangle with rounded corners*
0 $1 Rounding radius*
0 $2 $3 $4 $5 $6 $7 $8 $9 X,Y pos of 4 corners*
0 Add a 4 corners polygon primitive as box body*
4,1,4,$2,$3,$4,$5,$6,$7,$8,$9,$2,$3,0*
0 Add four circle primitives for the rounded corners*
1,1,$1+$1,$2,$3*
1,1,$1+$1,$4,$5*
1,1,$1+$1,$6,$7*
1,1,$1+$1,$8,$9*
0 Add four rect primitives between the rounded corners*
20,1,$1+$1,$2,$3,$4,$5,0*
20,1,$1+$1,$4,$5,$6,$7,0*
20,1,$1+$1,$6,$7,$8,$9,0*
20,1,$1+$1,$8,$9,$2,$3,0*%
G04 Aperture macros list end*
%ADD10RoundRect,0.250000X0.351455X-1.149556X1.149556X0.351455X-0.351455X1.149556X-1.149556X-0.351455X0*%
%ADD11RoundRect,0.250000X0.574454X-0.730156X0.926557X-0.067945X-0.574454X0.730156X-0.926557X0.067945X0*%
%ADD12RoundRect,0.250000X1.149556X-0.351455X0.351455X1.149556X-1.149556X0.351455X-0.351455X-1.149556X0*%
%ADD13RoundRect,0.250000X0.926557X0.067945X0.574454X0.730156X-0.926557X-0.067945X-0.574454X-0.730156X0*%
%ADD14RoundRect,0.112500X0.262516X0.012168X0.156885X0.210831X-0.262516X-0.012168X-0.156885X-0.210831X0*%
%ADD15RoundRect,0.112500X0.156885X-0.210831X0.262516X-0.012168X-0.156885X0.210831X-0.262516X0.012168X0*%
%ADD16RoundRect,0.112500X-0.262516X-0.012168X-0.156885X-0.210831X0.262516X0.012168X0.156885X0.210831X0*%
%ADD17RoundRect,0.112500X-0.156885X0.210831X-0.262516X0.012168X0.156885X-0.210831X0.262516X-0.012168X0*%
%ADD18RoundRect,0.112500X-0.012168X0.262516X-0.210831X0.156885X0.012168X-0.262516X0.210831X-0.156885X0*%
%ADD19RoundRect,0.112500X0.210831X0.156885X0.012168X0.262516X-0.210831X-0.156885X-0.012168X-0.262516X0*%
%ADD20RoundRect,0.150000X0.150000X0.625000X-0.150000X0.625000X-0.150000X-0.625000X0.150000X-0.625000X0*%
%ADD21RoundRect,0.250000X0.350000X0.650000X-0.350000X0.650000X-0.350000X-0.650000X0.350000X-0.650000X0*%
%ADD22RoundRect,0.150000X-0.150000X-0.625000X0.150000X-0.625000X0.150000X0.625000X-0.150000X0.625000X0*%
%ADD23RoundRect,0.250000X-0.350000X-0.650000X0.350000X-0.650000X0.350000X0.650000X-0.350000X0.650000X0*%
%ADD24RoundRect,0.220000X-1.190129X-0.363859X0.363859X-1.190129X1.190129X0.363859X-0.363859X1.190129X0*%
%ADD25RoundRect,0.220000X-0.363859X-1.190129X1.190129X-0.363859X0.363859X1.190129X-1.190129X0.363859X0*%
%ADD26RoundRect,0.080000X-0.126713X-0.656311X0.614963X-0.261955X0.126713X0.656311X-0.614963X0.261955X0*%
%ADD27RoundRect,0.080000X0.295812X-1.450964X1.037488X-1.056608X-0.295812X1.450964X-1.037488X1.056608X0*%
%ADD28RoundRect,0.096000X-0.677148X-0.320004X0.382437X-0.643952X0.677148X0.320004X-0.382437X0.643952X0*%
%ADD29RoundRect,0.096000X0.320004X-0.677148X0.643952X0.382437X-0.320004X0.677148X-0.643952X-0.382437X0*%
%ADD30RoundRect,0.225000X-0.225000X-0.250000X0.225000X-0.250000X0.225000X0.250000X-0.225000X0.250000X0*%
%ADD31RoundRect,0.100000X-0.100000X0.350000X-0.100000X-0.350000X0.100000X-0.350000X0.100000X0.350000X0*%
%ADD32RoundRect,0.225000X0.225000X0.250000X-0.225000X0.250000X-0.225000X-0.250000X0.225000X-0.250000X0*%
%ADD33RoundRect,0.100000X-0.350000X-0.100000X0.350000X-0.100000X0.350000X0.100000X-0.350000X0.100000X0*%
%ADD34RoundRect,0.250000X0.250000X0.475000X-0.250000X0.475000X-0.250000X-0.475000X0.250000X-0.475000X0*%
%ADD35RoundRect,0.068800X0.038318X-0.697311X0.599524X0.358165X-0.038318X0.697311X-0.599524X-0.358165X0*%
%ADD36RoundRect,0.072000X-0.108000X0.153000X-0.108000X-0.153000X0.108000X-0.153000X0.108000X0.153000X0*%
%ADD37RoundRect,0.100000X0.245610X-0.017336X-0.151716X0.193926X-0.245610X0.017336X0.151716X-0.193926X0*%
%ADD38RoundRect,0.080000X-0.614963X-0.261955X0.126713X-0.656311X0.614963X0.261955X-0.126713X0.656311X0*%
%ADD39RoundRect,0.080000X-1.037488X-1.056608X-0.295812X-1.450964X1.037488X1.056608X0.295812X1.450964X0*%
%ADD40RoundRect,0.096000X-0.643952X0.382437X-0.320004X-0.677148X0.643952X-0.382437X0.320004X0.677148X0*%
%ADD41RoundRect,0.096000X-0.382437X-0.643952X0.677148X-0.320004X0.382437X0.643952X-0.677148X0.320004X0*%
%ADD42RoundRect,0.100000X-0.151716X-0.193926X0.245610X0.017336X0.151716X0.193926X-0.245610X-0.017336X0*%
%ADD43RoundRect,0.050000X-0.285000X-0.100000X0.285000X-0.100000X0.285000X0.100000X-0.285000X0.100000X0*%
%ADD44RoundRect,0.100000X0.350000X0.100000X-0.350000X0.100000X-0.350000X-0.100000X0.350000X-0.100000X0*%
%ADD45RoundRect,0.225000X0.250000X-0.225000X0.250000X0.225000X-0.250000X0.225000X-0.250000X-0.225000X0*%
%ADD46RoundRect,0.068800X-0.599524X0.358165X-0.038318X-0.697311X0.599524X-0.358165X0.038318X0.697311X0*%
%ADD47RoundRect,0.055500X0.055500X0.425500X-0.055500X0.425500X-0.055500X-0.425500X0.055500X-0.425500X0*%
%ADD48RoundRect,0.210000X0.546000X0.714000X-0.546000X0.714000X-0.546000X-0.714000X0.546000X-0.714000X0*%
G04 APERTURE END LIST*
D10*
%TO.C,D36*%
X39077476Y-69194653D03*
D11*
X40145523Y-67185947D03*
%TD*%
D10*
%TO.C,D37*%
X94577476Y-119194653D03*
D11*
X95645523Y-117185947D03*
%TD*%
D12*
%TO.C,D38*%
X205422524Y-119194653D03*
D13*
X204354477Y-117185947D03*
%TD*%
D12*
%TO.C,D39*%
X260922524Y-69194653D03*
D13*
X259854477Y-67185947D03*
%TD*%
D14*
%TO.C,D68*%
X200172209Y-120193387D03*
X199561896Y-119045556D03*
X201632948Y-118680528D03*
%TD*%
%TO.C,D67*%
X184210392Y-90173507D03*
X183600079Y-89025676D03*
X185671131Y-88660648D03*
%TD*%
D15*
%TO.C,D66*%
X106204552Y-123584048D03*
X106814865Y-122436217D03*
X108275604Y-123949076D03*
%TD*%
%TO.C,D65*%
X122166344Y-93563908D03*
X122776657Y-92416077D03*
X124237396Y-93928936D03*
%TD*%
D16*
%TO.C,D64*%
X225277791Y-120606613D03*
X225888104Y-121754444D03*
X223817052Y-122119472D03*
%TD*%
D14*
%TO.C,D63*%
X194939261Y-72010593D03*
X194328948Y-70862762D03*
X196400000Y-70497734D03*
%TD*%
D15*
%TO.C,D62*%
X87561896Y-128754444D03*
X88172209Y-127606613D03*
X89632948Y-129119472D03*
%TD*%
%TO.C,D61*%
X111437473Y-75400998D03*
X112047786Y-74253167D03*
X113508525Y-75766026D03*
%TD*%
D14*
%TO.C,D60*%
X187095979Y-133941564D03*
X186485666Y-132793733D03*
X188556718Y-132428705D03*
%TD*%
%TO.C,D59*%
X207076547Y-56496526D03*
X206466234Y-55348695D03*
X208537286Y-54983667D03*
%TD*%
D15*
%TO.C,D58*%
X119280779Y-137332224D03*
X119891092Y-136184393D03*
X121351831Y-137697252D03*
%TD*%
%TO.C,D57*%
X99300192Y-59886930D03*
X99910505Y-58739099D03*
X101371244Y-60251958D03*
%TD*%
D14*
%TO.C,D56*%
X180872209Y-119443387D03*
X180261896Y-118295556D03*
X182332948Y-117930528D03*
%TD*%
%TO.C,D55*%
X226725375Y-55109620D03*
X226115062Y-53961789D03*
X228186114Y-53596761D03*
%TD*%
D17*
%TO.C,D54*%
X128638104Y-123045556D03*
X128027791Y-124193387D03*
X126567052Y-122680528D03*
%TD*%
D15*
%TO.C,D53*%
X79651363Y-58500022D03*
X80261676Y-57352191D03*
X81722415Y-58865050D03*
%TD*%
D18*
%TO.C,D52*%
X175043387Y-108977791D03*
X173895556Y-109588104D03*
X173530528Y-107517052D03*
%TD*%
D14*
%TO.C,D51*%
X249660505Y-59903345D03*
X249050192Y-58755514D03*
X251121244Y-58390486D03*
%TD*%
D19*
%TO.C,D50*%
X126104444Y-109588104D03*
X124956613Y-108977791D03*
X126469472Y-107517052D03*
%TD*%
D15*
%TO.C,D49*%
X56716232Y-63293747D03*
X57326545Y-62145916D03*
X58787284Y-63658775D03*
%TD*%
D16*
%TO.C,D48*%
X285618632Y-75571497D03*
X286228945Y-76719328D03*
X284157893Y-77084356D03*
%TD*%
D14*
%TO.C,D47*%
X272126164Y-63814124D03*
X271515851Y-62666293D03*
X273586903Y-62301265D03*
%TD*%
D15*
%TO.C,D46*%
X13771055Y-76719328D03*
X14381368Y-75571497D03*
X15842107Y-77084356D03*
%TD*%
%TO.C,D45*%
X34250575Y-67204523D03*
X34860888Y-66056692D03*
X36321627Y-67569551D03*
%TD*%
D20*
%TO.C,J1*%
X151500000Y-127300000D03*
X150500000Y-127300000D03*
X149500000Y-127300000D03*
X148500000Y-127300000D03*
D21*
X152800000Y-131175000D03*
X147200000Y-131175000D03*
%TD*%
D22*
%TO.C,J42*%
X149000000Y-61625000D03*
X150000000Y-61625000D03*
X151000000Y-61625000D03*
D23*
X147700000Y-57750000D03*
X152300000Y-57750000D03*
%TD*%
D20*
%TO.C,J41*%
X151000000Y-64575000D03*
X150000000Y-64575000D03*
X149000000Y-64575000D03*
D21*
X152300000Y-68450000D03*
X147700000Y-68450000D03*
%TD*%
D24*
%TO.C,SW17*%
X105562250Y-109006196D03*
X115654552Y-116864022D03*
%TD*%
%TO.C,SW12*%
X113543024Y-93996168D03*
X123635326Y-101853994D03*
%TD*%
D25*
%TO.C,SW25*%
X194631788Y-48877188D03*
X206789765Y-44904331D03*
%TD*%
%TO.C,SW39*%
X174651224Y-126322222D03*
X186809201Y-122349365D03*
%TD*%
D24*
%TO.C,SW16*%
X94833140Y-90843365D03*
X104925442Y-98701191D03*
%TD*%
D25*
%TO.C,SW35*%
X230242647Y-77510498D03*
X242400624Y-73537641D03*
%TD*%
D24*
%TO.C,SW4*%
X98657890Y-45309078D03*
X108750192Y-53166904D03*
%TD*%
%TO.C,SW15*%
X82695857Y-75329295D03*
X92788159Y-83187121D03*
%TD*%
%TO.C,SW21*%
X118638477Y-122754372D03*
X128730779Y-130612198D03*
%TD*%
D25*
%TO.C,SW26*%
X182494502Y-64391255D03*
X194652479Y-60418398D03*
%TD*%
D24*
%TO.C,SW13*%
X40111897Y-78736113D03*
X50204199Y-86593939D03*
%TD*%
%TO.C,SW18*%
X82157646Y-114682868D03*
X92249948Y-122540694D03*
%TD*%
%TO.C,SW1*%
X33608272Y-52626671D03*
X43700574Y-60484497D03*
%TD*%
D25*
%TO.C,SW22*%
X259681405Y-56194786D03*
X271839382Y-52221929D03*
%TD*%
D24*
%TO.C,SW11*%
X102814155Y-75833253D03*
X112906457Y-83691079D03*
%TD*%
D25*
%TO.C,SW28*%
X267662422Y-71204895D03*
X279820399Y-67232038D03*
%TD*%
%TO.C,SW24*%
X214280616Y-47490281D03*
X226438593Y-43517424D03*
%TD*%
D24*
%TO.C,SW10*%
X90676873Y-60319186D03*
X100769175Y-68177012D03*
%TD*%
D25*
%TO.C,SW38*%
X187727450Y-112574049D03*
X199885427Y-108601192D03*
%TD*%
%TO.C,SW34*%
X253177779Y-82304225D03*
X265335756Y-78331368D03*
%TD*%
%TO.C,SW40*%
X182632237Y-141332331D03*
X194790214Y-137359474D03*
%TD*%
D24*
%TO.C,SW6*%
X121524042Y-78986056D03*
X131616344Y-86843882D03*
%TD*%
D25*
%TO.C,SW31*%
X202612804Y-63887297D03*
X214770781Y-59914440D03*
%TD*%
%TO.C,SW27*%
X171765633Y-82554169D03*
X183923610Y-78581312D03*
%TD*%
D24*
%TO.C,SW9*%
X71028042Y-58932279D03*
X81120344Y-66790105D03*
%TD*%
%TO.C,SW20*%
X110657459Y-137764476D03*
X120749761Y-145622302D03*
%TD*%
D25*
%TO.C,SW42*%
X211132051Y-118250722D03*
X223290028Y-114277865D03*
%TD*%
%TO.C,SW37*%
X198456536Y-94411474D03*
X210614513Y-90438617D03*
%TD*%
%TO.C,SW30*%
X222261633Y-62500391D03*
X234419610Y-58527534D03*
%TD*%
D24*
%TO.C,SW8*%
X48092912Y-63726004D03*
X58185214Y-71583830D03*
%TD*%
%TO.C,SW5*%
X110795171Y-60823146D03*
X120887473Y-68680972D03*
%TD*%
D25*
%TO.C,SW29*%
X245196762Y-67294116D03*
X257354739Y-63321259D03*
%TD*%
D24*
%TO.C,SW7*%
X25627255Y-67636781D03*
X35719557Y-75494607D03*
%TD*%
%TO.C,SW3*%
X79009061Y-43922170D03*
X89101363Y-51779996D03*
%TD*%
D25*
%TO.C,SW23*%
X237215746Y-52284006D03*
X249373723Y-48311149D03*
%TD*%
D24*
%TO.C,SW19*%
X97581233Y-124016305D03*
X107673535Y-131874131D03*
%TD*%
D25*
%TO.C,SW36*%
X210593819Y-78897404D03*
X222751796Y-74924547D03*
%TD*%
D24*
%TO.C,SW14*%
X63047028Y-73942388D03*
X73139330Y-81800214D03*
%TD*%
%TO.C,SW2*%
X56073930Y-48715895D03*
X66166232Y-56573721D03*
%TD*%
D25*
%TO.C,SW41*%
X195708467Y-127584155D03*
X207866444Y-123611298D03*
%TD*%
%TO.C,SW33*%
X179746650Y-97564279D03*
X191904627Y-93591422D03*
%TD*%
%TO.C,SW32*%
X190475520Y-79401366D03*
X202633497Y-75428509D03*
%TD*%
D26*
%TO.C,SW50*%
X198982635Y-143874962D03*
X204280320Y-141058132D03*
X200748530Y-142936019D03*
D27*
X198071263Y-145888516D03*
D28*
X200089342Y-147873424D03*
D29*
X206976333Y-144211546D03*
D27*
X206459265Y-141428536D03*
D26*
X202514425Y-141997075D03*
%TD*%
D30*
%TO.C,C3*%
X152725001Y-116600000D03*
X154274999Y-116600000D03*
%TD*%
D31*
%TO.C,RN6*%
X148800000Y-116150000D03*
X149600000Y-116150000D03*
X150400000Y-116150000D03*
X151200000Y-116150000D03*
X151200000Y-117850000D03*
X150400000Y-117850000D03*
X149600000Y-117850000D03*
X148800000Y-117850000D03*
%TD*%
D32*
%TO.C,C4*%
X147274999Y-115100000D03*
X145725001Y-115100000D03*
%TD*%
D33*
%TO.C,RN4*%
X157150000Y-93900000D03*
X157150000Y-93100000D03*
X157150000Y-92300000D03*
X157150000Y-91500000D03*
X158850000Y-91500000D03*
X158850000Y-92300000D03*
X158850000Y-93100000D03*
X158850000Y-93900000D03*
%TD*%
D34*
%TO.C,C5*%
X145450000Y-61900000D03*
X143550000Y-61900000D03*
%TD*%
D31*
%TO.C,RN7*%
X163850000Y-107650000D03*
X164650000Y-107650000D03*
X164650000Y-109350000D03*
X163850000Y-109350000D03*
%TD*%
D34*
%TO.C,C40*%
X143150000Y-96000000D03*
X141250000Y-96000000D03*
%TD*%
D30*
%TO.C,C1*%
X152725000Y-115100000D03*
X154275000Y-115100000D03*
%TD*%
D31*
%TO.C,RN2*%
X146850000Y-87400000D03*
X147650000Y-87400000D03*
X148450000Y-87400000D03*
X149250000Y-87400000D03*
X149250000Y-89100000D03*
X148450000Y-89100000D03*
X147650000Y-89100000D03*
X146850000Y-89100000D03*
%TD*%
D35*
%TO.C,SW101*%
X22218964Y-64463901D03*
X24214219Y-60711374D03*
X20717953Y-63665800D03*
X22713208Y-59913273D03*
%TD*%
D31*
%TO.C,RN3*%
X150750000Y-87400000D03*
X151550000Y-87400000D03*
X152350000Y-87400000D03*
X153150000Y-87400000D03*
X153150000Y-89100000D03*
X152350000Y-89100000D03*
X151550000Y-89100000D03*
X150750000Y-89100000D03*
%TD*%
D35*
%TO.C,SW47*%
X16773094Y-74706093D03*
X18768349Y-70953566D03*
X15272083Y-73907992D03*
X17267338Y-70155465D03*
%TD*%
D36*
%TO.C,RN1*%
X163900000Y-110700000D03*
X164600000Y-110700000D03*
X164600000Y-111700000D03*
X163900000Y-111700000D03*
%TD*%
D37*
%TO.C,D44*%
X95643957Y-135272082D03*
X95338800Y-135845998D03*
X95033644Y-136419914D03*
X93356043Y-135527918D03*
X93661200Y-134954002D03*
X93966356Y-134380086D03*
%TD*%
D38*
%TO.C,SW51*%
X95719679Y-141058133D03*
X101017365Y-143874962D03*
X97485574Y-141997076D03*
D39*
X93540735Y-141428536D03*
D40*
X93023667Y-144211546D03*
D41*
X99910658Y-147873424D03*
D39*
X101928737Y-145888516D03*
D38*
X99251470Y-142936019D03*
%TD*%
D42*
%TO.C,D43*%
X204966356Y-136419914D03*
X204661200Y-135845998D03*
X204356043Y-135272082D03*
X206033644Y-134380086D03*
X206338800Y-134954002D03*
X206643957Y-135527918D03*
%TD*%
D43*
%TO.C,U40*%
X166860000Y-105600000D03*
X166860000Y-105100000D03*
X166860000Y-104600000D03*
X166860000Y-104100000D03*
X168340000Y-104100000D03*
X168340000Y-104600000D03*
X168340000Y-105100000D03*
X168340000Y-105600000D03*
%TD*%
D44*
%TO.C,RN5*%
X142850000Y-91500000D03*
X142850000Y-92300000D03*
X142850000Y-93100000D03*
X142850000Y-93900000D03*
X141150000Y-93900000D03*
X141150000Y-93100000D03*
X141150000Y-92300000D03*
X141150000Y-91500000D03*
%TD*%
D45*
%TO.C,C55*%
X166400000Y-102175000D03*
X166400000Y-100625000D03*
%TD*%
D46*
%TO.C,SW104*%
X275785781Y-60711374D03*
X277781036Y-64463901D03*
X277286792Y-59913273D03*
X279282047Y-63665800D03*
%TD*%
D32*
%TO.C,C2*%
X147274999Y-116600000D03*
X145725001Y-116600000D03*
%TD*%
D46*
%TO.C,SW45*%
X281231651Y-70953566D03*
X283226906Y-74706093D03*
X282732662Y-70155465D03*
X284727917Y-73907992D03*
%TD*%
D47*
%TO.C,J2*%
X156750000Y-99200000D03*
X156250000Y-99200000D03*
X155750000Y-99200000D03*
X155250000Y-99200000D03*
X154750000Y-99200000D03*
X154250000Y-99200000D03*
X153750000Y-99200000D03*
X153250000Y-99200000D03*
X152750000Y-99200000D03*
X152250000Y-99200000D03*
X151750000Y-99200000D03*
X151250000Y-99200000D03*
X150750000Y-99200000D03*
X150250000Y-99200000D03*
X149750000Y-99200000D03*
X149250000Y-99200000D03*
X148750000Y-99200000D03*
X148250000Y-99200000D03*
X147750000Y-99200000D03*
X147250000Y-99200000D03*
X146750000Y-99200000D03*
X146250000Y-99200000D03*
X145750000Y-99200000D03*
X145250000Y-99200000D03*
X144750000Y-99200000D03*
X144250000Y-99200000D03*
X143750000Y-99200000D03*
X143250000Y-99200000D03*
D48*
X158650000Y-102450000D03*
X141350000Y-102450000D03*
%TD*%
M02*
