%TF.GenerationSoftware,KiCad,Pcbnew,9.0.2*%
%TF.CreationDate,2025-06-13T18:26:32+01:00*%
%TF.ProjectId,____,e4e8e4e8-2e6b-4696-9361-645f70636258,2.0*%
%TF.SameCoordinates,Original*%
%TF.FileFunction,Profile,NP*%
%FSLAX46Y46*%
G04 Gerber Fmt 4.6, Leading zero omitted, Abs format (unit mm)*
G04 Created by KiCad (PCBNEW 9.0.2) date 2025-06-13 18:26:32*
%MOMM*%
%LPD*%
G01*
G04 APERTURE LIST*
%TA.AperFunction,Profile*%
%ADD10C,0.050000*%
%TD*%
G04 APERTURE END LIST*
D10*
X226656356Y-89466437D02*
G75*
G02*
X229090689Y-90210706I845044J-1589263D01*
G01*
X246847398Y-91868472D02*
X247995730Y-91258521D01*
X82967782Y-94583661D02*
G75*
G02*
X83712067Y-97018030I-845082J-1589339D01*
G01*
X82967782Y-94583661D02*
X73343644Y-89466437D01*
X92612102Y-39382254D02*
G75*
G02*
X95046447Y-38638002I1589298J-845046D01*
G01*
X256796395Y-53281116D02*
G75*
G02*
X254362064Y-52536846I-844995J1589416D01*
G01*
X210789699Y-141846110D02*
X209897718Y-140168517D01*
X273375583Y-88296254D02*
G75*
G02*
X272838071Y-90054423I-1147783J-610346D01*
G01*
X234236845Y-49193739D02*
G75*
G02*
X231802483Y-48449487I-845045J1589339D01*
G01*
X187824336Y-47745682D02*
X204953550Y-38637994D01*
X69403200Y-127124196D02*
G75*
G02*
X68658937Y-124689838I845000J1589296D01*
G01*
X81834160Y-100549799D02*
X83712042Y-97018017D01*
X45637954Y-52536856D02*
X50614355Y-43177605D01*
X158500000Y-57550000D02*
X158500000Y-60450000D01*
X112175665Y-47745682D02*
G75*
G02*
X112919931Y-50180041I-845065J-1589318D01*
G01*
X211527341Y-112347278D02*
G75*
G02*
X209093001Y-111603002I-845041J1589278D01*
G01*
X185322890Y-157425668D02*
X210045423Y-144280464D01*
X185322890Y-157425668D02*
G75*
G02*
X182888615Y-156681359I-844990J1589268D01*
G01*
X166200000Y-62250000D02*
G75*
G02*
X168000000Y-64050000I0J-1800000D01*
G01*
X173290076Y-77068862D02*
G75*
G02*
X167999965Y-73890239I-1690076J3178662D01*
G01*
X185557586Y-56049791D02*
G75*
G02*
X184813339Y-58484164I-1589486J-845009D01*
G01*
X141500000Y-60450000D02*
G75*
G02*
X139700000Y-62250000I-1800000J0D01*
G01*
X124407364Y-65425327D02*
X120933423Y-71958861D01*
X222702897Y-108443846D02*
X231341058Y-124689862D01*
X91054732Y-107491052D02*
G75*
G02*
X91798967Y-109925384I-844932J-1589248D01*
G01*
X89954578Y-144280443D02*
G75*
G02*
X89210299Y-141846087I845122J1589343D01*
G01*
X179066577Y-71958861D02*
G75*
G02*
X178322298Y-74393199I-1589277J-845039D01*
G01*
X218165840Y-100549799D02*
G75*
G02*
X217421573Y-102984149I-1589440J-845001D01*
G01*
X211527341Y-112347278D02*
X220268545Y-107699556D01*
X176351226Y-62983488D02*
X184813327Y-58484146D01*
X217032218Y-94583661D02*
X226656356Y-89466437D01*
X13118743Y-79189859D02*
G75*
G02*
X12374461Y-76755494I845157J1589359D01*
G01*
X70909292Y-90210696D02*
G75*
G02*
X73343654Y-89466418I1589308J-845004D01*
G01*
X73549485Y-38383880D02*
X68197510Y-48449483D01*
X123648871Y-62983540D02*
X115186674Y-58484146D01*
X208201001Y-109925401D02*
G75*
G02*
X208945295Y-107491103I1589299J845001D01*
G01*
X24681352Y-49775188D02*
G75*
G02*
X25425618Y-52209540I-845052J-1589312D01*
G01*
X88472659Y-112347278D02*
X79731455Y-107699556D01*
X256796395Y-53281116D02*
X272866056Y-44736762D01*
X132000000Y-73890239D02*
G75*
G02*
X126709940Y-77068831I-3600000J39D01*
G01*
X113429449Y-53055867D02*
X113870923Y-53290603D01*
X66409264Y-94839933D02*
X58021262Y-90379953D01*
X126709924Y-77068862D02*
X121677690Y-74393221D01*
X210641993Y-137734376D02*
X230596801Y-127124217D01*
X208945268Y-107491052D02*
X217421577Y-102984157D01*
X253715969Y-98183096D02*
X250430000Y-92002781D01*
X150000000Y-55750000D02*
X156700000Y-55750000D01*
X132000000Y-64050000D02*
G75*
G02*
X133800000Y-62250000I1800000J0D01*
G01*
X276239346Y-47246894D02*
G75*
G02*
X275495068Y-49681213I-1589346J-845006D01*
G01*
X124492453Y-142799591D02*
G75*
G02*
X140385552Y-133250002I15893097J-8450409D01*
G01*
X156700000Y-55750000D02*
G75*
G02*
X158500000Y-57550000I0J-1800000D01*
G01*
X68197510Y-48449483D02*
G75*
G02*
X65763159Y-49193732I-1589310J845083D01*
G01*
X77297103Y-108443825D02*
G75*
G02*
X79731440Y-107699584I1589297J-845075D01*
G01*
X27161940Y-90054401D02*
G75*
G02*
X26624392Y-88296241I610460J1147901D01*
G01*
X272866056Y-44736762D02*
G75*
G02*
X275300418Y-45481018I845044J-1589338D01*
G01*
X241978738Y-90379952D02*
G75*
G02*
X244413041Y-91124237I844962J-1589448D01*
G01*
X175592636Y-65425327D02*
X179066577Y-71958861D01*
X89358008Y-137734355D02*
X69403200Y-127124196D01*
X231156387Y-94095674D02*
X229090708Y-90210696D01*
X273187799Y-87943083D02*
G75*
G02*
X273725346Y-86184983I1147801J610283D01*
G01*
X246951290Y-42433349D02*
G75*
G02*
X249385614Y-43177621I845010J-1589351D01*
G01*
X254362070Y-52536856D02*
X249385645Y-43177605D01*
X77297104Y-108443825D02*
X68658943Y-124689841D01*
X141500000Y-57550000D02*
G75*
G02*
X143300000Y-55750000I1800000J0D01*
G01*
X55586913Y-91124213D02*
G75*
G02*
X58021223Y-90380026I1589287J-845187D01*
G01*
X207387898Y-39382254D02*
X209485424Y-43327102D01*
X185384821Y-55724866D02*
X185557586Y-56049791D01*
X24699462Y-45481024D02*
G75*
G02*
X27133826Y-44736735I1589338J-845076D01*
G01*
X187314809Y-50621514D02*
G75*
G02*
X186570532Y-53055831I-1589409J-844986D01*
G01*
X218165840Y-100549799D02*
X216287958Y-97018017D01*
X12374347Y-76755504D02*
X25425614Y-52209538D01*
X53152602Y-91868473D02*
X52004270Y-91258522D01*
X187080073Y-50180040D02*
G75*
G02*
X187824338Y-47745685I1589327J845040D01*
G01*
X117111455Y-156681396D02*
G75*
G02*
X114677117Y-157425655I-1589255J844896D01*
G01*
X157500000Y-112250000D02*
G75*
G02*
X158000000Y-112750000I0J-500000D01*
G01*
X26274679Y-86184936D02*
G75*
G02*
X26812166Y-87943064I-610179J-1147764D01*
G01*
X73549485Y-38383880D02*
G75*
G02*
X75983851Y-37639602I1589315J-845020D01*
G01*
X121677690Y-74393221D02*
G75*
G02*
X120933401Y-71958849I845010J1589321D01*
G01*
X224016160Y-37639623D02*
G75*
G02*
X226450494Y-38383891I845040J-1589277D01*
G01*
X55586913Y-91124213D02*
G75*
G02*
X53152572Y-91868458I-1589313J845113D01*
G01*
X91054732Y-107491052D02*
X82578423Y-102984157D01*
X141500000Y-57550000D02*
X141500000Y-60450000D01*
X182888545Y-156681396D02*
X175507547Y-142799591D01*
X150000000Y-55750000D02*
X143300000Y-55750000D01*
X90907011Y-111603009D02*
G75*
G02*
X88472652Y-112347290I-1589311J845009D01*
G01*
X142500000Y-113250000D02*
G75*
G02*
X142000000Y-112750000I0J500000D01*
G01*
X112175665Y-47745682D02*
X95046451Y-38637994D01*
X211919779Y-44071383D02*
X224016160Y-37639623D01*
X113429449Y-53055869D02*
G75*
G02*
X112685154Y-50621494I845151J1589369D01*
G01*
X92612102Y-39382254D02*
X90514576Y-43327127D01*
X160300000Y-62250000D02*
G75*
G02*
X158500000Y-60450000I0J1800000D01*
G01*
X185384821Y-55724958D02*
G75*
G02*
X186129102Y-53290649I1589479J844958D01*
G01*
X168000000Y-73890239D02*
X168000000Y-64050000D01*
X276239346Y-47246894D02*
X275300406Y-45480997D01*
X166200000Y-62250000D02*
X160300000Y-62250000D01*
X132000000Y-73890239D02*
X132000000Y-64050000D01*
X89358008Y-137734142D02*
G75*
G02*
X90102227Y-140168466I-845008J-1589258D01*
G01*
X209897718Y-140168517D02*
G75*
G02*
X210642014Y-137734202I1589282J845017D01*
G01*
X142503315Y-113257286D02*
X157496359Y-113257286D01*
X220268545Y-107699556D02*
G75*
G02*
X222702889Y-108443829I845055J-1589244D01*
G01*
X23760522Y-47246894D02*
X24699462Y-45480997D01*
X24504784Y-49681203D02*
X24681368Y-49775188D01*
X43203473Y-53281116D02*
X27133812Y-44736762D01*
X287625521Y-76755504D02*
X274574254Y-52209538D01*
X256150318Y-98927357D02*
X272838060Y-90054401D01*
X112919928Y-50180040D02*
X112685192Y-50621514D01*
X68843613Y-94095674D02*
X70909292Y-90210696D01*
X89210302Y-141846089D02*
X90102283Y-140168496D01*
X82578423Y-102984157D02*
G75*
G02*
X81834198Y-100549819I844977J1589257D01*
G01*
X273187799Y-87943083D02*
X273375583Y-88296254D01*
X233590736Y-94839932D02*
X241978738Y-90379952D01*
X90514576Y-43327127D02*
G75*
G02*
X88080235Y-44071356I-1589276J845027D01*
G01*
X133800000Y-62250000D02*
X139700000Y-62250000D01*
X186570552Y-53055867D02*
X186129078Y-53290603D01*
X26274679Y-86184936D02*
X13118743Y-79189859D01*
X46284031Y-98183097D02*
G75*
G02*
X43849675Y-98927369I-1589331J845097D01*
G01*
X46284031Y-98183097D02*
X49570000Y-92002782D01*
X210789699Y-141846110D02*
G75*
G02*
X210045452Y-144280519I-1589299J-845090D01*
G01*
X114677111Y-157425647D02*
X89954578Y-144280443D01*
X187080073Y-50180040D02*
X187314809Y-50621514D01*
X113870923Y-53290603D02*
G75*
G02*
X114615142Y-55724938I-845123J-1589297D01*
G01*
X204953549Y-38637994D02*
G75*
G02*
X207387906Y-39382250I845051J-1589306D01*
G01*
X246847436Y-91868472D02*
G75*
G02*
X244413036Y-91124239I-845036J1589472D01*
G01*
X247995651Y-91258521D02*
G75*
G02*
X250429950Y-92002808I844949J-1589479D01*
G01*
X234236845Y-49193739D02*
X246951290Y-42433349D01*
X50614355Y-43177605D02*
G75*
G02*
X53048746Y-42433282I1589345J-844995D01*
G01*
X123653630Y-62986024D02*
G75*
G02*
X124407363Y-65425326I-835530J-1594276D01*
G01*
X68843613Y-94095674D02*
G75*
G02*
X66409264Y-94839933I-1589313J845074D01*
G01*
X216287958Y-97018017D02*
G75*
G02*
X217032212Y-94583649I1589442J845017D01*
G01*
X175592636Y-65425327D02*
G75*
G02*
X176346369Y-62986023I1589264J845027D01*
G01*
X88080221Y-44071383D02*
X75983840Y-37639623D01*
X273725321Y-86184936D02*
X286881257Y-79189859D01*
X142000000Y-112750000D02*
G75*
G02*
X142506957Y-112249947I500100J0D01*
G01*
X159614448Y-133250000D02*
G75*
G02*
X175507548Y-142799590I2J-18000000D01*
G01*
X211919779Y-44071383D02*
G75*
G02*
X209485433Y-43327122I-845079J1589183D01*
G01*
X275495084Y-49681203D02*
X275318500Y-49775188D01*
X45637954Y-52536856D02*
G75*
G02*
X43203620Y-53281088I-1589254J844956D01*
G01*
X114615180Y-55724866D02*
X114442415Y-56049791D01*
X26812201Y-87943083D02*
X26624417Y-88296254D01*
X43849682Y-98927357D02*
X27161940Y-90054401D01*
X115186672Y-58484146D02*
G75*
G02*
X114442396Y-56049781I845128J1589346D01*
G01*
X274574254Y-52209538D02*
G75*
G02*
X275318512Y-49775181I1589346J845038D01*
G01*
X24504784Y-49681244D02*
G75*
G02*
X23760466Y-47246864I845016J1589344D01*
G01*
X256150318Y-98927357D02*
G75*
G02*
X253715981Y-98183090I-845018J1589357D01*
G01*
X159614450Y-133250000D02*
X140385550Y-133250000D01*
X226450000Y-38382965D02*
X231802490Y-48449483D01*
X65763155Y-49193739D02*
X53048710Y-42433349D01*
X173290076Y-77068862D02*
X178322310Y-74393221D01*
X209092989Y-111603009D02*
X208201001Y-109925401D01*
X231341058Y-124689862D02*
G75*
G02*
X230596785Y-127124186I-1589258J-845038D01*
G01*
X49570000Y-92002782D02*
G75*
G02*
X52004332Y-91258554I1589300J-845118D01*
G01*
X233590736Y-94839933D02*
G75*
G02*
X231156387Y-94095674I-845036J1589333D01*
G01*
X142506956Y-112250000D02*
X157500000Y-112250000D01*
X287625521Y-76755504D02*
G75*
G02*
X286881272Y-79189887I-1589221J-845096D01*
G01*
X158000000Y-112757333D02*
G75*
G02*
X157500000Y-113257300I-499900J-67D01*
G01*
X90907011Y-111603009D02*
X91798999Y-109925401D01*
X117111455Y-156681396D02*
X124492453Y-142799591D01*
M02*
