M48
; DRILL file {KiCad 9.0.2} date 2025-06-13T18:26:37+0100
; FORMAT={-:-/ absolute / metric / decimal}
; #@! TF.CreationDate,2025-06-13T18:26:37+01:00
; #@! TF.GenerationSoftware,Kicad,Pcbnew,9.0.2
; #@! TF.FileFunction,Plated,1,6,PTH
FMAT,2
METRIC
; #@! TA.AperFunction,Plated,PTH,ViaDrill
T1C0.300
; #@! TA.AperFunction,Plated,PTH,ViaDrill
T2C0.350
; #@! TA.AperFunction,Plated,PTH,ViaDrill
T3C0.400
; #@! TA.AperFunction,Plated,PTH,ComponentDrill
T4C1.100
; #@! TA.AperFunction,Plated,PTH,ComponentDrill
T5C1.500
; #@! TA.AperFunction,Plated,PTH,ComponentDrill
T6C1.900
; #@! TA.AperFunction,Plated,PTH,ComponentDrill
T7C2.000
; #@! TA.AperFunction,Plated,PTH,ComponentDrill
T8C2.200
; #@! TA.AperFunction,Plated,PTH,ComponentDrill
T9C3.000
; #@! TA.AperFunction,Plated,PTH,ComponentDrill
T10C3.050
; #@! TA.AperFunction,Plated,PTH,ComponentDrill
T11C3.200
; #@! TA.AperFunction,Plated,PTH,ComponentDrill
T12C5.000
%
G90
G05
T1
X13.771Y-76.719
X15.273Y-73.907
X15.842Y-77.084
X16.773Y-74.706
X17.267Y-70.155
X18.768Y-70.954
X20.718Y-63.666
X22.219Y-64.464
X22.713Y-59.913
X24.214Y-60.711
X25.25Y-47.8
X26.0Y-54.9
X26.9Y-46.15
X26.9Y-49.45
X28.55Y-47.8
X29.0Y-88.9
X30.0Y-86.4
X32.0Y-48.9
X36.322Y-67.57
X44.5Y-97.4
X52.0Y-88.95
X52.5Y-44.4
X53.65Y-87.3
X53.65Y-90.6
X55.3Y-88.95
X58.787Y-63.659
X67.0Y-93.4
X72.041Y-126.929
X74.5Y-117.9
X75.5Y-39.4
X79.0Y-109.9
X81.722Y-58.865
X83.5Y-101.9
X87.562Y-128.754
X89.633Y-129.119
X90.5Y-142.9
X92.75Y-112.0
X93.024Y-144.212
X93.356Y-135.528
X93.541Y-141.429
X93.966Y-134.38
X94.0Y-40.9
X94.4Y-110.35
X94.4Y-113.65
X95.5Y-108.9
X96.05Y-112.0
X97.486Y-141.997
X99.911Y-147.873
X101.371Y-60.252
X101.929Y-145.889
X108.276Y-123.949
X108.85Y-93.85
X109.95Y-55.4
X110.205Y-89.85
X111.0Y-49.4
X111.6Y-53.75
X111.6Y-57.05
X113.25Y-55.4
X113.509Y-75.766
X115.5Y-155.9
X117.45Y-75.6
X118.35Y-106.55
X119.891Y-136.184
X121.352Y-137.697
X123.0Y-64.9
X124.237Y-93.929
X124.957Y-108.978
X126.469Y-107.517
X126.567Y-122.681
X128.0Y-136.4
X128.638Y-123.046
X131.2Y-125.25
X131.5Y-133.9
X133.3Y-123.65
X134.525Y-119.9
X139.5Y-94.2
X141.15Y-91.5
X141.15Y-92.3
X141.15Y-93.1
X141.15Y-93.9
X141.25Y-111.9
X141.25Y-113.65
X143.0Y-103.4
X143.25Y-111.15
X143.25Y-114.15
X144.5Y-98.0
X144.55Y-100.35
X144.925Y-120.05
X145.5Y-68.4
X145.5Y-111.15
X145.5Y-114.15
X145.9Y-87.4
X146.85Y-82.5
X146.85Y-87.4
X147.0Y-132.4
X147.65Y-87.4
X147.7Y-57.75
X147.75Y-111.15
X147.75Y-114.15
X148.45Y-87.4
X148.5Y-127.3
X148.8Y-116.15
X148.8Y-117.85
X149.25Y-87.4
X149.5Y-127.3
X149.6Y-100.85
X149.6Y-116.15
X149.6Y-117.85
X150.0Y-111.15
X150.0Y-114.15
X150.4Y-116.15
X150.4Y-117.85
X150.45Y-100.85
X150.5Y-127.3
X150.75Y-82.5
X150.75Y-87.4
X151.2Y-116.15
X151.2Y-117.85
X151.5Y-127.3
X151.55Y-87.4
X152.25Y-111.15
X152.25Y-114.15
X152.3Y-57.75
X152.35Y-87.4
X153.0Y-132.4
X154.0Y-68.4
X154.5Y-111.15
X154.5Y-114.15
X155.05Y-100.55
X155.55Y-101.15
X156.5Y-101.15
X156.75Y-111.15
X156.75Y-114.15
X156.95Y-100.55
X157.0Y-103.4
X157.425Y-130.0
X157.975Y-126.6
X158.75Y-111.9
X158.75Y-113.65
X158.85Y-91.5
X158.85Y-92.3
X158.85Y-93.1
X158.85Y-93.9
X161.725Y-121.7
X163.85Y-107.65
X163.85Y-109.35
X163.9Y-111.7
X164.4Y-103.1
X164.65Y-107.65
X164.65Y-109.35
X167.6Y-101.2
X170.0Y-78.4
X171.0Y-134.9
X172.375Y-117.025
X173.531Y-107.517
X175.043Y-108.978
X176.575Y-116.1
X177.0Y-64.9
X178.275Y-119.225
X182.333Y-117.931
X184.45Y-92.65
X184.6Y-117.0
X185.671Y-88.661
X186.486Y-132.794
X186.75Y-55.4
X188.4Y-53.75
X188.4Y-57.05
X188.5Y-49.4
X188.557Y-132.429
X190.05Y-55.4
X191.95Y-96.25
X195.85Y-103.95
X196.4Y-70.498
X198.071Y-145.889
X198.075Y-98.25
X200.089Y-147.873
X200.6Y-84.55
X200.749Y-142.936
X201.633Y-118.681
X201.75Y-86.55
X203.95Y-112.0
X205.5Y-40.4
X205.6Y-110.35
X205.6Y-113.65
X206.034Y-134.38
X206.339Y-134.954
X206.459Y-141.429
X206.644Y-135.528
X206.976Y-144.212
X207.25Y-112.0
X208.537Y-54.984
X209.5Y-142.4
X222.249Y-128.436
X223.817Y-122.119
X225.0Y-38.9
X225.888Y-121.754
X227.959Y-126.929
X228.186Y-53.597
X244.7Y-88.95
X246.35Y-87.3
X246.35Y-90.6
X248.0Y-43.9
X248.0Y-88.95
X251.121Y-58.39
X253.0Y-53.4
X271.45Y-47.8
X273.1Y-46.15
X273.1Y-49.45
X273.587Y-62.301
X274.5Y-56.4
X274.75Y-47.8
X275.786Y-60.711
X277.287Y-59.913
X277.781Y-64.464
X279.282Y-63.666
X279.575Y-73.975
X281.232Y-70.954
X282.733Y-70.155
X283.227Y-74.706
X284.158Y-77.084
X284.728Y-73.908
X286.229Y-76.719
T2
X151.0Y-61.625
X151.0Y-63.075
X151.625Y-62.35
T3
X39.077Y-69.195
X40.146Y-67.186
X94.577Y-119.195
X95.646Y-117.186
X133.0Y-65.925
X133.0Y-130.0
X133.8Y-64.225
X133.8Y-67.625
X133.8Y-128.3
X133.8Y-131.7
X135.5Y-63.425
X135.5Y-68.425
X135.5Y-127.5
X135.5Y-132.5
X137.2Y-64.225
X137.2Y-67.625
X137.2Y-128.3
X137.2Y-131.7
X138.0Y-65.925
X138.0Y-130.0
X142.65Y-97.6
X143.45Y-97.15
X143.45Y-98.1
X143.45Y-100.25
X145.45Y-61.9
X150.0Y-63.9
X150.0Y-125.7
X162.0Y-65.925
X162.0Y-130.0
X162.8Y-64.225
X162.8Y-67.625
X162.8Y-128.3
X162.8Y-131.7
X164.5Y-63.425
X164.5Y-68.425
X164.5Y-127.5
X164.5Y-132.5
X165.95Y-103.4
X166.2Y-64.225
X166.2Y-67.625
X166.2Y-128.3
X166.2Y-131.7
X166.8Y-103.0
X166.8Y-103.85
X167.0Y-65.925
X167.0Y-130.0
X169.245Y-103.75
X169.245Y-106.05
X169.795Y-104.35
X169.795Y-105.4
X204.354Y-117.186
X205.423Y-119.195
X259.854Y-67.186
X260.923Y-69.195
T4
X118.754Y-114.636
X119.928Y-112.429
X121.102Y-110.222
X131.557Y-121.444
X133.904Y-117.029
X166.096Y-117.029
X168.443Y-121.444
X178.898Y-110.222
X180.072Y-112.429
X181.246Y-114.636
T6
X21.309Y-72.136
X29.29Y-57.126
X31.022Y-77.301
X35.794Y-83.236
X39.003Y-62.29
X43.775Y-68.226
X45.506Y-88.4
X51.756Y-53.215
X53.487Y-73.39
X58.729Y-78.442
X61.469Y-58.38
X66.71Y-63.432
X68.442Y-83.606
X74.691Y-48.422
X76.423Y-68.596
X77.84Y-119.182
X78.378Y-79.829
X84.404Y-53.586
X86.359Y-64.819
X87.552Y-124.347
X88.09Y-84.993
X90.515Y-95.343
X93.263Y-128.516
X94.34Y-49.809
X96.071Y-69.983
X98.496Y-80.333
X100.228Y-100.507
X101.244Y-113.506
X102.976Y-133.68
X104.052Y-54.973
X106.34Y-142.264
X106.477Y-65.323
X108.209Y-85.497
X109.225Y-98.496
X110.957Y-118.67
X114.321Y-127.254
X116.052Y-147.428
X116.19Y-70.487
X117.206Y-83.486
X118.938Y-103.66
X124.033Y-132.418
X126.919Y-88.65
X173.081Y-88.65
X175.967Y-132.418
X181.062Y-103.66
X182.794Y-83.486
X183.81Y-70.487
X183.948Y-147.428
X185.679Y-127.254
X189.043Y-118.67
X190.775Y-98.496
X191.791Y-85.497
X193.523Y-65.323
X193.66Y-142.264
X195.948Y-54.973
X197.024Y-133.68
X198.756Y-113.506
X199.772Y-100.507
X201.504Y-80.333
X203.929Y-69.983
X205.66Y-49.809
X206.737Y-128.516
X209.485Y-95.343
X211.91Y-84.993
X212.448Y-124.347
X213.641Y-64.819
X215.596Y-53.586
X221.622Y-79.829
X222.16Y-119.182
X223.577Y-68.596
X225.309Y-48.422
X231.558Y-83.606
X233.29Y-63.432
X238.532Y-58.38
X241.271Y-78.442
X246.513Y-73.39
X248.244Y-53.216
X254.494Y-88.4
X256.225Y-68.226
X260.997Y-62.291
X264.206Y-83.236
X268.978Y-77.301
X270.71Y-57.126
X278.691Y-72.136
T8
X26.9Y-47.8
X53.65Y-88.95
X94.4Y-112.0
X111.6Y-55.4
X188.4Y-55.4
X205.6Y-112.0
X246.35Y-88.95
X273.1Y-47.8
T9
X28.936Y-69.509
X36.917Y-54.499
X43.42Y-80.608
X51.401Y-65.598
X59.382Y-50.588
X66.355Y-75.815
X74.336Y-60.805
X82.317Y-45.794
X85.466Y-116.555
X86.004Y-77.202
X93.985Y-62.191
X98.141Y-92.716
X100.889Y-125.889
X101.966Y-47.181
X106.122Y-77.706
X108.871Y-110.878
X113.966Y-139.637
X114.103Y-62.695
X116.851Y-95.868
X121.947Y-124.627
X124.832Y-80.858
X175.168Y-80.858
X178.053Y-124.627
X183.149Y-95.869
X185.897Y-62.696
X186.034Y-139.637
X191.13Y-110.878
X193.878Y-77.706
X198.034Y-47.181
X199.111Y-125.888
X201.859Y-92.716
X206.015Y-62.192
X213.996Y-77.202
X214.534Y-116.555
X217.683Y-45.795
X225.664Y-60.805
X233.645Y-75.815
X240.618Y-50.588
X248.599Y-65.598
X256.58Y-80.609
X263.084Y-54.499
X271.065Y-69.509
T10
X32.364Y-73.711
X40.345Y-58.701
X46.849Y-84.81
X54.83Y-69.8
X62.811Y-54.79
X69.784Y-80.016
X77.765Y-65.006
X85.746Y-49.996
X88.895Y-120.757
X89.433Y-81.403
X97.414Y-66.393
X101.57Y-96.917
X104.318Y-130.09
X105.395Y-51.383
X109.551Y-81.907
X112.299Y-115.08
X117.395Y-143.838
X117.532Y-66.897
X120.28Y-100.07
X125.376Y-128.828
X128.261Y-85.06
X180.568Y-80.365
X183.454Y-124.133
X188.549Y-95.375
X191.297Y-62.202
X191.435Y-139.143
X196.53Y-110.385
X199.278Y-77.213
X203.435Y-46.688
X204.511Y-125.395
X207.259Y-92.223
X211.416Y-61.698
X219.397Y-76.709
X219.935Y-116.062
X223.083Y-45.301
X231.064Y-60.312
X239.045Y-75.322
X246.019Y-50.095
X254.0Y-65.105
X261.981Y-80.115
X268.484Y-54.006
X276.465Y-69.016
T11
X135.5Y-65.925
X135.5Y-130.0
X164.5Y-65.925
X164.5Y-130.0
T12
X26.166Y-74.718
X34.147Y-59.708
X40.65Y-85.818
X48.631Y-70.808
X56.612Y-55.798
X63.585Y-81.024
X71.566Y-66.014
X79.547Y-51.004
X82.696Y-121.765
X83.234Y-82.411
X91.215Y-67.401
X95.372Y-97.925
X98.12Y-131.098
X99.196Y-52.391
X103.353Y-82.915
X106.101Y-116.088
X111.196Y-144.846
X111.334Y-67.905
X114.081Y-101.078
X119.177Y-129.836
X122.062Y-86.068
X177.938Y-86.068
X180.823Y-129.836
X185.919Y-101.078
X188.667Y-67.905
X188.804Y-144.846
X193.899Y-116.088
X196.648Y-82.915
X200.804Y-52.391
X201.88Y-131.098
X204.629Y-97.925
X208.785Y-67.401
X216.766Y-82.411
X217.304Y-121.764
X220.453Y-51.004
X228.434Y-66.014
X236.415Y-81.024
X243.388Y-55.798
X251.369Y-70.808
X259.35Y-85.818
X265.853Y-59.708
X273.834Y-74.719
T5
X19.45Y-76.698G85X19.216Y-77.139
G05
X27.431Y-61.687G85X27.197Y-62.129
G05
X33.935Y-87.797G85X33.7Y-88.238
G05
X41.916Y-72.787G85X41.681Y-73.228
G05
X49.897Y-57.777G85X49.662Y-58.218
G05
X56.87Y-83.003G85X56.636Y-83.445
G05
X64.851Y-67.993G85X64.617Y-68.435
G05
X72.832Y-52.983G85X72.598Y-53.424
G05
X75.981Y-123.744G85X75.746Y-124.185
G05
X76.519Y-84.39G85X76.284Y-84.832
G05
X84.5Y-69.38G85X84.265Y-69.821
G05
X88.656Y-99.904G85X88.422Y-100.346
G05
X91.404Y-133.077G85X91.17Y-133.519
G05
X92.481Y-54.37G85X92.246Y-54.811
G05
X96.637Y-84.894G85X96.403Y-85.335
G05
X99.385Y-118.067G85X99.151Y-118.508
G05
X104.481Y-146.825G85X104.246Y-147.267
G05
X104.618Y-69.884G85X104.384Y-70.325
G05
X107.366Y-103.057G85X107.132Y-103.498
G05
X112.462Y-131.815G85X112.227Y-132.257
G05
X115.347Y-88.047G85X115.113Y-88.488
G05
X175.823Y-92.742G85X176.058Y-93.183
G05
X178.709Y-136.51G85X178.944Y-136.951
G05
X183.804Y-107.752G85X184.039Y-108.193
G05
X186.552Y-74.579G85X186.787Y-75.02
G05
X186.69Y-151.52G85X186.925Y-151.961
G05
X191.785Y-122.762G85X192.02Y-123.203
G05
X194.533Y-89.589G85X194.768Y-90.03
G05
X198.689Y-59.065G85X198.924Y-59.506
G05
X199.766Y-137.772G85X200.001Y-138.213
G05
X202.514Y-104.599G85X202.749Y-105.04
G05
X206.671Y-74.075G85X206.905Y-74.516
G05
X214.652Y-89.085G85X214.886Y-89.526
G05
X215.19Y-128.438G85X215.424Y-128.88
G05
X218.338Y-57.678G85X218.573Y-58.119
G05
X226.319Y-72.688G85X226.554Y-73.129
G05
X234.3Y-87.698G85X234.535Y-88.139
G05
X241.273Y-62.472G85X241.508Y-62.913
G05
X249.254Y-77.482G85X249.489Y-77.923
G05
X257.235Y-92.492G85X257.47Y-92.933
G05
X263.739Y-66.382G85X263.974Y-66.824
G05
X271.72Y-81.392G85X271.955Y-81.834
G05
T7
X124.098Y-120.988G85X123.744Y-120.801
G05
X129.356Y-111.099G85X129.002Y-110.912
G05
X170.644Y-111.099G85X170.998Y-110.912
G05
X175.902Y-120.988G85X176.256Y-120.801
G05
M30
