%TF.GenerationSoftware,KiCad,Pcbnew,8.0.8*%
%TF.CreationDate,2025-01-20T17:58:04+01:00*%
%TF.ProjectId,____,e4e8e4e8-2e6b-4696-9361-645f70636258,2.0*%
%TF.SameCoordinates,Original*%
%TF.FileFunction,Paste,Top*%
%TF.FilePolarity,Positive*%
%FSLAX46Y46*%
G04 Gerber Fmt 4.6, Leading zero omitted, Abs format (unit mm)*
G04 Created by KiCad (PCBNEW 8.0.8) date 2025-01-20 17:58:04*
%MOMM*%
%LPD*%
G01*
G04 APERTURE LIST*
G04 Aperture macros list*
%AMRoundRect*
0 Rectangle with rounded corners*
0 $1 Rounding radius*
0 $2 $3 $4 $5 $6 $7 $8 $9 X,Y pos of 4 corners*
0 Add a 4 corners polygon primitive as box body*
4,1,4,$2,$3,$4,$5,$6,$7,$8,$9,$2,$3,0*
0 Add four circle primitives for the rounded corners*
1,1,$1+$1,$2,$3*
1,1,$1+$1,$4,$5*
1,1,$1+$1,$6,$7*
1,1,$1+$1,$8,$9*
0 Add four rect primitives between the rounded corners*
20,1,$1+$1,$2,$3,$4,$5,0*
20,1,$1+$1,$4,$5,$6,$7,0*
20,1,$1+$1,$6,$7,$8,$9,0*
20,1,$1+$1,$8,$9,$2,$3,0*%
G04 Aperture macros list end*
%ADD10RoundRect,0.150000X0.150000X0.625000X-0.150000X0.625000X-0.150000X-0.625000X0.150000X-0.625000X0*%
%ADD11RoundRect,0.250000X0.350000X0.650000X-0.350000X0.650000X-0.350000X-0.650000X0.350000X-0.650000X0*%
%ADD12RoundRect,0.150000X-0.150000X-0.625000X0.150000X-0.625000X0.150000X0.625000X-0.150000X0.625000X0*%
%ADD13RoundRect,0.250000X-0.350000X-0.650000X0.350000X-0.650000X0.350000X0.650000X-0.350000X0.650000X0*%
%ADD14RoundRect,0.250000X0.350000X0.600000X-0.350000X0.600000X-0.350000X-0.600000X0.350000X-0.600000X0*%
%ADD15RoundRect,0.125000X0.125000X0.375000X-0.125000X0.375000X-0.125000X-0.375000X0.125000X-0.375000X0*%
%ADD16R,0.300000X1.300000*%
%ADD17R,1.800000X2.200000*%
G04 APERTURE END LIST*
D10*
%TO.C,J7*%
X158730000Y-127055000D03*
X157730000Y-127055000D03*
X156730000Y-127055000D03*
D11*
X160030000Y-129580000D03*
X155430000Y-129580000D03*
%TD*%
D12*
%TO.C,J5*%
X148500000Y-124200000D03*
X149500000Y-124200000D03*
X150500000Y-124200000D03*
X151500000Y-124200000D03*
D13*
X147200000Y-128075000D03*
X152800000Y-128075000D03*
%TD*%
D14*
%TO.C,J6*%
X140780000Y-126560000D03*
X144180000Y-126560000D03*
D15*
X142080000Y-128510000D03*
X142880000Y-128510000D03*
%TD*%
D16*
%TO.C,J2*%
X144750000Y-107540000D03*
X145250000Y-107540000D03*
X145750000Y-107540000D03*
X146250000Y-107540000D03*
X146750000Y-107540000D03*
X147250000Y-107540000D03*
X147750000Y-107540000D03*
X148250000Y-107540000D03*
X148750000Y-107540000D03*
X149250000Y-107540000D03*
X149750000Y-107540000D03*
X150250000Y-107540000D03*
X150750000Y-107540000D03*
X151250000Y-107540000D03*
X151750000Y-107540000D03*
X152250000Y-107540000D03*
X152750000Y-107540000D03*
X153250000Y-107540000D03*
X153750000Y-107540000D03*
X154250000Y-107540000D03*
X154750000Y-107540000D03*
X155250000Y-107540000D03*
D17*
X142850000Y-110790000D03*
X157150000Y-110790000D03*
%TD*%
D10*
%TO.C,J1*%
X151020000Y-71865000D03*
X150020000Y-71865000D03*
X149020000Y-71865000D03*
D11*
X152320000Y-74390000D03*
X147720000Y-74390000D03*
%TD*%
M02*
