%TF.GenerationSoftware,KiCad,Pcbnew,8.0.8*%
%TF.CreationDate,2025-01-20T03:09:02+01:00*%
%TF.ProjectId,____,e4e8e4e8-2e6b-4696-9361-645f70636258,2.0*%
%TF.SameCoordinates,Original*%
%TF.FileFunction,Drillmap*%
%TF.FilePolarity,Positive*%
%FSLAX45Y45*%
G04 Gerber Fmt 4.5, Leading zero omitted, Abs format (unit mm)*
G04 Created by KiCad (PCBNEW 8.0.8) date 2025-01-20 03:09:02*
%MOMM*%
%LPD*%
G01*
G04 APERTURE LIST*
%ADD10C,0.071437*%
%ADD11C,0.100000*%
%ADD12C,0.200000*%
%ADD13C,0.190000*%
%ADD14C,0.505000*%
G04 APERTURE END LIST*
D10*
X22891792Y-3620504D02*
X23918704Y-3730248D01*
X24879408Y-3921144D01*
X25760209Y-4172862D01*
X26547412Y-4465070D01*
X27227321Y-4777438D01*
X27786241Y-5089634D01*
X28210476Y-5381327D01*
X28486332Y-5632187D01*
X28564338Y-5735950D01*
X28600113Y-5821881D01*
X28645790Y-6140576D01*
X28664133Y-6449713D01*
X28656370Y-6749119D01*
X28623731Y-7038621D01*
X28567445Y-7318045D01*
X28488740Y-7587218D01*
X28388846Y-7845967D01*
X28268991Y-8094118D01*
X28130406Y-8331498D01*
X27974318Y-8557934D01*
X27801957Y-8773252D01*
X27614553Y-8977279D01*
X27413333Y-9169842D01*
X27199528Y-9350768D01*
X26974366Y-9519882D01*
X26739076Y-9677012D01*
X26494888Y-9821985D01*
X26243030Y-9954627D01*
X25984732Y-10074765D01*
X25721222Y-10182225D01*
X25453730Y-10276834D01*
X25183485Y-10358419D01*
X24911715Y-10426807D01*
X24639651Y-10481824D01*
X24368520Y-10523296D01*
X24099552Y-10551052D01*
X23833977Y-10564916D01*
X23573022Y-10564717D01*
X23317918Y-10550279D01*
X23069893Y-10521432D01*
X22830176Y-10478000D01*
X22599997Y-10419811D01*
X22763627Y-10689878D01*
X22881298Y-10956117D01*
X22955682Y-11218219D01*
X22989453Y-11475871D01*
X22985285Y-11728762D01*
X22945850Y-11976581D01*
X22873823Y-12219017D01*
X22771876Y-12455758D01*
X22642683Y-12686493D01*
X22488916Y-12910911D01*
X22313251Y-13128700D01*
X22118359Y-13339549D01*
X21906915Y-13543148D01*
X21681591Y-13739184D01*
X21199998Y-14107324D01*
X20694967Y-14441480D01*
X20187886Y-14739161D01*
X19700140Y-14997876D01*
X19253117Y-15215137D01*
X18566787Y-15515332D01*
X18299989Y-15619824D01*
X18196582Y-15465347D01*
X18092644Y-15320337D01*
X17988230Y-15184298D01*
X17883394Y-15056738D01*
X17778192Y-14937161D01*
X17672678Y-14825073D01*
X17566908Y-14719979D01*
X17460936Y-14621386D01*
X17248608Y-14441723D01*
X17036133Y-14282128D01*
X16823950Y-14138647D01*
X16612500Y-14007324D01*
X15782811Y-13524514D01*
X15581614Y-13394657D01*
X15383787Y-13253227D01*
X15189769Y-13096271D01*
X15094326Y-13010734D01*
X15000000Y-12919832D01*
X14905674Y-13010734D01*
X14810231Y-13096271D01*
X14616213Y-13253227D01*
X14418386Y-13394657D01*
X14217189Y-13524514D01*
X13387500Y-14007324D01*
X13176050Y-14138647D01*
X12963868Y-14282128D01*
X12751392Y-14441723D01*
X12539064Y-14621386D01*
X12433092Y-14719979D01*
X12327322Y-14825073D01*
X12221809Y-14937161D01*
X12116607Y-15056738D01*
X12011771Y-15184298D01*
X11907356Y-15320337D01*
X11803418Y-15465347D01*
X11700011Y-15619824D01*
X11433214Y-15515332D01*
X10746884Y-15215137D01*
X10299861Y-14997876D01*
X9812115Y-14739161D01*
X9305034Y-14441480D01*
X8800003Y-14107324D01*
X8318410Y-13739184D01*
X8093086Y-13543148D01*
X7881641Y-13339549D01*
X7686749Y-13128700D01*
X7511084Y-12910911D01*
X7357318Y-12686493D01*
X7228124Y-12455758D01*
X7126177Y-12219017D01*
X7054150Y-11976581D01*
X7014715Y-11728762D01*
X7010547Y-11475871D01*
X7044318Y-11218219D01*
X7118702Y-10956117D01*
X7236373Y-10689878D01*
X7400003Y-10419811D01*
X7169824Y-10478000D01*
X6930109Y-10521432D01*
X6682085Y-10550279D01*
X6426984Y-10564717D01*
X6166032Y-10564916D01*
X5900460Y-10551052D01*
X5631496Y-10523296D01*
X5360370Y-10481824D01*
X4816546Y-10358419D01*
X4278819Y-10182225D01*
X4015315Y-10074765D01*
X3757022Y-9954627D01*
X3505170Y-9821985D01*
X3260987Y-9677012D01*
X3025703Y-9519882D01*
X2800547Y-9350768D01*
X2586747Y-9169842D01*
X2385532Y-8977279D01*
X2198132Y-8773252D01*
X2025776Y-8557934D01*
X1869692Y-8331498D01*
X1731110Y-8094118D01*
X1611259Y-7845967D01*
X1511367Y-7587218D01*
X1432664Y-7318045D01*
X1376379Y-7038621D01*
X1343740Y-6749119D01*
X1335977Y-6449713D01*
X1354319Y-6140576D01*
X1399994Y-5821881D01*
X1435755Y-5735950D01*
X1513748Y-5632187D01*
X1632260Y-5513132D01*
X1789581Y-5381327D01*
X2213798Y-5089634D01*
X2772703Y-4777438D01*
X3452600Y-4465070D01*
X3833641Y-4315175D01*
X4239794Y-4172862D01*
X4669348Y-4040671D01*
X5120590Y-3921144D01*
X5591808Y-3816822D01*
X6081290Y-3730248D01*
X6587325Y-3663961D01*
X7108200Y-3620504D01*
X7642204Y-3602418D01*
X8187624Y-3612244D01*
X8742749Y-3652524D01*
X9305867Y-3725798D01*
X9875265Y-3834610D01*
X10449231Y-3981499D01*
X11026055Y-4169007D01*
X11604022Y-4399676D01*
X12181423Y-4676047D01*
X12756545Y-5000661D01*
X13327675Y-5376059D01*
X13893103Y-5804784D01*
X14451115Y-6289376D01*
X15000000Y-6832378D01*
X15548885Y-6289376D01*
X16106897Y-5804784D01*
X16672324Y-5376059D01*
X17243453Y-5000661D01*
X17818574Y-4676047D01*
X18395974Y-4399676D01*
X18973941Y-4169007D01*
X19550763Y-3981499D01*
X20124729Y-3834610D01*
X20694127Y-3725798D01*
X21257243Y-3652524D01*
X21812368Y-3612244D01*
X22357788Y-3602418D01*
X22891792Y-3620504D01*
D11*
X6973433Y-6913145D02*
X7113725Y-6987739D01*
X6996895Y-6676132D02*
X6930903Y-6800247D01*
X7231105Y-6959867D02*
X7297097Y-6835753D01*
X7254567Y-6722855D02*
X7114275Y-6648261D01*
X6930902Y-6800247D02*
G75*
G02*
X6916351Y-6817073I-44172J23495D01*
G01*
X6947954Y-6907332D02*
G75*
G02*
X6973433Y-6913145I2007J-49957D01*
G01*
X6947954Y-6907332D02*
G75*
G02*
X6916352Y-6817073I-2006J49959D01*
G01*
X7002708Y-6654660D02*
G75*
G02*
X6996895Y-6676132I-49980J2007D01*
G01*
X7002708Y-6654660D02*
G75*
G02*
X7095208Y-6630387I49960J-2001D01*
G01*
X7113725Y-6987739D02*
G75*
G02*
X7132792Y-7005613I-23474J-44148D01*
G01*
X7114275Y-6648261D02*
G75*
G02*
X7095208Y-6630387I23473J44146D01*
G01*
X7225292Y-6981340D02*
G75*
G02*
X7132792Y-7005613I-49960J2001D01*
G01*
X7225292Y-6981340D02*
G75*
G02*
X7231105Y-6959867I49966J-2003D01*
G01*
X7280046Y-6728667D02*
G75*
G02*
X7254567Y-6722855I-2005J49965D01*
G01*
X7280046Y-6728667D02*
G75*
G02*
X7311648Y-6818927I2006J-49960D01*
G01*
X7297098Y-6835753D02*
G75*
G02*
X7311648Y-6818927I44144J-23471D01*
G01*
X19934510Y-5475905D02*
X20000503Y-5600020D01*
X20117332Y-5288413D02*
X19977041Y-5363007D01*
X20117882Y-5627891D02*
X20258174Y-5553297D01*
X20300705Y-5440399D02*
X20234712Y-5316285D01*
X19919959Y-5459079D02*
G75*
G02*
X19934510Y-5475905I-29596J-40299D01*
G01*
X19919959Y-5459079D02*
G75*
G02*
X19951561Y-5368820I29596J40300D01*
G01*
X19977041Y-5363007D02*
G75*
G02*
X19951561Y-5368820I-23474J44149D01*
G01*
X20000503Y-5600020D02*
G75*
G02*
X20006315Y-5621492I-44154J-23475D01*
G01*
X20098815Y-5645765D02*
G75*
G02*
X20006315Y-5621492I-42540J26274D01*
G01*
X20098815Y-5645765D02*
G75*
G02*
X20117882Y-5627891I42541J-26275D01*
G01*
X20136399Y-5270540D02*
G75*
G02*
X20117332Y-5288413I-42540J26274D01*
G01*
X20136399Y-5270540D02*
G75*
G02*
X20228899Y-5294812I42540J-26274D01*
G01*
X20234712Y-5316285D02*
G75*
G02*
X20228899Y-5294812I44189J23484D01*
G01*
X20258174Y-5553297D02*
G75*
G02*
X20283653Y-5547485I23474J-44148D01*
G01*
X20315256Y-5457225D02*
G75*
G02*
X20283653Y-5547485I-29596J-40300D01*
G01*
X20315256Y-5457225D02*
G75*
G02*
X20300704Y-5440400I29634J40336D01*
G01*
X10945433Y-7102145D02*
X11085725Y-7176739D01*
X10968895Y-6865133D02*
X10902903Y-6989247D01*
X11203104Y-7148867D02*
X11269097Y-7024753D01*
X11226567Y-6911855D02*
X11086275Y-6837261D01*
X10902903Y-6989247D02*
G75*
G02*
X10888351Y-7006073I-44145J23472D01*
G01*
X10919954Y-7096332D02*
G75*
G02*
X10888351Y-7006073I-2006J49960D01*
G01*
X10919954Y-7096332D02*
G75*
G02*
X10945433Y-7102145I2006J-49960D01*
G01*
X10974708Y-6843660D02*
G75*
G02*
X10968895Y-6865133I-49963J2002D01*
G01*
X10974708Y-6843660D02*
G75*
G02*
X11067208Y-6819387I49960J-2001D01*
G01*
X11085725Y-7176739D02*
G75*
G02*
X11104792Y-7194613I-23471J-44144D01*
G01*
X11086275Y-6837261D02*
G75*
G02*
X11067208Y-6819387I23474J44148D01*
G01*
X11197292Y-7170340D02*
G75*
G02*
X11104792Y-7194613I-49960J2001D01*
G01*
X11197292Y-7170340D02*
G75*
G02*
X11203104Y-7148867I49891J-1982D01*
G01*
X11252046Y-6917668D02*
G75*
G02*
X11226567Y-6911855I-2005J49962D01*
G01*
X11252046Y-6917668D02*
G75*
G02*
X11283648Y-7007926I2006J-49959D01*
G01*
X11269097Y-7024753D02*
G75*
G02*
X11283648Y-7007927I44175J-23497D01*
G01*
X10424433Y-11920145D02*
X10564725Y-11994739D01*
X10447895Y-11683133D02*
X10381903Y-11807247D01*
X10682105Y-11966867D02*
X10748097Y-11842753D01*
X10705567Y-11729855D02*
X10565275Y-11655261D01*
X10381903Y-11807247D02*
G75*
G02*
X10367351Y-11824073I-44145J23472D01*
G01*
X10398954Y-11914332D02*
G75*
G02*
X10367351Y-11824073I-2006J49960D01*
G01*
X10398954Y-11914332D02*
G75*
G02*
X10424433Y-11920145I2006J-49960D01*
G01*
X10453708Y-11661660D02*
G75*
G02*
X10447895Y-11683133I-49963J2002D01*
G01*
X10453708Y-11661660D02*
G75*
G02*
X10546208Y-11637387I49960J-2001D01*
G01*
X10564725Y-11994739D02*
G75*
G02*
X10583792Y-12012613I-23471J-44144D01*
G01*
X10565275Y-11655261D02*
G75*
G02*
X10546208Y-11637387I23474J44148D01*
G01*
X10676292Y-11988340D02*
G75*
G02*
X10583792Y-12012613I-49960J2001D01*
G01*
X10676292Y-11988340D02*
G75*
G02*
X10682104Y-11966867I49891J-1982D01*
G01*
X10731046Y-11735668D02*
G75*
G02*
X10705567Y-11729855I-2005J49962D01*
G01*
X10731046Y-11735668D02*
G75*
G02*
X10762648Y-11825926I2006J-49959D01*
G01*
X10748097Y-11842753D02*
G75*
G02*
X10762649Y-11825927I44175J-23497D01*
G01*
X19522716Y-8522043D02*
X19588709Y-8646157D01*
X19705539Y-8334551D02*
X19565247Y-8409145D01*
X19706088Y-8674029D02*
X19846380Y-8599435D01*
X19888911Y-8486537D02*
X19822918Y-8362422D01*
X19508165Y-8505217D02*
G75*
G02*
X19522716Y-8522043I-29612J-40313D01*
G01*
X19508165Y-8505217D02*
G75*
G02*
X19539767Y-8414957I29596J40300D01*
G01*
X19565247Y-8409145D02*
G75*
G02*
X19539767Y-8414957I-23473J44148D01*
G01*
X19588709Y-8646157D02*
G75*
G02*
X19594522Y-8667630I-44182J-23483D01*
G01*
X19687022Y-8691902D02*
G75*
G02*
X19594522Y-8667630I-42540J26274D01*
G01*
X19687022Y-8691903D02*
G75*
G02*
X19706088Y-8674029I42546J-26280D01*
G01*
X19724606Y-8316677D02*
G75*
G02*
X19705539Y-8334550I-42543J26277D01*
G01*
X19724606Y-8316677D02*
G75*
G02*
X19817106Y-8340950I42540J-26274D01*
G01*
X19822918Y-8362422D02*
G75*
G02*
X19817106Y-8340950I44146J23473D01*
G01*
X19846380Y-8599435D02*
G75*
G02*
X19871860Y-8593622I23474J-44148D01*
G01*
X19903462Y-8503363D02*
G75*
G02*
X19871860Y-8593622I-29596J-40300D01*
G01*
X19903462Y-8503363D02*
G75*
G02*
X19888911Y-8486537I29596J40299D01*
G01*
X3241433Y-6283145D02*
X3381725Y-6357739D01*
X3264895Y-6046133D02*
X3198902Y-6170247D01*
X3499104Y-6329867D02*
X3565097Y-6205753D01*
X3522567Y-6092855D02*
X3382275Y-6018261D01*
X3198902Y-6170247D02*
G75*
G02*
X3184351Y-6187073I-44145J23472D01*
G01*
X3215954Y-6277332D02*
G75*
G02*
X3184351Y-6187073I-2006J49960D01*
G01*
X3215954Y-6277332D02*
G75*
G02*
X3241433Y-6283145I2006J-49960D01*
G01*
X3270708Y-6024660D02*
G75*
G02*
X3264895Y-6046133I-49963J2002D01*
G01*
X3270708Y-6024660D02*
G75*
G02*
X3363208Y-6000387I49960J-2001D01*
G01*
X3381725Y-6357739D02*
G75*
G02*
X3400792Y-6375613I-23471J-44144D01*
G01*
X3382275Y-6018261D02*
G75*
G02*
X3363208Y-6000387I23474J44148D01*
G01*
X3493292Y-6351340D02*
G75*
G02*
X3400792Y-6375613I-49960J2001D01*
G01*
X3493292Y-6351340D02*
G75*
G02*
X3499104Y-6329867I49891J-1982D01*
G01*
X3548046Y-6098668D02*
G75*
G02*
X3522567Y-6092855I-2005J49962D01*
G01*
X3548046Y-6098668D02*
G75*
G02*
X3579648Y-6188926I2006J-49959D01*
G01*
X3565097Y-6205753D02*
G75*
G02*
X3579648Y-6188927I44175J-23497D01*
G01*
X18453903Y-10340753D02*
X18519895Y-10464867D01*
X18636725Y-10153261D02*
X18496433Y-10227855D01*
X18637275Y-10492739D02*
X18777567Y-10418145D01*
X18820097Y-10305247D02*
X18754105Y-10181133D01*
X18439352Y-10323927D02*
G75*
G02*
X18453902Y-10340753I-29612J-40313D01*
G01*
X18439352Y-10323927D02*
G75*
G02*
X18470954Y-10233667I29596J40300D01*
G01*
X18496433Y-10227855D02*
G75*
G02*
X18470954Y-10233667I-23473J44148D01*
G01*
X18519895Y-10464867D02*
G75*
G02*
X18525708Y-10486340I-44182J-23483D01*
G01*
X18618208Y-10510612D02*
G75*
G02*
X18525708Y-10486340I-42540J26274D01*
G01*
X18618208Y-10510613D02*
G75*
G02*
X18637275Y-10492739I42546J-26280D01*
G01*
X18655792Y-10135387D02*
G75*
G02*
X18636725Y-10153261I-42543J26277D01*
G01*
X18655792Y-10135387D02*
G75*
G02*
X18748292Y-10159660I42540J-26274D01*
G01*
X18754105Y-10181133D02*
G75*
G02*
X18748292Y-10159660I44146J23473D01*
G01*
X18777567Y-10418145D02*
G75*
G02*
X18803046Y-10412332I23474J-44148D01*
G01*
X18834648Y-10322073D02*
G75*
G02*
X18803046Y-10412332I-29596J-40300D01*
G01*
X18834649Y-10322073D02*
G75*
G02*
X18820097Y-10305247I29596J40299D01*
G01*
X25790295Y-8820601D02*
X25856288Y-8944715D01*
X25973118Y-8633109D02*
X25832826Y-8707703D01*
X25973668Y-8972587D02*
X26113960Y-8897993D01*
X26156490Y-8785095D02*
X26090497Y-8660981D01*
X25775744Y-8803775D02*
G75*
G02*
X25790295Y-8820601I-29596J-40299D01*
G01*
X25775744Y-8803775D02*
G75*
G02*
X25807347Y-8713516I29596J40300D01*
G01*
X25832826Y-8707703D02*
G75*
G02*
X25807347Y-8713516I-23474J44149D01*
G01*
X25856288Y-8944716D02*
G75*
G02*
X25862101Y-8966188I-44154J-23475D01*
G01*
X25954601Y-8990461D02*
G75*
G02*
X25862101Y-8966188I-42540J26274D01*
G01*
X25954601Y-8990461D02*
G75*
G02*
X25973668Y-8972587I42541J-26275D01*
G01*
X25992185Y-8615235D02*
G75*
G02*
X25973118Y-8633109I-42540J26274D01*
G01*
X25992185Y-8615236D02*
G75*
G02*
X26084684Y-8639508I42540J-26274D01*
G01*
X26090497Y-8660981D02*
G75*
G02*
X26084685Y-8639508I44189J23484D01*
G01*
X26113960Y-8897993D02*
G75*
G02*
X26139439Y-8892180I23474J-44148D01*
G01*
X26171041Y-8801921D02*
G75*
G02*
X26139439Y-8892181I-29596J-40300D01*
G01*
X26171041Y-8801921D02*
G75*
G02*
X26156489Y-8785096I29634J40336D01*
G01*
X19248903Y-11843753D02*
X19314896Y-11967867D01*
X19431725Y-11656261D02*
X19291433Y-11730855D01*
X19432275Y-11995739D02*
X19572567Y-11921145D01*
X19615098Y-11808247D02*
X19549105Y-11684133D01*
X19234352Y-11826927D02*
G75*
G02*
X19248903Y-11843753I-29596J-40299D01*
G01*
X19234352Y-11826927D02*
G75*
G02*
X19265954Y-11736668I29596J40300D01*
G01*
X19291433Y-11730855D02*
G75*
G02*
X19265954Y-11736668I-23474J44149D01*
G01*
X19314896Y-11967868D02*
G75*
G02*
X19320708Y-11989340I-44154J-23475D01*
G01*
X19413208Y-12013613D02*
G75*
G02*
X19320708Y-11989340I-42540J26274D01*
G01*
X19413208Y-12013613D02*
G75*
G02*
X19432275Y-11995739I42541J-26275D01*
G01*
X19450792Y-11638387D02*
G75*
G02*
X19431725Y-11656261I-42540J26274D01*
G01*
X19450792Y-11638388D02*
G75*
G02*
X19543292Y-11662660I42540J-26274D01*
G01*
X19549105Y-11684133D02*
G75*
G02*
X19543292Y-11662660I44189J23484D01*
G01*
X19572567Y-11921145D02*
G75*
G02*
X19598046Y-11915332I23474J-44148D01*
G01*
X19629649Y-11825073D02*
G75*
G02*
X19598046Y-11915333I-29596J-40300D01*
G01*
X19629649Y-11825073D02*
G75*
G02*
X19615096Y-11808248I29634J40336D01*
G01*
X17936903Y-13216753D02*
X18002896Y-13340867D01*
X18119725Y-13029261D02*
X17979433Y-13103855D01*
X18120275Y-13368739D02*
X18260567Y-13294145D01*
X18303098Y-13181247D02*
X18237105Y-13057133D01*
X17922352Y-13199927D02*
G75*
G02*
X17936903Y-13216753I-29596J-40299D01*
G01*
X17922352Y-13199927D02*
G75*
G02*
X17953954Y-13109668I29596J40300D01*
G01*
X17979433Y-13103855D02*
G75*
G02*
X17953954Y-13109668I-23474J44149D01*
G01*
X18002896Y-13340868D02*
G75*
G02*
X18008708Y-13362340I-44154J-23475D01*
G01*
X18101208Y-13386613D02*
G75*
G02*
X18008708Y-13362340I-42540J26274D01*
G01*
X18101208Y-13386613D02*
G75*
G02*
X18120275Y-13368739I42541J-26275D01*
G01*
X18138792Y-13011387D02*
G75*
G02*
X18119725Y-13029261I-42540J26274D01*
G01*
X18138792Y-13011388D02*
G75*
G02*
X18231292Y-13035660I42540J-26274D01*
G01*
X18237105Y-13057133D02*
G75*
G02*
X18231292Y-13035660I44189J23484D01*
G01*
X18260567Y-13294145D02*
G75*
G02*
X18286046Y-13288332I23474J-44148D01*
G01*
X18317649Y-13198073D02*
G75*
G02*
X18286046Y-13288333I-29596J-40300D01*
G01*
X18317649Y-13198073D02*
G75*
G02*
X18303096Y-13181248I29634J40336D01*
G01*
X3882433Y-8892145D02*
X4022725Y-8966739D01*
X3905895Y-8655133D02*
X3839902Y-8779247D01*
X4140104Y-8938868D02*
X4206097Y-8814753D01*
X4163567Y-8701855D02*
X4023275Y-8627261D01*
X3839902Y-8779247D02*
G75*
G02*
X3825351Y-8796073I-44145J23472D01*
G01*
X3856954Y-8886333D02*
G75*
G02*
X3825351Y-8796073I-2006J49960D01*
G01*
X3856954Y-8886333D02*
G75*
G02*
X3882433Y-8892145I2006J-49960D01*
G01*
X3911708Y-8633660D02*
G75*
G02*
X3905895Y-8655133I-49963J2002D01*
G01*
X3911708Y-8633660D02*
G75*
G02*
X4004208Y-8609387I49960J-2001D01*
G01*
X4022725Y-8966739D02*
G75*
G02*
X4041792Y-8984613I-23471J-44144D01*
G01*
X4023275Y-8627261D02*
G75*
G02*
X4004208Y-8609387I23474J44148D01*
G01*
X4134292Y-8960340D02*
G75*
G02*
X4041792Y-8984613I-49960J2001D01*
G01*
X4134292Y-8960340D02*
G75*
G02*
X4140104Y-8938868I49891J-1982D01*
G01*
X4189046Y-8707668D02*
G75*
G02*
X4163567Y-8701855I-2005J49962D01*
G01*
X4189046Y-8707668D02*
G75*
G02*
X4220648Y-8797927I2006J-49959D01*
G01*
X4206097Y-8814753D02*
G75*
G02*
X4220649Y-8797927I44175J-23497D01*
G01*
X20040903Y-13344753D02*
X20106895Y-13468867D01*
X20223725Y-13157261D02*
X20083433Y-13231855D01*
X20224275Y-13496739D02*
X20364567Y-13422145D01*
X20407097Y-13309247D02*
X20341105Y-13185132D01*
X20026351Y-13327927D02*
G75*
G02*
X20040904Y-13344752I-29634J-40336D01*
G01*
X20026351Y-13327927D02*
G75*
G02*
X20057954Y-13237667I29596J40300D01*
G01*
X20083433Y-13231855D02*
G75*
G02*
X20057954Y-13237667I-23474J44148D01*
G01*
X20106895Y-13468867D02*
G75*
G02*
X20112708Y-13490340I-44189J-23484D01*
G01*
X20205208Y-13514612D02*
G75*
G02*
X20112708Y-13490340I-42540J26274D01*
G01*
X20205208Y-13514613D02*
G75*
G02*
X20224275Y-13496739I42540J-26274D01*
G01*
X20242792Y-13139387D02*
G75*
G02*
X20223725Y-13157261I-42541J26275D01*
G01*
X20242792Y-13139387D02*
G75*
G02*
X20335292Y-13163660I42540J-26274D01*
G01*
X20341105Y-13185132D02*
G75*
G02*
X20335292Y-13163660I44154J23475D01*
G01*
X20364567Y-13422145D02*
G75*
G02*
X20390046Y-13416332I23474J-44149D01*
G01*
X20421648Y-13326073D02*
G75*
G02*
X20390046Y-13416332I-29596J-40300D01*
G01*
X20421649Y-13326073D02*
G75*
G02*
X20407097Y-13309247I29596J40299D01*
G01*
X20312903Y-10030753D02*
X20378896Y-10154868D01*
X20495725Y-9843261D02*
X20355433Y-9917855D01*
X20496275Y-10182739D02*
X20636567Y-10108145D01*
X20679098Y-9995247D02*
X20613105Y-9871133D01*
X20298352Y-10013927D02*
G75*
G02*
X20312903Y-10030753I-29596J-40299D01*
G01*
X20298352Y-10013927D02*
G75*
G02*
X20329954Y-9923668I29596J40300D01*
G01*
X20355433Y-9917855D02*
G75*
G02*
X20329954Y-9923668I-23474J44149D01*
G01*
X20378896Y-10154868D02*
G75*
G02*
X20384708Y-10176340I-44154J-23475D01*
G01*
X20477208Y-10200613D02*
G75*
G02*
X20384708Y-10176340I-42540J26274D01*
G01*
X20477208Y-10200613D02*
G75*
G02*
X20496275Y-10182739I42541J-26275D01*
G01*
X20514792Y-9825387D02*
G75*
G02*
X20495725Y-9843261I-42540J26274D01*
G01*
X20514792Y-9825388D02*
G75*
G02*
X20607292Y-9849660I42540J-26274D01*
G01*
X20613105Y-9871133D02*
G75*
G02*
X20607292Y-9849660I44189J23484D01*
G01*
X20636567Y-10108145D02*
G75*
G02*
X20662046Y-10102333I23474J-44148D01*
G01*
X20693649Y-10012073D02*
G75*
G02*
X20662046Y-10102333I-29596J-40300D01*
G01*
X20693649Y-10012073D02*
G75*
G02*
X20679096Y-9995248I29634J40336D01*
G01*
X10937433Y-14795145D02*
X11077725Y-14869739D01*
X10960896Y-14558132D02*
X10894903Y-14682247D01*
X11195105Y-14841867D02*
X11261097Y-14717753D01*
X11218567Y-14604855D02*
X11078275Y-14530261D01*
X10894903Y-14682247D02*
G75*
G02*
X10880352Y-14699073I-44175J23497D01*
G01*
X10911954Y-14789332D02*
G75*
G02*
X10880352Y-14699073I-2006J49959D01*
G01*
X10911954Y-14789332D02*
G75*
G02*
X10937433Y-14795145I2005J-49962D01*
G01*
X10966708Y-14536660D02*
G75*
G02*
X10960896Y-14558132I-49891J1982D01*
G01*
X10966708Y-14536660D02*
G75*
G02*
X11059208Y-14512387I49960J-2001D01*
G01*
X11077725Y-14869739D02*
G75*
G02*
X11096792Y-14887613I-23474J-44148D01*
G01*
X11078275Y-14530261D02*
G75*
G02*
X11059208Y-14512387I23471J44144D01*
G01*
X11189292Y-14863340D02*
G75*
G02*
X11096792Y-14887613I-49960J2001D01*
G01*
X11189292Y-14863340D02*
G75*
G02*
X11195105Y-14841867I49963J-2002D01*
G01*
X11244046Y-14610667D02*
G75*
G02*
X11218567Y-14604855I-2006J49960D01*
G01*
X11244046Y-14610667D02*
G75*
G02*
X11275649Y-14700927I2006J-49960D01*
G01*
X11261097Y-14717753D02*
G75*
G02*
X11275649Y-14700927I44145J-23472D01*
G01*
X8089826Y-12486297D02*
X8230118Y-12560891D01*
X8113288Y-12249285D02*
X8047295Y-12373399D01*
X8347497Y-12533019D02*
X8413490Y-12408905D01*
X8370960Y-12296007D02*
X8230668Y-12221413D01*
X8047295Y-12373399D02*
G75*
G02*
X8032744Y-12390225I-44175J23497D01*
G01*
X8064347Y-12480484D02*
G75*
G02*
X8032745Y-12390226I-2006J49959D01*
G01*
X8064347Y-12480484D02*
G75*
G02*
X8089826Y-12486297I2005J-49962D01*
G01*
X8119101Y-12227812D02*
G75*
G02*
X8113288Y-12249285I-49891J1982D01*
G01*
X8119101Y-12227812D02*
G75*
G02*
X8211601Y-12203539I49960J-2001D01*
G01*
X8230118Y-12560891D02*
G75*
G02*
X8249185Y-12578765I-23474J-44148D01*
G01*
X8230668Y-12221413D02*
G75*
G02*
X8211601Y-12203539I23471J44144D01*
G01*
X8341685Y-12554492D02*
G75*
G02*
X8249185Y-12578765I-49960J2001D01*
G01*
X8341685Y-12554492D02*
G75*
G02*
X8347497Y-12533019I49963J-2002D01*
G01*
X8396439Y-12301820D02*
G75*
G02*
X8370960Y-12296007I-2006J49960D01*
G01*
X8396439Y-12301820D02*
G75*
G02*
X8428042Y-12392079I2006J-49960D01*
G01*
X8413490Y-12408905D02*
G75*
G02*
X8428042Y-12392079I44145J-23472D01*
G01*
X10157247Y-8601855D02*
X10297539Y-8676449D01*
X10180709Y-8364842D02*
X10114716Y-8488957D01*
X10414918Y-8648577D02*
X10480911Y-8524463D01*
X10438380Y-8411565D02*
X10298088Y-8336971D01*
X10114716Y-8488957D02*
G75*
G02*
X10100165Y-8505783I-44175J23497D01*
G01*
X10131768Y-8596042D02*
G75*
G02*
X10100165Y-8505784I-2006J49959D01*
G01*
X10131768Y-8596042D02*
G75*
G02*
X10157247Y-8601855I2006J-49961D01*
G01*
X10186522Y-8343370D02*
G75*
G02*
X10180709Y-8364843I-49891J1982D01*
G01*
X10186522Y-8343370D02*
G75*
G02*
X10279022Y-8319097I49960J-2001D01*
G01*
X10297539Y-8676449D02*
G75*
G02*
X10316606Y-8694323I-23474J-44148D01*
G01*
X10298088Y-8336971D02*
G75*
G02*
X10279022Y-8319097I23473J44146D01*
G01*
X10409106Y-8670050D02*
G75*
G02*
X10316606Y-8694323I-49960J2001D01*
G01*
X10409106Y-8670050D02*
G75*
G02*
X10414918Y-8648577I49966J-2003D01*
G01*
X10463860Y-8417378D02*
G75*
G02*
X10438380Y-8411565I-2005J49965D01*
G01*
X10463860Y-8417378D02*
G75*
G02*
X10495462Y-8507637I2006J-49960D01*
G01*
X10480911Y-8524463D02*
G75*
G02*
X10495462Y-8507637I44144J-23471D01*
G01*
X17658089Y-8834463D02*
X17724082Y-8958577D01*
X17840912Y-8646971D02*
X17700620Y-8721565D01*
X17841461Y-8986449D02*
X17981753Y-8911855D01*
X18024284Y-8798957D02*
X17958291Y-8674843D01*
X17643538Y-8817637D02*
G75*
G02*
X17658089Y-8834463I-29596J-40299D01*
G01*
X17643538Y-8817637D02*
G75*
G02*
X17675140Y-8727378I29596J40300D01*
G01*
X17700620Y-8721565D02*
G75*
G02*
X17675140Y-8727378I-23474J44149D01*
G01*
X17724082Y-8958578D02*
G75*
G02*
X17729894Y-8980050I-44154J-23475D01*
G01*
X17822395Y-9004323D02*
G75*
G02*
X17729894Y-8980050I-42540J26274D01*
G01*
X17822395Y-9004323D02*
G75*
G02*
X17841461Y-8986449I42541J-26275D01*
G01*
X17859978Y-8629097D02*
G75*
G02*
X17840912Y-8646971I-42540J26274D01*
G01*
X17859979Y-8629098D02*
G75*
G02*
X17952478Y-8653370I42540J-26274D01*
G01*
X17958291Y-8674843D02*
G75*
G02*
X17952479Y-8653370I44189J23484D01*
G01*
X17981753Y-8911855D02*
G75*
G02*
X18007233Y-8906042I23474J-44148D01*
G01*
X18038835Y-8815783D02*
G75*
G02*
X18007233Y-8906043I-29596J-40300D01*
G01*
X18038835Y-8815783D02*
G75*
G02*
X18024283Y-8798958I29634J40336D01*
G01*
X22705089Y-6831463D02*
X22771082Y-6955577D01*
X22887912Y-6643971D02*
X22747620Y-6718565D01*
X22888461Y-6983449D02*
X23028753Y-6908855D01*
X23071284Y-6795957D02*
X23005291Y-6671842D01*
X22690538Y-6814637D02*
G75*
G02*
X22705089Y-6831463I-29612J-40313D01*
G01*
X22690538Y-6814637D02*
G75*
G02*
X22722140Y-6724377I29596J40300D01*
G01*
X22747620Y-6718565D02*
G75*
G02*
X22722140Y-6724377I-23473J44148D01*
G01*
X22771082Y-6955577D02*
G75*
G02*
X22776894Y-6977050I-44182J-23483D01*
G01*
X22869394Y-7001322D02*
G75*
G02*
X22776895Y-6977050I-42540J26274D01*
G01*
X22869394Y-7001322D02*
G75*
G02*
X22888461Y-6983449I42546J-26280D01*
G01*
X22906978Y-6626097D02*
G75*
G02*
X22887912Y-6643970I-42543J26277D01*
G01*
X22906978Y-6626097D02*
G75*
G02*
X22999478Y-6650370I42540J-26274D01*
G01*
X23005291Y-6671842D02*
G75*
G02*
X22999478Y-6650370I44146J23473D01*
G01*
X23028753Y-6908855D02*
G75*
G02*
X23054233Y-6903042I23474J-44148D01*
G01*
X23085835Y-6812783D02*
G75*
G02*
X23054233Y-6903042I-29596J-40300D01*
G01*
X23085835Y-6812783D02*
G75*
G02*
X23071284Y-6795957I29596J40299D01*
G01*
X9629433Y-13420145D02*
X9769725Y-13494739D01*
X9652896Y-13183132D02*
X9586903Y-13307247D01*
X9887105Y-13466867D02*
X9953098Y-13342753D01*
X9910567Y-13229855D02*
X9770275Y-13155261D01*
X9586903Y-13307247D02*
G75*
G02*
X9572352Y-13324073I-44175J23497D01*
G01*
X9603954Y-13414332D02*
G75*
G02*
X9572352Y-13324073I-2006J49959D01*
G01*
X9603954Y-13414332D02*
G75*
G02*
X9629433Y-13420145I2005J-49962D01*
G01*
X9658708Y-13161660D02*
G75*
G02*
X9652896Y-13183132I-49891J1982D01*
G01*
X9658708Y-13161660D02*
G75*
G02*
X9751208Y-13137387I49960J-2001D01*
G01*
X9769725Y-13494739D02*
G75*
G02*
X9788792Y-13512613I-23474J-44148D01*
G01*
X9770275Y-13155261D02*
G75*
G02*
X9751208Y-13137387I23471J44144D01*
G01*
X9881292Y-13488340D02*
G75*
G02*
X9788792Y-13512613I-49960J2001D01*
G01*
X9881292Y-13488340D02*
G75*
G02*
X9887105Y-13466867I49963J-2002D01*
G01*
X9936046Y-13235667D02*
G75*
G02*
X9910567Y-13229855I-2006J49960D01*
G01*
X9936046Y-13235667D02*
G75*
G02*
X9967649Y-13325927I2006J-49960D01*
G01*
X9953098Y-13342753D02*
G75*
G02*
X9967649Y-13325927I44145J-23472D01*
G01*
X21531296Y-8475601D02*
X21597288Y-8599715D01*
X21714118Y-8288109D02*
X21573826Y-8362703D01*
X21714668Y-8627587D02*
X21854960Y-8552993D01*
X21897490Y-8440095D02*
X21831498Y-8315981D01*
X21516744Y-8458775D02*
G75*
G02*
X21531296Y-8475601I-29596J-40299D01*
G01*
X21516745Y-8458775D02*
G75*
G02*
X21548347Y-8368515I29596J40300D01*
G01*
X21573826Y-8362703D02*
G75*
G02*
X21548347Y-8368515I-23474J44149D01*
G01*
X21597288Y-8599716D02*
G75*
G02*
X21603101Y-8621188I-44154J-23475D01*
G01*
X21695601Y-8645461D02*
G75*
G02*
X21603101Y-8621188I-42540J26274D01*
G01*
X21695601Y-8645461D02*
G75*
G02*
X21714668Y-8627587I42541J-26275D01*
G01*
X21733185Y-8270235D02*
G75*
G02*
X21714118Y-8288109I-42540J26274D01*
G01*
X21733185Y-8270235D02*
G75*
G02*
X21825685Y-8294508I42540J-26274D01*
G01*
X21831498Y-8315980D02*
G75*
G02*
X21825685Y-8294508I44189J23484D01*
G01*
X21854960Y-8552993D02*
G75*
G02*
X21880439Y-8547180I23474J-44148D01*
G01*
X21912042Y-8456921D02*
G75*
G02*
X21880439Y-8547181I-29596J-40300D01*
G01*
X21912042Y-8456921D02*
G75*
G02*
X21897489Y-8440096I29634J40336D01*
G01*
X26439089Y-6207463D02*
X26505082Y-6331577D01*
X26621912Y-6019971D02*
X26481620Y-6094565D01*
X26622461Y-6359449D02*
X26762753Y-6284855D01*
X26805284Y-6171957D02*
X26739291Y-6047843D01*
X26424538Y-6190637D02*
G75*
G02*
X26439089Y-6207463I-29596J-40299D01*
G01*
X26424538Y-6190637D02*
G75*
G02*
X26456140Y-6100377I29596J40300D01*
G01*
X26481620Y-6094565D02*
G75*
G02*
X26456140Y-6100377I-23474J44149D01*
G01*
X26505082Y-6331577D02*
G75*
G02*
X26510894Y-6353050I-44154J-23475D01*
G01*
X26603394Y-6377323D02*
G75*
G02*
X26510894Y-6353050I-42540J26274D01*
G01*
X26603394Y-6377323D02*
G75*
G02*
X26622461Y-6359449I42541J-26275D01*
G01*
X26640978Y-6002097D02*
G75*
G02*
X26621912Y-6019971I-42540J26274D01*
G01*
X26640978Y-6002097D02*
G75*
G02*
X26733478Y-6026370I42540J-26274D01*
G01*
X26739291Y-6047842D02*
G75*
G02*
X26733479Y-6026370I44189J23484D01*
G01*
X26762753Y-6284855D02*
G75*
G02*
X26788233Y-6279042I23474J-44148D01*
G01*
X26819835Y-6188783D02*
G75*
G02*
X26788233Y-6279042I-29596J-40300D01*
G01*
X26819835Y-6188783D02*
G75*
G02*
X26805283Y-6171958I29634J40336D01*
G01*
X7768433Y-5410145D02*
X7908725Y-5484739D01*
X7791895Y-5173133D02*
X7725902Y-5297247D01*
X8026104Y-5456868D02*
X8092097Y-5332753D01*
X8049567Y-5219855D02*
X7909275Y-5145261D01*
X7725902Y-5297247D02*
G75*
G02*
X7711351Y-5314073I-44145J23472D01*
G01*
X7742954Y-5404333D02*
G75*
G02*
X7711351Y-5314073I-2006J49960D01*
G01*
X7742954Y-5404333D02*
G75*
G02*
X7768433Y-5410145I2006J-49960D01*
G01*
X7797708Y-5151660D02*
G75*
G02*
X7791895Y-5173133I-49963J2002D01*
G01*
X7797708Y-5151660D02*
G75*
G02*
X7890208Y-5127387I49960J-2001D01*
G01*
X7908725Y-5484739D02*
G75*
G02*
X7927792Y-5502613I-23471J-44144D01*
G01*
X7909275Y-5145261D02*
G75*
G02*
X7890208Y-5127387I23474J44148D01*
G01*
X8020292Y-5478340D02*
G75*
G02*
X7927792Y-5502613I-49960J2001D01*
G01*
X8020292Y-5478340D02*
G75*
G02*
X8026104Y-5456868I49891J-1982D01*
G01*
X8075046Y-5225668D02*
G75*
G02*
X8049567Y-5219855I-2005J49962D01*
G01*
X8075046Y-5225668D02*
G75*
G02*
X8106648Y-5315927I2006J-49959D01*
G01*
X8092097Y-5332753D02*
G75*
G02*
X8106648Y-5315927I44175J-23497D01*
G01*
X8145433Y-8554145D02*
X8285725Y-8628739D01*
X8168895Y-8317133D02*
X8102902Y-8441247D01*
X8403105Y-8600868D02*
X8469097Y-8476753D01*
X8426567Y-8363855D02*
X8286275Y-8289261D01*
X8102902Y-8441247D02*
G75*
G02*
X8088351Y-8458073I-44145J23472D01*
G01*
X8119954Y-8548333D02*
G75*
G02*
X8088351Y-8458073I-2006J49960D01*
G01*
X8119954Y-8548333D02*
G75*
G02*
X8145433Y-8554145I2006J-49960D01*
G01*
X8174708Y-8295660D02*
G75*
G02*
X8168895Y-8317133I-49963J2002D01*
G01*
X8174708Y-8295660D02*
G75*
G02*
X8267208Y-8271387I49960J-2001D01*
G01*
X8285725Y-8628739D02*
G75*
G02*
X8304792Y-8646613I-23471J-44144D01*
G01*
X8286275Y-8289261D02*
G75*
G02*
X8267208Y-8271387I23474J44148D01*
G01*
X8397292Y-8622340D02*
G75*
G02*
X8304792Y-8646613I-49960J2001D01*
G01*
X8397292Y-8622340D02*
G75*
G02*
X8403104Y-8600868I49891J-1982D01*
G01*
X8452046Y-8369668D02*
G75*
G02*
X8426567Y-8363855I-2005J49962D01*
G01*
X8452046Y-8369668D02*
G75*
G02*
X8483648Y-8459927I2006J-49959D01*
G01*
X8469097Y-8476753D02*
G75*
G02*
X8483649Y-8459927I44175J-23497D01*
G01*
X9353433Y-10102145D02*
X9493725Y-10176739D01*
X9376895Y-9865133D02*
X9310903Y-9989247D01*
X9611105Y-10148868D02*
X9677097Y-10024753D01*
X9634567Y-9911855D02*
X9494275Y-9837261D01*
X9310903Y-9989247D02*
G75*
G02*
X9296351Y-10006073I-44145J23472D01*
G01*
X9327954Y-10096333D02*
G75*
G02*
X9296351Y-10006073I-2006J49960D01*
G01*
X9327954Y-10096333D02*
G75*
G02*
X9353433Y-10102145I2006J-49960D01*
G01*
X9382708Y-9843660D02*
G75*
G02*
X9376895Y-9865133I-49963J2002D01*
G01*
X9382708Y-9843660D02*
G75*
G02*
X9475208Y-9819387I49960J-2001D01*
G01*
X9493725Y-10176739D02*
G75*
G02*
X9512792Y-10194613I-23471J-44144D01*
G01*
X9494275Y-9837261D02*
G75*
G02*
X9475208Y-9819387I23474J44148D01*
G01*
X9605292Y-10170340D02*
G75*
G02*
X9512792Y-10194613I-49960J2001D01*
G01*
X9605292Y-10170340D02*
G75*
G02*
X9611104Y-10148868I49891J-1982D01*
G01*
X9660046Y-9917668D02*
G75*
G02*
X9634567Y-9911855I-2005J49962D01*
G01*
X9660046Y-9917668D02*
G75*
G02*
X9691648Y-10007927I2006J-49959D01*
G01*
X9677097Y-10024753D02*
G75*
G02*
X9691649Y-10007927I44175J-23497D01*
G01*
X4678433Y-7391145D02*
X4818725Y-7465739D01*
X4701895Y-7154132D02*
X4635903Y-7278247D01*
X4936105Y-7437867D02*
X5002098Y-7313753D01*
X4959567Y-7200855D02*
X4819275Y-7126261D01*
X4635903Y-7278247D02*
G75*
G02*
X4621352Y-7295073I-44172J23495D01*
G01*
X4652954Y-7385332D02*
G75*
G02*
X4678433Y-7391145I2007J-49957D01*
G01*
X4652954Y-7385332D02*
G75*
G02*
X4621352Y-7295073I-2006J49959D01*
G01*
X4707708Y-7132660D02*
G75*
G02*
X4701895Y-7154132I-49980J2007D01*
G01*
X4707708Y-7132660D02*
G75*
G02*
X4800208Y-7108387I49960J-2001D01*
G01*
X4818725Y-7465739D02*
G75*
G02*
X4837792Y-7483613I-23474J-44148D01*
G01*
X4819275Y-7126261D02*
G75*
G02*
X4800208Y-7108387I23473J44146D01*
G01*
X4930292Y-7459340D02*
G75*
G02*
X4837792Y-7483613I-49960J2001D01*
G01*
X4930292Y-7459340D02*
G75*
G02*
X4936105Y-7437867I49966J-2003D01*
G01*
X4985046Y-7206667D02*
G75*
G02*
X4959567Y-7200855I-2005J49965D01*
G01*
X4985046Y-7206667D02*
G75*
G02*
X5016649Y-7296927I2006J-49960D01*
G01*
X5002098Y-7313753D02*
G75*
G02*
X5016649Y-7296927I44144J-23471D01*
G01*
X8937433Y-7052145D02*
X9077725Y-7126739D01*
X8960895Y-6815132D02*
X8894903Y-6939247D01*
X9195105Y-7098867D02*
X9261098Y-6974753D01*
X9218567Y-6861855D02*
X9078275Y-6787261D01*
X8894903Y-6939247D02*
G75*
G02*
X8880352Y-6956073I-44172J23495D01*
G01*
X8911954Y-7046332D02*
G75*
G02*
X8937433Y-7052145I2007J-49957D01*
G01*
X8911954Y-7046332D02*
G75*
G02*
X8880352Y-6956073I-2006J49959D01*
G01*
X8966708Y-6793660D02*
G75*
G02*
X8960895Y-6815132I-49980J2007D01*
G01*
X8966708Y-6793660D02*
G75*
G02*
X9059208Y-6769387I49960J-2001D01*
G01*
X9077725Y-7126739D02*
G75*
G02*
X9096792Y-7144613I-23474J-44148D01*
G01*
X9078275Y-6787261D02*
G75*
G02*
X9059208Y-6769387I23473J44146D01*
G01*
X9189292Y-7120340D02*
G75*
G02*
X9096792Y-7144613I-49960J2001D01*
G01*
X9189292Y-7120340D02*
G75*
G02*
X9195105Y-7098867I49966J-2003D01*
G01*
X9244046Y-6867667D02*
G75*
G02*
X9218567Y-6861855I-2005J49965D01*
G01*
X9244046Y-6867667D02*
G75*
G02*
X9275649Y-6957927I2006J-49960D01*
G01*
X9261098Y-6974753D02*
G75*
G02*
X9275649Y-6957927I44144J-23471D01*
G01*
X20735903Y-6977753D02*
X20801895Y-7101867D01*
X20918725Y-6790261D02*
X20778433Y-6864855D01*
X20919275Y-7129739D02*
X21059567Y-7055145D01*
X21102097Y-6942247D02*
X21036105Y-6818132D01*
X20721352Y-6960927D02*
G75*
G02*
X20735902Y-6977753I-29612J-40313D01*
G01*
X20721352Y-6960927D02*
G75*
G02*
X20752954Y-6870667I29596J40300D01*
G01*
X20778433Y-6864855D02*
G75*
G02*
X20752954Y-6870667I-23473J44148D01*
G01*
X20801895Y-7101867D02*
G75*
G02*
X20807708Y-7123340I-44182J-23483D01*
G01*
X20900208Y-7147612D02*
G75*
G02*
X20807708Y-7123340I-42540J26274D01*
G01*
X20900208Y-7147612D02*
G75*
G02*
X20919275Y-7129739I42546J-26280D01*
G01*
X20937792Y-6772387D02*
G75*
G02*
X20918725Y-6790260I-42543J26277D01*
G01*
X20937792Y-6772387D02*
G75*
G02*
X21030292Y-6796660I42540J-26274D01*
G01*
X21036105Y-6818132D02*
G75*
G02*
X21030292Y-6796660I44146J23473D01*
G01*
X21059567Y-7055145D02*
G75*
G02*
X21085046Y-7049332I23474J-44148D01*
G01*
X21116648Y-6959073D02*
G75*
G02*
X21085046Y-7049332I-29596J-40300D01*
G01*
X21116649Y-6959073D02*
G75*
G02*
X21102097Y-6942247I29596J40299D01*
G01*
X11229433Y-10423145D02*
X11369725Y-10497739D01*
X11252895Y-10186133D02*
X11186903Y-10310247D01*
X11487105Y-10469867D02*
X11553097Y-10345753D01*
X11510567Y-10232855D02*
X11370275Y-10158261D01*
X11186903Y-10310247D02*
G75*
G02*
X11172352Y-10327073I-44175J23497D01*
G01*
X11203954Y-10417332D02*
G75*
G02*
X11172352Y-10327074I-2006J49959D01*
G01*
X11203954Y-10417332D02*
G75*
G02*
X11229433Y-10423145I2006J-49961D01*
G01*
X11258708Y-10164660D02*
G75*
G02*
X11252895Y-10186133I-49891J1982D01*
G01*
X11258708Y-10164660D02*
G75*
G02*
X11351208Y-10140387I49960J-2001D01*
G01*
X11369725Y-10497739D02*
G75*
G02*
X11388792Y-10515613I-23474J-44148D01*
G01*
X11370275Y-10158261D02*
G75*
G02*
X11351208Y-10140387I23473J44146D01*
G01*
X11481292Y-10491340D02*
G75*
G02*
X11388792Y-10515613I-49960J2001D01*
G01*
X11481292Y-10491340D02*
G75*
G02*
X11487105Y-10469867I49966J-2003D01*
G01*
X11536046Y-10238668D02*
G75*
G02*
X11510567Y-10232855I-2005J49965D01*
G01*
X11536046Y-10238668D02*
G75*
G02*
X11567649Y-10328927I2006J-49960D01*
G01*
X11553098Y-10345753D02*
G75*
G02*
X11567649Y-10328927I44144J-23471D01*
G01*
X12023433Y-8916145D02*
X12163725Y-8990739D01*
X12046895Y-8679133D02*
X11980902Y-8803247D01*
X12281104Y-8962868D02*
X12347097Y-8838753D01*
X12304567Y-8725855D02*
X12164275Y-8651261D01*
X11980902Y-8803247D02*
G75*
G02*
X11966351Y-8820073I-44145J23472D01*
G01*
X11997954Y-8910333D02*
G75*
G02*
X11966351Y-8820073I-2006J49960D01*
G01*
X11997954Y-8910333D02*
G75*
G02*
X12023433Y-8916145I2006J-49960D01*
G01*
X12052708Y-8657660D02*
G75*
G02*
X12046895Y-8679133I-49963J2002D01*
G01*
X12052708Y-8657660D02*
G75*
G02*
X12145208Y-8633387I49960J-2001D01*
G01*
X12163725Y-8990739D02*
G75*
G02*
X12182792Y-9008613I-23471J-44144D01*
G01*
X12164275Y-8651261D02*
G75*
G02*
X12145208Y-8633387I23474J44148D01*
G01*
X12275292Y-8984340D02*
G75*
G02*
X12182792Y-9008613I-49960J2001D01*
G01*
X12275292Y-8984340D02*
G75*
G02*
X12281104Y-8962868I49891J-1982D01*
G01*
X12330046Y-8731668D02*
G75*
G02*
X12304567Y-8725855I-2005J49962D01*
G01*
X12330046Y-8731668D02*
G75*
G02*
X12361648Y-8821927I2006J-49959D01*
G01*
X12347097Y-8838753D02*
G75*
G02*
X12361648Y-8821927I44175J-23497D01*
G01*
X2432433Y-7783145D02*
X2572725Y-7857739D01*
X2455895Y-7546132D02*
X2389903Y-7670247D01*
X2690105Y-7829867D02*
X2756098Y-7705753D01*
X2713567Y-7592855D02*
X2573275Y-7518261D01*
X2389903Y-7670247D02*
G75*
G02*
X2375352Y-7687073I-44172J23495D01*
G01*
X2406954Y-7777332D02*
G75*
G02*
X2432433Y-7783145I2007J-49957D01*
G01*
X2406954Y-7777332D02*
G75*
G02*
X2375352Y-7687073I-2006J49959D01*
G01*
X2461708Y-7524660D02*
G75*
G02*
X2455895Y-7546132I-49980J2007D01*
G01*
X2461708Y-7524660D02*
G75*
G02*
X2554208Y-7500387I49960J-2001D01*
G01*
X2572725Y-7857739D02*
G75*
G02*
X2591792Y-7875613I-23474J-44148D01*
G01*
X2573275Y-7518261D02*
G75*
G02*
X2554208Y-7500387I23473J44146D01*
G01*
X2684292Y-7851340D02*
G75*
G02*
X2591792Y-7875613I-49960J2001D01*
G01*
X2684292Y-7851340D02*
G75*
G02*
X2690105Y-7829867I49966J-2003D01*
G01*
X2739046Y-7598667D02*
G75*
G02*
X2713567Y-7592855I-2005J49965D01*
G01*
X2739046Y-7598667D02*
G75*
G02*
X2770649Y-7688927I2006J-49960D01*
G01*
X2756098Y-7705753D02*
G75*
G02*
X2770649Y-7688927I44144J-23471D01*
G01*
X23493903Y-8342753D02*
X23559895Y-8466868D01*
X23676725Y-8155261D02*
X23536433Y-8229855D01*
X23677275Y-8494739D02*
X23817567Y-8420145D01*
X23860097Y-8307247D02*
X23794105Y-8183133D01*
X23479351Y-8325927D02*
G75*
G02*
X23493903Y-8342753I-29596J-40299D01*
G01*
X23479352Y-8325927D02*
G75*
G02*
X23510954Y-8235668I29596J40300D01*
G01*
X23536433Y-8229855D02*
G75*
G02*
X23510954Y-8235668I-23474J44149D01*
G01*
X23559895Y-8466868D02*
G75*
G02*
X23565708Y-8488340I-44154J-23475D01*
G01*
X23658208Y-8512613D02*
G75*
G02*
X23565708Y-8488340I-42540J26274D01*
G01*
X23658208Y-8512613D02*
G75*
G02*
X23677275Y-8494739I42541J-26275D01*
G01*
X23695792Y-8137387D02*
G75*
G02*
X23676725Y-8155261I-42540J26274D01*
G01*
X23695792Y-8137388D02*
G75*
G02*
X23788292Y-8161660I42540J-26274D01*
G01*
X23794105Y-8183133D02*
G75*
G02*
X23788292Y-8161660I44189J23484D01*
G01*
X23817567Y-8420145D02*
G75*
G02*
X23843046Y-8414333I23474J-44148D01*
G01*
X23874649Y-8324073D02*
G75*
G02*
X23843046Y-8414333I-29596J-40300D01*
G01*
X23874649Y-8324073D02*
G75*
G02*
X23860096Y-8307248I29634J40336D01*
G01*
X9742433Y-5552145D02*
X9882725Y-5626739D01*
X9765895Y-5315133D02*
X9699903Y-5439247D01*
X10000105Y-5598867D02*
X10066097Y-5474753D01*
X10023567Y-5361855D02*
X9883275Y-5287261D01*
X9699903Y-5439247D02*
G75*
G02*
X9685351Y-5456073I-44145J23472D01*
G01*
X9716954Y-5546333D02*
G75*
G02*
X9685351Y-5456073I-2006J49960D01*
G01*
X9716954Y-5546333D02*
G75*
G02*
X9742433Y-5552145I2006J-49960D01*
G01*
X9771708Y-5293660D02*
G75*
G02*
X9765895Y-5315133I-49963J2002D01*
G01*
X9771708Y-5293660D02*
G75*
G02*
X9864208Y-5269387I49960J-2001D01*
G01*
X9882725Y-5626739D02*
G75*
G02*
X9901792Y-5644613I-23471J-44144D01*
G01*
X9883275Y-5287261D02*
G75*
G02*
X9864208Y-5269387I23474J44148D01*
G01*
X9994292Y-5620340D02*
G75*
G02*
X9901792Y-5644613I-49960J2001D01*
G01*
X9994292Y-5620340D02*
G75*
G02*
X10000104Y-5598867I49891J-1982D01*
G01*
X10049046Y-5367668D02*
G75*
G02*
X10023567Y-5361855I-2005J49962D01*
G01*
X10049046Y-5367668D02*
G75*
G02*
X10080648Y-5457927I2006J-49959D01*
G01*
X10066097Y-5474753D02*
G75*
G02*
X10080649Y-5457927I44175J-23497D01*
G01*
X5478433Y-5887145D02*
X5618725Y-5961739D01*
X5501895Y-5650133D02*
X5435903Y-5774247D01*
X5736104Y-5933867D02*
X5802097Y-5809753D01*
X5759567Y-5696855D02*
X5619275Y-5622261D01*
X5435903Y-5774247D02*
G75*
G02*
X5421351Y-5791073I-44145J23472D01*
G01*
X5452954Y-5881332D02*
G75*
G02*
X5421351Y-5791073I-2006J49960D01*
G01*
X5452954Y-5881332D02*
G75*
G02*
X5478433Y-5887145I2006J-49960D01*
G01*
X5507708Y-5628660D02*
G75*
G02*
X5501895Y-5650133I-49963J2002D01*
G01*
X5507708Y-5628660D02*
G75*
G02*
X5600208Y-5604387I49960J-2001D01*
G01*
X5618725Y-5961739D02*
G75*
G02*
X5637792Y-5979613I-23471J-44144D01*
G01*
X5619275Y-5622261D02*
G75*
G02*
X5600208Y-5604387I23474J44148D01*
G01*
X5730292Y-5955340D02*
G75*
G02*
X5637792Y-5979613I-49960J2001D01*
G01*
X5730292Y-5955340D02*
G75*
G02*
X5736104Y-5933867I49891J-1982D01*
G01*
X5785046Y-5702668D02*
G75*
G02*
X5759567Y-5696855I-2005J49962D01*
G01*
X5785046Y-5702668D02*
G75*
G02*
X5816648Y-5792926I2006J-49959D01*
G01*
X5802097Y-5809753D02*
G75*
G02*
X5816648Y-5792927I44175J-23497D01*
G01*
X18725903Y-7022753D02*
X18791896Y-7146867D01*
X18908725Y-6835261D02*
X18768433Y-6909855D01*
X18909275Y-7174739D02*
X19049567Y-7100145D01*
X19092098Y-6987247D02*
X19026105Y-6863133D01*
X18711352Y-7005927D02*
G75*
G02*
X18725903Y-7022753I-29596J-40299D01*
G01*
X18711352Y-7005927D02*
G75*
G02*
X18742954Y-6915668I29596J40300D01*
G01*
X18768433Y-6909855D02*
G75*
G02*
X18742954Y-6915668I-23474J44149D01*
G01*
X18791896Y-7146868D02*
G75*
G02*
X18797708Y-7168340I-44154J-23475D01*
G01*
X18890208Y-7192613D02*
G75*
G02*
X18797708Y-7168340I-42540J26274D01*
G01*
X18890208Y-7192613D02*
G75*
G02*
X18909275Y-7174739I42541J-26275D01*
G01*
X18927792Y-6817387D02*
G75*
G02*
X18908725Y-6835261I-42540J26274D01*
G01*
X18927792Y-6817388D02*
G75*
G02*
X19020292Y-6841660I42540J-26274D01*
G01*
X19026105Y-6863133D02*
G75*
G02*
X19020292Y-6841660I44189J23484D01*
G01*
X19049567Y-7100145D02*
G75*
G02*
X19075046Y-7094332I23474J-44148D01*
G01*
X19106649Y-7004073D02*
G75*
G02*
X19075046Y-7094333I-29596J-40300D01*
G01*
X19106649Y-7004073D02*
G75*
G02*
X19092096Y-6987248I29634J40336D01*
G01*
X27243902Y-7703753D02*
X27309895Y-7827867D01*
X27426725Y-7516261D02*
X27286433Y-7590855D01*
X27427275Y-7855739D02*
X27567567Y-7781145D01*
X27610097Y-7668247D02*
X27544105Y-7544132D01*
X27229351Y-7686927D02*
G75*
G02*
X27243902Y-7703753I-29612J-40313D01*
G01*
X27229351Y-7686927D02*
G75*
G02*
X27260953Y-7596667I29596J40300D01*
G01*
X27286433Y-7590855D02*
G75*
G02*
X27260953Y-7596667I-23473J44148D01*
G01*
X27309895Y-7827867D02*
G75*
G02*
X27315708Y-7849340I-44182J-23483D01*
G01*
X27408208Y-7873612D02*
G75*
G02*
X27315708Y-7849340I-42540J26274D01*
G01*
X27408208Y-7873612D02*
G75*
G02*
X27427275Y-7855739I42546J-26280D01*
G01*
X27445792Y-7498387D02*
G75*
G02*
X27426725Y-7516260I-42543J26277D01*
G01*
X27445792Y-7498387D02*
G75*
G02*
X27538292Y-7522660I42540J-26274D01*
G01*
X27544104Y-7544132D02*
G75*
G02*
X27538292Y-7522660I44146J23473D01*
G01*
X27567567Y-7781145D02*
G75*
G02*
X27593046Y-7775332I23474J-44148D01*
G01*
X27624648Y-7685073D02*
G75*
G02*
X27593046Y-7775332I-29596J-40300D01*
G01*
X27624648Y-7685073D02*
G75*
G02*
X27610097Y-7668247I29596J40299D01*
G01*
X24990716Y-7312043D02*
X25056709Y-7436157D01*
X25173539Y-7124551D02*
X25033247Y-7199145D01*
X25174088Y-7464029D02*
X25314380Y-7389435D01*
X25356911Y-7276537D02*
X25290918Y-7152422D01*
X24976165Y-7295217D02*
G75*
G02*
X24990716Y-7312043I-29612J-40313D01*
G01*
X24976165Y-7295217D02*
G75*
G02*
X25007767Y-7204957I29596J40300D01*
G01*
X25033247Y-7199145D02*
G75*
G02*
X25007767Y-7204957I-23473J44148D01*
G01*
X25056709Y-7436157D02*
G75*
G02*
X25062521Y-7457630I-44182J-23483D01*
G01*
X25155021Y-7481902D02*
G75*
G02*
X25062522Y-7457630I-42540J26274D01*
G01*
X25155022Y-7481902D02*
G75*
G02*
X25174088Y-7464029I42546J-26280D01*
G01*
X25192605Y-7106677D02*
G75*
G02*
X25173539Y-7124550I-42543J26277D01*
G01*
X25192605Y-7106677D02*
G75*
G02*
X25285106Y-7130950I42540J-26274D01*
G01*
X25290918Y-7152422D02*
G75*
G02*
X25285106Y-7130950I44146J23473D01*
G01*
X25314380Y-7389435D02*
G75*
G02*
X25339860Y-7383622I23474J-44148D01*
G01*
X25371462Y-7293363D02*
G75*
G02*
X25339860Y-7383622I-29596J-40300D01*
G01*
X25371462Y-7293363D02*
G75*
G02*
X25356911Y-7276537I29596J40299D01*
G01*
X6173433Y-8413145D02*
X6313725Y-8487739D01*
X6196895Y-8176133D02*
X6130902Y-8300247D01*
X6431104Y-8459868D02*
X6497097Y-8335753D01*
X6454567Y-8222855D02*
X6314275Y-8148261D01*
X6130902Y-8300247D02*
G75*
G02*
X6116351Y-8317073I-44145J23472D01*
G01*
X6147954Y-8407333D02*
G75*
G02*
X6116351Y-8317073I-2006J49960D01*
G01*
X6147954Y-8407333D02*
G75*
G02*
X6173433Y-8413145I2006J-49960D01*
G01*
X6202708Y-8154660D02*
G75*
G02*
X6196895Y-8176133I-49963J2002D01*
G01*
X6202708Y-8154660D02*
G75*
G02*
X6295208Y-8130387I49960J-2001D01*
G01*
X6313725Y-8487739D02*
G75*
G02*
X6332792Y-8505613I-23471J-44144D01*
G01*
X6314275Y-8148261D02*
G75*
G02*
X6295208Y-8130387I23474J44148D01*
G01*
X6425292Y-8481340D02*
G75*
G02*
X6332792Y-8505613I-49960J2001D01*
G01*
X6425292Y-8481340D02*
G75*
G02*
X6431104Y-8459868I49891J-1982D01*
G01*
X6480046Y-8228668D02*
G75*
G02*
X6454567Y-8222855I-2005J49962D01*
G01*
X6480046Y-8228668D02*
G75*
G02*
X6511648Y-8318926I2006J-49959D01*
G01*
X6497097Y-8335753D02*
G75*
G02*
X6511648Y-8318927I44175J-23497D01*
G01*
X24200510Y-5815905D02*
X24266503Y-5940020D01*
X24383332Y-5628413D02*
X24243040Y-5703007D01*
X24383882Y-5967891D02*
X24524174Y-5893297D01*
X24566705Y-5780399D02*
X24500712Y-5656285D01*
X24185959Y-5799079D02*
G75*
G02*
X24200510Y-5815905I-29596J-40299D01*
G01*
X24185959Y-5799079D02*
G75*
G02*
X24217561Y-5708820I29596J40300D01*
G01*
X24243040Y-5703007D02*
G75*
G02*
X24217561Y-5708820I-23474J44149D01*
G01*
X24266503Y-5940020D02*
G75*
G02*
X24272315Y-5961492I-44154J-23475D01*
G01*
X24364815Y-5985765D02*
G75*
G02*
X24272315Y-5961492I-42540J26274D01*
G01*
X24364815Y-5985765D02*
G75*
G02*
X24383882Y-5967891I42541J-26275D01*
G01*
X24402399Y-5610539D02*
G75*
G02*
X24383332Y-5628413I-42540J26274D01*
G01*
X24402399Y-5610540D02*
G75*
G02*
X24494899Y-5634812I42540J-26274D01*
G01*
X24500712Y-5656285D02*
G75*
G02*
X24494899Y-5634812I44189J23484D01*
G01*
X24524174Y-5893297D02*
G75*
G02*
X24549653Y-5887485I23474J-44148D01*
G01*
X24581256Y-5797225D02*
G75*
G02*
X24549653Y-5887485I-29596J-40300D01*
G01*
X24581256Y-5797225D02*
G75*
G02*
X24566703Y-5780400I29634J40336D01*
G01*
X11733433Y-13295145D02*
X11873725Y-13369739D01*
X11756895Y-13058133D02*
X11690902Y-13182247D01*
X11991104Y-13341867D02*
X12057097Y-13217753D01*
X12014567Y-13104855D02*
X11874275Y-13030261D01*
X11690902Y-13182247D02*
G75*
G02*
X11676351Y-13199073I-44145J23472D01*
G01*
X11707954Y-13289332D02*
G75*
G02*
X11676351Y-13199073I-2006J49960D01*
G01*
X11707954Y-13289332D02*
G75*
G02*
X11733433Y-13295145I2006J-49960D01*
G01*
X11762708Y-13036660D02*
G75*
G02*
X11756895Y-13058133I-49963J2002D01*
G01*
X11762708Y-13036660D02*
G75*
G02*
X11855208Y-13012387I49960J-2001D01*
G01*
X11873725Y-13369739D02*
G75*
G02*
X11892792Y-13387613I-23471J-44144D01*
G01*
X11874275Y-13030261D02*
G75*
G02*
X11855208Y-13012387I23474J44148D01*
G01*
X11985292Y-13363340D02*
G75*
G02*
X11892792Y-13387613I-49960J2001D01*
G01*
X11985292Y-13363340D02*
G75*
G02*
X11991104Y-13341867I49891J-1982D01*
G01*
X12040046Y-13110668D02*
G75*
G02*
X12014567Y-13104855I-2005J49962D01*
G01*
X12040046Y-13110668D02*
G75*
G02*
X12071648Y-13200926I2006J-49959D01*
G01*
X12057097Y-13217753D02*
G75*
G02*
X12071648Y-13200927I44175J-23497D01*
G01*
X18740903Y-14717753D02*
X18806895Y-14841867D01*
X18923725Y-14530261D02*
X18783433Y-14604855D01*
X18924275Y-14869739D02*
X19064567Y-14795145D01*
X19107097Y-14682247D02*
X19041105Y-14558132D01*
X18726351Y-14700927D02*
G75*
G02*
X18740904Y-14717752I-29634J-40336D01*
G01*
X18726351Y-14700927D02*
G75*
G02*
X18757954Y-14610667I29596J40300D01*
G01*
X18783433Y-14604855D02*
G75*
G02*
X18757954Y-14610667I-23474J44148D01*
G01*
X18806895Y-14841867D02*
G75*
G02*
X18812708Y-14863340I-44189J-23484D01*
G01*
X18905208Y-14887612D02*
G75*
G02*
X18812708Y-14863340I-42540J26274D01*
G01*
X18905208Y-14887613D02*
G75*
G02*
X18924275Y-14869739I42540J-26274D01*
G01*
X18942792Y-14512387D02*
G75*
G02*
X18923725Y-14530261I-42541J26275D01*
G01*
X18942792Y-14512387D02*
G75*
G02*
X19035292Y-14536660I42540J-26274D01*
G01*
X19041105Y-14558132D02*
G75*
G02*
X19035292Y-14536660I44154J23475D01*
G01*
X19064567Y-14795145D02*
G75*
G02*
X19090046Y-14789332I23474J-44149D01*
G01*
X19121648Y-14699073D02*
G75*
G02*
X19090046Y-14789332I-29596J-40300D01*
G01*
X19121649Y-14699073D02*
G75*
G02*
X19107097Y-14682247I29596J40299D01*
G01*
X21582295Y-12411601D02*
X21648288Y-12535715D01*
X21765118Y-12224108D02*
X21624826Y-12298703D01*
X21765668Y-12563587D02*
X21905960Y-12488993D01*
X21948490Y-12376095D02*
X21882497Y-12251980D01*
X21567744Y-12394775D02*
G75*
G02*
X21582297Y-12411600I-29634J-40336D01*
G01*
X21567744Y-12394775D02*
G75*
G02*
X21599347Y-12304515I29596J40300D01*
G01*
X21624826Y-12298703D02*
G75*
G02*
X21599347Y-12304515I-23474J44148D01*
G01*
X21648288Y-12535715D02*
G75*
G02*
X21654101Y-12557188I-44189J-23484D01*
G01*
X21746601Y-12581460D02*
G75*
G02*
X21654101Y-12557188I-42540J26274D01*
G01*
X21746601Y-12581460D02*
G75*
G02*
X21765668Y-12563587I42540J-26274D01*
G01*
X21784185Y-12206235D02*
G75*
G02*
X21765118Y-12224108I-42541J26275D01*
G01*
X21784185Y-12206235D02*
G75*
G02*
X21876685Y-12230508I42540J-26274D01*
G01*
X21882497Y-12251980D02*
G75*
G02*
X21876685Y-12230508I44154J23475D01*
G01*
X21905960Y-12488993D02*
G75*
G02*
X21931439Y-12483180I23474J-44149D01*
G01*
X21963041Y-12392921D02*
G75*
G02*
X21931439Y-12483180I-29596J-40300D01*
G01*
X21963041Y-12392921D02*
G75*
G02*
X21948490Y-12376095I29596J40299D01*
G01*
X21902903Y-5329753D02*
X21968896Y-5453868D01*
X22085725Y-5142261D02*
X21945433Y-5216855D01*
X22086275Y-5481739D02*
X22226567Y-5407145D01*
X22269098Y-5294247D02*
X22203105Y-5170133D01*
X21888352Y-5312927D02*
G75*
G02*
X21902903Y-5329753I-29596J-40299D01*
G01*
X21888352Y-5312927D02*
G75*
G02*
X21919954Y-5222668I29596J40300D01*
G01*
X21945433Y-5216855D02*
G75*
G02*
X21919954Y-5222668I-23474J44149D01*
G01*
X21968896Y-5453868D02*
G75*
G02*
X21974708Y-5475340I-44154J-23475D01*
G01*
X22067208Y-5499613D02*
G75*
G02*
X21974708Y-5475340I-42540J26274D01*
G01*
X22067208Y-5499613D02*
G75*
G02*
X22086275Y-5481739I42541J-26275D01*
G01*
X22104792Y-5124387D02*
G75*
G02*
X22085725Y-5142261I-42540J26274D01*
G01*
X22104792Y-5124388D02*
G75*
G02*
X22197292Y-5148660I42540J-26274D01*
G01*
X22203105Y-5170133D02*
G75*
G02*
X22197292Y-5148660I44189J23484D01*
G01*
X22226567Y-5407145D02*
G75*
G02*
X22252046Y-5401333I23474J-44148D01*
G01*
X22283649Y-5311073D02*
G75*
G02*
X22252046Y-5401333I-29596J-40300D01*
G01*
X22283649Y-5311073D02*
G75*
G02*
X22269096Y-5294248I29634J40336D01*
G01*
D12*
D13*
X2215941Y-6918636D02*
X2405941Y-7108636D01*
X2405941Y-6918636D02*
X2215941Y-7108636D01*
X3014043Y-5417625D02*
X3204043Y-5607625D01*
X3204043Y-5417625D02*
X3014043Y-5607625D01*
X3187184Y-7435055D02*
X3377184Y-7625055D01*
X3377184Y-7435055D02*
X3187184Y-7625055D01*
X3664406Y-8028570D02*
X3854406Y-8218570D01*
X3854406Y-8028570D02*
X3664406Y-8218570D01*
X3985285Y-5934044D02*
X4175285Y-6124044D01*
X4175285Y-5934044D02*
X3985285Y-6124044D01*
X4462507Y-6527559D02*
X4652507Y-6717559D01*
X4652507Y-6527559D02*
X4462507Y-6717559D01*
X4635648Y-8544988D02*
X4825648Y-8734988D01*
X4825648Y-8544988D02*
X4635648Y-8734988D01*
X5260609Y-5026548D02*
X5450609Y-5216548D01*
X5450609Y-5026548D02*
X5260609Y-5216548D01*
X5433750Y-7043977D02*
X5623749Y-7233977D01*
X5623749Y-7043977D02*
X5433750Y-7233977D01*
X5957919Y-7549197D02*
X6147919Y-7739197D01*
X6147919Y-7549197D02*
X5957919Y-7739197D01*
X6231851Y-5542967D02*
X6421851Y-5732967D01*
X6421851Y-5542967D02*
X6231851Y-5732967D01*
X6756020Y-6048186D02*
X6946020Y-6238186D01*
X6946020Y-6048186D02*
X6756020Y-6238186D01*
X6929161Y-8065616D02*
X7119161Y-8255616D01*
X7119161Y-8065616D02*
X6929161Y-8255616D01*
X7554122Y-4547175D02*
X7744122Y-4737175D01*
X7744122Y-4547175D02*
X7554122Y-4737175D01*
X7727262Y-6564605D02*
X7917262Y-6754605D01*
X7917262Y-6564605D02*
X7727262Y-6754605D01*
X7868980Y-11623245D02*
X8058980Y-11813245D01*
X8058980Y-11623245D02*
X7868980Y-11813245D01*
X7922802Y-7687888D02*
X8112802Y-7877888D01*
X8112802Y-7687888D02*
X7922802Y-7877888D01*
X8525364Y-5063594D02*
X8715364Y-5253594D01*
X8715364Y-5063594D02*
X8525364Y-5253594D01*
X8720903Y-6186877D02*
X8910903Y-6376877D01*
X8910903Y-6186877D02*
X8720903Y-6376877D01*
X8840223Y-12139664D02*
X9030223Y-12329664D01*
X9030223Y-12139664D02*
X8840223Y-12329664D01*
X8894044Y-8204307D02*
X9084044Y-8394307D01*
X9084044Y-8204307D02*
X8894044Y-8394307D01*
X9136530Y-9239295D02*
X9326530Y-9429295D01*
X9326530Y-9239295D02*
X9136530Y-9429295D01*
X9411339Y-12556589D02*
X9601339Y-12746589D01*
X9601339Y-12556589D02*
X9411339Y-12746589D01*
X9519005Y-4685866D02*
X9709005Y-4875866D01*
X9709005Y-4685866D02*
X9519005Y-4875866D01*
X9692146Y-6703296D02*
X9882146Y-6893296D01*
X9882146Y-6703296D02*
X9692146Y-6893296D01*
X9934631Y-7738284D02*
X10124631Y-7928284D01*
X10124631Y-7738284D02*
X9934631Y-7928284D01*
X10107772Y-9755714D02*
X10297772Y-9945714D01*
X10297772Y-9755714D02*
X10107772Y-9945714D01*
X10209441Y-11055578D02*
X10399441Y-11245578D01*
X10399441Y-11055578D02*
X10209441Y-11245578D01*
X10382582Y-13073008D02*
X10572582Y-13263008D01*
X10572582Y-13073008D02*
X10382582Y-13263008D01*
X10490247Y-5202285D02*
X10680247Y-5392285D01*
X10680247Y-5202285D02*
X10490247Y-5392285D01*
X10718962Y-13931406D02*
X10908962Y-14121406D01*
X10908962Y-13931406D02*
X10718962Y-14121406D01*
X10732733Y-6237273D02*
X10922733Y-6427273D01*
X10922733Y-6237273D02*
X10732733Y-6427273D01*
X10905874Y-8254702D02*
X11095874Y-8444702D01*
X11095874Y-8254702D02*
X10905874Y-8444702D01*
X11007518Y-9554575D02*
X11197518Y-9744575D01*
X11197518Y-9554575D02*
X11007518Y-9744575D01*
X11180683Y-11571997D02*
X11370683Y-11761997D01*
X11370683Y-11571997D02*
X11180683Y-11761997D01*
X11517064Y-12430395D02*
X11707064Y-12620395D01*
X11707064Y-12430395D02*
X11517064Y-12620395D01*
X11690204Y-14447825D02*
X11880204Y-14637825D01*
X11880204Y-14447825D02*
X11690204Y-14637825D01*
X11703975Y-6753692D02*
X11893975Y-6943692D01*
X11893975Y-6753692D02*
X11703975Y-6943692D01*
X11805620Y-8053564D02*
X11995620Y-8243564D01*
X11995620Y-8053564D02*
X11805620Y-8243564D01*
X11978761Y-10070994D02*
X12168761Y-10260994D01*
X12168761Y-10070994D02*
X11978761Y-10260994D01*
X12488306Y-12946814D02*
X12678306Y-13136814D01*
X12678306Y-12946814D02*
X12488306Y-13136814D01*
X12776862Y-8569983D02*
X12966862Y-8759983D01*
X12966862Y-8569983D02*
X12776862Y-8759983D01*
X17033145Y-8569996D02*
X17223145Y-8759996D01*
X17223145Y-8569996D02*
X17033145Y-8759996D01*
X17321704Y-12946801D02*
X17511704Y-13136801D01*
X17511704Y-12946801D02*
X17321704Y-13136801D01*
X17831247Y-10071007D02*
X18021247Y-10261007D01*
X18021247Y-10071007D02*
X17831247Y-10261007D01*
X18004388Y-8053577D02*
X18194388Y-8243577D01*
X18194388Y-8053577D02*
X18004388Y-8243577D01*
X18106032Y-6753704D02*
X18296032Y-6943704D01*
X18296032Y-6753704D02*
X18106032Y-6943704D01*
X18119806Y-14447812D02*
X18309806Y-14637812D01*
X18309806Y-14447812D02*
X18119806Y-14637812D01*
X18292947Y-12430382D02*
X18482947Y-12620382D01*
X18482947Y-12430382D02*
X18292947Y-12620382D01*
X18629327Y-11571984D02*
X18819327Y-11761984D01*
X18819327Y-11571984D02*
X18629327Y-11761984D01*
X18802489Y-9554588D02*
X18992489Y-9744588D01*
X18992489Y-9554588D02*
X18802489Y-9744588D01*
X18904134Y-8254715D02*
X19094134Y-8444715D01*
X19094134Y-8254715D02*
X18904134Y-8444715D01*
X19077274Y-6237285D02*
X19267274Y-6427285D01*
X19267274Y-6237285D02*
X19077274Y-6427285D01*
X19091048Y-13931393D02*
X19281048Y-14121393D01*
X19281048Y-13931393D02*
X19091048Y-14121393D01*
X19319761Y-5202298D02*
X19509761Y-5392298D01*
X19509761Y-5202298D02*
X19319761Y-5392298D01*
X19427429Y-13072994D02*
X19617429Y-13262994D01*
X19617429Y-13072994D02*
X19427429Y-13262994D01*
X19600569Y-11055565D02*
X19790569Y-11245565D01*
X19790569Y-11055565D02*
X19600569Y-11245565D01*
X19702235Y-9755726D02*
X19892235Y-9945726D01*
X19892235Y-9755726D02*
X19702235Y-9945726D01*
X19875376Y-7738297D02*
X20065376Y-7928297D01*
X20065376Y-7738297D02*
X19875376Y-7928297D01*
X20117862Y-6703308D02*
X20307862Y-6893308D01*
X20307862Y-6703308D02*
X20117862Y-6893308D01*
X20291003Y-4685879D02*
X20481003Y-4875879D01*
X20481003Y-4685879D02*
X20291003Y-4875879D01*
X20398671Y-12556575D02*
X20588671Y-12746575D01*
X20588671Y-12556575D02*
X20398671Y-12746575D01*
X20673478Y-9239307D02*
X20863478Y-9429307D01*
X20863478Y-9239307D02*
X20673478Y-9429307D01*
X20915964Y-8204319D02*
X21105964Y-8394319D01*
X21105964Y-8204319D02*
X20915964Y-8394319D01*
X20969787Y-12139651D02*
X21159787Y-12329651D01*
X21159787Y-12139651D02*
X20969787Y-12329651D01*
X21089105Y-6186890D02*
X21279105Y-6376890D01*
X21279105Y-6186890D02*
X21089105Y-6376890D01*
X21284643Y-5063607D02*
X21474643Y-5253607D01*
X21474643Y-5063607D02*
X21284643Y-5253607D01*
X21887206Y-7687900D02*
X22077206Y-7877900D01*
X22077206Y-7687900D02*
X21887206Y-7877900D01*
X21941029Y-11623232D02*
X22131029Y-11813232D01*
X22131029Y-11623232D02*
X21941029Y-11813232D01*
X22082745Y-6564618D02*
X22272745Y-6754618D01*
X22272745Y-6564618D02*
X22082745Y-6754618D01*
X22255886Y-4547188D02*
X22445886Y-4737188D01*
X22445886Y-4547188D02*
X22255886Y-4737188D01*
X22880846Y-8065629D02*
X23070846Y-8255629D01*
X23070846Y-8065629D02*
X22880846Y-8255629D01*
X23053987Y-6048199D02*
X23243987Y-6238199D01*
X23243987Y-6048199D02*
X23053987Y-6238199D01*
X23578156Y-5542979D02*
X23768156Y-5732979D01*
X23768156Y-5542979D02*
X23578156Y-5732979D01*
X23852089Y-7549210D02*
X24042089Y-7739210D01*
X24042089Y-7549210D02*
X23852089Y-7739210D01*
X24376258Y-7043990D02*
X24566258Y-7233990D01*
X24566258Y-7043990D02*
X24376258Y-7233990D01*
X24549399Y-5026561D02*
X24739399Y-5216561D01*
X24739399Y-5026561D02*
X24549399Y-5216561D01*
X25174360Y-8545001D02*
X25364360Y-8735001D01*
X25364360Y-8545001D02*
X25174360Y-8735001D01*
X25347500Y-6527572D02*
X25537500Y-6717572D01*
X25537500Y-6527572D02*
X25347500Y-6717572D01*
X25824722Y-5934057D02*
X26014722Y-6124057D01*
X26014722Y-5934057D02*
X25824722Y-6124057D01*
X26145602Y-8028582D02*
X26335602Y-8218582D01*
X26335602Y-8028582D02*
X26145602Y-8218582D01*
X26622824Y-7435068D02*
X26812824Y-7625068D01*
X26812824Y-7435068D02*
X26622824Y-7625068D01*
X26795965Y-5417639D02*
X26985965Y-5607639D01*
X26985965Y-5417639D02*
X26795965Y-5607639D01*
X27594066Y-6918649D02*
X27784066Y-7108649D01*
X27784066Y-6918649D02*
X27594066Y-7108649D01*
D14*
X3049063Y-7271846D02*
G75*
G02*
X2544063Y-7271846I-252500J0D01*
G01*
X2544063Y-7271846D02*
G75*
G02*
X3049063Y-7271846I252500J0D01*
G01*
X3847164Y-5770835D02*
G75*
G02*
X3342164Y-5770835I-252500J0D01*
G01*
X3342164Y-5770835D02*
G75*
G02*
X3847164Y-5770835I252500J0D01*
G01*
X4497527Y-8381779D02*
G75*
G02*
X3992527Y-8381779I-252500J0D01*
G01*
X3992527Y-8381779D02*
G75*
G02*
X4497527Y-8381779I252500J0D01*
G01*
X5295628Y-6880768D02*
G75*
G02*
X4790628Y-6880768I-252500J0D01*
G01*
X4790628Y-6880768D02*
G75*
G02*
X5295628Y-6880768I252500J0D01*
G01*
X6093730Y-5379757D02*
G75*
G02*
X5588730Y-5379757I-252500J0D01*
G01*
X5588730Y-5379757D02*
G75*
G02*
X6093730Y-5379757I252500J0D01*
G01*
X6791040Y-7902406D02*
G75*
G02*
X6286040Y-7902406I-252500J0D01*
G01*
X6286040Y-7902406D02*
G75*
G02*
X6791040Y-7902406I252500J0D01*
G01*
X7589141Y-6401396D02*
G75*
G02*
X7084141Y-6401396I-252500J0D01*
G01*
X7084141Y-6401396D02*
G75*
G02*
X7589141Y-6401396I252500J0D01*
G01*
X8387243Y-4900385D02*
G75*
G02*
X7882243Y-4900385I-252500J0D01*
G01*
X7882243Y-4900385D02*
G75*
G02*
X8387243Y-4900385I252500J0D01*
G01*
X8702102Y-11976454D02*
G75*
G02*
X8197102Y-11976454I-252500J0D01*
G01*
X8197102Y-11976454D02*
G75*
G02*
X8702102Y-11976454I252500J0D01*
G01*
X8755923Y-8041097D02*
G75*
G02*
X8250923Y-8041097I-252500J0D01*
G01*
X8250923Y-8041097D02*
G75*
G02*
X8755923Y-8041097I252500J0D01*
G01*
X9554024Y-6540086D02*
G75*
G02*
X9049024Y-6540086I-252500J0D01*
G01*
X9049024Y-6540086D02*
G75*
G02*
X9554024Y-6540086I252500J0D01*
G01*
X9969651Y-9592504D02*
G75*
G02*
X9464651Y-9592504I-252500J0D01*
G01*
X9464651Y-9592504D02*
G75*
G02*
X9969651Y-9592504I252500J0D01*
G01*
X10244460Y-12909798D02*
G75*
G02*
X9739460Y-12909798I-252500J0D01*
G01*
X9739460Y-12909798D02*
G75*
G02*
X10244460Y-12909798I252500J0D01*
G01*
X10352126Y-5039076D02*
G75*
G02*
X9847126Y-5039076I-252500J0D01*
G01*
X9847126Y-5039076D02*
G75*
G02*
X10352126Y-5039076I252500J0D01*
G01*
X10767753Y-8091493D02*
G75*
G02*
X10262753Y-8091493I-252500J0D01*
G01*
X10262753Y-8091493D02*
G75*
G02*
X10767753Y-8091493I252500J0D01*
G01*
X11042562Y-11408787D02*
G75*
G02*
X10537562Y-11408787I-252500J0D01*
G01*
X10537562Y-11408787D02*
G75*
G02*
X11042562Y-11408787I252500J0D01*
G01*
X11552083Y-14284615D02*
G75*
G02*
X11047083Y-14284615I-252500J0D01*
G01*
X11047083Y-14284615D02*
G75*
G02*
X11552083Y-14284615I252500J0D01*
G01*
X11565854Y-6590482D02*
G75*
G02*
X11060854Y-6590482I-252500J0D01*
G01*
X11060854Y-6590482D02*
G75*
G02*
X11565854Y-6590482I252500J0D01*
G01*
X11840639Y-9907785D02*
G75*
G02*
X11335639Y-9907785I-252500J0D01*
G01*
X11335639Y-9907785D02*
G75*
G02*
X11840639Y-9907785I252500J0D01*
G01*
X12350185Y-12783605D02*
G75*
G02*
X11845185Y-12783605I-252500J0D01*
G01*
X11845185Y-12783605D02*
G75*
G02*
X12350185Y-12783605I252500J0D01*
G01*
X12638741Y-8406773D02*
G75*
G02*
X12133741Y-8406773I-252500J0D01*
G01*
X12133741Y-8406773D02*
G75*
G02*
X12638741Y-8406773I252500J0D01*
G01*
X17866266Y-8406786D02*
G75*
G02*
X17361266Y-8406786I-252500J0D01*
G01*
X17361266Y-8406786D02*
G75*
G02*
X17866266Y-8406786I252500J0D01*
G01*
X18154825Y-12783592D02*
G75*
G02*
X17649825Y-12783592I-252500J0D01*
G01*
X17649825Y-12783592D02*
G75*
G02*
X18154825Y-12783592I252500J0D01*
G01*
X18664368Y-9907797D02*
G75*
G02*
X18159368Y-9907797I-252500J0D01*
G01*
X18159368Y-9907797D02*
G75*
G02*
X18664368Y-9907797I252500J0D01*
G01*
X18939153Y-6590495D02*
G75*
G02*
X18434153Y-6590495I-252500J0D01*
G01*
X18434153Y-6590495D02*
G75*
G02*
X18939153Y-6590495I252500J0D01*
G01*
X18952927Y-14284602D02*
G75*
G02*
X18447927Y-14284602I-252500J0D01*
G01*
X18447927Y-14284602D02*
G75*
G02*
X18952927Y-14284602I252500J0D01*
G01*
X19462448Y-11408774D02*
G75*
G02*
X18957448Y-11408774I-252500J0D01*
G01*
X18957448Y-11408774D02*
G75*
G02*
X19462448Y-11408774I252500J0D01*
G01*
X19737255Y-8091506D02*
G75*
G02*
X19232255Y-8091506I-252500J0D01*
G01*
X19232255Y-8091506D02*
G75*
G02*
X19737255Y-8091506I252500J0D01*
G01*
X20152882Y-5039088D02*
G75*
G02*
X19647882Y-5039088I-252500J0D01*
G01*
X19647882Y-5039088D02*
G75*
G02*
X20152882Y-5039088I252500J0D01*
G01*
X20260550Y-12909785D02*
G75*
G02*
X19755550Y-12909785I-252500J0D01*
G01*
X19755550Y-12909785D02*
G75*
G02*
X20260550Y-12909785I252500J0D01*
G01*
X20535357Y-9592517D02*
G75*
G02*
X20030357Y-9592517I-252500J0D01*
G01*
X20030357Y-9592517D02*
G75*
G02*
X20535357Y-9592517I252500J0D01*
G01*
X20950983Y-6540099D02*
G75*
G02*
X20445983Y-6540099I-252500J0D01*
G01*
X20445983Y-6540099D02*
G75*
G02*
X20950983Y-6540099I252500J0D01*
G01*
X21749085Y-8041110D02*
G75*
G02*
X21244085Y-8041110I-252500J0D01*
G01*
X21244085Y-8041110D02*
G75*
G02*
X21749085Y-8041110I252500J0D01*
G01*
X21802908Y-11976442D02*
G75*
G02*
X21297908Y-11976442I-252500J0D01*
G01*
X21297908Y-11976442D02*
G75*
G02*
X21802908Y-11976442I252500J0D01*
G01*
X22117765Y-4900398D02*
G75*
G02*
X21612765Y-4900398I-252500J0D01*
G01*
X21612765Y-4900398D02*
G75*
G02*
X22117765Y-4900398I252500J0D01*
G01*
X22915866Y-6401408D02*
G75*
G02*
X22410866Y-6401408I-252500J0D01*
G01*
X22410866Y-6401408D02*
G75*
G02*
X22915866Y-6401408I252500J0D01*
G01*
X23713968Y-7902419D02*
G75*
G02*
X23208968Y-7902419I-252500J0D01*
G01*
X23208968Y-7902419D02*
G75*
G02*
X23713968Y-7902419I252500J0D01*
G01*
X24411278Y-5379770D02*
G75*
G02*
X23906278Y-5379770I-252500J0D01*
G01*
X23906278Y-5379770D02*
G75*
G02*
X24411278Y-5379770I252500J0D01*
G01*
X25209379Y-6880781D02*
G75*
G02*
X24704379Y-6880781I-252500J0D01*
G01*
X24704379Y-6880781D02*
G75*
G02*
X25209379Y-6880781I252500J0D01*
G01*
X26007481Y-8381792D02*
G75*
G02*
X25502481Y-8381792I-252500J0D01*
G01*
X25502481Y-8381792D02*
G75*
G02*
X26007481Y-8381792I252500J0D01*
G01*
X26657843Y-5770848D02*
G75*
G02*
X26152843Y-5770848I-252500J0D01*
G01*
X26152843Y-5770848D02*
G75*
G02*
X26657843Y-5770848I252500J0D01*
G01*
X27455945Y-7271859D02*
G75*
G02*
X26950945Y-7271859I-252500J0D01*
G01*
X26950945Y-7271859D02*
G75*
G02*
X27455945Y-7271859I252500J0D01*
G01*
D12*
X1593182Y-15934880D02*
X1593182Y-15734880D01*
X1593182Y-15734880D02*
X1640801Y-15734880D01*
X1640801Y-15734880D02*
X1669372Y-15744404D01*
X1669372Y-15744404D02*
X1688420Y-15763451D01*
X1688420Y-15763451D02*
X1697944Y-15782499D01*
X1697944Y-15782499D02*
X1707468Y-15820594D01*
X1707468Y-15820594D02*
X1707468Y-15849166D01*
X1707468Y-15849166D02*
X1697944Y-15887261D01*
X1697944Y-15887261D02*
X1688420Y-15906308D01*
X1688420Y-15906308D02*
X1669372Y-15925356D01*
X1669372Y-15925356D02*
X1640801Y-15934880D01*
X1640801Y-15934880D02*
X1593182Y-15934880D01*
X1793182Y-15934880D02*
X1793182Y-15801546D01*
X1793182Y-15839642D02*
X1802706Y-15820594D01*
X1802706Y-15820594D02*
X1812230Y-15811070D01*
X1812230Y-15811070D02*
X1831277Y-15801546D01*
X1831277Y-15801546D02*
X1850325Y-15801546D01*
X1916991Y-15934880D02*
X1916991Y-15801546D01*
X1916991Y-15734880D02*
X1907468Y-15744404D01*
X1907468Y-15744404D02*
X1916991Y-15753927D01*
X1916991Y-15753927D02*
X1926515Y-15744404D01*
X1926515Y-15744404D02*
X1916991Y-15734880D01*
X1916991Y-15734880D02*
X1916991Y-15753927D01*
X2040801Y-15934880D02*
X2021753Y-15925356D01*
X2021753Y-15925356D02*
X2012230Y-15906308D01*
X2012230Y-15906308D02*
X2012230Y-15734880D01*
X2145563Y-15934880D02*
X2126515Y-15925356D01*
X2126515Y-15925356D02*
X2116992Y-15906308D01*
X2116992Y-15906308D02*
X2116992Y-15734880D01*
X2374134Y-15934880D02*
X2374134Y-15734880D01*
X2374134Y-15734880D02*
X2440801Y-15877737D01*
X2440801Y-15877737D02*
X2507468Y-15734880D01*
X2507468Y-15734880D02*
X2507468Y-15934880D01*
X2688420Y-15934880D02*
X2688420Y-15830118D01*
X2688420Y-15830118D02*
X2678896Y-15811070D01*
X2678896Y-15811070D02*
X2659849Y-15801546D01*
X2659849Y-15801546D02*
X2621753Y-15801546D01*
X2621753Y-15801546D02*
X2602706Y-15811070D01*
X2688420Y-15925356D02*
X2669373Y-15934880D01*
X2669373Y-15934880D02*
X2621753Y-15934880D01*
X2621753Y-15934880D02*
X2602706Y-15925356D01*
X2602706Y-15925356D02*
X2593182Y-15906308D01*
X2593182Y-15906308D02*
X2593182Y-15887261D01*
X2593182Y-15887261D02*
X2602706Y-15868213D01*
X2602706Y-15868213D02*
X2621753Y-15858689D01*
X2621753Y-15858689D02*
X2669373Y-15858689D01*
X2669373Y-15858689D02*
X2688420Y-15849166D01*
X2783658Y-15801546D02*
X2783658Y-16001546D01*
X2783658Y-15811070D02*
X2802706Y-15801546D01*
X2802706Y-15801546D02*
X2840801Y-15801546D01*
X2840801Y-15801546D02*
X2859849Y-15811070D01*
X2859849Y-15811070D02*
X2869372Y-15820594D01*
X2869372Y-15820594D02*
X2878896Y-15839642D01*
X2878896Y-15839642D02*
X2878896Y-15896785D01*
X2878896Y-15896785D02*
X2869372Y-15915832D01*
X2869372Y-15915832D02*
X2859849Y-15925356D01*
X2859849Y-15925356D02*
X2840801Y-15934880D01*
X2840801Y-15934880D02*
X2802706Y-15934880D01*
X2802706Y-15934880D02*
X2783658Y-15925356D01*
X2964611Y-15915832D02*
X2974134Y-15925356D01*
X2974134Y-15925356D02*
X2964611Y-15934880D01*
X2964611Y-15934880D02*
X2955087Y-15925356D01*
X2955087Y-15925356D02*
X2964611Y-15915832D01*
X2964611Y-15915832D02*
X2964611Y-15934880D01*
X2964611Y-15811070D02*
X2974134Y-15820594D01*
X2974134Y-15820594D02*
X2964611Y-15830118D01*
X2964611Y-15830118D02*
X2955087Y-15820594D01*
X2955087Y-15820594D02*
X2964611Y-15811070D01*
X2964611Y-15811070D02*
X2964611Y-15830118D01*
D13*
X1142405Y-16168396D02*
X1332405Y-16358396D01*
X1332405Y-16168396D02*
X1142405Y-16358396D01*
D12*
X1697944Y-16354880D02*
X1583658Y-16354880D01*
X1640801Y-16354880D02*
X1640801Y-16154880D01*
X1640801Y-16154880D02*
X1621753Y-16183451D01*
X1621753Y-16183451D02*
X1602706Y-16202499D01*
X1602706Y-16202499D02*
X1583658Y-16212023D01*
X1783658Y-16335832D02*
X1793182Y-16345356D01*
X1793182Y-16345356D02*
X1783658Y-16354880D01*
X1783658Y-16354880D02*
X1774134Y-16345356D01*
X1774134Y-16345356D02*
X1783658Y-16335832D01*
X1783658Y-16335832D02*
X1783658Y-16354880D01*
X1888420Y-16354880D02*
X1926515Y-16354880D01*
X1926515Y-16354880D02*
X1945563Y-16345356D01*
X1945563Y-16345356D02*
X1955087Y-16335832D01*
X1955087Y-16335832D02*
X1974134Y-16307261D01*
X1974134Y-16307261D02*
X1983658Y-16269166D01*
X1983658Y-16269166D02*
X1983658Y-16192975D01*
X1983658Y-16192975D02*
X1974134Y-16173927D01*
X1974134Y-16173927D02*
X1964611Y-16164404D01*
X1964611Y-16164404D02*
X1945563Y-16154880D01*
X1945563Y-16154880D02*
X1907468Y-16154880D01*
X1907468Y-16154880D02*
X1888420Y-16164404D01*
X1888420Y-16164404D02*
X1878896Y-16173927D01*
X1878896Y-16173927D02*
X1869372Y-16192975D01*
X1869372Y-16192975D02*
X1869372Y-16240594D01*
X1869372Y-16240594D02*
X1878896Y-16259642D01*
X1878896Y-16259642D02*
X1888420Y-16269166D01*
X1888420Y-16269166D02*
X1907468Y-16278689D01*
X1907468Y-16278689D02*
X1945563Y-16278689D01*
X1945563Y-16278689D02*
X1964611Y-16269166D01*
X1964611Y-16269166D02*
X1974134Y-16259642D01*
X1974134Y-16259642D02*
X1983658Y-16240594D01*
X2107468Y-16154880D02*
X2126515Y-16154880D01*
X2126515Y-16154880D02*
X2145563Y-16164404D01*
X2145563Y-16164404D02*
X2155087Y-16173927D01*
X2155087Y-16173927D02*
X2164611Y-16192975D01*
X2164611Y-16192975D02*
X2174134Y-16231070D01*
X2174134Y-16231070D02*
X2174134Y-16278689D01*
X2174134Y-16278689D02*
X2164611Y-16316785D01*
X2164611Y-16316785D02*
X2155087Y-16335832D01*
X2155087Y-16335832D02*
X2145563Y-16345356D01*
X2145563Y-16345356D02*
X2126515Y-16354880D01*
X2126515Y-16354880D02*
X2107468Y-16354880D01*
X2107468Y-16354880D02*
X2088420Y-16345356D01*
X2088420Y-16345356D02*
X2078896Y-16335832D01*
X2078896Y-16335832D02*
X2069372Y-16316785D01*
X2069372Y-16316785D02*
X2059849Y-16278689D01*
X2059849Y-16278689D02*
X2059849Y-16231070D01*
X2059849Y-16231070D02*
X2069372Y-16192975D01*
X2069372Y-16192975D02*
X2078896Y-16173927D01*
X2078896Y-16173927D02*
X2088420Y-16164404D01*
X2088420Y-16164404D02*
X2107468Y-16154880D01*
X2297944Y-16154880D02*
X2316992Y-16154880D01*
X2316992Y-16154880D02*
X2336039Y-16164404D01*
X2336039Y-16164404D02*
X2345563Y-16173927D01*
X2345563Y-16173927D02*
X2355087Y-16192975D01*
X2355087Y-16192975D02*
X2364611Y-16231070D01*
X2364611Y-16231070D02*
X2364611Y-16278689D01*
X2364611Y-16278689D02*
X2355087Y-16316785D01*
X2355087Y-16316785D02*
X2345563Y-16335832D01*
X2345563Y-16335832D02*
X2336039Y-16345356D01*
X2336039Y-16345356D02*
X2316992Y-16354880D01*
X2316992Y-16354880D02*
X2297944Y-16354880D01*
X2297944Y-16354880D02*
X2278896Y-16345356D01*
X2278896Y-16345356D02*
X2269373Y-16335832D01*
X2269373Y-16335832D02*
X2259849Y-16316785D01*
X2259849Y-16316785D02*
X2250325Y-16278689D01*
X2250325Y-16278689D02*
X2250325Y-16231070D01*
X2250325Y-16231070D02*
X2259849Y-16192975D01*
X2259849Y-16192975D02*
X2269373Y-16173927D01*
X2269373Y-16173927D02*
X2278896Y-16164404D01*
X2278896Y-16164404D02*
X2297944Y-16154880D01*
X2450325Y-16354880D02*
X2450325Y-16221546D01*
X2450325Y-16240594D02*
X2459849Y-16231070D01*
X2459849Y-16231070D02*
X2478896Y-16221546D01*
X2478896Y-16221546D02*
X2507468Y-16221546D01*
X2507468Y-16221546D02*
X2526515Y-16231070D01*
X2526515Y-16231070D02*
X2536039Y-16250118D01*
X2536039Y-16250118D02*
X2536039Y-16354880D01*
X2536039Y-16250118D02*
X2545563Y-16231070D01*
X2545563Y-16231070D02*
X2564611Y-16221546D01*
X2564611Y-16221546D02*
X2593182Y-16221546D01*
X2593182Y-16221546D02*
X2612230Y-16231070D01*
X2612230Y-16231070D02*
X2621754Y-16250118D01*
X2621754Y-16250118D02*
X2621754Y-16354880D01*
X2716992Y-16354880D02*
X2716992Y-16221546D01*
X2716992Y-16240594D02*
X2726515Y-16231070D01*
X2726515Y-16231070D02*
X2745563Y-16221546D01*
X2745563Y-16221546D02*
X2774135Y-16221546D01*
X2774135Y-16221546D02*
X2793182Y-16231070D01*
X2793182Y-16231070D02*
X2802706Y-16250118D01*
X2802706Y-16250118D02*
X2802706Y-16354880D01*
X2802706Y-16250118D02*
X2812230Y-16231070D01*
X2812230Y-16231070D02*
X2831277Y-16221546D01*
X2831277Y-16221546D02*
X2859849Y-16221546D01*
X2859849Y-16221546D02*
X2878896Y-16231070D01*
X2878896Y-16231070D02*
X2888420Y-16250118D01*
X2888420Y-16250118D02*
X2888420Y-16354880D01*
X3278896Y-16145356D02*
X3107468Y-16402499D01*
X3536039Y-16154880D02*
X3555087Y-16154880D01*
X3555087Y-16154880D02*
X3574135Y-16164404D01*
X3574135Y-16164404D02*
X3583658Y-16173927D01*
X3583658Y-16173927D02*
X3593182Y-16192975D01*
X3593182Y-16192975D02*
X3602706Y-16231070D01*
X3602706Y-16231070D02*
X3602706Y-16278689D01*
X3602706Y-16278689D02*
X3593182Y-16316785D01*
X3593182Y-16316785D02*
X3583658Y-16335832D01*
X3583658Y-16335832D02*
X3574135Y-16345356D01*
X3574135Y-16345356D02*
X3555087Y-16354880D01*
X3555087Y-16354880D02*
X3536039Y-16354880D01*
X3536039Y-16354880D02*
X3516992Y-16345356D01*
X3516992Y-16345356D02*
X3507468Y-16335832D01*
X3507468Y-16335832D02*
X3497944Y-16316785D01*
X3497944Y-16316785D02*
X3488420Y-16278689D01*
X3488420Y-16278689D02*
X3488420Y-16231070D01*
X3488420Y-16231070D02*
X3497944Y-16192975D01*
X3497944Y-16192975D02*
X3507468Y-16173927D01*
X3507468Y-16173927D02*
X3516992Y-16164404D01*
X3516992Y-16164404D02*
X3536039Y-16154880D01*
X3688420Y-16335832D02*
X3697944Y-16345356D01*
X3697944Y-16345356D02*
X3688420Y-16354880D01*
X3688420Y-16354880D02*
X3678896Y-16345356D01*
X3678896Y-16345356D02*
X3688420Y-16335832D01*
X3688420Y-16335832D02*
X3688420Y-16354880D01*
X3821754Y-16154880D02*
X3840801Y-16154880D01*
X3840801Y-16154880D02*
X3859849Y-16164404D01*
X3859849Y-16164404D02*
X3869373Y-16173927D01*
X3869373Y-16173927D02*
X3878896Y-16192975D01*
X3878896Y-16192975D02*
X3888420Y-16231070D01*
X3888420Y-16231070D02*
X3888420Y-16278689D01*
X3888420Y-16278689D02*
X3878896Y-16316785D01*
X3878896Y-16316785D02*
X3869373Y-16335832D01*
X3869373Y-16335832D02*
X3859849Y-16345356D01*
X3859849Y-16345356D02*
X3840801Y-16354880D01*
X3840801Y-16354880D02*
X3821754Y-16354880D01*
X3821754Y-16354880D02*
X3802706Y-16345356D01*
X3802706Y-16345356D02*
X3793182Y-16335832D01*
X3793182Y-16335832D02*
X3783658Y-16316785D01*
X3783658Y-16316785D02*
X3774135Y-16278689D01*
X3774135Y-16278689D02*
X3774135Y-16231070D01*
X3774135Y-16231070D02*
X3783658Y-16192975D01*
X3783658Y-16192975D02*
X3793182Y-16173927D01*
X3793182Y-16173927D02*
X3802706Y-16164404D01*
X3802706Y-16164404D02*
X3821754Y-16154880D01*
X3955087Y-16154880D02*
X4088420Y-16154880D01*
X4088420Y-16154880D02*
X4002706Y-16354880D01*
X4250325Y-16221546D02*
X4250325Y-16354880D01*
X4202706Y-16145356D02*
X4155087Y-16288213D01*
X4155087Y-16288213D02*
X4278897Y-16288213D01*
X4383658Y-16240594D02*
X4364611Y-16231070D01*
X4364611Y-16231070D02*
X4355087Y-16221546D01*
X4355087Y-16221546D02*
X4345563Y-16202499D01*
X4345563Y-16202499D02*
X4345563Y-16192975D01*
X4345563Y-16192975D02*
X4355087Y-16173927D01*
X4355087Y-16173927D02*
X4364611Y-16164404D01*
X4364611Y-16164404D02*
X4383658Y-16154880D01*
X4383658Y-16154880D02*
X4421754Y-16154880D01*
X4421754Y-16154880D02*
X4440801Y-16164404D01*
X4440801Y-16164404D02*
X4450325Y-16173927D01*
X4450325Y-16173927D02*
X4459849Y-16192975D01*
X4459849Y-16192975D02*
X4459849Y-16202499D01*
X4459849Y-16202499D02*
X4450325Y-16221546D01*
X4450325Y-16221546D02*
X4440801Y-16231070D01*
X4440801Y-16231070D02*
X4421754Y-16240594D01*
X4421754Y-16240594D02*
X4383658Y-16240594D01*
X4383658Y-16240594D02*
X4364611Y-16250118D01*
X4364611Y-16250118D02*
X4355087Y-16259642D01*
X4355087Y-16259642D02*
X4345563Y-16278689D01*
X4345563Y-16278689D02*
X4345563Y-16316785D01*
X4345563Y-16316785D02*
X4355087Y-16335832D01*
X4355087Y-16335832D02*
X4364611Y-16345356D01*
X4364611Y-16345356D02*
X4383658Y-16354880D01*
X4383658Y-16354880D02*
X4421754Y-16354880D01*
X4421754Y-16354880D02*
X4440801Y-16345356D01*
X4440801Y-16345356D02*
X4450325Y-16335832D01*
X4450325Y-16335832D02*
X4459849Y-16316785D01*
X4459849Y-16316785D02*
X4459849Y-16278689D01*
X4459849Y-16278689D02*
X4450325Y-16259642D01*
X4450325Y-16259642D02*
X4440801Y-16250118D01*
X4440801Y-16250118D02*
X4421754Y-16240594D01*
X4536039Y-16154880D02*
X4536039Y-16192975D01*
X4612230Y-16154880D02*
X4612230Y-16192975D01*
X4907468Y-16431070D02*
X4897944Y-16421546D01*
X4897944Y-16421546D02*
X4878897Y-16392975D01*
X4878897Y-16392975D02*
X4869373Y-16373927D01*
X4869373Y-16373927D02*
X4859849Y-16345356D01*
X4859849Y-16345356D02*
X4850325Y-16297737D01*
X4850325Y-16297737D02*
X4850325Y-16259642D01*
X4850325Y-16259642D02*
X4859849Y-16212023D01*
X4859849Y-16212023D02*
X4869373Y-16183451D01*
X4869373Y-16183451D02*
X4878897Y-16164404D01*
X4878897Y-16164404D02*
X4897944Y-16135832D01*
X4897944Y-16135832D02*
X4907468Y-16126308D01*
X5012230Y-16240594D02*
X4993182Y-16231070D01*
X4993182Y-16231070D02*
X4983659Y-16221546D01*
X4983659Y-16221546D02*
X4974135Y-16202499D01*
X4974135Y-16202499D02*
X4974135Y-16192975D01*
X4974135Y-16192975D02*
X4983659Y-16173927D01*
X4983659Y-16173927D02*
X4993182Y-16164404D01*
X4993182Y-16164404D02*
X5012230Y-16154880D01*
X5012230Y-16154880D02*
X5050325Y-16154880D01*
X5050325Y-16154880D02*
X5069373Y-16164404D01*
X5069373Y-16164404D02*
X5078897Y-16173927D01*
X5078897Y-16173927D02*
X5088420Y-16192975D01*
X5088420Y-16192975D02*
X5088420Y-16202499D01*
X5088420Y-16202499D02*
X5078897Y-16221546D01*
X5078897Y-16221546D02*
X5069373Y-16231070D01*
X5069373Y-16231070D02*
X5050325Y-16240594D01*
X5050325Y-16240594D02*
X5012230Y-16240594D01*
X5012230Y-16240594D02*
X4993182Y-16250118D01*
X4993182Y-16250118D02*
X4983659Y-16259642D01*
X4983659Y-16259642D02*
X4974135Y-16278689D01*
X4974135Y-16278689D02*
X4974135Y-16316785D01*
X4974135Y-16316785D02*
X4983659Y-16335832D01*
X4983659Y-16335832D02*
X4993182Y-16345356D01*
X4993182Y-16345356D02*
X5012230Y-16354880D01*
X5012230Y-16354880D02*
X5050325Y-16354880D01*
X5050325Y-16354880D02*
X5069373Y-16345356D01*
X5069373Y-16345356D02*
X5078897Y-16335832D01*
X5078897Y-16335832D02*
X5088420Y-16316785D01*
X5088420Y-16316785D02*
X5088420Y-16278689D01*
X5088420Y-16278689D02*
X5078897Y-16259642D01*
X5078897Y-16259642D02*
X5069373Y-16250118D01*
X5069373Y-16250118D02*
X5050325Y-16240594D01*
X5259849Y-16221546D02*
X5259849Y-16354880D01*
X5212230Y-16145356D02*
X5164611Y-16288213D01*
X5164611Y-16288213D02*
X5288420Y-16288213D01*
X5516992Y-16354880D02*
X5516992Y-16154880D01*
X5602706Y-16354880D02*
X5602706Y-16250118D01*
X5602706Y-16250118D02*
X5593182Y-16231070D01*
X5593182Y-16231070D02*
X5574135Y-16221546D01*
X5574135Y-16221546D02*
X5545563Y-16221546D01*
X5545563Y-16221546D02*
X5526516Y-16231070D01*
X5526516Y-16231070D02*
X5516992Y-16240594D01*
X5726516Y-16354880D02*
X5707468Y-16345356D01*
X5707468Y-16345356D02*
X5697944Y-16335832D01*
X5697944Y-16335832D02*
X5688420Y-16316785D01*
X5688420Y-16316785D02*
X5688420Y-16259642D01*
X5688420Y-16259642D02*
X5697944Y-16240594D01*
X5697944Y-16240594D02*
X5707468Y-16231070D01*
X5707468Y-16231070D02*
X5726516Y-16221546D01*
X5726516Y-16221546D02*
X5755087Y-16221546D01*
X5755087Y-16221546D02*
X5774135Y-16231070D01*
X5774135Y-16231070D02*
X5783659Y-16240594D01*
X5783659Y-16240594D02*
X5793182Y-16259642D01*
X5793182Y-16259642D02*
X5793182Y-16316785D01*
X5793182Y-16316785D02*
X5783659Y-16335832D01*
X5783659Y-16335832D02*
X5774135Y-16345356D01*
X5774135Y-16345356D02*
X5755087Y-16354880D01*
X5755087Y-16354880D02*
X5726516Y-16354880D01*
X5907468Y-16354880D02*
X5888420Y-16345356D01*
X5888420Y-16345356D02*
X5878897Y-16326308D01*
X5878897Y-16326308D02*
X5878897Y-16154880D01*
X6059849Y-16345356D02*
X6040801Y-16354880D01*
X6040801Y-16354880D02*
X6002706Y-16354880D01*
X6002706Y-16354880D02*
X5983659Y-16345356D01*
X5983659Y-16345356D02*
X5974135Y-16326308D01*
X5974135Y-16326308D02*
X5974135Y-16250118D01*
X5974135Y-16250118D02*
X5983659Y-16231070D01*
X5983659Y-16231070D02*
X6002706Y-16221546D01*
X6002706Y-16221546D02*
X6040801Y-16221546D01*
X6040801Y-16221546D02*
X6059849Y-16231070D01*
X6059849Y-16231070D02*
X6069373Y-16250118D01*
X6069373Y-16250118D02*
X6069373Y-16269166D01*
X6069373Y-16269166D02*
X5974135Y-16288213D01*
X6145563Y-16345356D02*
X6164611Y-16354880D01*
X6164611Y-16354880D02*
X6202706Y-16354880D01*
X6202706Y-16354880D02*
X6221754Y-16345356D01*
X6221754Y-16345356D02*
X6231278Y-16326308D01*
X6231278Y-16326308D02*
X6231278Y-16316785D01*
X6231278Y-16316785D02*
X6221754Y-16297737D01*
X6221754Y-16297737D02*
X6202706Y-16288213D01*
X6202706Y-16288213D02*
X6174135Y-16288213D01*
X6174135Y-16288213D02*
X6155087Y-16278689D01*
X6155087Y-16278689D02*
X6145563Y-16259642D01*
X6145563Y-16259642D02*
X6145563Y-16250118D01*
X6145563Y-16250118D02*
X6155087Y-16231070D01*
X6155087Y-16231070D02*
X6174135Y-16221546D01*
X6174135Y-16221546D02*
X6202706Y-16221546D01*
X6202706Y-16221546D02*
X6221754Y-16231070D01*
X6297944Y-16431070D02*
X6307468Y-16421546D01*
X6307468Y-16421546D02*
X6326516Y-16392975D01*
X6326516Y-16392975D02*
X6336040Y-16373927D01*
X6336040Y-16373927D02*
X6345563Y-16345356D01*
X6345563Y-16345356D02*
X6355087Y-16297737D01*
X6355087Y-16297737D02*
X6355087Y-16259642D01*
X6355087Y-16259642D02*
X6345563Y-16212023D01*
X6345563Y-16212023D02*
X6336040Y-16183451D01*
X6336040Y-16183451D02*
X6326516Y-16164404D01*
X6326516Y-16164404D02*
X6307468Y-16135832D01*
X6307468Y-16135832D02*
X6297944Y-16126308D01*
X6659849Y-16431070D02*
X6650325Y-16421546D01*
X6650325Y-16421546D02*
X6631278Y-16392975D01*
X6631278Y-16392975D02*
X6621754Y-16373927D01*
X6621754Y-16373927D02*
X6612230Y-16345356D01*
X6612230Y-16345356D02*
X6602706Y-16297737D01*
X6602706Y-16297737D02*
X6602706Y-16259642D01*
X6602706Y-16259642D02*
X6612230Y-16212023D01*
X6612230Y-16212023D02*
X6621754Y-16183451D01*
X6621754Y-16183451D02*
X6631278Y-16164404D01*
X6631278Y-16164404D02*
X6650325Y-16135832D01*
X6650325Y-16135832D02*
X6659849Y-16126308D01*
X6736040Y-16221546D02*
X6736040Y-16354880D01*
X6736040Y-16240594D02*
X6745563Y-16231070D01*
X6745563Y-16231070D02*
X6764611Y-16221546D01*
X6764611Y-16221546D02*
X6793182Y-16221546D01*
X6793182Y-16221546D02*
X6812230Y-16231070D01*
X6812230Y-16231070D02*
X6821754Y-16250118D01*
X6821754Y-16250118D02*
X6821754Y-16354880D01*
X6945563Y-16354880D02*
X6926516Y-16345356D01*
X6926516Y-16345356D02*
X6916992Y-16335832D01*
X6916992Y-16335832D02*
X6907468Y-16316785D01*
X6907468Y-16316785D02*
X6907468Y-16259642D01*
X6907468Y-16259642D02*
X6916992Y-16240594D01*
X6916992Y-16240594D02*
X6926516Y-16231070D01*
X6926516Y-16231070D02*
X6945563Y-16221546D01*
X6945563Y-16221546D02*
X6974135Y-16221546D01*
X6974135Y-16221546D02*
X6993182Y-16231070D01*
X6993182Y-16231070D02*
X7002706Y-16240594D01*
X7002706Y-16240594D02*
X7012230Y-16259642D01*
X7012230Y-16259642D02*
X7012230Y-16316785D01*
X7012230Y-16316785D02*
X7002706Y-16335832D01*
X7002706Y-16335832D02*
X6993182Y-16345356D01*
X6993182Y-16345356D02*
X6974135Y-16354880D01*
X6974135Y-16354880D02*
X6945563Y-16354880D01*
X7069373Y-16221546D02*
X7145563Y-16221546D01*
X7097944Y-16154880D02*
X7097944Y-16326308D01*
X7097944Y-16326308D02*
X7107468Y-16345356D01*
X7107468Y-16345356D02*
X7126516Y-16354880D01*
X7126516Y-16354880D02*
X7145563Y-16354880D01*
X7364611Y-16221546D02*
X7364611Y-16421546D01*
X7364611Y-16231070D02*
X7383659Y-16221546D01*
X7383659Y-16221546D02*
X7421754Y-16221546D01*
X7421754Y-16221546D02*
X7440802Y-16231070D01*
X7440802Y-16231070D02*
X7450325Y-16240594D01*
X7450325Y-16240594D02*
X7459849Y-16259642D01*
X7459849Y-16259642D02*
X7459849Y-16316785D01*
X7459849Y-16316785D02*
X7450325Y-16335832D01*
X7450325Y-16335832D02*
X7440802Y-16345356D01*
X7440802Y-16345356D02*
X7421754Y-16354880D01*
X7421754Y-16354880D02*
X7383659Y-16354880D01*
X7383659Y-16354880D02*
X7364611Y-16345356D01*
X7574135Y-16354880D02*
X7555087Y-16345356D01*
X7555087Y-16345356D02*
X7545563Y-16326308D01*
X7545563Y-16326308D02*
X7545563Y-16154880D01*
X7736040Y-16354880D02*
X7736040Y-16250118D01*
X7736040Y-16250118D02*
X7726516Y-16231070D01*
X7726516Y-16231070D02*
X7707468Y-16221546D01*
X7707468Y-16221546D02*
X7669373Y-16221546D01*
X7669373Y-16221546D02*
X7650325Y-16231070D01*
X7736040Y-16345356D02*
X7716992Y-16354880D01*
X7716992Y-16354880D02*
X7669373Y-16354880D01*
X7669373Y-16354880D02*
X7650325Y-16345356D01*
X7650325Y-16345356D02*
X7640802Y-16326308D01*
X7640802Y-16326308D02*
X7640802Y-16307261D01*
X7640802Y-16307261D02*
X7650325Y-16288213D01*
X7650325Y-16288213D02*
X7669373Y-16278689D01*
X7669373Y-16278689D02*
X7716992Y-16278689D01*
X7716992Y-16278689D02*
X7736040Y-16269166D01*
X7802706Y-16221546D02*
X7878897Y-16221546D01*
X7831278Y-16154880D02*
X7831278Y-16326308D01*
X7831278Y-16326308D02*
X7840802Y-16345356D01*
X7840802Y-16345356D02*
X7859849Y-16354880D01*
X7859849Y-16354880D02*
X7878897Y-16354880D01*
X8021754Y-16345356D02*
X8002706Y-16354880D01*
X8002706Y-16354880D02*
X7964611Y-16354880D01*
X7964611Y-16354880D02*
X7945563Y-16345356D01*
X7945563Y-16345356D02*
X7936040Y-16326308D01*
X7936040Y-16326308D02*
X7936040Y-16250118D01*
X7936040Y-16250118D02*
X7945563Y-16231070D01*
X7945563Y-16231070D02*
X7964611Y-16221546D01*
X7964611Y-16221546D02*
X8002706Y-16221546D01*
X8002706Y-16221546D02*
X8021754Y-16231070D01*
X8021754Y-16231070D02*
X8031278Y-16250118D01*
X8031278Y-16250118D02*
X8031278Y-16269166D01*
X8031278Y-16269166D02*
X7936040Y-16288213D01*
X8202706Y-16354880D02*
X8202706Y-16154880D01*
X8202706Y-16345356D02*
X8183659Y-16354880D01*
X8183659Y-16354880D02*
X8145563Y-16354880D01*
X8145563Y-16354880D02*
X8126516Y-16345356D01*
X8126516Y-16345356D02*
X8116992Y-16335832D01*
X8116992Y-16335832D02*
X8107468Y-16316785D01*
X8107468Y-16316785D02*
X8107468Y-16259642D01*
X8107468Y-16259642D02*
X8116992Y-16240594D01*
X8116992Y-16240594D02*
X8126516Y-16231070D01*
X8126516Y-16231070D02*
X8145563Y-16221546D01*
X8145563Y-16221546D02*
X8183659Y-16221546D01*
X8183659Y-16221546D02*
X8202706Y-16231070D01*
X8278897Y-16431070D02*
X8288421Y-16421546D01*
X8288421Y-16421546D02*
X8307468Y-16392975D01*
X8307468Y-16392975D02*
X8316992Y-16373927D01*
X8316992Y-16373927D02*
X8326516Y-16345356D01*
X8326516Y-16345356D02*
X8336040Y-16297737D01*
X8336040Y-16297737D02*
X8336040Y-16259642D01*
X8336040Y-16259642D02*
X8326516Y-16212023D01*
X8326516Y-16212023D02*
X8316992Y-16183451D01*
X8316992Y-16183451D02*
X8307468Y-16164404D01*
X8307468Y-16164404D02*
X8288421Y-16135832D01*
X8288421Y-16135832D02*
X8278897Y-16126308D01*
X1332405Y-16573396D02*
G75*
G02*
X1132405Y-16573396I-100000J0D01*
G01*
X1132405Y-16573396D02*
G75*
G02*
X1332405Y-16573396I100000J0D01*
G01*
X1688420Y-16464880D02*
X1593182Y-16464880D01*
X1593182Y-16464880D02*
X1583658Y-16560118D01*
X1583658Y-16560118D02*
X1593182Y-16550594D01*
X1593182Y-16550594D02*
X1612230Y-16541070D01*
X1612230Y-16541070D02*
X1659849Y-16541070D01*
X1659849Y-16541070D02*
X1678896Y-16550594D01*
X1678896Y-16550594D02*
X1688420Y-16560118D01*
X1688420Y-16560118D02*
X1697944Y-16579166D01*
X1697944Y-16579166D02*
X1697944Y-16626785D01*
X1697944Y-16626785D02*
X1688420Y-16645832D01*
X1688420Y-16645832D02*
X1678896Y-16655356D01*
X1678896Y-16655356D02*
X1659849Y-16664880D01*
X1659849Y-16664880D02*
X1612230Y-16664880D01*
X1612230Y-16664880D02*
X1593182Y-16655356D01*
X1593182Y-16655356D02*
X1583658Y-16645832D01*
X1783658Y-16645832D02*
X1793182Y-16655356D01*
X1793182Y-16655356D02*
X1783658Y-16664880D01*
X1783658Y-16664880D02*
X1774134Y-16655356D01*
X1774134Y-16655356D02*
X1783658Y-16645832D01*
X1783658Y-16645832D02*
X1783658Y-16664880D01*
X1916991Y-16464880D02*
X1936039Y-16464880D01*
X1936039Y-16464880D02*
X1955087Y-16474404D01*
X1955087Y-16474404D02*
X1964611Y-16483927D01*
X1964611Y-16483927D02*
X1974134Y-16502975D01*
X1974134Y-16502975D02*
X1983658Y-16541070D01*
X1983658Y-16541070D02*
X1983658Y-16588689D01*
X1983658Y-16588689D02*
X1974134Y-16626785D01*
X1974134Y-16626785D02*
X1964611Y-16645832D01*
X1964611Y-16645832D02*
X1955087Y-16655356D01*
X1955087Y-16655356D02*
X1936039Y-16664880D01*
X1936039Y-16664880D02*
X1916991Y-16664880D01*
X1916991Y-16664880D02*
X1897944Y-16655356D01*
X1897944Y-16655356D02*
X1888420Y-16645832D01*
X1888420Y-16645832D02*
X1878896Y-16626785D01*
X1878896Y-16626785D02*
X1869372Y-16588689D01*
X1869372Y-16588689D02*
X1869372Y-16541070D01*
X1869372Y-16541070D02*
X1878896Y-16502975D01*
X1878896Y-16502975D02*
X1888420Y-16483927D01*
X1888420Y-16483927D02*
X1897944Y-16474404D01*
X1897944Y-16474404D02*
X1916991Y-16464880D01*
X2164611Y-16464880D02*
X2069372Y-16464880D01*
X2069372Y-16464880D02*
X2059849Y-16560118D01*
X2059849Y-16560118D02*
X2069372Y-16550594D01*
X2069372Y-16550594D02*
X2088420Y-16541070D01*
X2088420Y-16541070D02*
X2136039Y-16541070D01*
X2136039Y-16541070D02*
X2155087Y-16550594D01*
X2155087Y-16550594D02*
X2164611Y-16560118D01*
X2164611Y-16560118D02*
X2174134Y-16579166D01*
X2174134Y-16579166D02*
X2174134Y-16626785D01*
X2174134Y-16626785D02*
X2164611Y-16645832D01*
X2164611Y-16645832D02*
X2155087Y-16655356D01*
X2155087Y-16655356D02*
X2136039Y-16664880D01*
X2136039Y-16664880D02*
X2088420Y-16664880D01*
X2088420Y-16664880D02*
X2069372Y-16655356D01*
X2069372Y-16655356D02*
X2059849Y-16645832D01*
X2297944Y-16464880D02*
X2316992Y-16464880D01*
X2316992Y-16464880D02*
X2336039Y-16474404D01*
X2336039Y-16474404D02*
X2345563Y-16483927D01*
X2345563Y-16483927D02*
X2355087Y-16502975D01*
X2355087Y-16502975D02*
X2364611Y-16541070D01*
X2364611Y-16541070D02*
X2364611Y-16588689D01*
X2364611Y-16588689D02*
X2355087Y-16626785D01*
X2355087Y-16626785D02*
X2345563Y-16645832D01*
X2345563Y-16645832D02*
X2336039Y-16655356D01*
X2336039Y-16655356D02*
X2316992Y-16664880D01*
X2316992Y-16664880D02*
X2297944Y-16664880D01*
X2297944Y-16664880D02*
X2278896Y-16655356D01*
X2278896Y-16655356D02*
X2269373Y-16645832D01*
X2269373Y-16645832D02*
X2259849Y-16626785D01*
X2259849Y-16626785D02*
X2250325Y-16588689D01*
X2250325Y-16588689D02*
X2250325Y-16541070D01*
X2250325Y-16541070D02*
X2259849Y-16502975D01*
X2259849Y-16502975D02*
X2269373Y-16483927D01*
X2269373Y-16483927D02*
X2278896Y-16474404D01*
X2278896Y-16474404D02*
X2297944Y-16464880D01*
X2450325Y-16664880D02*
X2450325Y-16531546D01*
X2450325Y-16550594D02*
X2459849Y-16541070D01*
X2459849Y-16541070D02*
X2478896Y-16531546D01*
X2478896Y-16531546D02*
X2507468Y-16531546D01*
X2507468Y-16531546D02*
X2526515Y-16541070D01*
X2526515Y-16541070D02*
X2536039Y-16560118D01*
X2536039Y-16560118D02*
X2536039Y-16664880D01*
X2536039Y-16560118D02*
X2545563Y-16541070D01*
X2545563Y-16541070D02*
X2564611Y-16531546D01*
X2564611Y-16531546D02*
X2593182Y-16531546D01*
X2593182Y-16531546D02*
X2612230Y-16541070D01*
X2612230Y-16541070D02*
X2621754Y-16560118D01*
X2621754Y-16560118D02*
X2621754Y-16664880D01*
X2716992Y-16664880D02*
X2716992Y-16531546D01*
X2716992Y-16550594D02*
X2726515Y-16541070D01*
X2726515Y-16541070D02*
X2745563Y-16531546D01*
X2745563Y-16531546D02*
X2774135Y-16531546D01*
X2774135Y-16531546D02*
X2793182Y-16541070D01*
X2793182Y-16541070D02*
X2802706Y-16560118D01*
X2802706Y-16560118D02*
X2802706Y-16664880D01*
X2802706Y-16560118D02*
X2812230Y-16541070D01*
X2812230Y-16541070D02*
X2831277Y-16531546D01*
X2831277Y-16531546D02*
X2859849Y-16531546D01*
X2859849Y-16531546D02*
X2878896Y-16541070D01*
X2878896Y-16541070D02*
X2888420Y-16560118D01*
X2888420Y-16560118D02*
X2888420Y-16664880D01*
X3278896Y-16455356D02*
X3107468Y-16712499D01*
X3536039Y-16464880D02*
X3555087Y-16464880D01*
X3555087Y-16464880D02*
X3574135Y-16474404D01*
X3574135Y-16474404D02*
X3583658Y-16483927D01*
X3583658Y-16483927D02*
X3593182Y-16502975D01*
X3593182Y-16502975D02*
X3602706Y-16541070D01*
X3602706Y-16541070D02*
X3602706Y-16588689D01*
X3602706Y-16588689D02*
X3593182Y-16626785D01*
X3593182Y-16626785D02*
X3583658Y-16645832D01*
X3583658Y-16645832D02*
X3574135Y-16655356D01*
X3574135Y-16655356D02*
X3555087Y-16664880D01*
X3555087Y-16664880D02*
X3536039Y-16664880D01*
X3536039Y-16664880D02*
X3516992Y-16655356D01*
X3516992Y-16655356D02*
X3507468Y-16645832D01*
X3507468Y-16645832D02*
X3497944Y-16626785D01*
X3497944Y-16626785D02*
X3488420Y-16588689D01*
X3488420Y-16588689D02*
X3488420Y-16541070D01*
X3488420Y-16541070D02*
X3497944Y-16502975D01*
X3497944Y-16502975D02*
X3507468Y-16483927D01*
X3507468Y-16483927D02*
X3516992Y-16474404D01*
X3516992Y-16474404D02*
X3536039Y-16464880D01*
X3688420Y-16645832D02*
X3697944Y-16655356D01*
X3697944Y-16655356D02*
X3688420Y-16664880D01*
X3688420Y-16664880D02*
X3678896Y-16655356D01*
X3678896Y-16655356D02*
X3688420Y-16645832D01*
X3688420Y-16645832D02*
X3688420Y-16664880D01*
X3888420Y-16664880D02*
X3774135Y-16664880D01*
X3831277Y-16664880D02*
X3831277Y-16464880D01*
X3831277Y-16464880D02*
X3812230Y-16493451D01*
X3812230Y-16493451D02*
X3793182Y-16512499D01*
X3793182Y-16512499D02*
X3774135Y-16522023D01*
X3983658Y-16664880D02*
X4021754Y-16664880D01*
X4021754Y-16664880D02*
X4040801Y-16655356D01*
X4040801Y-16655356D02*
X4050325Y-16645832D01*
X4050325Y-16645832D02*
X4069373Y-16617261D01*
X4069373Y-16617261D02*
X4078896Y-16579166D01*
X4078896Y-16579166D02*
X4078896Y-16502975D01*
X4078896Y-16502975D02*
X4069373Y-16483927D01*
X4069373Y-16483927D02*
X4059849Y-16474404D01*
X4059849Y-16474404D02*
X4040801Y-16464880D01*
X4040801Y-16464880D02*
X4002706Y-16464880D01*
X4002706Y-16464880D02*
X3983658Y-16474404D01*
X3983658Y-16474404D02*
X3974135Y-16483927D01*
X3974135Y-16483927D02*
X3964611Y-16502975D01*
X3964611Y-16502975D02*
X3964611Y-16550594D01*
X3964611Y-16550594D02*
X3974135Y-16569642D01*
X3974135Y-16569642D02*
X3983658Y-16579166D01*
X3983658Y-16579166D02*
X4002706Y-16588689D01*
X4002706Y-16588689D02*
X4040801Y-16588689D01*
X4040801Y-16588689D02*
X4059849Y-16579166D01*
X4059849Y-16579166D02*
X4069373Y-16569642D01*
X4069373Y-16569642D02*
X4078896Y-16550594D01*
X4193182Y-16550594D02*
X4174135Y-16541070D01*
X4174135Y-16541070D02*
X4164611Y-16531546D01*
X4164611Y-16531546D02*
X4155087Y-16512499D01*
X4155087Y-16512499D02*
X4155087Y-16502975D01*
X4155087Y-16502975D02*
X4164611Y-16483927D01*
X4164611Y-16483927D02*
X4174135Y-16474404D01*
X4174135Y-16474404D02*
X4193182Y-16464880D01*
X4193182Y-16464880D02*
X4231278Y-16464880D01*
X4231278Y-16464880D02*
X4250325Y-16474404D01*
X4250325Y-16474404D02*
X4259849Y-16483927D01*
X4259849Y-16483927D02*
X4269373Y-16502975D01*
X4269373Y-16502975D02*
X4269373Y-16512499D01*
X4269373Y-16512499D02*
X4259849Y-16531546D01*
X4259849Y-16531546D02*
X4250325Y-16541070D01*
X4250325Y-16541070D02*
X4231278Y-16550594D01*
X4231278Y-16550594D02*
X4193182Y-16550594D01*
X4193182Y-16550594D02*
X4174135Y-16560118D01*
X4174135Y-16560118D02*
X4164611Y-16569642D01*
X4164611Y-16569642D02*
X4155087Y-16588689D01*
X4155087Y-16588689D02*
X4155087Y-16626785D01*
X4155087Y-16626785D02*
X4164611Y-16645832D01*
X4164611Y-16645832D02*
X4174135Y-16655356D01*
X4174135Y-16655356D02*
X4193182Y-16664880D01*
X4193182Y-16664880D02*
X4231278Y-16664880D01*
X4231278Y-16664880D02*
X4250325Y-16655356D01*
X4250325Y-16655356D02*
X4259849Y-16645832D01*
X4259849Y-16645832D02*
X4269373Y-16626785D01*
X4269373Y-16626785D02*
X4269373Y-16588689D01*
X4269373Y-16588689D02*
X4259849Y-16569642D01*
X4259849Y-16569642D02*
X4250325Y-16560118D01*
X4250325Y-16560118D02*
X4231278Y-16550594D01*
X4383658Y-16550594D02*
X4364611Y-16541070D01*
X4364611Y-16541070D02*
X4355087Y-16531546D01*
X4355087Y-16531546D02*
X4345563Y-16512499D01*
X4345563Y-16512499D02*
X4345563Y-16502975D01*
X4345563Y-16502975D02*
X4355087Y-16483927D01*
X4355087Y-16483927D02*
X4364611Y-16474404D01*
X4364611Y-16474404D02*
X4383658Y-16464880D01*
X4383658Y-16464880D02*
X4421754Y-16464880D01*
X4421754Y-16464880D02*
X4440801Y-16474404D01*
X4440801Y-16474404D02*
X4450325Y-16483927D01*
X4450325Y-16483927D02*
X4459849Y-16502975D01*
X4459849Y-16502975D02*
X4459849Y-16512499D01*
X4459849Y-16512499D02*
X4450325Y-16531546D01*
X4450325Y-16531546D02*
X4440801Y-16541070D01*
X4440801Y-16541070D02*
X4421754Y-16550594D01*
X4421754Y-16550594D02*
X4383658Y-16550594D01*
X4383658Y-16550594D02*
X4364611Y-16560118D01*
X4364611Y-16560118D02*
X4355087Y-16569642D01*
X4355087Y-16569642D02*
X4345563Y-16588689D01*
X4345563Y-16588689D02*
X4345563Y-16626785D01*
X4345563Y-16626785D02*
X4355087Y-16645832D01*
X4355087Y-16645832D02*
X4364611Y-16655356D01*
X4364611Y-16655356D02*
X4383658Y-16664880D01*
X4383658Y-16664880D02*
X4421754Y-16664880D01*
X4421754Y-16664880D02*
X4440801Y-16655356D01*
X4440801Y-16655356D02*
X4450325Y-16645832D01*
X4450325Y-16645832D02*
X4459849Y-16626785D01*
X4459849Y-16626785D02*
X4459849Y-16588689D01*
X4459849Y-16588689D02*
X4450325Y-16569642D01*
X4450325Y-16569642D02*
X4440801Y-16560118D01*
X4440801Y-16560118D02*
X4421754Y-16550594D01*
X4536039Y-16464880D02*
X4536039Y-16502975D01*
X4612230Y-16464880D02*
X4612230Y-16502975D01*
X4907468Y-16741070D02*
X4897944Y-16731546D01*
X4897944Y-16731546D02*
X4878897Y-16702975D01*
X4878897Y-16702975D02*
X4869373Y-16683927D01*
X4869373Y-16683927D02*
X4859849Y-16655356D01*
X4859849Y-16655356D02*
X4850325Y-16607737D01*
X4850325Y-16607737D02*
X4850325Y-16569642D01*
X4850325Y-16569642D02*
X4859849Y-16522023D01*
X4859849Y-16522023D02*
X4869373Y-16493451D01*
X4869373Y-16493451D02*
X4878897Y-16474404D01*
X4878897Y-16474404D02*
X4897944Y-16445832D01*
X4897944Y-16445832D02*
X4907468Y-16436308D01*
X5069373Y-16531546D02*
X5069373Y-16664880D01*
X5021754Y-16455356D02*
X4974135Y-16598213D01*
X4974135Y-16598213D02*
X5097944Y-16598213D01*
X5164611Y-16483927D02*
X5174135Y-16474404D01*
X5174135Y-16474404D02*
X5193182Y-16464880D01*
X5193182Y-16464880D02*
X5240801Y-16464880D01*
X5240801Y-16464880D02*
X5259849Y-16474404D01*
X5259849Y-16474404D02*
X5269373Y-16483927D01*
X5269373Y-16483927D02*
X5278897Y-16502975D01*
X5278897Y-16502975D02*
X5278897Y-16522023D01*
X5278897Y-16522023D02*
X5269373Y-16550594D01*
X5269373Y-16550594D02*
X5155087Y-16664880D01*
X5155087Y-16664880D02*
X5278897Y-16664880D01*
X5516992Y-16664880D02*
X5516992Y-16464880D01*
X5602706Y-16664880D02*
X5602706Y-16560118D01*
X5602706Y-16560118D02*
X5593182Y-16541070D01*
X5593182Y-16541070D02*
X5574135Y-16531546D01*
X5574135Y-16531546D02*
X5545563Y-16531546D01*
X5545563Y-16531546D02*
X5526516Y-16541070D01*
X5526516Y-16541070D02*
X5516992Y-16550594D01*
X5726516Y-16664880D02*
X5707468Y-16655356D01*
X5707468Y-16655356D02*
X5697944Y-16645832D01*
X5697944Y-16645832D02*
X5688420Y-16626785D01*
X5688420Y-16626785D02*
X5688420Y-16569642D01*
X5688420Y-16569642D02*
X5697944Y-16550594D01*
X5697944Y-16550594D02*
X5707468Y-16541070D01*
X5707468Y-16541070D02*
X5726516Y-16531546D01*
X5726516Y-16531546D02*
X5755087Y-16531546D01*
X5755087Y-16531546D02*
X5774135Y-16541070D01*
X5774135Y-16541070D02*
X5783659Y-16550594D01*
X5783659Y-16550594D02*
X5793182Y-16569642D01*
X5793182Y-16569642D02*
X5793182Y-16626785D01*
X5793182Y-16626785D02*
X5783659Y-16645832D01*
X5783659Y-16645832D02*
X5774135Y-16655356D01*
X5774135Y-16655356D02*
X5755087Y-16664880D01*
X5755087Y-16664880D02*
X5726516Y-16664880D01*
X5907468Y-16664880D02*
X5888420Y-16655356D01*
X5888420Y-16655356D02*
X5878897Y-16636308D01*
X5878897Y-16636308D02*
X5878897Y-16464880D01*
X6059849Y-16655356D02*
X6040801Y-16664880D01*
X6040801Y-16664880D02*
X6002706Y-16664880D01*
X6002706Y-16664880D02*
X5983659Y-16655356D01*
X5983659Y-16655356D02*
X5974135Y-16636308D01*
X5974135Y-16636308D02*
X5974135Y-16560118D01*
X5974135Y-16560118D02*
X5983659Y-16541070D01*
X5983659Y-16541070D02*
X6002706Y-16531546D01*
X6002706Y-16531546D02*
X6040801Y-16531546D01*
X6040801Y-16531546D02*
X6059849Y-16541070D01*
X6059849Y-16541070D02*
X6069373Y-16560118D01*
X6069373Y-16560118D02*
X6069373Y-16579166D01*
X6069373Y-16579166D02*
X5974135Y-16598213D01*
X6145563Y-16655356D02*
X6164611Y-16664880D01*
X6164611Y-16664880D02*
X6202706Y-16664880D01*
X6202706Y-16664880D02*
X6221754Y-16655356D01*
X6221754Y-16655356D02*
X6231278Y-16636308D01*
X6231278Y-16636308D02*
X6231278Y-16626785D01*
X6231278Y-16626785D02*
X6221754Y-16607737D01*
X6221754Y-16607737D02*
X6202706Y-16598213D01*
X6202706Y-16598213D02*
X6174135Y-16598213D01*
X6174135Y-16598213D02*
X6155087Y-16588689D01*
X6155087Y-16588689D02*
X6145563Y-16569642D01*
X6145563Y-16569642D02*
X6145563Y-16560118D01*
X6145563Y-16560118D02*
X6155087Y-16541070D01*
X6155087Y-16541070D02*
X6174135Y-16531546D01*
X6174135Y-16531546D02*
X6202706Y-16531546D01*
X6202706Y-16531546D02*
X6221754Y-16541070D01*
X6297944Y-16741070D02*
X6307468Y-16731546D01*
X6307468Y-16731546D02*
X6326516Y-16702975D01*
X6326516Y-16702975D02*
X6336040Y-16683927D01*
X6336040Y-16683927D02*
X6345563Y-16655356D01*
X6345563Y-16655356D02*
X6355087Y-16607737D01*
X6355087Y-16607737D02*
X6355087Y-16569642D01*
X6355087Y-16569642D02*
X6345563Y-16522023D01*
X6345563Y-16522023D02*
X6336040Y-16493451D01*
X6336040Y-16493451D02*
X6326516Y-16474404D01*
X6326516Y-16474404D02*
X6307468Y-16445832D01*
X6307468Y-16445832D02*
X6297944Y-16436308D01*
X6659849Y-16741070D02*
X6650325Y-16731546D01*
X6650325Y-16731546D02*
X6631278Y-16702975D01*
X6631278Y-16702975D02*
X6621754Y-16683927D01*
X6621754Y-16683927D02*
X6612230Y-16655356D01*
X6612230Y-16655356D02*
X6602706Y-16607737D01*
X6602706Y-16607737D02*
X6602706Y-16569642D01*
X6602706Y-16569642D02*
X6612230Y-16522023D01*
X6612230Y-16522023D02*
X6621754Y-16493451D01*
X6621754Y-16493451D02*
X6631278Y-16474404D01*
X6631278Y-16474404D02*
X6650325Y-16445832D01*
X6650325Y-16445832D02*
X6659849Y-16436308D01*
X6736040Y-16531546D02*
X6736040Y-16664880D01*
X6736040Y-16550594D02*
X6745563Y-16541070D01*
X6745563Y-16541070D02*
X6764611Y-16531546D01*
X6764611Y-16531546D02*
X6793182Y-16531546D01*
X6793182Y-16531546D02*
X6812230Y-16541070D01*
X6812230Y-16541070D02*
X6821754Y-16560118D01*
X6821754Y-16560118D02*
X6821754Y-16664880D01*
X6945563Y-16664880D02*
X6926516Y-16655356D01*
X6926516Y-16655356D02*
X6916992Y-16645832D01*
X6916992Y-16645832D02*
X6907468Y-16626785D01*
X6907468Y-16626785D02*
X6907468Y-16569642D01*
X6907468Y-16569642D02*
X6916992Y-16550594D01*
X6916992Y-16550594D02*
X6926516Y-16541070D01*
X6926516Y-16541070D02*
X6945563Y-16531546D01*
X6945563Y-16531546D02*
X6974135Y-16531546D01*
X6974135Y-16531546D02*
X6993182Y-16541070D01*
X6993182Y-16541070D02*
X7002706Y-16550594D01*
X7002706Y-16550594D02*
X7012230Y-16569642D01*
X7012230Y-16569642D02*
X7012230Y-16626785D01*
X7012230Y-16626785D02*
X7002706Y-16645832D01*
X7002706Y-16645832D02*
X6993182Y-16655356D01*
X6993182Y-16655356D02*
X6974135Y-16664880D01*
X6974135Y-16664880D02*
X6945563Y-16664880D01*
X7069373Y-16531546D02*
X7145563Y-16531546D01*
X7097944Y-16464880D02*
X7097944Y-16636308D01*
X7097944Y-16636308D02*
X7107468Y-16655356D01*
X7107468Y-16655356D02*
X7126516Y-16664880D01*
X7126516Y-16664880D02*
X7145563Y-16664880D01*
X7364611Y-16531546D02*
X7364611Y-16731546D01*
X7364611Y-16541070D02*
X7383659Y-16531546D01*
X7383659Y-16531546D02*
X7421754Y-16531546D01*
X7421754Y-16531546D02*
X7440802Y-16541070D01*
X7440802Y-16541070D02*
X7450325Y-16550594D01*
X7450325Y-16550594D02*
X7459849Y-16569642D01*
X7459849Y-16569642D02*
X7459849Y-16626785D01*
X7459849Y-16626785D02*
X7450325Y-16645832D01*
X7450325Y-16645832D02*
X7440802Y-16655356D01*
X7440802Y-16655356D02*
X7421754Y-16664880D01*
X7421754Y-16664880D02*
X7383659Y-16664880D01*
X7383659Y-16664880D02*
X7364611Y-16655356D01*
X7574135Y-16664880D02*
X7555087Y-16655356D01*
X7555087Y-16655356D02*
X7545563Y-16636308D01*
X7545563Y-16636308D02*
X7545563Y-16464880D01*
X7736040Y-16664880D02*
X7736040Y-16560118D01*
X7736040Y-16560118D02*
X7726516Y-16541070D01*
X7726516Y-16541070D02*
X7707468Y-16531546D01*
X7707468Y-16531546D02*
X7669373Y-16531546D01*
X7669373Y-16531546D02*
X7650325Y-16541070D01*
X7736040Y-16655356D02*
X7716992Y-16664880D01*
X7716992Y-16664880D02*
X7669373Y-16664880D01*
X7669373Y-16664880D02*
X7650325Y-16655356D01*
X7650325Y-16655356D02*
X7640802Y-16636308D01*
X7640802Y-16636308D02*
X7640802Y-16617261D01*
X7640802Y-16617261D02*
X7650325Y-16598213D01*
X7650325Y-16598213D02*
X7669373Y-16588689D01*
X7669373Y-16588689D02*
X7716992Y-16588689D01*
X7716992Y-16588689D02*
X7736040Y-16579166D01*
X7802706Y-16531546D02*
X7878897Y-16531546D01*
X7831278Y-16464880D02*
X7831278Y-16636308D01*
X7831278Y-16636308D02*
X7840802Y-16655356D01*
X7840802Y-16655356D02*
X7859849Y-16664880D01*
X7859849Y-16664880D02*
X7878897Y-16664880D01*
X8021754Y-16655356D02*
X8002706Y-16664880D01*
X8002706Y-16664880D02*
X7964611Y-16664880D01*
X7964611Y-16664880D02*
X7945563Y-16655356D01*
X7945563Y-16655356D02*
X7936040Y-16636308D01*
X7936040Y-16636308D02*
X7936040Y-16560118D01*
X7936040Y-16560118D02*
X7945563Y-16541070D01*
X7945563Y-16541070D02*
X7964611Y-16531546D01*
X7964611Y-16531546D02*
X8002706Y-16531546D01*
X8002706Y-16531546D02*
X8021754Y-16541070D01*
X8021754Y-16541070D02*
X8031278Y-16560118D01*
X8031278Y-16560118D02*
X8031278Y-16579166D01*
X8031278Y-16579166D02*
X7936040Y-16598213D01*
X8202706Y-16664880D02*
X8202706Y-16464880D01*
X8202706Y-16655356D02*
X8183659Y-16664880D01*
X8183659Y-16664880D02*
X8145563Y-16664880D01*
X8145563Y-16664880D02*
X8126516Y-16655356D01*
X8126516Y-16655356D02*
X8116992Y-16645832D01*
X8116992Y-16645832D02*
X8107468Y-16626785D01*
X8107468Y-16626785D02*
X8107468Y-16569642D01*
X8107468Y-16569642D02*
X8116992Y-16550594D01*
X8116992Y-16550594D02*
X8126516Y-16541070D01*
X8126516Y-16541070D02*
X8145563Y-16531546D01*
X8145563Y-16531546D02*
X8183659Y-16531546D01*
X8183659Y-16531546D02*
X8202706Y-16541070D01*
X8278897Y-16741070D02*
X8288421Y-16731546D01*
X8288421Y-16731546D02*
X8307468Y-16702975D01*
X8307468Y-16702975D02*
X8316992Y-16683927D01*
X8316992Y-16683927D02*
X8326516Y-16655356D01*
X8326516Y-16655356D02*
X8336040Y-16607737D01*
X8336040Y-16607737D02*
X8336040Y-16569642D01*
X8336040Y-16569642D02*
X8326516Y-16522023D01*
X8326516Y-16522023D02*
X8316992Y-16493451D01*
X8316992Y-16493451D02*
X8307468Y-16474404D01*
X8307468Y-16474404D02*
X8288421Y-16445832D01*
X8288421Y-16445832D02*
X8278897Y-16436308D01*
M02*
